G04 #@! TF.GenerationSoftware,KiCad,Pcbnew,(5.1.4-6-g300381ba4)-1*
G04 #@! TF.CreationDate,2019-08-09T15:04:20+01:00*
G04 #@! TF.ProjectId,projects_are_a_bad_idea,70726f6a-6563-4747-935f-6172655f615f,rev?*
G04 #@! TF.SameCoordinates,Original*
G04 #@! TF.FileFunction,Legend,Bot*
G04 #@! TF.FilePolarity,Positive*
%FSLAX46Y46*%
G04 Gerber Fmt 4.6, Leading zero omitted, Abs format (unit mm)*
G04 Created by KiCad (PCBNEW (5.1.4-6-g300381ba4)-1) date 2019-08-09 15:04:20*
%MOMM*%
%LPD*%
G04 APERTURE LIST*
%ADD10C,0.050000*%
%ADD11C,0.280000*%
%ADD12C,0.100000*%
%ADD13C,0.150000*%
G04 APERTURE END LIST*
D10*
X130677142Y-86495714D02*
X130677142Y-86195714D01*
X130548571Y-86224285D02*
X130534285Y-86210000D01*
X130505714Y-86195714D01*
X130434285Y-86195714D01*
X130405714Y-86210000D01*
X130391428Y-86224285D01*
X130377142Y-86252857D01*
X130377142Y-86281428D01*
X130391428Y-86324285D01*
X130562857Y-86495714D01*
X130377142Y-86495714D01*
X130262857Y-86481428D02*
X130220000Y-86495714D01*
X130148571Y-86495714D01*
X130120000Y-86481428D01*
X130105714Y-86467142D01*
X130091428Y-86438571D01*
X130091428Y-86410000D01*
X130105714Y-86381428D01*
X130120000Y-86367142D01*
X130148571Y-86352857D01*
X130205714Y-86338571D01*
X130234285Y-86324285D01*
X130248571Y-86310000D01*
X130262857Y-86281428D01*
X130262857Y-86252857D01*
X130248571Y-86224285D01*
X130234285Y-86210000D01*
X130205714Y-86195714D01*
X130134285Y-86195714D01*
X130091428Y-86210000D01*
X129734285Y-86495714D02*
X129734285Y-86195714D01*
X129634285Y-86410000D01*
X129534285Y-86195714D01*
X129534285Y-86495714D01*
X129391428Y-86338571D02*
X129291428Y-86338571D01*
X129248571Y-86495714D02*
X129391428Y-86495714D01*
X129391428Y-86195714D01*
X129248571Y-86195714D01*
X129120000Y-86495714D02*
X129120000Y-86195714D01*
X129020000Y-86410000D01*
X128920000Y-86195714D01*
X128920000Y-86495714D01*
X128791428Y-86481428D02*
X128748571Y-86495714D01*
X128677142Y-86495714D01*
X128648571Y-86481428D01*
X128634285Y-86467142D01*
X128620000Y-86438571D01*
X128620000Y-86410000D01*
X128634285Y-86381428D01*
X128648571Y-86367142D01*
X128677142Y-86352857D01*
X128734285Y-86338571D01*
X128762857Y-86324285D01*
X128777142Y-86310000D01*
X128791428Y-86281428D01*
X128791428Y-86252857D01*
X128777142Y-86224285D01*
X128762857Y-86210000D01*
X128734285Y-86195714D01*
X128662857Y-86195714D01*
X128620000Y-86210000D01*
X128262857Y-86495714D02*
X128262857Y-86195714D01*
X128162857Y-86410000D01*
X128062857Y-86195714D01*
X128062857Y-86495714D01*
X127920000Y-86495714D02*
X127920000Y-86295714D01*
X127920000Y-86195714D02*
X127934285Y-86210000D01*
X127920000Y-86224285D01*
X127905714Y-86210000D01*
X127920000Y-86195714D01*
X127920000Y-86224285D01*
X127648571Y-86481428D02*
X127677142Y-86495714D01*
X127734285Y-86495714D01*
X127762857Y-86481428D01*
X127777142Y-86467142D01*
X127791428Y-86438571D01*
X127791428Y-86352857D01*
X127777142Y-86324285D01*
X127762857Y-86310000D01*
X127734285Y-86295714D01*
X127677142Y-86295714D01*
X127648571Y-86310000D01*
X127520000Y-86495714D02*
X127520000Y-86295714D01*
X127520000Y-86352857D02*
X127505714Y-86324285D01*
X127491428Y-86310000D01*
X127462857Y-86295714D01*
X127434285Y-86295714D01*
X127291428Y-86495714D02*
X127320000Y-86481428D01*
X127334285Y-86467142D01*
X127348571Y-86438571D01*
X127348571Y-86352857D01*
X127334285Y-86324285D01*
X127320000Y-86310000D01*
X127291428Y-86295714D01*
X127248571Y-86295714D01*
X127220000Y-86310000D01*
X127205714Y-86324285D01*
X127191428Y-86352857D01*
X127191428Y-86438571D01*
X127205714Y-86467142D01*
X127220000Y-86481428D01*
X127248571Y-86495714D01*
X127291428Y-86495714D01*
X127062857Y-86295714D02*
X127062857Y-86595714D01*
X127062857Y-86310000D02*
X127034285Y-86295714D01*
X126977142Y-86295714D01*
X126948571Y-86310000D01*
X126934285Y-86324285D01*
X126920000Y-86352857D01*
X126920000Y-86438571D01*
X126934285Y-86467142D01*
X126948571Y-86481428D01*
X126977142Y-86495714D01*
X127034285Y-86495714D01*
X127062857Y-86481428D01*
X126791428Y-86495714D02*
X126791428Y-86195714D01*
X126662857Y-86495714D02*
X126662857Y-86338571D01*
X126677142Y-86310000D01*
X126705714Y-86295714D01*
X126748571Y-86295714D01*
X126777142Y-86310000D01*
X126791428Y-86324285D01*
X126477142Y-86495714D02*
X126505714Y-86481428D01*
X126520000Y-86467142D01*
X126534285Y-86438571D01*
X126534285Y-86352857D01*
X126520000Y-86324285D01*
X126505714Y-86310000D01*
X126477142Y-86295714D01*
X126434285Y-86295714D01*
X126405714Y-86310000D01*
X126391428Y-86324285D01*
X126377142Y-86352857D01*
X126377142Y-86438571D01*
X126391428Y-86467142D01*
X126405714Y-86481428D01*
X126434285Y-86495714D01*
X126477142Y-86495714D01*
X126248571Y-86295714D02*
X126248571Y-86495714D01*
X126248571Y-86324285D02*
X126234285Y-86310000D01*
X126205714Y-86295714D01*
X126162857Y-86295714D01*
X126134285Y-86310000D01*
X126120000Y-86338571D01*
X126120000Y-86495714D01*
X125862857Y-86481428D02*
X125891428Y-86495714D01*
X125948571Y-86495714D01*
X125977142Y-86481428D01*
X125991428Y-86452857D01*
X125991428Y-86338571D01*
X125977142Y-86310000D01*
X125948571Y-86295714D01*
X125891428Y-86295714D01*
X125862857Y-86310000D01*
X125848571Y-86338571D01*
X125848571Y-86367142D01*
X125991428Y-86395714D01*
X130543857Y-79246428D02*
X130501000Y-79260714D01*
X130429571Y-79260714D01*
X130401000Y-79246428D01*
X130386714Y-79232142D01*
X130372428Y-79203571D01*
X130372428Y-79175000D01*
X130386714Y-79146428D01*
X130401000Y-79132142D01*
X130429571Y-79117857D01*
X130486714Y-79103571D01*
X130515285Y-79089285D01*
X130529571Y-79075000D01*
X130543857Y-79046428D01*
X130543857Y-79017857D01*
X130529571Y-78989285D01*
X130515285Y-78975000D01*
X130486714Y-78960714D01*
X130415285Y-78960714D01*
X130372428Y-78975000D01*
X130243857Y-79260714D02*
X130243857Y-78960714D01*
X130129571Y-78960714D01*
X130101000Y-78975000D01*
X130086714Y-78989285D01*
X130072428Y-79017857D01*
X130072428Y-79060714D01*
X130086714Y-79089285D01*
X130101000Y-79103571D01*
X130129571Y-79117857D01*
X130243857Y-79117857D01*
X129943857Y-79260714D02*
X129943857Y-78960714D01*
X129943857Y-79103571D02*
X129772428Y-79103571D01*
X129772428Y-79260714D02*
X129772428Y-78960714D01*
X129572428Y-78960714D02*
X129543857Y-78960714D01*
X129515285Y-78975000D01*
X129501000Y-78989285D01*
X129486714Y-79017857D01*
X129472428Y-79075000D01*
X129472428Y-79146428D01*
X129486714Y-79203571D01*
X129501000Y-79232142D01*
X129515285Y-79246428D01*
X129543857Y-79260714D01*
X129572428Y-79260714D01*
X129601000Y-79246428D01*
X129615285Y-79232142D01*
X129629571Y-79203571D01*
X129643857Y-79146428D01*
X129643857Y-79075000D01*
X129629571Y-79017857D01*
X129615285Y-78989285D01*
X129601000Y-78975000D01*
X129572428Y-78960714D01*
X129215285Y-78960714D02*
X129272428Y-78960714D01*
X129301000Y-78975000D01*
X129315285Y-78989285D01*
X129343857Y-79032142D01*
X129358142Y-79089285D01*
X129358142Y-79203571D01*
X129343857Y-79232142D01*
X129329571Y-79246428D01*
X129301000Y-79260714D01*
X129243857Y-79260714D01*
X129215285Y-79246428D01*
X129201000Y-79232142D01*
X129186714Y-79203571D01*
X129186714Y-79132142D01*
X129201000Y-79103571D01*
X129215285Y-79089285D01*
X129243857Y-79075000D01*
X129301000Y-79075000D01*
X129329571Y-79089285D01*
X129343857Y-79103571D01*
X129358142Y-79132142D01*
X128929571Y-79060714D02*
X128929571Y-79260714D01*
X129001000Y-78946428D02*
X129072428Y-79160714D01*
X128886714Y-79160714D01*
X128629571Y-78960714D02*
X128772428Y-78960714D01*
X128786714Y-79103571D01*
X128772428Y-79089285D01*
X128743857Y-79075000D01*
X128672428Y-79075000D01*
X128643857Y-79089285D01*
X128629571Y-79103571D01*
X128615285Y-79132142D01*
X128615285Y-79203571D01*
X128629571Y-79232142D01*
X128643857Y-79246428D01*
X128672428Y-79260714D01*
X128743857Y-79260714D01*
X128772428Y-79246428D01*
X128786714Y-79232142D01*
X128343857Y-79260714D02*
X128486714Y-79260714D01*
X128486714Y-78960714D01*
X128243857Y-79260714D02*
X128243857Y-78960714D01*
X128143857Y-79175000D01*
X128043857Y-78960714D01*
X128043857Y-79260714D01*
X127772428Y-79060714D02*
X127772428Y-79260714D01*
X127843857Y-78946428D02*
X127915285Y-79160714D01*
X127729571Y-79160714D01*
X127615285Y-79260714D02*
X127615285Y-78960714D01*
X127615285Y-79103571D02*
X127443857Y-79103571D01*
X127443857Y-79260714D02*
X127443857Y-78960714D01*
X127301000Y-79146428D02*
X127072428Y-79146428D01*
X126829571Y-79103571D02*
X126786714Y-79117857D01*
X126772428Y-79132142D01*
X126758142Y-79160714D01*
X126758142Y-79203571D01*
X126772428Y-79232142D01*
X126786714Y-79246428D01*
X126815285Y-79260714D01*
X126929571Y-79260714D01*
X126929571Y-78960714D01*
X126829571Y-78960714D01*
X126801000Y-78975000D01*
X126786714Y-78989285D01*
X126772428Y-79017857D01*
X126772428Y-79046428D01*
X126786714Y-79075000D01*
X126801000Y-79089285D01*
X126829571Y-79103571D01*
X126929571Y-79103571D01*
X129551000Y-79760714D02*
X129551000Y-79460714D01*
X129551000Y-79575000D02*
X129522428Y-79560714D01*
X129465285Y-79560714D01*
X129436714Y-79575000D01*
X129422428Y-79589285D01*
X129408142Y-79617857D01*
X129408142Y-79703571D01*
X129422428Y-79732142D01*
X129436714Y-79746428D01*
X129465285Y-79760714D01*
X129522428Y-79760714D01*
X129551000Y-79746428D01*
X129279571Y-79760714D02*
X129279571Y-79560714D01*
X129279571Y-79617857D02*
X129265285Y-79589285D01*
X129251000Y-79575000D01*
X129222428Y-79560714D01*
X129193857Y-79560714D01*
X128979571Y-79746428D02*
X129008142Y-79760714D01*
X129065285Y-79760714D01*
X129093857Y-79746428D01*
X129108142Y-79717857D01*
X129108142Y-79603571D01*
X129093857Y-79575000D01*
X129065285Y-79560714D01*
X129008142Y-79560714D01*
X128979571Y-79575000D01*
X128965285Y-79603571D01*
X128965285Y-79632142D01*
X129108142Y-79660714D01*
X128708142Y-79760714D02*
X128708142Y-79603571D01*
X128722428Y-79575000D01*
X128751000Y-79560714D01*
X128808142Y-79560714D01*
X128836714Y-79575000D01*
X128708142Y-79746428D02*
X128736714Y-79760714D01*
X128808142Y-79760714D01*
X128836714Y-79746428D01*
X128851000Y-79717857D01*
X128851000Y-79689285D01*
X128836714Y-79660714D01*
X128808142Y-79646428D01*
X128736714Y-79646428D01*
X128708142Y-79632142D01*
X128565285Y-79760714D02*
X128565285Y-79460714D01*
X128536714Y-79646428D02*
X128451000Y-79760714D01*
X128451000Y-79560714D02*
X128565285Y-79675000D01*
X128279571Y-79760714D02*
X128308142Y-79746428D01*
X128322428Y-79732142D01*
X128336714Y-79703571D01*
X128336714Y-79617857D01*
X128322428Y-79589285D01*
X128308142Y-79575000D01*
X128279571Y-79560714D01*
X128236714Y-79560714D01*
X128208142Y-79575000D01*
X128193857Y-79589285D01*
X128179571Y-79617857D01*
X128179571Y-79703571D01*
X128193857Y-79732142D01*
X128208142Y-79746428D01*
X128236714Y-79760714D01*
X128279571Y-79760714D01*
X127922428Y-79560714D02*
X127922428Y-79760714D01*
X128051000Y-79560714D02*
X128051000Y-79717857D01*
X128036714Y-79746428D01*
X128008142Y-79760714D01*
X127965285Y-79760714D01*
X127936714Y-79746428D01*
X127922428Y-79732142D01*
X127822428Y-79560714D02*
X127708142Y-79560714D01*
X127779571Y-79460714D02*
X127779571Y-79717857D01*
X127765285Y-79746428D01*
X127736714Y-79760714D01*
X127708142Y-79760714D01*
D11*
X129032000Y-83820000D02*
G75*
G03X129032000Y-83820000I-635000J0D01*
G01*
D12*
G36*
X129550000Y-82780000D02*
G01*
X129050000Y-82780000D01*
X129050000Y-82354000D01*
X129550000Y-82354000D01*
X129550000Y-82780000D01*
G37*
X129550000Y-82780000D02*
X129050000Y-82780000D01*
X129050000Y-82354000D01*
X129550000Y-82354000D01*
X129550000Y-82780000D01*
G36*
X127750000Y-82780000D02*
G01*
X127250000Y-82780000D01*
X127250000Y-82354000D01*
X127750000Y-82354000D01*
X127750000Y-82780000D01*
G37*
X127750000Y-82780000D02*
X127250000Y-82780000D01*
X127250000Y-82354000D01*
X127750000Y-82354000D01*
X127750000Y-82780000D01*
G36*
X129550000Y-81956000D02*
G01*
X129050000Y-81956000D01*
X129050000Y-81530000D01*
X129550000Y-81530000D01*
X129550000Y-81956000D01*
G37*
X129550000Y-81956000D02*
X129050000Y-81956000D01*
X129050000Y-81530000D01*
X129550000Y-81530000D01*
X129550000Y-81956000D01*
G36*
X128650000Y-81956000D02*
G01*
X128150000Y-81956000D01*
X128150000Y-81530000D01*
X128650000Y-81530000D01*
X128650000Y-81956000D01*
G37*
X128650000Y-81956000D02*
X128150000Y-81956000D01*
X128150000Y-81530000D01*
X128650000Y-81530000D01*
X128650000Y-81956000D01*
G36*
X127750000Y-81960000D02*
G01*
X127250000Y-81960000D01*
X127250000Y-81534000D01*
X127750000Y-81534000D01*
X127750000Y-81960000D01*
G37*
X127750000Y-81960000D02*
X127250000Y-81960000D01*
X127250000Y-81534000D01*
X127750000Y-81534000D01*
X127750000Y-81960000D01*
D13*
X127000000Y-81280000D02*
X127000000Y-81407000D01*
X129794000Y-81280000D02*
X127000000Y-81280000D01*
X129794000Y-84836000D02*
X129794000Y-81280000D01*
X127000000Y-84836000D02*
X129794000Y-84836000D01*
X127000000Y-81407000D02*
X127000000Y-84836000D01*
D10*
X126019714Y-85883666D02*
X125995904Y-85812238D01*
X125972095Y-85788428D01*
X125924476Y-85764619D01*
X125853047Y-85764619D01*
X125805428Y-85788428D01*
X125781619Y-85812238D01*
X125757809Y-85859857D01*
X125757809Y-86050333D01*
X126257809Y-86050333D01*
X126257809Y-85883666D01*
X126234000Y-85836047D01*
X126210190Y-85812238D01*
X126162571Y-85788428D01*
X126114952Y-85788428D01*
X126067333Y-85812238D01*
X126043523Y-85836047D01*
X126019714Y-85883666D01*
X126019714Y-86050333D01*
X125805428Y-85264619D02*
X125781619Y-85288428D01*
X125757809Y-85359857D01*
X125757809Y-85407476D01*
X125781619Y-85478904D01*
X125829238Y-85526523D01*
X125876857Y-85550333D01*
X125972095Y-85574142D01*
X126043523Y-85574142D01*
X126138761Y-85550333D01*
X126186380Y-85526523D01*
X126234000Y-85478904D01*
X126257809Y-85407476D01*
X126257809Y-85359857D01*
X126234000Y-85288428D01*
X126210190Y-85264619D01*
X125757809Y-84812238D02*
X125757809Y-85050333D01*
X126257809Y-85050333D01*
X125757809Y-84645571D02*
X126257809Y-84645571D01*
X125757809Y-84359857D02*
X126043523Y-84574142D01*
X126257809Y-84359857D02*
X125972095Y-84645571D01*
X126257809Y-83597666D02*
X125757809Y-83431000D01*
X126257809Y-83264333D01*
X125757809Y-83097666D02*
X126257809Y-83097666D01*
X126257809Y-82978619D01*
X126234000Y-82907190D01*
X126186380Y-82859571D01*
X126138761Y-82835761D01*
X126043523Y-82811952D01*
X125972095Y-82811952D01*
X125876857Y-82835761D01*
X125829238Y-82859571D01*
X125781619Y-82907190D01*
X125757809Y-82978619D01*
X125757809Y-83097666D01*
X125757809Y-82597666D02*
X126257809Y-82597666D01*
X126257809Y-82478619D01*
X126234000Y-82407190D01*
X126186380Y-82359571D01*
X126138761Y-82335761D01*
X126043523Y-82311952D01*
X125972095Y-82311952D01*
X125876857Y-82335761D01*
X125829238Y-82359571D01*
X125781619Y-82407190D01*
X125757809Y-82478619D01*
X125757809Y-82597666D01*
X126538809Y-80926666D02*
X127038809Y-80926666D01*
X127038809Y-80807619D01*
X127015000Y-80736190D01*
X126967380Y-80688571D01*
X126919761Y-80664761D01*
X126824523Y-80640952D01*
X126753095Y-80640952D01*
X126657857Y-80664761D01*
X126610238Y-80688571D01*
X126562619Y-80736190D01*
X126538809Y-80807619D01*
X126538809Y-80926666D01*
X126538809Y-80212380D02*
X126800714Y-80212380D01*
X126848333Y-80236190D01*
X126872142Y-80283809D01*
X126872142Y-80379047D01*
X126848333Y-80426666D01*
X126562619Y-80212380D02*
X126538809Y-80260000D01*
X126538809Y-80379047D01*
X126562619Y-80426666D01*
X126610238Y-80450476D01*
X126657857Y-80450476D01*
X126705476Y-80426666D01*
X126729285Y-80379047D01*
X126729285Y-80260000D01*
X126753095Y-80212380D01*
X126872142Y-80045714D02*
X126872142Y-79855238D01*
X127038809Y-79974285D02*
X126610238Y-79974285D01*
X126562619Y-79950476D01*
X126538809Y-79902857D01*
X126538809Y-79855238D01*
X126538809Y-79474285D02*
X126800714Y-79474285D01*
X126848333Y-79498095D01*
X126872142Y-79545714D01*
X126872142Y-79640952D01*
X126848333Y-79688571D01*
X126562619Y-79474285D02*
X126538809Y-79521904D01*
X126538809Y-79640952D01*
X126562619Y-79688571D01*
X126610238Y-79712380D01*
X126657857Y-79712380D01*
X126705476Y-79688571D01*
X126729285Y-79640952D01*
X126729285Y-79521904D01*
X126753095Y-79474285D01*
X126238809Y-80426666D02*
X126238809Y-80331428D01*
X126215000Y-80283809D01*
X126167380Y-80236190D01*
X126072142Y-80212380D01*
X125905476Y-80212380D01*
X125810238Y-80236190D01*
X125762619Y-80283809D01*
X125738809Y-80331428D01*
X125738809Y-80426666D01*
X125762619Y-80474285D01*
X125810238Y-80521904D01*
X125905476Y-80545714D01*
X126072142Y-80545714D01*
X126167380Y-80521904D01*
X126215000Y-80474285D01*
X126238809Y-80426666D01*
X126072142Y-79783809D02*
X125738809Y-79783809D01*
X126072142Y-79998095D02*
X125810238Y-79998095D01*
X125762619Y-79974285D01*
X125738809Y-79926666D01*
X125738809Y-79855238D01*
X125762619Y-79807619D01*
X125786428Y-79783809D01*
X126072142Y-79617142D02*
X126072142Y-79426666D01*
X126238809Y-79545714D02*
X125810238Y-79545714D01*
X125762619Y-79521904D01*
X125738809Y-79474285D01*
X125738809Y-79426666D01*
X130560000Y-84963047D02*
X130536190Y-84915428D01*
X130536190Y-84844000D01*
X130560000Y-84772571D01*
X130607619Y-84724952D01*
X130655238Y-84701142D01*
X130750476Y-84677333D01*
X130821904Y-84677333D01*
X130917142Y-84701142D01*
X130964761Y-84724952D01*
X131012380Y-84772571D01*
X131036190Y-84844000D01*
X131036190Y-84891619D01*
X131012380Y-84963047D01*
X130988571Y-84986857D01*
X130821904Y-84986857D01*
X130821904Y-84891619D01*
X131036190Y-85201142D02*
X130536190Y-85201142D01*
X131036190Y-85486857D01*
X130536190Y-85486857D01*
X131036190Y-85724952D02*
X130536190Y-85724952D01*
X130536190Y-85844000D01*
X130560000Y-85915428D01*
X130607619Y-85963047D01*
X130655238Y-85986857D01*
X130750476Y-86010666D01*
X130821904Y-86010666D01*
X130917142Y-85986857D01*
X130964761Y-85963047D01*
X131012380Y-85915428D01*
X131036190Y-85844000D01*
X131036190Y-85724952D01*
X131012380Y-81565904D02*
X131036190Y-81637333D01*
X131036190Y-81756380D01*
X131012380Y-81804000D01*
X130988571Y-81827809D01*
X130940952Y-81851619D01*
X130893333Y-81851619D01*
X130845714Y-81827809D01*
X130821904Y-81804000D01*
X130798095Y-81756380D01*
X130774285Y-81661142D01*
X130750476Y-81613523D01*
X130726666Y-81589714D01*
X130679047Y-81565904D01*
X130631428Y-81565904D01*
X130583809Y-81589714D01*
X130560000Y-81613523D01*
X130536190Y-81661142D01*
X130536190Y-81780190D01*
X130560000Y-81851619D01*
X130774285Y-82065904D02*
X130774285Y-82232571D01*
X131036190Y-82304000D02*
X131036190Y-82065904D01*
X130536190Y-82065904D01*
X130536190Y-82304000D01*
X131036190Y-82756380D02*
X131036190Y-82518285D01*
X130536190Y-82518285D01*
X130774285Y-82923047D02*
X130774285Y-83089714D01*
X131036190Y-83161142D02*
X131036190Y-82923047D01*
X130536190Y-82923047D01*
X130536190Y-83161142D01*
X130988571Y-83661142D02*
X131012380Y-83637333D01*
X131036190Y-83565904D01*
X131036190Y-83518285D01*
X131012380Y-83446857D01*
X130964761Y-83399238D01*
X130917142Y-83375428D01*
X130821904Y-83351619D01*
X130750476Y-83351619D01*
X130655238Y-83375428D01*
X130607619Y-83399238D01*
X130560000Y-83446857D01*
X130536190Y-83518285D01*
X130536190Y-83565904D01*
X130560000Y-83637333D01*
X130583809Y-83661142D01*
X130536190Y-83804000D02*
X130536190Y-84089714D01*
X131036190Y-83946857D02*
X130536190Y-83946857D01*
X130536190Y-79811619D02*
X131036190Y-79930666D01*
X130679047Y-80025904D01*
X131036190Y-80121142D01*
X130536190Y-80240190D01*
X131012380Y-80406857D02*
X131036190Y-80478285D01*
X131036190Y-80597333D01*
X131012380Y-80644952D01*
X130988571Y-80668761D01*
X130940952Y-80692571D01*
X130893333Y-80692571D01*
X130845714Y-80668761D01*
X130821904Y-80644952D01*
X130798095Y-80597333D01*
X130774285Y-80502095D01*
X130750476Y-80454476D01*
X130726666Y-80430666D01*
X130679047Y-80406857D01*
X130631428Y-80406857D01*
X130583809Y-80430666D01*
X130560000Y-80454476D01*
X130536190Y-80502095D01*
X130536190Y-80621142D01*
X130560000Y-80692571D01*
M02*
