G04 #@! TF.GenerationSoftware,KiCad,Pcbnew,(5.1.4-6-g300381ba4)-1*
G04 #@! TF.CreationDate,2019-08-09T15:04:20+01:00*
G04 #@! TF.ProjectId,projects_are_a_bad_idea,70726f6a-6563-4747-935f-6172655f615f,rev?*
G04 #@! TF.SameCoordinates,Original*
G04 #@! TF.FileFunction,Copper,L1,Top*
G04 #@! TF.FilePolarity,Positive*
%FSLAX46Y46*%
G04 Gerber Fmt 4.6, Leading zero omitted, Abs format (unit mm)*
G04 Created by KiCad (PCBNEW (5.1.4-6-g300381ba4)-1) date 2019-08-09 15:04:20*
%MOMM*%
%LPD*%
G04 APERTURE LIST*
%ADD10C,0.300000*%
%ADD11R,0.600000X0.522000*%
%ADD12C,0.300000*%
%ADD13O,1.700000X1.700000*%
%ADD14R,1.700000X1.700000*%
%ADD15C,0.250000*%
G04 APERTURE END LIST*
D10*
X129059000Y-83818000D02*
G75*
G03X129059000Y-83818000I-662000J0D01*
G01*
D11*
X128397000Y-81746000D03*
X129297000Y-81746000D03*
X129297000Y-82568000D03*
X127497000Y-82568000D03*
X127497000Y-81746000D03*
D12*
X129059000Y-83820000D03*
X127735000Y-83820000D03*
X128397000Y-83158000D03*
X128397000Y-84482000D03*
D13*
X124587000Y-85344000D03*
X124587000Y-82804000D03*
D14*
X124587000Y-80264000D03*
X132207000Y-80264000D03*
D13*
X132207000Y-82804000D03*
X132207000Y-85344000D03*
D15*
X131107000Y-80264000D02*
X132207000Y-80264000D01*
X130268000Y-80264000D02*
X131107000Y-80264000D01*
X129297000Y-81235000D02*
X130268000Y-80264000D01*
X129297000Y-81746000D02*
X129297000Y-81235000D01*
X131971000Y-82568000D02*
X132207000Y-82804000D01*
X129297000Y-82568000D02*
X131971000Y-82568000D01*
X126947000Y-82568000D02*
X127497000Y-82568000D01*
X126238000Y-83277000D02*
X126947000Y-82568000D01*
X126238000Y-84836000D02*
X126238000Y-83277000D01*
X124587000Y-85344000D02*
X125730000Y-85344000D01*
X125730000Y-85344000D02*
X126238000Y-84836000D01*
X125645000Y-81746000D02*
X124587000Y-82804000D01*
X127497000Y-81746000D02*
X125645000Y-81746000D01*
X125687000Y-80264000D02*
X124587000Y-80264000D01*
X127426000Y-80264000D02*
X125687000Y-80264000D01*
X128397000Y-81235000D02*
X127426000Y-80264000D01*
X128397000Y-81746000D02*
X128397000Y-81235000D01*
X130583000Y-85344000D02*
X129059000Y-83820000D01*
X128397000Y-84482000D02*
X128397000Y-84836000D01*
X128905000Y-85344000D02*
X130583000Y-85344000D01*
X128397000Y-84836000D02*
X128905000Y-85344000D01*
X127585001Y-83969999D02*
X127585001Y-85040001D01*
X127735000Y-83820000D02*
X127585001Y-83969999D01*
X127889000Y-85344000D02*
X128905000Y-85344000D01*
X127585001Y-85040001D02*
X127889000Y-85344000D01*
X128397000Y-83158000D02*
X129386000Y-83158000D01*
X131064000Y-84836000D02*
X131064000Y-85344000D01*
X129386000Y-83158000D02*
X131064000Y-84836000D01*
X132207000Y-85344000D02*
X131064000Y-85344000D01*
X131064000Y-85344000D02*
X130583000Y-85344000D01*
M02*
