%TF.GenerationSoftware,KiCad,Pcbnew,5.1.10*%
%TF.CreationDate,2021-05-20T00:00:10+01:00*%
%TF.ProjectId,watch2-without-led-tab,77617463-6832-42d7-9769-74686f75742d,rev?*%
%TF.SameCoordinates,Original*%
%TF.FileFunction,Legend,Bot*%
%TF.FilePolarity,Positive*%
%FSLAX46Y46*%
G04 Gerber Fmt 4.6, Leading zero omitted, Abs format (unit mm)*
G04 Created by KiCad (PCBNEW 5.1.10) date 2021-05-20 00:00:10*
%MOMM*%
%LPD*%
G01*
G04 APERTURE LIST*
%ADD10C,0.100000*%
%ADD11C,0.150000*%
%ADD12C,0.050000*%
%ADD13C,0.120000*%
%ADD14C,0.127000*%
%ADD15C,0.200000*%
G04 APERTURE END LIST*
D10*
G36*
X137896600Y-109093000D02*
G01*
X133858000Y-109093000D01*
X133858000Y-96596200D01*
X137896600Y-96596200D01*
X137896600Y-109093000D01*
G37*
X137896600Y-109093000D02*
X133858000Y-109093000D01*
X133858000Y-96596200D01*
X137896600Y-96596200D01*
X137896600Y-109093000D01*
X131360857Y-101828571D02*
X131360857Y-101371428D01*
X131089428Y-103928857D02*
X131546571Y-103928857D01*
X131318000Y-104157428D02*
X131318000Y-103700285D01*
D11*
X161269419Y-118306695D02*
X161745609Y-118640028D01*
X161269419Y-118878123D02*
X162269419Y-118878123D01*
X162269419Y-118497171D01*
X162221800Y-118401933D01*
X162174180Y-118354314D01*
X162078942Y-118306695D01*
X161936085Y-118306695D01*
X161840847Y-118354314D01*
X161793228Y-118401933D01*
X161745609Y-118497171D01*
X161745609Y-118878123D01*
X161317038Y-117497171D02*
X161269419Y-117592409D01*
X161269419Y-117782885D01*
X161317038Y-117878123D01*
X161412276Y-117925742D01*
X161793228Y-117925742D01*
X161888466Y-117878123D01*
X161936085Y-117782885D01*
X161936085Y-117592409D01*
X161888466Y-117497171D01*
X161793228Y-117449552D01*
X161697990Y-117449552D01*
X161602752Y-117925742D01*
X161317038Y-117068600D02*
X161269419Y-116973361D01*
X161269419Y-116782885D01*
X161317038Y-116687647D01*
X161412276Y-116640028D01*
X161459895Y-116640028D01*
X161555133Y-116687647D01*
X161602752Y-116782885D01*
X161602752Y-116925742D01*
X161650371Y-117020980D01*
X161745609Y-117068600D01*
X161793228Y-117068600D01*
X161888466Y-117020980D01*
X161936085Y-116925742D01*
X161936085Y-116782885D01*
X161888466Y-116687647D01*
X161317038Y-115830504D02*
X161269419Y-115925742D01*
X161269419Y-116116219D01*
X161317038Y-116211457D01*
X161412276Y-116259076D01*
X161793228Y-116259076D01*
X161888466Y-116211457D01*
X161936085Y-116116219D01*
X161936085Y-115925742D01*
X161888466Y-115830504D01*
X161793228Y-115782885D01*
X161697990Y-115782885D01*
X161602752Y-116259076D01*
X161936085Y-115497171D02*
X161936085Y-115116219D01*
X162269419Y-115354314D02*
X161412276Y-115354314D01*
X161317038Y-115306695D01*
X161269419Y-115211457D01*
X161269419Y-115116219D01*
X174823190Y-112148880D02*
X174823190Y-111148880D01*
X174442238Y-111148880D01*
X174347000Y-111196500D01*
X174299380Y-111244119D01*
X174251761Y-111339357D01*
X174251761Y-111482214D01*
X174299380Y-111577452D01*
X174347000Y-111625071D01*
X174442238Y-111672690D01*
X174823190Y-111672690D01*
X173680333Y-112148880D02*
X173775571Y-112101261D01*
X173823190Y-112053642D01*
X173870809Y-111958404D01*
X173870809Y-111672690D01*
X173823190Y-111577452D01*
X173775571Y-111529833D01*
X173680333Y-111482214D01*
X173537476Y-111482214D01*
X173442238Y-111529833D01*
X173394619Y-111577452D01*
X173347000Y-111672690D01*
X173347000Y-111958404D01*
X173394619Y-112053642D01*
X173442238Y-112101261D01*
X173537476Y-112148880D01*
X173680333Y-112148880D01*
X173013666Y-111482214D02*
X172823190Y-112148880D01*
X172632714Y-111672690D01*
X172442238Y-112148880D01*
X172251761Y-111482214D01*
X171489857Y-112101261D02*
X171585095Y-112148880D01*
X171775571Y-112148880D01*
X171870809Y-112101261D01*
X171918428Y-112006023D01*
X171918428Y-111625071D01*
X171870809Y-111529833D01*
X171775571Y-111482214D01*
X171585095Y-111482214D01*
X171489857Y-111529833D01*
X171442238Y-111625071D01*
X171442238Y-111720309D01*
X171918428Y-111815547D01*
X171013666Y-112148880D02*
X171013666Y-111482214D01*
X171013666Y-111672690D02*
X170966047Y-111577452D01*
X170918428Y-111529833D01*
X170823190Y-111482214D01*
X170727952Y-111482214D01*
D10*
X129819428Y-88349142D02*
X130276571Y-88349142D01*
X133959571Y-88307857D02*
X133502428Y-88307857D01*
X133731000Y-88536428D02*
X133731000Y-88079285D01*
D12*
%TO.C,*%
G36*
X139513700Y-108694100D02*
G01*
X139513700Y-109046400D01*
X139449200Y-109070000D01*
X137775800Y-109070000D01*
X137752700Y-109005100D01*
X137752700Y-96675000D01*
X137785000Y-96619200D01*
X139458300Y-96619200D01*
X139513700Y-96651900D01*
X139513700Y-108617200D01*
X139181500Y-108373700D01*
X139215000Y-108311300D01*
X139239600Y-108228000D01*
X139249400Y-108134800D01*
X139244900Y-108041200D01*
X139227000Y-107955900D01*
X139194500Y-107876600D01*
X139143500Y-107805300D01*
X139075800Y-107750600D01*
X138994600Y-107713000D01*
X138909700Y-107697000D01*
X138888600Y-107763100D01*
X138888600Y-107851100D01*
X138975000Y-107868000D01*
X139048400Y-107909800D01*
X139096900Y-107972200D01*
X139122000Y-108055700D01*
X139124700Y-108157200D01*
X139105200Y-108244400D01*
X139062000Y-108312500D01*
X138990600Y-108356200D01*
X138900000Y-108363700D01*
X138824400Y-108325400D01*
X138779600Y-108265200D01*
X138744300Y-108188000D01*
X138678700Y-107991000D01*
X138644800Y-107911900D01*
X138605600Y-107844000D01*
X138548100Y-107773800D01*
X138482900Y-107723000D01*
X138414200Y-107697400D01*
X138413100Y-107412500D01*
X138495700Y-107414500D01*
X138586600Y-107406600D01*
X138670500Y-107386100D01*
X138750300Y-107351500D01*
X138822000Y-107300300D01*
X138878100Y-107234800D01*
X138918400Y-107155600D01*
X138938800Y-107071300D01*
X138939000Y-106978300D01*
X138920100Y-106890100D01*
X138882300Y-106815000D01*
X138825700Y-106753100D01*
X138761100Y-106710500D01*
X138695600Y-106684800D01*
X138842100Y-106356000D01*
X138906200Y-106346300D01*
X138906200Y-106258200D01*
X138868100Y-106208200D01*
X138834500Y-106189000D01*
X138891400Y-106122500D01*
X138920000Y-106043000D01*
X138920600Y-105958900D01*
X139151100Y-105660500D01*
X139185100Y-105655900D01*
X139230400Y-105594000D01*
X139214400Y-105504400D01*
X139133900Y-105478200D01*
X139081500Y-105516800D01*
X138896700Y-105527600D01*
X138858900Y-105495000D01*
X138078700Y-105495000D01*
X138189300Y-105221900D01*
X138262000Y-105239100D01*
X138354100Y-105231600D01*
X138432600Y-105198700D01*
X138496200Y-105140300D01*
X138536400Y-105074400D01*
X138563200Y-104995900D01*
X138577600Y-104903600D01*
X138580400Y-104805100D01*
X138580400Y-104717000D01*
X138636300Y-104684900D01*
X138727900Y-104700600D01*
X138788000Y-104751400D01*
X138815900Y-104832000D01*
X138812700Y-104929900D01*
X138781600Y-105006400D01*
X138713300Y-105058500D01*
X138677200Y-105114900D01*
X138677200Y-105202900D01*
X138742900Y-105210800D01*
X138819300Y-105165400D01*
X138875000Y-105100800D01*
X138914800Y-105019500D01*
X138935900Y-104935300D01*
X138941100Y-104843400D01*
X138929100Y-104749800D01*
X138899100Y-104670900D01*
X138850500Y-104606100D01*
X138781900Y-104560100D01*
X138695800Y-104537700D01*
X138602800Y-104535200D01*
X138250500Y-104535200D01*
X138151600Y-104529000D01*
X138084400Y-104512000D01*
X138099200Y-104235800D01*
X139231700Y-104235800D01*
X139284800Y-104200900D01*
X139284800Y-104112800D01*
X139223400Y-104086200D01*
X138091000Y-104086200D01*
X138093600Y-103328900D01*
X139138000Y-103328900D01*
X139223200Y-103326000D01*
X139223200Y-103237900D01*
X139206000Y-103159200D01*
X138320200Y-102582600D01*
X138341600Y-102562800D01*
X139222300Y-102562800D01*
X139223200Y-102475600D01*
X139206400Y-102404300D01*
X138073900Y-102404300D01*
X138152700Y-102125800D01*
X138217800Y-102152100D01*
X138311800Y-102165800D01*
X138845200Y-102166600D01*
X138923800Y-102157100D01*
X138923800Y-102069000D01*
X138887800Y-102016900D01*
X138359400Y-102016900D01*
X138257900Y-102005000D01*
X138188200Y-101964500D01*
X138153300Y-101895400D01*
X138152100Y-101798200D01*
X138177600Y-101712300D01*
X138228700Y-101650300D01*
X138306000Y-101620700D01*
X138922500Y-101620700D01*
X138923800Y-101533900D01*
X138910200Y-101474300D01*
X138856200Y-101193000D01*
X138906200Y-101171400D01*
X138906200Y-101083300D01*
X138835600Y-101050700D01*
X138851800Y-101005100D01*
X138895500Y-100933100D01*
X138919100Y-100848700D01*
X138922600Y-100751500D01*
X138903900Y-100661300D01*
X138862300Y-100589800D01*
X138797800Y-100536800D01*
X138886500Y-100410000D01*
X138915300Y-100331100D01*
X138923700Y-100237900D01*
X138912200Y-100142100D01*
X138881000Y-100065500D01*
X138830200Y-100008000D01*
X138759600Y-99969500D01*
X138669500Y-99950200D01*
X138572700Y-99947600D01*
X138056800Y-99947600D01*
X138076600Y-99683500D01*
X139297100Y-99683500D01*
X139302400Y-99600800D01*
X139281300Y-99533800D01*
X138840900Y-99533800D01*
X138877400Y-99480700D01*
X138918400Y-99406700D01*
X138938900Y-99320800D01*
X138938600Y-99226400D01*
X138916500Y-99141800D01*
X138872400Y-99069700D01*
X138808300Y-99011600D01*
X138739700Y-98973000D01*
X138660000Y-98946000D01*
X138569500Y-98930400D01*
X138497200Y-99075900D01*
X138594500Y-99084300D01*
X138676400Y-99108100D01*
X138745500Y-99149300D01*
X138797900Y-99216000D01*
X138817900Y-99302200D01*
X138807100Y-99391300D01*
X138767700Y-99464300D01*
X138700000Y-99521400D01*
X138612500Y-99533800D01*
X138348300Y-99533800D01*
X138261300Y-99517900D01*
X138195600Y-99459700D01*
X138158300Y-99385600D01*
X138149500Y-99295200D01*
X138171200Y-99209600D01*
X138224400Y-99143900D01*
X138288300Y-99107200D01*
X138369600Y-99085200D01*
X138470400Y-99076200D01*
X138390500Y-98941700D01*
X138418200Y-98695600D01*
X138500700Y-98697100D01*
X138591200Y-98688500D01*
X138674800Y-98667400D01*
X138754500Y-98631800D01*
X138825400Y-98579900D01*
X138880600Y-98513600D01*
X138920000Y-98434000D01*
X138939300Y-98349400D01*
X138938500Y-98256000D01*
X138918600Y-98168500D01*
X138879800Y-98094100D01*
X138822600Y-98033300D01*
X138757300Y-97991300D01*
X138679500Y-97961700D01*
X138589300Y-97944700D01*
X138489300Y-97940000D01*
X138439500Y-97978300D01*
X138439500Y-98506700D01*
X138388100Y-98544500D01*
X138302800Y-98522500D01*
X138231300Y-98479300D01*
X138174000Y-98413100D01*
X138144300Y-98332800D01*
X138142900Y-98240600D01*
X138168500Y-98158900D01*
X138219000Y-98088500D01*
X138246600Y-98024800D01*
X138199100Y-97968300D01*
X138054300Y-97640600D01*
X138834400Y-97640600D01*
X138906200Y-97624300D01*
X138906200Y-97536300D01*
X138863400Y-97491000D01*
X138838200Y-97468500D01*
X138893600Y-97401300D01*
X138920800Y-97321200D01*
X138919900Y-97225100D01*
X138851100Y-97209200D01*
X138774100Y-97209200D01*
X138782400Y-97298400D01*
X138762200Y-97384400D01*
X138712900Y-97450900D01*
X138634800Y-97491000D01*
X138018300Y-97491000D01*
X138016800Y-97577500D01*
X138037200Y-97629000D01*
X138181200Y-97966400D01*
X138122100Y-98011900D01*
X138070400Y-98077200D01*
X138036000Y-98154700D01*
X138018900Y-98244200D01*
X138017000Y-98304300D01*
X138028000Y-98394500D01*
X138056700Y-98475600D01*
X138103100Y-98547600D01*
X138164100Y-98607600D01*
X138234100Y-98651400D01*
X138314600Y-98680600D01*
X138393400Y-98693300D01*
X138371800Y-98933100D01*
X138294000Y-98947000D01*
X138215000Y-98974600D01*
X138146800Y-99013700D01*
X138082500Y-99073400D01*
X138039300Y-99146300D01*
X138018700Y-99231200D01*
X138020400Y-99327200D01*
X138043000Y-99413200D01*
X138086300Y-99484400D01*
X138127800Y-99534800D01*
X138040100Y-99542100D01*
X138034400Y-99625000D01*
X138058400Y-99672300D01*
X138039100Y-99959000D01*
X138016800Y-100008300D01*
X138016800Y-100096300D01*
X138637300Y-100098500D01*
X138722600Y-100120900D01*
X138775900Y-100171700D01*
X138799100Y-100257000D01*
X138791900Y-100351500D01*
X138748600Y-100426600D01*
X138679600Y-100475500D01*
X138591100Y-100493600D01*
X138062700Y-100493600D01*
X138016800Y-100535800D01*
X138016800Y-100623800D01*
X138076700Y-100652100D01*
X138607000Y-100652200D01*
X138702000Y-100669000D01*
X138765200Y-100714800D01*
X138796700Y-100789600D01*
X138796700Y-100885100D01*
X138767300Y-100964900D01*
X138708800Y-101025300D01*
X138624500Y-101048300D01*
X138096100Y-101048300D01*
X138016800Y-101057100D01*
X138016800Y-101145200D01*
X138052100Y-101198000D01*
X138832200Y-101198000D01*
X138894900Y-101462200D01*
X138114800Y-101462200D01*
X138034400Y-101469900D01*
X138034400Y-101558000D01*
X138068600Y-101611900D01*
X138082700Y-101652800D01*
X138042200Y-101724400D01*
X138020700Y-101811900D01*
X138018300Y-101912300D01*
X138037900Y-102000800D01*
X138080300Y-102071300D01*
X138131400Y-102113200D01*
X138051500Y-102411900D01*
X138016800Y-102438500D01*
X138016800Y-102526600D01*
X138060200Y-102591300D01*
X138869800Y-103123300D01*
X138939000Y-103170400D01*
X138058300Y-103170400D01*
X138016800Y-103217000D01*
X138016800Y-103305100D01*
X138069400Y-103324600D01*
X138068200Y-104093400D01*
X138016800Y-104129600D01*
X138016800Y-104217700D01*
X138074600Y-104232700D01*
X138063000Y-104517400D01*
X138034400Y-104543300D01*
X138034400Y-104631400D01*
X138051300Y-104667100D01*
X138120900Y-104694800D01*
X138064900Y-104764700D01*
X138030300Y-104842700D01*
X138017000Y-104929000D01*
X138025000Y-105022200D01*
X138054200Y-105102800D01*
X138105700Y-105170600D01*
X138166800Y-105212000D01*
X138053700Y-105495800D01*
X138016800Y-105498000D01*
X138016800Y-105586100D01*
X138046300Y-105644700D01*
X138838900Y-105644700D01*
X138906200Y-105623800D01*
X138906200Y-105548300D01*
X139071600Y-105536700D01*
X139072800Y-105618900D01*
X139128300Y-105655300D01*
X138908700Y-105942700D01*
X138855700Y-105926500D01*
X138782600Y-106010500D01*
X138764000Y-106097600D01*
X138716200Y-106165200D01*
X138639500Y-106208200D01*
X138023000Y-106208200D01*
X138016800Y-106290100D01*
X138037100Y-106357900D01*
X138817200Y-106357900D01*
X138671700Y-106677900D01*
X138594400Y-106662600D01*
X138494000Y-106657300D01*
X138439500Y-106690900D01*
X138439500Y-107219300D01*
X138393000Y-107262400D01*
X138307000Y-107241500D01*
X138234700Y-107199400D01*
X138176400Y-107134300D01*
X138145200Y-107054700D01*
X138142300Y-106962700D01*
X138166500Y-106880100D01*
X138215900Y-106809200D01*
X138249600Y-106745700D01*
X138194500Y-106676900D01*
X138125300Y-106726100D01*
X138072700Y-106790800D01*
X138037400Y-106867500D01*
X138019400Y-106956400D01*
X138016900Y-107016500D01*
X138027000Y-107107200D01*
X138054800Y-107188800D01*
X138100200Y-107261300D01*
X138160700Y-107322200D01*
X138230100Y-107366700D01*
X138310100Y-107396700D01*
X138388300Y-107410100D01*
X138390000Y-107692500D01*
X138310300Y-107688900D01*
X138224900Y-107708900D01*
X138152200Y-107752400D01*
X138094300Y-107816500D01*
X138056100Y-107886700D01*
X138030800Y-107968500D01*
X138018300Y-108061800D01*
X138018700Y-108157800D01*
X138032500Y-108244800D01*
X138059900Y-108327000D01*
X138103600Y-108407300D01*
X138160100Y-108472600D01*
X138230100Y-108521800D01*
X138311300Y-108551400D01*
X138386700Y-108545700D01*
X138386700Y-108457600D01*
X138352300Y-108398800D01*
X138269100Y-108372700D01*
X138206800Y-108316600D01*
X138169400Y-108244900D01*
X138151000Y-108157000D01*
X138151500Y-108056000D01*
X138170400Y-107969500D01*
X138210000Y-107900200D01*
X138280300Y-107854200D01*
X138373500Y-107848500D01*
X138452400Y-107880900D01*
X138497900Y-107935800D01*
X138531100Y-108007500D01*
X138563100Y-108105700D01*
X138600500Y-108222400D01*
X138637500Y-108309100D01*
X138677600Y-108380300D01*
X138722400Y-108437600D01*
X138792000Y-108491800D01*
X138872900Y-108519800D01*
X138962600Y-108521800D01*
X139045100Y-108499000D01*
X139117200Y-108451700D01*
X139167400Y-108394200D01*
X139513700Y-108642200D01*
X139513700Y-108694100D01*
G37*
X139513700Y-108694100D02*
X139513700Y-109046400D01*
X139449200Y-109070000D01*
X137775800Y-109070000D01*
X137752700Y-109005100D01*
X137752700Y-96675000D01*
X137785000Y-96619200D01*
X139458300Y-96619200D01*
X139513700Y-96651900D01*
X139513700Y-108617200D01*
X139181500Y-108373700D01*
X139215000Y-108311300D01*
X139239600Y-108228000D01*
X139249400Y-108134800D01*
X139244900Y-108041200D01*
X139227000Y-107955900D01*
X139194500Y-107876600D01*
X139143500Y-107805300D01*
X139075800Y-107750600D01*
X138994600Y-107713000D01*
X138909700Y-107697000D01*
X138888600Y-107763100D01*
X138888600Y-107851100D01*
X138975000Y-107868000D01*
X139048400Y-107909800D01*
X139096900Y-107972200D01*
X139122000Y-108055700D01*
X139124700Y-108157200D01*
X139105200Y-108244400D01*
X139062000Y-108312500D01*
X138990600Y-108356200D01*
X138900000Y-108363700D01*
X138824400Y-108325400D01*
X138779600Y-108265200D01*
X138744300Y-108188000D01*
X138678700Y-107991000D01*
X138644800Y-107911900D01*
X138605600Y-107844000D01*
X138548100Y-107773800D01*
X138482900Y-107723000D01*
X138414200Y-107697400D01*
X138413100Y-107412500D01*
X138495700Y-107414500D01*
X138586600Y-107406600D01*
X138670500Y-107386100D01*
X138750300Y-107351500D01*
X138822000Y-107300300D01*
X138878100Y-107234800D01*
X138918400Y-107155600D01*
X138938800Y-107071300D01*
X138939000Y-106978300D01*
X138920100Y-106890100D01*
X138882300Y-106815000D01*
X138825700Y-106753100D01*
X138761100Y-106710500D01*
X138695600Y-106684800D01*
X138842100Y-106356000D01*
X138906200Y-106346300D01*
X138906200Y-106258200D01*
X138868100Y-106208200D01*
X138834500Y-106189000D01*
X138891400Y-106122500D01*
X138920000Y-106043000D01*
X138920600Y-105958900D01*
X139151100Y-105660500D01*
X139185100Y-105655900D01*
X139230400Y-105594000D01*
X139214400Y-105504400D01*
X139133900Y-105478200D01*
X139081500Y-105516800D01*
X138896700Y-105527600D01*
X138858900Y-105495000D01*
X138078700Y-105495000D01*
X138189300Y-105221900D01*
X138262000Y-105239100D01*
X138354100Y-105231600D01*
X138432600Y-105198700D01*
X138496200Y-105140300D01*
X138536400Y-105074400D01*
X138563200Y-104995900D01*
X138577600Y-104903600D01*
X138580400Y-104805100D01*
X138580400Y-104717000D01*
X138636300Y-104684900D01*
X138727900Y-104700600D01*
X138788000Y-104751400D01*
X138815900Y-104832000D01*
X138812700Y-104929900D01*
X138781600Y-105006400D01*
X138713300Y-105058500D01*
X138677200Y-105114900D01*
X138677200Y-105202900D01*
X138742900Y-105210800D01*
X138819300Y-105165400D01*
X138875000Y-105100800D01*
X138914800Y-105019500D01*
X138935900Y-104935300D01*
X138941100Y-104843400D01*
X138929100Y-104749800D01*
X138899100Y-104670900D01*
X138850500Y-104606100D01*
X138781900Y-104560100D01*
X138695800Y-104537700D01*
X138602800Y-104535200D01*
X138250500Y-104535200D01*
X138151600Y-104529000D01*
X138084400Y-104512000D01*
X138099200Y-104235800D01*
X139231700Y-104235800D01*
X139284800Y-104200900D01*
X139284800Y-104112800D01*
X139223400Y-104086200D01*
X138091000Y-104086200D01*
X138093600Y-103328900D01*
X139138000Y-103328900D01*
X139223200Y-103326000D01*
X139223200Y-103237900D01*
X139206000Y-103159200D01*
X138320200Y-102582600D01*
X138341600Y-102562800D01*
X139222300Y-102562800D01*
X139223200Y-102475600D01*
X139206400Y-102404300D01*
X138073900Y-102404300D01*
X138152700Y-102125800D01*
X138217800Y-102152100D01*
X138311800Y-102165800D01*
X138845200Y-102166600D01*
X138923800Y-102157100D01*
X138923800Y-102069000D01*
X138887800Y-102016900D01*
X138359400Y-102016900D01*
X138257900Y-102005000D01*
X138188200Y-101964500D01*
X138153300Y-101895400D01*
X138152100Y-101798200D01*
X138177600Y-101712300D01*
X138228700Y-101650300D01*
X138306000Y-101620700D01*
X138922500Y-101620700D01*
X138923800Y-101533900D01*
X138910200Y-101474300D01*
X138856200Y-101193000D01*
X138906200Y-101171400D01*
X138906200Y-101083300D01*
X138835600Y-101050700D01*
X138851800Y-101005100D01*
X138895500Y-100933100D01*
X138919100Y-100848700D01*
X138922600Y-100751500D01*
X138903900Y-100661300D01*
X138862300Y-100589800D01*
X138797800Y-100536800D01*
X138886500Y-100410000D01*
X138915300Y-100331100D01*
X138923700Y-100237900D01*
X138912200Y-100142100D01*
X138881000Y-100065500D01*
X138830200Y-100008000D01*
X138759600Y-99969500D01*
X138669500Y-99950200D01*
X138572700Y-99947600D01*
X138056800Y-99947600D01*
X138076600Y-99683500D01*
X139297100Y-99683500D01*
X139302400Y-99600800D01*
X139281300Y-99533800D01*
X138840900Y-99533800D01*
X138877400Y-99480700D01*
X138918400Y-99406700D01*
X138938900Y-99320800D01*
X138938600Y-99226400D01*
X138916500Y-99141800D01*
X138872400Y-99069700D01*
X138808300Y-99011600D01*
X138739700Y-98973000D01*
X138660000Y-98946000D01*
X138569500Y-98930400D01*
X138497200Y-99075900D01*
X138594500Y-99084300D01*
X138676400Y-99108100D01*
X138745500Y-99149300D01*
X138797900Y-99216000D01*
X138817900Y-99302200D01*
X138807100Y-99391300D01*
X138767700Y-99464300D01*
X138700000Y-99521400D01*
X138612500Y-99533800D01*
X138348300Y-99533800D01*
X138261300Y-99517900D01*
X138195600Y-99459700D01*
X138158300Y-99385600D01*
X138149500Y-99295200D01*
X138171200Y-99209600D01*
X138224400Y-99143900D01*
X138288300Y-99107200D01*
X138369600Y-99085200D01*
X138470400Y-99076200D01*
X138390500Y-98941700D01*
X138418200Y-98695600D01*
X138500700Y-98697100D01*
X138591200Y-98688500D01*
X138674800Y-98667400D01*
X138754500Y-98631800D01*
X138825400Y-98579900D01*
X138880600Y-98513600D01*
X138920000Y-98434000D01*
X138939300Y-98349400D01*
X138938500Y-98256000D01*
X138918600Y-98168500D01*
X138879800Y-98094100D01*
X138822600Y-98033300D01*
X138757300Y-97991300D01*
X138679500Y-97961700D01*
X138589300Y-97944700D01*
X138489300Y-97940000D01*
X138439500Y-97978300D01*
X138439500Y-98506700D01*
X138388100Y-98544500D01*
X138302800Y-98522500D01*
X138231300Y-98479300D01*
X138174000Y-98413100D01*
X138144300Y-98332800D01*
X138142900Y-98240600D01*
X138168500Y-98158900D01*
X138219000Y-98088500D01*
X138246600Y-98024800D01*
X138199100Y-97968300D01*
X138054300Y-97640600D01*
X138834400Y-97640600D01*
X138906200Y-97624300D01*
X138906200Y-97536300D01*
X138863400Y-97491000D01*
X138838200Y-97468500D01*
X138893600Y-97401300D01*
X138920800Y-97321200D01*
X138919900Y-97225100D01*
X138851100Y-97209200D01*
X138774100Y-97209200D01*
X138782400Y-97298400D01*
X138762200Y-97384400D01*
X138712900Y-97450900D01*
X138634800Y-97491000D01*
X138018300Y-97491000D01*
X138016800Y-97577500D01*
X138037200Y-97629000D01*
X138181200Y-97966400D01*
X138122100Y-98011900D01*
X138070400Y-98077200D01*
X138036000Y-98154700D01*
X138018900Y-98244200D01*
X138017000Y-98304300D01*
X138028000Y-98394500D01*
X138056700Y-98475600D01*
X138103100Y-98547600D01*
X138164100Y-98607600D01*
X138234100Y-98651400D01*
X138314600Y-98680600D01*
X138393400Y-98693300D01*
X138371800Y-98933100D01*
X138294000Y-98947000D01*
X138215000Y-98974600D01*
X138146800Y-99013700D01*
X138082500Y-99073400D01*
X138039300Y-99146300D01*
X138018700Y-99231200D01*
X138020400Y-99327200D01*
X138043000Y-99413200D01*
X138086300Y-99484400D01*
X138127800Y-99534800D01*
X138040100Y-99542100D01*
X138034400Y-99625000D01*
X138058400Y-99672300D01*
X138039100Y-99959000D01*
X138016800Y-100008300D01*
X138016800Y-100096300D01*
X138637300Y-100098500D01*
X138722600Y-100120900D01*
X138775900Y-100171700D01*
X138799100Y-100257000D01*
X138791900Y-100351500D01*
X138748600Y-100426600D01*
X138679600Y-100475500D01*
X138591100Y-100493600D01*
X138062700Y-100493600D01*
X138016800Y-100535800D01*
X138016800Y-100623800D01*
X138076700Y-100652100D01*
X138607000Y-100652200D01*
X138702000Y-100669000D01*
X138765200Y-100714800D01*
X138796700Y-100789600D01*
X138796700Y-100885100D01*
X138767300Y-100964900D01*
X138708800Y-101025300D01*
X138624500Y-101048300D01*
X138096100Y-101048300D01*
X138016800Y-101057100D01*
X138016800Y-101145200D01*
X138052100Y-101198000D01*
X138832200Y-101198000D01*
X138894900Y-101462200D01*
X138114800Y-101462200D01*
X138034400Y-101469900D01*
X138034400Y-101558000D01*
X138068600Y-101611900D01*
X138082700Y-101652800D01*
X138042200Y-101724400D01*
X138020700Y-101811900D01*
X138018300Y-101912300D01*
X138037900Y-102000800D01*
X138080300Y-102071300D01*
X138131400Y-102113200D01*
X138051500Y-102411900D01*
X138016800Y-102438500D01*
X138016800Y-102526600D01*
X138060200Y-102591300D01*
X138869800Y-103123300D01*
X138939000Y-103170400D01*
X138058300Y-103170400D01*
X138016800Y-103217000D01*
X138016800Y-103305100D01*
X138069400Y-103324600D01*
X138068200Y-104093400D01*
X138016800Y-104129600D01*
X138016800Y-104217700D01*
X138074600Y-104232700D01*
X138063000Y-104517400D01*
X138034400Y-104543300D01*
X138034400Y-104631400D01*
X138051300Y-104667100D01*
X138120900Y-104694800D01*
X138064900Y-104764700D01*
X138030300Y-104842700D01*
X138017000Y-104929000D01*
X138025000Y-105022200D01*
X138054200Y-105102800D01*
X138105700Y-105170600D01*
X138166800Y-105212000D01*
X138053700Y-105495800D01*
X138016800Y-105498000D01*
X138016800Y-105586100D01*
X138046300Y-105644700D01*
X138838900Y-105644700D01*
X138906200Y-105623800D01*
X138906200Y-105548300D01*
X139071600Y-105536700D01*
X139072800Y-105618900D01*
X139128300Y-105655300D01*
X138908700Y-105942700D01*
X138855700Y-105926500D01*
X138782600Y-106010500D01*
X138764000Y-106097600D01*
X138716200Y-106165200D01*
X138639500Y-106208200D01*
X138023000Y-106208200D01*
X138016800Y-106290100D01*
X138037100Y-106357900D01*
X138817200Y-106357900D01*
X138671700Y-106677900D01*
X138594400Y-106662600D01*
X138494000Y-106657300D01*
X138439500Y-106690900D01*
X138439500Y-107219300D01*
X138393000Y-107262400D01*
X138307000Y-107241500D01*
X138234700Y-107199400D01*
X138176400Y-107134300D01*
X138145200Y-107054700D01*
X138142300Y-106962700D01*
X138166500Y-106880100D01*
X138215900Y-106809200D01*
X138249600Y-106745700D01*
X138194500Y-106676900D01*
X138125300Y-106726100D01*
X138072700Y-106790800D01*
X138037400Y-106867500D01*
X138019400Y-106956400D01*
X138016900Y-107016500D01*
X138027000Y-107107200D01*
X138054800Y-107188800D01*
X138100200Y-107261300D01*
X138160700Y-107322200D01*
X138230100Y-107366700D01*
X138310100Y-107396700D01*
X138388300Y-107410100D01*
X138390000Y-107692500D01*
X138310300Y-107688900D01*
X138224900Y-107708900D01*
X138152200Y-107752400D01*
X138094300Y-107816500D01*
X138056100Y-107886700D01*
X138030800Y-107968500D01*
X138018300Y-108061800D01*
X138018700Y-108157800D01*
X138032500Y-108244800D01*
X138059900Y-108327000D01*
X138103600Y-108407300D01*
X138160100Y-108472600D01*
X138230100Y-108521800D01*
X138311300Y-108551400D01*
X138386700Y-108545700D01*
X138386700Y-108457600D01*
X138352300Y-108398800D01*
X138269100Y-108372700D01*
X138206800Y-108316600D01*
X138169400Y-108244900D01*
X138151000Y-108157000D01*
X138151500Y-108056000D01*
X138170400Y-107969500D01*
X138210000Y-107900200D01*
X138280300Y-107854200D01*
X138373500Y-107848500D01*
X138452400Y-107880900D01*
X138497900Y-107935800D01*
X138531100Y-108007500D01*
X138563100Y-108105700D01*
X138600500Y-108222400D01*
X138637500Y-108309100D01*
X138677600Y-108380300D01*
X138722400Y-108437600D01*
X138792000Y-108491800D01*
X138872900Y-108519800D01*
X138962600Y-108521800D01*
X139045100Y-108499000D01*
X139117200Y-108451700D01*
X139167400Y-108394200D01*
X139513700Y-108642200D01*
X139513700Y-108694100D01*
G36*
X138814500Y-107067200D02*
G01*
X138781400Y-107146200D01*
X138721400Y-107206700D01*
X138644900Y-107242100D01*
X138562800Y-107243700D01*
X138562800Y-106891400D01*
X138576100Y-106815800D01*
X138672500Y-106828100D01*
X138744500Y-106862900D01*
X138796500Y-106926300D01*
X138817700Y-107012300D01*
X138814500Y-107067200D01*
G37*
X138814500Y-107067200D02*
X138781400Y-107146200D01*
X138721400Y-107206700D01*
X138644900Y-107242100D01*
X138562800Y-107243700D01*
X138562800Y-106891400D01*
X138576100Y-106815800D01*
X138672500Y-106828100D01*
X138744500Y-106862900D01*
X138796500Y-106926300D01*
X138817700Y-107012300D01*
X138814500Y-107067200D01*
G36*
X138156000Y-104855000D02*
G01*
X138191600Y-104772300D01*
X138250800Y-104704100D01*
X138329700Y-104684900D01*
X138417800Y-104684900D01*
X138465900Y-104724900D01*
X138465900Y-104815500D01*
X138455100Y-104932300D01*
X138424700Y-105015500D01*
X138374900Y-105065100D01*
X138305000Y-105081100D01*
X138217000Y-105060200D01*
X138165200Y-105001100D01*
X138156000Y-104855000D01*
G37*
X138156000Y-104855000D02*
X138191600Y-104772300D01*
X138250800Y-104704100D01*
X138329700Y-104684900D01*
X138417800Y-104684900D01*
X138465900Y-104724900D01*
X138465900Y-104815500D01*
X138455100Y-104932300D01*
X138424700Y-105015500D01*
X138374900Y-105065100D01*
X138305000Y-105081100D01*
X138217000Y-105060200D01*
X138165200Y-105001100D01*
X138156000Y-104855000D01*
G36*
X138813600Y-98354500D02*
G01*
X138778700Y-98432800D01*
X138717800Y-98491800D01*
X138640300Y-98526100D01*
X138562800Y-98521800D01*
X138562800Y-98169500D01*
X138581800Y-98098600D01*
X138676900Y-98112100D01*
X138747700Y-98148100D01*
X138798400Y-98213000D01*
X138818000Y-98300200D01*
X138813600Y-98354500D01*
G37*
X138813600Y-98354500D02*
X138778700Y-98432800D01*
X138717800Y-98491800D01*
X138640300Y-98526100D01*
X138562800Y-98521800D01*
X138562800Y-98169500D01*
X138581800Y-98098600D01*
X138676900Y-98112100D01*
X138747700Y-98148100D01*
X138798400Y-98213000D01*
X138818000Y-98300200D01*
X138813600Y-98354500D01*
D13*
%TO.C,SW3*%
X174725500Y-115986500D02*
X169825500Y-115986500D01*
X169825500Y-112486500D02*
X174725500Y-112486500D01*
X169825500Y-113886500D02*
X169825500Y-114586500D01*
X174725500Y-113886500D02*
X174725500Y-114586500D01*
X174725500Y-112486500D02*
X174725500Y-112586500D01*
X174725500Y-115886500D02*
X174725500Y-115986500D01*
X169825500Y-115986500D02*
X169825500Y-115886500D01*
X169825500Y-112486500D02*
X169825500Y-112586500D01*
%TO.C,SW2*%
X161071500Y-114580500D02*
X160971500Y-114580500D01*
X157571500Y-114580500D02*
X157671500Y-114580500D01*
X157671500Y-119480500D02*
X157571500Y-119480500D01*
X161071500Y-119480500D02*
X160971500Y-119480500D01*
X159671500Y-119480500D02*
X158971500Y-119480500D01*
X159671500Y-114580500D02*
X158971500Y-114580500D01*
X161071500Y-114580500D02*
X161071500Y-119480500D01*
X157571500Y-119480500D02*
X157571500Y-114580500D01*
D14*
%TO.C,J1*%
X147803000Y-116502000D02*
X147803000Y-117267000D01*
X147803000Y-120327000D02*
X147803000Y-120747000D01*
X147803000Y-120747000D02*
X156743000Y-120747000D01*
X156743000Y-120747000D02*
X156743000Y-120327000D01*
X156743000Y-116502000D02*
X156743000Y-117267000D01*
D15*
X155473000Y-113197000D02*
G75*
G03*
X155473000Y-113197000I-100000J0D01*
G01*
D12*
%TO.C,U7*%
X144976000Y-92600000D02*
X144976000Y-110600000D01*
X170506000Y-92600000D02*
X144976000Y-92600000D01*
X170506000Y-110600000D02*
X170506000Y-92600000D01*
X144976000Y-110600000D02*
X170506000Y-110600000D01*
D11*
X170561000Y-110617000D02*
X176530000Y-110617000D01*
X170561000Y-92583000D02*
X176530000Y-92583000D01*
X176530000Y-92583000D02*
X176530000Y-110617000D01*
D13*
%TO.C,IO0*%
X131683000Y-100435000D02*
X131683000Y-101360000D01*
X127983000Y-100435000D02*
X127983000Y-105135000D01*
X129558000Y-105235000D02*
X130108000Y-105235000D01*
X129558000Y-100335000D02*
X130108000Y-100335000D01*
X131683000Y-104210000D02*
X131683000Y-105135000D01*
D15*
%TO.C,D5*%
X130698000Y-85337000D02*
X132998000Y-85337000D01*
X129348000Y-87637000D02*
X132998000Y-87637000D01*
%TO.C,*%
D11*
%TO.C,Speaker*%
D10*
X132535642Y-100463142D02*
X132507071Y-100377428D01*
X132507071Y-100234571D01*
X132535642Y-100177428D01*
X132564214Y-100148857D01*
X132621357Y-100120285D01*
X132678500Y-100120285D01*
X132735642Y-100148857D01*
X132764214Y-100177428D01*
X132792785Y-100234571D01*
X132821357Y-100348857D01*
X132849928Y-100406000D01*
X132878500Y-100434571D01*
X132935642Y-100463142D01*
X132992785Y-100463142D01*
X133049928Y-100434571D01*
X133078500Y-100406000D01*
X133107071Y-100348857D01*
X133107071Y-100206000D01*
X133078500Y-100120285D01*
X132907071Y-99863142D02*
X132307071Y-99863142D01*
X132878500Y-99863142D02*
X132907071Y-99806000D01*
X132907071Y-99691714D01*
X132878500Y-99634571D01*
X132849928Y-99606000D01*
X132792785Y-99577428D01*
X132621357Y-99577428D01*
X132564214Y-99606000D01*
X132535642Y-99634571D01*
X132507071Y-99691714D01*
X132507071Y-99806000D01*
X132535642Y-99863142D01*
X132535642Y-99091714D02*
X132507071Y-99148857D01*
X132507071Y-99263142D01*
X132535642Y-99320285D01*
X132592785Y-99348857D01*
X132821357Y-99348857D01*
X132878500Y-99320285D01*
X132907071Y-99263142D01*
X132907071Y-99148857D01*
X132878500Y-99091714D01*
X132821357Y-99063142D01*
X132764214Y-99063142D01*
X132707071Y-99348857D01*
X132507071Y-98548857D02*
X132821357Y-98548857D01*
X132878500Y-98577428D01*
X132907071Y-98634571D01*
X132907071Y-98748857D01*
X132878500Y-98806000D01*
X132535642Y-98548857D02*
X132507071Y-98606000D01*
X132507071Y-98748857D01*
X132535642Y-98806000D01*
X132592785Y-98834571D01*
X132649928Y-98834571D01*
X132707071Y-98806000D01*
X132735642Y-98748857D01*
X132735642Y-98606000D01*
X132764214Y-98548857D01*
X132507071Y-98263142D02*
X133107071Y-98263142D01*
X132735642Y-98206000D02*
X132507071Y-98034571D01*
X132907071Y-98034571D02*
X132678500Y-98263142D01*
X132535642Y-97548857D02*
X132507071Y-97606000D01*
X132507071Y-97720285D01*
X132535642Y-97777428D01*
X132592785Y-97806000D01*
X132821357Y-97806000D01*
X132878500Y-97777428D01*
X132907071Y-97720285D01*
X132907071Y-97606000D01*
X132878500Y-97548857D01*
X132821357Y-97520285D01*
X132764214Y-97520285D01*
X132707071Y-97806000D01*
X132507071Y-97263142D02*
X132907071Y-97263142D01*
X132792785Y-97263142D02*
X132849928Y-97234571D01*
X132878500Y-97206000D01*
X132907071Y-97148857D01*
X132907071Y-97091714D01*
%TO.C,SW3*%
X173202500Y-114542857D02*
X173116785Y-114571428D01*
X172973928Y-114571428D01*
X172916785Y-114542857D01*
X172888214Y-114514285D01*
X172859642Y-114457142D01*
X172859642Y-114400000D01*
X172888214Y-114342857D01*
X172916785Y-114314285D01*
X172973928Y-114285714D01*
X173088214Y-114257142D01*
X173145357Y-114228571D01*
X173173928Y-114200000D01*
X173202500Y-114142857D01*
X173202500Y-114085714D01*
X173173928Y-114028571D01*
X173145357Y-114000000D01*
X173088214Y-113971428D01*
X172945357Y-113971428D01*
X172859642Y-114000000D01*
X172659642Y-113971428D02*
X172516785Y-114571428D01*
X172402500Y-114142857D01*
X172288214Y-114571428D01*
X172145357Y-113971428D01*
X171973928Y-113971428D02*
X171602500Y-113971428D01*
X171802500Y-114200000D01*
X171716785Y-114200000D01*
X171659642Y-114228571D01*
X171631071Y-114257142D01*
X171602500Y-114314285D01*
X171602500Y-114457142D01*
X171631071Y-114514285D01*
X171659642Y-114542857D01*
X171716785Y-114571428D01*
X171888214Y-114571428D01*
X171945357Y-114542857D01*
X171973928Y-114514285D01*
%TO.C,SW2*%
X160185000Y-117400357D02*
X160099285Y-117428928D01*
X159956428Y-117428928D01*
X159899285Y-117400357D01*
X159870714Y-117371785D01*
X159842142Y-117314642D01*
X159842142Y-117257500D01*
X159870714Y-117200357D01*
X159899285Y-117171785D01*
X159956428Y-117143214D01*
X160070714Y-117114642D01*
X160127857Y-117086071D01*
X160156428Y-117057500D01*
X160185000Y-117000357D01*
X160185000Y-116943214D01*
X160156428Y-116886071D01*
X160127857Y-116857500D01*
X160070714Y-116828928D01*
X159927857Y-116828928D01*
X159842142Y-116857500D01*
X159642142Y-116828928D02*
X159499285Y-117428928D01*
X159385000Y-117000357D01*
X159270714Y-117428928D01*
X159127857Y-116828928D01*
X158927857Y-116886071D02*
X158899285Y-116857500D01*
X158842142Y-116828928D01*
X158699285Y-116828928D01*
X158642142Y-116857500D01*
X158613571Y-116886071D01*
X158585000Y-116943214D01*
X158585000Y-117000357D01*
X158613571Y-117086071D01*
X158956428Y-117428928D01*
X158585000Y-117428928D01*
%TO.C,J1*%
X152473000Y-113018928D02*
X152473000Y-113447500D01*
X152501571Y-113533214D01*
X152558714Y-113590357D01*
X152644428Y-113618928D01*
X152701571Y-113618928D01*
X151873000Y-113618928D02*
X152215857Y-113618928D01*
X152044428Y-113618928D02*
X152044428Y-113018928D01*
X152101571Y-113104642D01*
X152158714Y-113161785D01*
X152215857Y-113190357D01*
%TO.C,U7*%
X171270571Y-110439142D02*
X170784857Y-110439142D01*
X170727714Y-110410571D01*
X170699142Y-110382000D01*
X170670571Y-110324857D01*
X170670571Y-110210571D01*
X170699142Y-110153428D01*
X170727714Y-110124857D01*
X170784857Y-110096285D01*
X171270571Y-110096285D01*
X171270571Y-109867714D02*
X171270571Y-109467714D01*
X170670571Y-109724857D01*
%TO.C,IO0*%
X130394000Y-103077928D02*
X130394000Y-102477928D01*
X129994000Y-102477928D02*
X129879714Y-102477928D01*
X129822571Y-102506500D01*
X129765428Y-102563642D01*
X129736857Y-102677928D01*
X129736857Y-102877928D01*
X129765428Y-102992214D01*
X129822571Y-103049357D01*
X129879714Y-103077928D01*
X129994000Y-103077928D01*
X130051142Y-103049357D01*
X130108285Y-102992214D01*
X130136857Y-102877928D01*
X130136857Y-102677928D01*
X130108285Y-102563642D01*
X130051142Y-102506500D01*
X129994000Y-102477928D01*
X129365428Y-102477928D02*
X129308285Y-102477928D01*
X129251142Y-102506500D01*
X129222571Y-102535071D01*
X129194000Y-102592214D01*
X129165428Y-102706500D01*
X129165428Y-102849357D01*
X129194000Y-102963642D01*
X129222571Y-103020785D01*
X129251142Y-103049357D01*
X129308285Y-103077928D01*
X129365428Y-103077928D01*
X129422571Y-103049357D01*
X129451142Y-103020785D01*
X129479714Y-102963642D01*
X129508285Y-102849357D01*
X129508285Y-102706500D01*
X129479714Y-102592214D01*
X129451142Y-102535071D01*
X129422571Y-102506500D01*
X129365428Y-102477928D01*
%TO.C,D5*%
X132268857Y-88663428D02*
X132268857Y-88063428D01*
X132126000Y-88063428D01*
X132040285Y-88092000D01*
X131983142Y-88149142D01*
X131954571Y-88206285D01*
X131926000Y-88320571D01*
X131926000Y-88406285D01*
X131954571Y-88520571D01*
X131983142Y-88577714D01*
X132040285Y-88634857D01*
X132126000Y-88663428D01*
X132268857Y-88663428D01*
X131383142Y-88063428D02*
X131668857Y-88063428D01*
X131697428Y-88349142D01*
X131668857Y-88320571D01*
X131611714Y-88292000D01*
X131468857Y-88292000D01*
X131411714Y-88320571D01*
X131383142Y-88349142D01*
X131354571Y-88406285D01*
X131354571Y-88549142D01*
X131383142Y-88606285D01*
X131411714Y-88634857D01*
X131468857Y-88663428D01*
X131611714Y-88663428D01*
X131668857Y-88634857D01*
X131697428Y-88606285D01*
%TD*%
M02*
