%TF.GenerationSoftware,KiCad,Pcbnew,5.1.10*%
%TF.CreationDate,2021-05-20T00:00:10+01:00*%
%TF.ProjectId,watch2-without-led-tab,77617463-6832-42d7-9769-74686f75742d,rev?*%
%TF.SameCoordinates,Original*%
%TF.FileFunction,Soldermask,Bot*%
%TF.FilePolarity,Negative*%
%FSLAX46Y46*%
G04 Gerber Fmt 4.6, Leading zero omitted, Abs format (unit mm)*
G04 Created by KiCad (PCBNEW 5.1.10) date 2021-05-20 00:00:10*
%MOMM*%
%LPD*%
G01*
G04 APERTURE LIST*
%ADD10O,1.700000X1.700000*%
%ADD11R,1.700000X1.700000*%
%ADD12R,1.450000X0.700000*%
%ADD13R,0.700000X1.450000*%
%ADD14O,1.200000X2.400000*%
%ADD15O,1.158000X2.316000*%
%ADD16C,0.630000*%
%ADD17R,1.000000X2.000000*%
%ADD18C,0.600000*%
%ADD19R,0.270000X1.000000*%
%ADD20R,0.520000X1.000000*%
%ADD21C,0.800000*%
%ADD22O,0.900000X3.000000*%
%ADD23O,0.900000X1.500000*%
%ADD24R,5.000000X5.000000*%
%ADD25R,1.000000X1.550000*%
%ADD26C,3.301600*%
%ADD27R,1.350000X1.350000*%
%ADD28O,1.350000X1.350000*%
%ADD29R,1.400000X0.800000*%
%ADD30R,1.000000X1.000000*%
%ADD31O,1.000000X1.000000*%
%ADD32C,1.700000*%
%ADD33C,1.800000*%
G04 APERTURE END LIST*
D10*
%TO.C,Speaker*%
X132842000Y-104140000D03*
D11*
X132842000Y-101600000D03*
%TD*%
D12*
%TO.C,SW3*%
X169695500Y-115236500D03*
X174855500Y-115236500D03*
X174855500Y-113236500D03*
X169695500Y-113236500D03*
%TD*%
D11*
%TO.C,REF\u002A\u002A*%
X171323000Y-91313000D03*
%TD*%
%TO.C,REF\u002A\u002A*%
X173799500Y-91313000D03*
D10*
X173799500Y-88773000D03*
X173799500Y-86233000D03*
%TD*%
D13*
%TO.C,SW2*%
X158321500Y-114450500D03*
X158321500Y-119610500D03*
X160321500Y-119610500D03*
X160321500Y-114450500D03*
%TD*%
D14*
%TO.C,J1*%
X147953000Y-118797000D03*
X156593000Y-118797000D03*
D15*
X147953000Y-114972000D03*
X156593000Y-114972000D03*
D16*
X155273000Y-115697000D03*
D17*
X150873000Y-118797000D03*
X153673000Y-118797000D03*
D16*
X149273000Y-115697000D03*
D18*
X149273000Y-115697000D03*
D19*
X151023000Y-114597000D03*
X151523000Y-114597000D03*
X152023000Y-114597000D03*
X152523000Y-114597000D03*
X153023000Y-114597000D03*
X153523000Y-114597000D03*
X150523000Y-114597000D03*
X154023000Y-114597000D03*
D20*
X149923000Y-114597000D03*
X154623000Y-114597000D03*
X149173000Y-114597000D03*
X155373000Y-114597000D03*
%TD*%
D21*
%TO.C,U7*%
X164106000Y-100000000D03*
X163106000Y-100000000D03*
X162106000Y-100000000D03*
X161106000Y-100000000D03*
X160106000Y-100000000D03*
X164106000Y-102000000D03*
X163106000Y-102000000D03*
X162106000Y-102000000D03*
X161106000Y-102000000D03*
X160106000Y-102000000D03*
X160106000Y-101000000D03*
X161106000Y-101000000D03*
X162106000Y-101000000D03*
X163106000Y-101000000D03*
X164106000Y-101000000D03*
X164106000Y-103000000D03*
X163106000Y-103000000D03*
X162106000Y-103000000D03*
X161106000Y-103000000D03*
X160106000Y-103000000D03*
X160106000Y-104000000D03*
X161106000Y-104000000D03*
X162106000Y-104000000D03*
X163106000Y-104000000D03*
D22*
X169016000Y-92570000D03*
X167746000Y-92570000D03*
X166476000Y-92570000D03*
X165206000Y-92570000D03*
X163936000Y-92570000D03*
X162666000Y-92570000D03*
X161396000Y-92570000D03*
X160126000Y-92570000D03*
X158856000Y-92570000D03*
X157586000Y-92570000D03*
X156316000Y-92570000D03*
X155046000Y-92570000D03*
X153776000Y-92570000D03*
X152506000Y-92570000D03*
X151206000Y-92600000D03*
X149936000Y-92600000D03*
X148666000Y-92600000D03*
X147396000Y-92600000D03*
X146126000Y-92600000D03*
D23*
X146126000Y-110600000D03*
D22*
X148666000Y-110600000D03*
X149936000Y-110600000D03*
X151206000Y-110600000D03*
X152506000Y-110600000D03*
X153776000Y-110600000D03*
X155046000Y-110600000D03*
X156316000Y-110600000D03*
X157586000Y-110600000D03*
X158856000Y-110600000D03*
X160126000Y-110600000D03*
X161396000Y-110600000D03*
X162666000Y-110600000D03*
X163936000Y-110600000D03*
X165206000Y-110600000D03*
X166476000Y-110600000D03*
X167746000Y-110600000D03*
X169016000Y-110600000D03*
D24*
X162096000Y-102000000D03*
D21*
X164106000Y-104000000D03*
%TD*%
D25*
%TO.C,IO0*%
X130683000Y-100160000D03*
X130683000Y-105410000D03*
X128983000Y-105410000D03*
X128983000Y-100160000D03*
%TD*%
D11*
%TO.C,J4*%
X136652000Y-95250000D03*
D10*
X134112000Y-95250000D03*
X131572000Y-95250000D03*
%TD*%
D26*
%TO.C,U$7*%
X137134600Y-118198900D03*
%TD*%
%TO.C,U$8*%
X170154600Y-118198900D03*
%TD*%
%TO.C,U$9*%
X137134600Y-87718900D03*
%TD*%
%TO.C,U$10*%
X170154600Y-87718900D03*
%TD*%
D27*
%TO.C,BT1*%
X173577500Y-116840000D03*
D28*
X175577500Y-116840000D03*
%TD*%
D29*
%TO.C,D5*%
X130048000Y-86487000D03*
X133648000Y-86487000D03*
%TD*%
D30*
%TO.C,J3*%
X146304000Y-119380000D03*
D31*
X146304000Y-118110000D03*
X146304000Y-116840000D03*
%TD*%
D10*
%TO.C,J5*%
X131572000Y-110490000D03*
X134112000Y-110490000D03*
D11*
X136652000Y-110490000D03*
%TD*%
D32*
%TO.C,J6*%
X166370000Y-87757000D03*
D10*
X163830000Y-87757000D03*
X161290000Y-87757000D03*
X158750000Y-87757000D03*
X156210000Y-87757000D03*
X153670000Y-87757000D03*
X151130000Y-87757000D03*
X148590000Y-87757000D03*
X146050000Y-87757000D03*
X143510000Y-87757000D03*
X140970000Y-87757000D03*
%TD*%
D21*
%TO.C,MK1*%
X129095500Y-113855500D03*
%TD*%
%TO.C,U9*%
G36*
G01*
X128132000Y-117870800D02*
X128132000Y-116571200D01*
G75*
G02*
X128382200Y-116321000I250200J0D01*
G01*
X129681800Y-116321000D01*
G75*
G02*
X129932000Y-116571200I0J-250200D01*
G01*
X129932000Y-117870800D01*
G75*
G02*
X129681800Y-118121000I-250200J0D01*
G01*
X128382200Y-118121000D01*
G75*
G02*
X128132000Y-117870800I0J250200D01*
G01*
G37*
D33*
X131572000Y-117221000D03*
X134112000Y-117221000D03*
%TD*%
M02*
