%TF.GenerationSoftware,KiCad,Pcbnew,5.1.10*%
%TF.CreationDate,2021-05-20T00:00:09+01:00*%
%TF.ProjectId,watch2-without-led-tab,77617463-6832-42d7-9769-74686f75742d,rev?*%
%TF.SameCoordinates,Original*%
%TF.FileFunction,Paste,Top*%
%TF.FilePolarity,Positive*%
%FSLAX46Y46*%
G04 Gerber Fmt 4.6, Leading zero omitted, Abs format (unit mm)*
G04 Created by KiCad (PCBNEW 5.1.10) date 2021-05-20 00:00:09*
%MOMM*%
%LPD*%
G01*
G04 APERTURE LIST*
%ADD10C,0.001000*%
%ADD11R,0.700000X1.450000*%
%ADD12R,0.800000X0.900000*%
%ADD13C,1.700000*%
%ADD14R,1.800000X1.800000*%
%ADD15R,0.522000X0.600000*%
%ADD16R,0.400000X1.200000*%
%ADD17R,0.650000X1.060000*%
%ADD18R,1.060000X0.650000*%
G04 APERTURE END LIST*
D10*
%TO.C,MK1*%
G36*
X128710500Y-113325500D02*
G01*
X128810500Y-113425500D01*
X128865500Y-113390500D01*
X128975500Y-113350500D01*
X128975500Y-113345500D01*
X128985500Y-113350500D01*
X129090500Y-113335500D01*
X129100500Y-113331897D01*
X129100500Y-113335500D01*
X129220500Y-113350500D01*
X129320109Y-113393963D01*
X129388166Y-113429328D01*
X129485500Y-113330500D01*
X129600500Y-113220500D01*
X129505500Y-113155500D01*
X129405500Y-113105500D01*
X129315500Y-113075500D01*
X129235500Y-113055500D01*
X129095500Y-113045500D01*
X128935309Y-113059297D01*
X128785500Y-113105500D01*
X128695500Y-113150500D01*
X128595734Y-113215191D01*
X128710500Y-113325500D01*
G37*
X128710500Y-113325500D02*
X128810500Y-113425500D01*
X128865500Y-113390500D01*
X128975500Y-113350500D01*
X128975500Y-113345500D01*
X128985500Y-113350500D01*
X129090500Y-113335500D01*
X129100500Y-113331897D01*
X129100500Y-113335500D01*
X129220500Y-113350500D01*
X129320109Y-113393963D01*
X129388166Y-113429328D01*
X129485500Y-113330500D01*
X129600500Y-113220500D01*
X129505500Y-113155500D01*
X129405500Y-113105500D01*
X129315500Y-113075500D01*
X129235500Y-113055500D01*
X129095500Y-113045500D01*
X128935309Y-113059297D01*
X128785500Y-113105500D01*
X128695500Y-113150500D01*
X128595734Y-113215191D01*
X128710500Y-113325500D01*
G36*
X128565500Y-114235500D02*
G01*
X128670500Y-114135500D01*
X128635500Y-114085500D01*
X128595500Y-113975500D01*
X128581897Y-113855500D01*
X128595500Y-113735500D01*
X128633963Y-113630891D01*
X128669328Y-113567834D01*
X128570500Y-113470500D01*
X128455500Y-113355500D01*
X128390500Y-113450500D01*
X128345500Y-113545500D01*
X128315500Y-113635500D01*
X128295500Y-113715500D01*
X128285500Y-113855500D01*
X128299297Y-114015691D01*
X128345500Y-114165500D01*
X128405500Y-114280500D01*
X128450191Y-114350266D01*
X128565500Y-114235500D01*
G37*
X128565500Y-114235500D02*
X128670500Y-114135500D01*
X128635500Y-114085500D01*
X128595500Y-113975500D01*
X128581897Y-113855500D01*
X128595500Y-113735500D01*
X128633963Y-113630891D01*
X128669328Y-113567834D01*
X128570500Y-113470500D01*
X128455500Y-113355500D01*
X128390500Y-113450500D01*
X128345500Y-113545500D01*
X128315500Y-113635500D01*
X128295500Y-113715500D01*
X128285500Y-113855500D01*
X128299297Y-114015691D01*
X128345500Y-114165500D01*
X128405500Y-114280500D01*
X128450191Y-114350266D01*
X128565500Y-114235500D01*
G36*
X129480500Y-114385500D02*
G01*
X129375500Y-114280500D01*
X129325500Y-114315500D01*
X129215500Y-114355500D01*
X129095500Y-114369103D01*
X128975500Y-114355500D01*
X128870891Y-114317037D01*
X128812834Y-114276672D01*
X128715500Y-114375500D01*
X128595500Y-114495500D01*
X128690500Y-114560500D01*
X128785500Y-114605500D01*
X128865500Y-114635500D01*
X128955500Y-114655500D01*
X129035500Y-114665500D01*
X129160500Y-114665500D01*
X129255691Y-114651703D01*
X129330500Y-114635500D01*
X129405500Y-114605500D01*
X129500500Y-114560500D01*
X129595266Y-114495809D01*
X129480500Y-114385500D01*
G37*
X129480500Y-114385500D02*
X129375500Y-114280500D01*
X129325500Y-114315500D01*
X129215500Y-114355500D01*
X129095500Y-114369103D01*
X128975500Y-114355500D01*
X128870891Y-114317037D01*
X128812834Y-114276672D01*
X128715500Y-114375500D01*
X128595500Y-114495500D01*
X128690500Y-114560500D01*
X128785500Y-114605500D01*
X128865500Y-114635500D01*
X128955500Y-114655500D01*
X129035500Y-114665500D01*
X129160500Y-114665500D01*
X129255691Y-114651703D01*
X129330500Y-114635500D01*
X129405500Y-114605500D01*
X129500500Y-114560500D01*
X129595266Y-114495809D01*
X129480500Y-114385500D01*
G36*
X129625500Y-113480500D02*
G01*
X129530500Y-113575500D01*
X129555500Y-113625500D01*
X129580500Y-113680500D01*
X129595500Y-113735500D01*
X129605500Y-113795500D01*
X129609103Y-113855500D01*
X129595500Y-113975500D01*
X129557037Y-114080109D01*
X129521672Y-114138166D01*
X129620500Y-114240500D01*
X129735500Y-114355500D01*
X129795500Y-114265500D01*
X129845500Y-114165500D01*
X129875500Y-114085500D01*
X129895500Y-113995500D01*
X129905500Y-113855500D01*
X129891703Y-113695309D01*
X129845500Y-113545500D01*
X129795500Y-113440500D01*
X129740809Y-113365734D01*
X129625500Y-113480500D01*
G37*
X129625500Y-113480500D02*
X129530500Y-113575500D01*
X129555500Y-113625500D01*
X129580500Y-113680500D01*
X129595500Y-113735500D01*
X129605500Y-113795500D01*
X129609103Y-113855500D01*
X129595500Y-113975500D01*
X129557037Y-114080109D01*
X129521672Y-114138166D01*
X129620500Y-114240500D01*
X129735500Y-114355500D01*
X129795500Y-114265500D01*
X129845500Y-114165500D01*
X129875500Y-114085500D01*
X129895500Y-113995500D01*
X129905500Y-113855500D01*
X129891703Y-113695309D01*
X129845500Y-113545500D01*
X129795500Y-113440500D01*
X129740809Y-113365734D01*
X129625500Y-113480500D01*
%TD*%
%TO.C,R31*%
G36*
G01*
X145237500Y-93023001D02*
X145237500Y-90872999D01*
G75*
G02*
X145487499Y-90623000I249999J0D01*
G01*
X146112501Y-90623000D01*
G75*
G02*
X146362500Y-90872999I0J-249999D01*
G01*
X146362500Y-93023001D01*
G75*
G02*
X146112501Y-93273000I-249999J0D01*
G01*
X145487499Y-93273000D01*
G75*
G02*
X145237500Y-93023001I0J249999D01*
G01*
G37*
G36*
G01*
X142312500Y-93023001D02*
X142312500Y-90872999D01*
G75*
G02*
X142562499Y-90623000I249999J0D01*
G01*
X143187501Y-90623000D01*
G75*
G02*
X143437500Y-90872999I0J-249999D01*
G01*
X143437500Y-93023001D01*
G75*
G02*
X143187501Y-93273000I-249999J0D01*
G01*
X142562499Y-93273000D01*
G75*
G02*
X142312500Y-93023001I0J249999D01*
G01*
G37*
%TD*%
%TO.C,R28*%
G36*
G01*
X138758500Y-92959501D02*
X138758500Y-90809499D01*
G75*
G02*
X139008499Y-90559500I249999J0D01*
G01*
X139633501Y-90559500D01*
G75*
G02*
X139883500Y-90809499I0J-249999D01*
G01*
X139883500Y-92959501D01*
G75*
G02*
X139633501Y-93209500I-249999J0D01*
G01*
X139008499Y-93209500D01*
G75*
G02*
X138758500Y-92959501I0J249999D01*
G01*
G37*
G36*
G01*
X135833500Y-92959501D02*
X135833500Y-90809499D01*
G75*
G02*
X136083499Y-90559500I249999J0D01*
G01*
X136708501Y-90559500D01*
G75*
G02*
X136958500Y-90809499I0J-249999D01*
G01*
X136958500Y-92959501D01*
G75*
G02*
X136708501Y-93209500I-249999J0D01*
G01*
X136083499Y-93209500D01*
G75*
G02*
X135833500Y-92959501I0J249999D01*
G01*
G37*
%TD*%
%TO.C,R10*%
G36*
G01*
X164534001Y-118495500D02*
X163633999Y-118495500D01*
G75*
G02*
X163384000Y-118245501I0J249999D01*
G01*
X163384000Y-117720499D01*
G75*
G02*
X163633999Y-117470500I249999J0D01*
G01*
X164534001Y-117470500D01*
G75*
G02*
X164784000Y-117720499I0J-249999D01*
G01*
X164784000Y-118245501D01*
G75*
G02*
X164534001Y-118495500I-249999J0D01*
G01*
G37*
G36*
G01*
X164534001Y-120320500D02*
X163633999Y-120320500D01*
G75*
G02*
X163384000Y-120070501I0J249999D01*
G01*
X163384000Y-119545499D01*
G75*
G02*
X163633999Y-119295500I249999J0D01*
G01*
X164534001Y-119295500D01*
G75*
G02*
X164784000Y-119545499I0J-249999D01*
G01*
X164784000Y-120070501D01*
G75*
G02*
X164534001Y-120320500I-249999J0D01*
G01*
G37*
%TD*%
D11*
%TO.C,SW2*%
X160321500Y-119610500D03*
X160321500Y-114450500D03*
X158321500Y-114450500D03*
X158321500Y-119610500D03*
%TD*%
%TO.C,U3*%
G36*
G01*
X160874500Y-108804500D02*
X160874500Y-108929500D01*
G75*
G02*
X160812000Y-108992000I-62500J0D01*
G01*
X160037000Y-108992000D01*
G75*
G02*
X159974500Y-108929500I0J62500D01*
G01*
X159974500Y-108804500D01*
G75*
G02*
X160037000Y-108742000I62500J0D01*
G01*
X160812000Y-108742000D01*
G75*
G02*
X160874500Y-108804500I0J-62500D01*
G01*
G37*
G36*
G01*
X160874500Y-108154500D02*
X160874500Y-108279500D01*
G75*
G02*
X160812000Y-108342000I-62500J0D01*
G01*
X160037000Y-108342000D01*
G75*
G02*
X159974500Y-108279500I0J62500D01*
G01*
X159974500Y-108154500D01*
G75*
G02*
X160037000Y-108092000I62500J0D01*
G01*
X160812000Y-108092000D01*
G75*
G02*
X160874500Y-108154500I0J-62500D01*
G01*
G37*
G36*
G01*
X160874500Y-107504500D02*
X160874500Y-107629500D01*
G75*
G02*
X160812000Y-107692000I-62500J0D01*
G01*
X160037000Y-107692000D01*
G75*
G02*
X159974500Y-107629500I0J62500D01*
G01*
X159974500Y-107504500D01*
G75*
G02*
X160037000Y-107442000I62500J0D01*
G01*
X160812000Y-107442000D01*
G75*
G02*
X160874500Y-107504500I0J-62500D01*
G01*
G37*
G36*
G01*
X160874500Y-106854500D02*
X160874500Y-106979500D01*
G75*
G02*
X160812000Y-107042000I-62500J0D01*
G01*
X160037000Y-107042000D01*
G75*
G02*
X159974500Y-106979500I0J62500D01*
G01*
X159974500Y-106854500D01*
G75*
G02*
X160037000Y-106792000I62500J0D01*
G01*
X160812000Y-106792000D01*
G75*
G02*
X160874500Y-106854500I0J-62500D01*
G01*
G37*
G36*
G01*
X157074500Y-106854500D02*
X157074500Y-106979500D01*
G75*
G02*
X157012000Y-107042000I-62500J0D01*
G01*
X156237000Y-107042000D01*
G75*
G02*
X156174500Y-106979500I0J62500D01*
G01*
X156174500Y-106854500D01*
G75*
G02*
X156237000Y-106792000I62500J0D01*
G01*
X157012000Y-106792000D01*
G75*
G02*
X157074500Y-106854500I0J-62500D01*
G01*
G37*
G36*
G01*
X157074500Y-107504500D02*
X157074500Y-107629500D01*
G75*
G02*
X157012000Y-107692000I-62500J0D01*
G01*
X156237000Y-107692000D01*
G75*
G02*
X156174500Y-107629500I0J62500D01*
G01*
X156174500Y-107504500D01*
G75*
G02*
X156237000Y-107442000I62500J0D01*
G01*
X157012000Y-107442000D01*
G75*
G02*
X157074500Y-107504500I0J-62500D01*
G01*
G37*
G36*
G01*
X157074500Y-108154500D02*
X157074500Y-108279500D01*
G75*
G02*
X157012000Y-108342000I-62500J0D01*
G01*
X156237000Y-108342000D01*
G75*
G02*
X156174500Y-108279500I0J62500D01*
G01*
X156174500Y-108154500D01*
G75*
G02*
X156237000Y-108092000I62500J0D01*
G01*
X157012000Y-108092000D01*
G75*
G02*
X157074500Y-108154500I0J-62500D01*
G01*
G37*
G36*
G01*
X157074500Y-108804500D02*
X157074500Y-108929500D01*
G75*
G02*
X157012000Y-108992000I-62500J0D01*
G01*
X156237000Y-108992000D01*
G75*
G02*
X156174500Y-108929500I0J62500D01*
G01*
X156174500Y-108804500D01*
G75*
G02*
X156237000Y-108742000I62500J0D01*
G01*
X157012000Y-108742000D01*
G75*
G02*
X157074500Y-108804500I0J-62500D01*
G01*
G37*
G36*
G01*
X159609500Y-108159500D02*
X159609500Y-108524500D01*
G75*
G02*
X159427000Y-108707000I-182500J0D01*
G01*
X158822000Y-108707000D01*
G75*
G02*
X158639500Y-108524500I0J182500D01*
G01*
X158639500Y-108159500D01*
G75*
G02*
X158822000Y-107977000I182500J0D01*
G01*
X159427000Y-107977000D01*
G75*
G02*
X159609500Y-108159500I0J-182500D01*
G01*
G37*
G36*
G01*
X159609500Y-107259500D02*
X159609500Y-107624500D01*
G75*
G02*
X159427000Y-107807000I-182500J0D01*
G01*
X158822000Y-107807000D01*
G75*
G02*
X158639500Y-107624500I0J182500D01*
G01*
X158639500Y-107259500D01*
G75*
G02*
X158822000Y-107077000I182500J0D01*
G01*
X159427000Y-107077000D01*
G75*
G02*
X159609500Y-107259500I0J-182500D01*
G01*
G37*
G36*
G01*
X158409500Y-108159500D02*
X158409500Y-108524500D01*
G75*
G02*
X158227000Y-108707000I-182500J0D01*
G01*
X157622000Y-108707000D01*
G75*
G02*
X157439500Y-108524500I0J182500D01*
G01*
X157439500Y-108159500D01*
G75*
G02*
X157622000Y-107977000I182500J0D01*
G01*
X158227000Y-107977000D01*
G75*
G02*
X158409500Y-108159500I0J-182500D01*
G01*
G37*
G36*
G01*
X158409500Y-107259500D02*
X158409500Y-107624500D01*
G75*
G02*
X158227000Y-107807000I-182500J0D01*
G01*
X157622000Y-107807000D01*
G75*
G02*
X157439500Y-107624500I0J182500D01*
G01*
X157439500Y-107259500D01*
G75*
G02*
X157622000Y-107077000I182500J0D01*
G01*
X158227000Y-107077000D01*
G75*
G02*
X158409500Y-107259500I0J-182500D01*
G01*
G37*
%TD*%
%TO.C,R15*%
G36*
G01*
X160420000Y-111321001D02*
X160420000Y-110420999D01*
G75*
G02*
X160669999Y-110171000I249999J0D01*
G01*
X161195001Y-110171000D01*
G75*
G02*
X161445000Y-110420999I0J-249999D01*
G01*
X161445000Y-111321001D01*
G75*
G02*
X161195001Y-111571000I-249999J0D01*
G01*
X160669999Y-111571000D01*
G75*
G02*
X160420000Y-111321001I0J249999D01*
G01*
G37*
G36*
G01*
X158595000Y-111321001D02*
X158595000Y-110420999D01*
G75*
G02*
X158844999Y-110171000I249999J0D01*
G01*
X159370001Y-110171000D01*
G75*
G02*
X159620000Y-110420999I0J-249999D01*
G01*
X159620000Y-111321001D01*
G75*
G02*
X159370001Y-111571000I-249999J0D01*
G01*
X158844999Y-111571000D01*
G75*
G02*
X158595000Y-111321001I0J249999D01*
G01*
G37*
%TD*%
%TO.C,C3*%
G36*
G01*
X156204500Y-110396000D02*
X156204500Y-111346000D01*
G75*
G02*
X155954500Y-111596000I-250000J0D01*
G01*
X155454500Y-111596000D01*
G75*
G02*
X155204500Y-111346000I0J250000D01*
G01*
X155204500Y-110396000D01*
G75*
G02*
X155454500Y-110146000I250000J0D01*
G01*
X155954500Y-110146000D01*
G75*
G02*
X156204500Y-110396000I0J-250000D01*
G01*
G37*
G36*
G01*
X158104500Y-110396000D02*
X158104500Y-111346000D01*
G75*
G02*
X157854500Y-111596000I-250000J0D01*
G01*
X157354500Y-111596000D01*
G75*
G02*
X157104500Y-111346000I0J250000D01*
G01*
X157104500Y-110396000D01*
G75*
G02*
X157354500Y-110146000I250000J0D01*
G01*
X157854500Y-110146000D01*
G75*
G02*
X158104500Y-110396000I0J-250000D01*
G01*
G37*
%TD*%
%TO.C,U10*%
G36*
G01*
X142256500Y-96435000D02*
X142256500Y-96635000D01*
G75*
G02*
X142156500Y-96735000I-100000J0D01*
G01*
X140731500Y-96735000D01*
G75*
G02*
X140631500Y-96635000I0J100000D01*
G01*
X140631500Y-96435000D01*
G75*
G02*
X140731500Y-96335000I100000J0D01*
G01*
X142156500Y-96335000D01*
G75*
G02*
X142256500Y-96435000I0J-100000D01*
G01*
G37*
G36*
G01*
X142256500Y-95785000D02*
X142256500Y-95985000D01*
G75*
G02*
X142156500Y-96085000I-100000J0D01*
G01*
X140731500Y-96085000D01*
G75*
G02*
X140631500Y-95985000I0J100000D01*
G01*
X140631500Y-95785000D01*
G75*
G02*
X140731500Y-95685000I100000J0D01*
G01*
X142156500Y-95685000D01*
G75*
G02*
X142256500Y-95785000I0J-100000D01*
G01*
G37*
G36*
G01*
X142256500Y-95135000D02*
X142256500Y-95335000D01*
G75*
G02*
X142156500Y-95435000I-100000J0D01*
G01*
X140731500Y-95435000D01*
G75*
G02*
X140631500Y-95335000I0J100000D01*
G01*
X140631500Y-95135000D01*
G75*
G02*
X140731500Y-95035000I100000J0D01*
G01*
X142156500Y-95035000D01*
G75*
G02*
X142256500Y-95135000I0J-100000D01*
G01*
G37*
G36*
G01*
X142256500Y-94485000D02*
X142256500Y-94685000D01*
G75*
G02*
X142156500Y-94785000I-100000J0D01*
G01*
X140731500Y-94785000D01*
G75*
G02*
X140631500Y-94685000I0J100000D01*
G01*
X140631500Y-94485000D01*
G75*
G02*
X140731500Y-94385000I100000J0D01*
G01*
X142156500Y-94385000D01*
G75*
G02*
X142256500Y-94485000I0J-100000D01*
G01*
G37*
G36*
G01*
X146481500Y-94485000D02*
X146481500Y-94685000D01*
G75*
G02*
X146381500Y-94785000I-100000J0D01*
G01*
X144956500Y-94785000D01*
G75*
G02*
X144856500Y-94685000I0J100000D01*
G01*
X144856500Y-94485000D01*
G75*
G02*
X144956500Y-94385000I100000J0D01*
G01*
X146381500Y-94385000D01*
G75*
G02*
X146481500Y-94485000I0J-100000D01*
G01*
G37*
G36*
G01*
X146481500Y-95135000D02*
X146481500Y-95335000D01*
G75*
G02*
X146381500Y-95435000I-100000J0D01*
G01*
X144956500Y-95435000D01*
G75*
G02*
X144856500Y-95335000I0J100000D01*
G01*
X144856500Y-95135000D01*
G75*
G02*
X144956500Y-95035000I100000J0D01*
G01*
X146381500Y-95035000D01*
G75*
G02*
X146481500Y-95135000I0J-100000D01*
G01*
G37*
G36*
G01*
X146481500Y-95785000D02*
X146481500Y-95985000D01*
G75*
G02*
X146381500Y-96085000I-100000J0D01*
G01*
X144956500Y-96085000D01*
G75*
G02*
X144856500Y-95985000I0J100000D01*
G01*
X144856500Y-95785000D01*
G75*
G02*
X144956500Y-95685000I100000J0D01*
G01*
X146381500Y-95685000D01*
G75*
G02*
X146481500Y-95785000I0J-100000D01*
G01*
G37*
G36*
G01*
X146481500Y-96435000D02*
X146481500Y-96635000D01*
G75*
G02*
X146381500Y-96735000I-100000J0D01*
G01*
X144956500Y-96735000D01*
G75*
G02*
X144856500Y-96635000I0J100000D01*
G01*
X144856500Y-96435000D01*
G75*
G02*
X144956500Y-96335000I100000J0D01*
G01*
X146381500Y-96335000D01*
G75*
G02*
X146481500Y-96435000I0J-100000D01*
G01*
G37*
%TD*%
%TO.C,C9*%
G36*
G01*
X144266500Y-97632500D02*
X144266500Y-98582500D01*
G75*
G02*
X144016500Y-98832500I-250000J0D01*
G01*
X143516500Y-98832500D01*
G75*
G02*
X143266500Y-98582500I0J250000D01*
G01*
X143266500Y-97632500D01*
G75*
G02*
X143516500Y-97382500I250000J0D01*
G01*
X144016500Y-97382500D01*
G75*
G02*
X144266500Y-97632500I0J-250000D01*
G01*
G37*
G36*
G01*
X146166500Y-97632500D02*
X146166500Y-98582500D01*
G75*
G02*
X145916500Y-98832500I-250000J0D01*
G01*
X145416500Y-98832500D01*
G75*
G02*
X145166500Y-98582500I0J250000D01*
G01*
X145166500Y-97632500D01*
G75*
G02*
X145416500Y-97382500I250000J0D01*
G01*
X145916500Y-97382500D01*
G75*
G02*
X146166500Y-97632500I0J-250000D01*
G01*
G37*
%TD*%
D12*
%TO.C,Q3*%
X148399500Y-95742000D03*
X147449500Y-93742000D03*
X149349500Y-93742000D03*
%TD*%
%TO.C,Q2*%
X149413000Y-90249500D03*
X147513000Y-90249500D03*
X148463000Y-92249500D03*
%TD*%
%TO.C,R32*%
G36*
G01*
X150806998Y-91713000D02*
X151707002Y-91713000D01*
G75*
G02*
X151957000Y-91962998I0J-249998D01*
G01*
X151957000Y-92488002D01*
G75*
G02*
X151707002Y-92738000I-249998J0D01*
G01*
X150806998Y-92738000D01*
G75*
G02*
X150557000Y-92488002I0J249998D01*
G01*
X150557000Y-91962998D01*
G75*
G02*
X150806998Y-91713000I249998J0D01*
G01*
G37*
G36*
G01*
X150806998Y-89888000D02*
X151707002Y-89888000D01*
G75*
G02*
X151957000Y-90137998I0J-249998D01*
G01*
X151957000Y-90663002D01*
G75*
G02*
X151707002Y-90913000I-249998J0D01*
G01*
X150806998Y-90913000D01*
G75*
G02*
X150557000Y-90663002I0J249998D01*
G01*
X150557000Y-90137998D01*
G75*
G02*
X150806998Y-89888000I249998J0D01*
G01*
G37*
%TD*%
%TO.C,J2*%
G36*
G01*
X132312000Y-89068500D02*
X133562000Y-89068500D01*
G75*
G02*
X133712000Y-89218500I0J-150000D01*
G01*
X133712000Y-89518500D01*
G75*
G02*
X133562000Y-89668500I-150000J0D01*
G01*
X132312000Y-89668500D01*
G75*
G02*
X132162000Y-89518500I0J150000D01*
G01*
X132162000Y-89218500D01*
G75*
G02*
X132312000Y-89068500I150000J0D01*
G01*
G37*
G36*
G01*
X132312000Y-90068500D02*
X133562000Y-90068500D01*
G75*
G02*
X133712000Y-90218500I0J-150000D01*
G01*
X133712000Y-90518500D01*
G75*
G02*
X133562000Y-90668500I-150000J0D01*
G01*
X132312000Y-90668500D01*
G75*
G02*
X132162000Y-90518500I0J150000D01*
G01*
X132162000Y-90218500D01*
G75*
G02*
X132312000Y-90068500I150000J0D01*
G01*
G37*
G36*
G01*
X132312000Y-91068500D02*
X133562000Y-91068500D01*
G75*
G02*
X133712000Y-91218500I0J-150000D01*
G01*
X133712000Y-91518500D01*
G75*
G02*
X133562000Y-91668500I-150000J0D01*
G01*
X132312000Y-91668500D01*
G75*
G02*
X132162000Y-91518500I0J150000D01*
G01*
X132162000Y-91218500D01*
G75*
G02*
X132312000Y-91068500I150000J0D01*
G01*
G37*
G36*
G01*
X132312000Y-92068500D02*
X133562000Y-92068500D01*
G75*
G02*
X133712000Y-92218500I0J-150000D01*
G01*
X133712000Y-92518500D01*
G75*
G02*
X133562000Y-92668500I-150000J0D01*
G01*
X132312000Y-92668500D01*
G75*
G02*
X132162000Y-92518500I0J150000D01*
G01*
X132162000Y-92218500D01*
G75*
G02*
X132312000Y-92068500I150000J0D01*
G01*
G37*
G36*
G01*
X128411999Y-87468500D02*
X129712001Y-87468500D01*
G75*
G02*
X129962000Y-87718499I0J-249999D01*
G01*
X129962000Y-88418501D01*
G75*
G02*
X129712001Y-88668500I-249999J0D01*
G01*
X128411999Y-88668500D01*
G75*
G02*
X128162000Y-88418501I0J249999D01*
G01*
X128162000Y-87718499D01*
G75*
G02*
X128411999Y-87468500I249999J0D01*
G01*
G37*
G36*
G01*
X128411999Y-93068500D02*
X129712001Y-93068500D01*
G75*
G02*
X129962000Y-93318499I0J-249999D01*
G01*
X129962000Y-94018501D01*
G75*
G02*
X129712001Y-94268500I-249999J0D01*
G01*
X128411999Y-94268500D01*
G75*
G02*
X128162000Y-94018501I0J249999D01*
G01*
X128162000Y-93318499D01*
G75*
G02*
X128411999Y-93068500I249999J0D01*
G01*
G37*
%TD*%
%TO.C,U6*%
G36*
G01*
X146357500Y-106178000D02*
X146357500Y-106428000D01*
G75*
G02*
X146232500Y-106553000I-125000J0D01*
G01*
X144582500Y-106553000D01*
G75*
G02*
X144457500Y-106428000I0J125000D01*
G01*
X144457500Y-106178000D01*
G75*
G02*
X144582500Y-106053000I125000J0D01*
G01*
X146232500Y-106053000D01*
G75*
G02*
X146357500Y-106178000I0J-125000D01*
G01*
G37*
G36*
G01*
X146357500Y-105528000D02*
X146357500Y-105778000D01*
G75*
G02*
X146232500Y-105903000I-125000J0D01*
G01*
X144582500Y-105903000D01*
G75*
G02*
X144457500Y-105778000I0J125000D01*
G01*
X144457500Y-105528000D01*
G75*
G02*
X144582500Y-105403000I125000J0D01*
G01*
X146232500Y-105403000D01*
G75*
G02*
X146357500Y-105528000I0J-125000D01*
G01*
G37*
G36*
G01*
X146357500Y-104878000D02*
X146357500Y-105128000D01*
G75*
G02*
X146232500Y-105253000I-125000J0D01*
G01*
X144582500Y-105253000D01*
G75*
G02*
X144457500Y-105128000I0J125000D01*
G01*
X144457500Y-104878000D01*
G75*
G02*
X144582500Y-104753000I125000J0D01*
G01*
X146232500Y-104753000D01*
G75*
G02*
X146357500Y-104878000I0J-125000D01*
G01*
G37*
G36*
G01*
X146357500Y-104228000D02*
X146357500Y-104478000D01*
G75*
G02*
X146232500Y-104603000I-125000J0D01*
G01*
X144582500Y-104603000D01*
G75*
G02*
X144457500Y-104478000I0J125000D01*
G01*
X144457500Y-104228000D01*
G75*
G02*
X144582500Y-104103000I125000J0D01*
G01*
X146232500Y-104103000D01*
G75*
G02*
X146357500Y-104228000I0J-125000D01*
G01*
G37*
G36*
G01*
X146357500Y-103578000D02*
X146357500Y-103828000D01*
G75*
G02*
X146232500Y-103953000I-125000J0D01*
G01*
X144582500Y-103953000D01*
G75*
G02*
X144457500Y-103828000I0J125000D01*
G01*
X144457500Y-103578000D01*
G75*
G02*
X144582500Y-103453000I125000J0D01*
G01*
X146232500Y-103453000D01*
G75*
G02*
X146357500Y-103578000I0J-125000D01*
G01*
G37*
G36*
G01*
X146357500Y-102928000D02*
X146357500Y-103178000D01*
G75*
G02*
X146232500Y-103303000I-125000J0D01*
G01*
X144582500Y-103303000D01*
G75*
G02*
X144457500Y-103178000I0J125000D01*
G01*
X144457500Y-102928000D01*
G75*
G02*
X144582500Y-102803000I125000J0D01*
G01*
X146232500Y-102803000D01*
G75*
G02*
X146357500Y-102928000I0J-125000D01*
G01*
G37*
G36*
G01*
X146357500Y-102278000D02*
X146357500Y-102528000D01*
G75*
G02*
X146232500Y-102653000I-125000J0D01*
G01*
X144582500Y-102653000D01*
G75*
G02*
X144457500Y-102528000I0J125000D01*
G01*
X144457500Y-102278000D01*
G75*
G02*
X144582500Y-102153000I125000J0D01*
G01*
X146232500Y-102153000D01*
G75*
G02*
X146357500Y-102278000I0J-125000D01*
G01*
G37*
G36*
G01*
X146357500Y-101628000D02*
X146357500Y-101878000D01*
G75*
G02*
X146232500Y-102003000I-125000J0D01*
G01*
X144582500Y-102003000D01*
G75*
G02*
X144457500Y-101878000I0J125000D01*
G01*
X144457500Y-101628000D01*
G75*
G02*
X144582500Y-101503000I125000J0D01*
G01*
X146232500Y-101503000D01*
G75*
G02*
X146357500Y-101628000I0J-125000D01*
G01*
G37*
G36*
G01*
X146357500Y-100978000D02*
X146357500Y-101228000D01*
G75*
G02*
X146232500Y-101353000I-125000J0D01*
G01*
X144582500Y-101353000D01*
G75*
G02*
X144457500Y-101228000I0J125000D01*
G01*
X144457500Y-100978000D01*
G75*
G02*
X144582500Y-100853000I125000J0D01*
G01*
X146232500Y-100853000D01*
G75*
G02*
X146357500Y-100978000I0J-125000D01*
G01*
G37*
G36*
G01*
X146357500Y-100328000D02*
X146357500Y-100578000D01*
G75*
G02*
X146232500Y-100703000I-125000J0D01*
G01*
X144582500Y-100703000D01*
G75*
G02*
X144457500Y-100578000I0J125000D01*
G01*
X144457500Y-100328000D01*
G75*
G02*
X144582500Y-100203000I125000J0D01*
G01*
X146232500Y-100203000D01*
G75*
G02*
X146357500Y-100328000I0J-125000D01*
G01*
G37*
G36*
G01*
X153357500Y-100328000D02*
X153357500Y-100578000D01*
G75*
G02*
X153232500Y-100703000I-125000J0D01*
G01*
X151582500Y-100703000D01*
G75*
G02*
X151457500Y-100578000I0J125000D01*
G01*
X151457500Y-100328000D01*
G75*
G02*
X151582500Y-100203000I125000J0D01*
G01*
X153232500Y-100203000D01*
G75*
G02*
X153357500Y-100328000I0J-125000D01*
G01*
G37*
G36*
G01*
X153357500Y-100978000D02*
X153357500Y-101228000D01*
G75*
G02*
X153232500Y-101353000I-125000J0D01*
G01*
X151582500Y-101353000D01*
G75*
G02*
X151457500Y-101228000I0J125000D01*
G01*
X151457500Y-100978000D01*
G75*
G02*
X151582500Y-100853000I125000J0D01*
G01*
X153232500Y-100853000D01*
G75*
G02*
X153357500Y-100978000I0J-125000D01*
G01*
G37*
G36*
G01*
X153357500Y-101628000D02*
X153357500Y-101878000D01*
G75*
G02*
X153232500Y-102003000I-125000J0D01*
G01*
X151582500Y-102003000D01*
G75*
G02*
X151457500Y-101878000I0J125000D01*
G01*
X151457500Y-101628000D01*
G75*
G02*
X151582500Y-101503000I125000J0D01*
G01*
X153232500Y-101503000D01*
G75*
G02*
X153357500Y-101628000I0J-125000D01*
G01*
G37*
G36*
G01*
X153357500Y-102278000D02*
X153357500Y-102528000D01*
G75*
G02*
X153232500Y-102653000I-125000J0D01*
G01*
X151582500Y-102653000D01*
G75*
G02*
X151457500Y-102528000I0J125000D01*
G01*
X151457500Y-102278000D01*
G75*
G02*
X151582500Y-102153000I125000J0D01*
G01*
X153232500Y-102153000D01*
G75*
G02*
X153357500Y-102278000I0J-125000D01*
G01*
G37*
G36*
G01*
X153357500Y-102928000D02*
X153357500Y-103178000D01*
G75*
G02*
X153232500Y-103303000I-125000J0D01*
G01*
X151582500Y-103303000D01*
G75*
G02*
X151457500Y-103178000I0J125000D01*
G01*
X151457500Y-102928000D01*
G75*
G02*
X151582500Y-102803000I125000J0D01*
G01*
X153232500Y-102803000D01*
G75*
G02*
X153357500Y-102928000I0J-125000D01*
G01*
G37*
G36*
G01*
X153357500Y-103578000D02*
X153357500Y-103828000D01*
G75*
G02*
X153232500Y-103953000I-125000J0D01*
G01*
X151582500Y-103953000D01*
G75*
G02*
X151457500Y-103828000I0J125000D01*
G01*
X151457500Y-103578000D01*
G75*
G02*
X151582500Y-103453000I125000J0D01*
G01*
X153232500Y-103453000D01*
G75*
G02*
X153357500Y-103578000I0J-125000D01*
G01*
G37*
G36*
G01*
X153357500Y-104228000D02*
X153357500Y-104478000D01*
G75*
G02*
X153232500Y-104603000I-125000J0D01*
G01*
X151582500Y-104603000D01*
G75*
G02*
X151457500Y-104478000I0J125000D01*
G01*
X151457500Y-104228000D01*
G75*
G02*
X151582500Y-104103000I125000J0D01*
G01*
X153232500Y-104103000D01*
G75*
G02*
X153357500Y-104228000I0J-125000D01*
G01*
G37*
G36*
G01*
X153357500Y-104878000D02*
X153357500Y-105128000D01*
G75*
G02*
X153232500Y-105253000I-125000J0D01*
G01*
X151582500Y-105253000D01*
G75*
G02*
X151457500Y-105128000I0J125000D01*
G01*
X151457500Y-104878000D01*
G75*
G02*
X151582500Y-104753000I125000J0D01*
G01*
X153232500Y-104753000D01*
G75*
G02*
X153357500Y-104878000I0J-125000D01*
G01*
G37*
G36*
G01*
X153357500Y-105528000D02*
X153357500Y-105778000D01*
G75*
G02*
X153232500Y-105903000I-125000J0D01*
G01*
X151582500Y-105903000D01*
G75*
G02*
X151457500Y-105778000I0J125000D01*
G01*
X151457500Y-105528000D01*
G75*
G02*
X151582500Y-105403000I125000J0D01*
G01*
X153232500Y-105403000D01*
G75*
G02*
X153357500Y-105528000I0J-125000D01*
G01*
G37*
G36*
G01*
X153357500Y-106178000D02*
X153357500Y-106428000D01*
G75*
G02*
X153232500Y-106553000I-125000J0D01*
G01*
X151582500Y-106553000D01*
G75*
G02*
X151457500Y-106428000I0J125000D01*
G01*
X151457500Y-106178000D01*
G75*
G02*
X151582500Y-106053000I125000J0D01*
G01*
X153232500Y-106053000D01*
G75*
G02*
X153357500Y-106178000I0J-125000D01*
G01*
G37*
%TD*%
%TO.C,C1*%
G36*
G01*
X145829000Y-112466500D02*
X146779000Y-112466500D01*
G75*
G02*
X147029000Y-112716500I0J-250000D01*
G01*
X147029000Y-113216500D01*
G75*
G02*
X146779000Y-113466500I-250000J0D01*
G01*
X145829000Y-113466500D01*
G75*
G02*
X145579000Y-113216500I0J250000D01*
G01*
X145579000Y-112716500D01*
G75*
G02*
X145829000Y-112466500I250000J0D01*
G01*
G37*
G36*
G01*
X145829000Y-114366500D02*
X146779000Y-114366500D01*
G75*
G02*
X147029000Y-114616500I0J-250000D01*
G01*
X147029000Y-115116500D01*
G75*
G02*
X146779000Y-115366500I-250000J0D01*
G01*
X145829000Y-115366500D01*
G75*
G02*
X145579000Y-115116500I0J250000D01*
G01*
X145579000Y-114616500D01*
G75*
G02*
X145829000Y-114366500I250000J0D01*
G01*
G37*
%TD*%
%TO.C,C2*%
G36*
G01*
X174567000Y-119474000D02*
X174567000Y-118524000D01*
G75*
G02*
X174817000Y-118274000I250000J0D01*
G01*
X175317000Y-118274000D01*
G75*
G02*
X175567000Y-118524000I0J-250000D01*
G01*
X175567000Y-119474000D01*
G75*
G02*
X175317000Y-119724000I-250000J0D01*
G01*
X174817000Y-119724000D01*
G75*
G02*
X174567000Y-119474000I0J250000D01*
G01*
G37*
G36*
G01*
X172667000Y-119474000D02*
X172667000Y-118524000D01*
G75*
G02*
X172917000Y-118274000I250000J0D01*
G01*
X173417000Y-118274000D01*
G75*
G02*
X173667000Y-118524000I0J-250000D01*
G01*
X173667000Y-119474000D01*
G75*
G02*
X173417000Y-119724000I-250000J0D01*
G01*
X172917000Y-119724000D01*
G75*
G02*
X172667000Y-119474000I0J250000D01*
G01*
G37*
%TD*%
%TO.C,C4*%
G36*
G01*
X167546000Y-107450000D02*
X168496000Y-107450000D01*
G75*
G02*
X168746000Y-107700000I0J-250000D01*
G01*
X168746000Y-108200000D01*
G75*
G02*
X168496000Y-108450000I-250000J0D01*
G01*
X167546000Y-108450000D01*
G75*
G02*
X167296000Y-108200000I0J250000D01*
G01*
X167296000Y-107700000D01*
G75*
G02*
X167546000Y-107450000I250000J0D01*
G01*
G37*
G36*
G01*
X167546000Y-109350000D02*
X168496000Y-109350000D01*
G75*
G02*
X168746000Y-109600000I0J-250000D01*
G01*
X168746000Y-110100000D01*
G75*
G02*
X168496000Y-110350000I-250000J0D01*
G01*
X167546000Y-110350000D01*
G75*
G02*
X167296000Y-110100000I0J250000D01*
G01*
X167296000Y-109600000D01*
G75*
G02*
X167546000Y-109350000I250000J0D01*
G01*
G37*
%TD*%
%TO.C,C5*%
G36*
G01*
X155097500Y-103367500D02*
X154147500Y-103367500D01*
G75*
G02*
X153897500Y-103117500I0J250000D01*
G01*
X153897500Y-102617500D01*
G75*
G02*
X154147500Y-102367500I250000J0D01*
G01*
X155097500Y-102367500D01*
G75*
G02*
X155347500Y-102617500I0J-250000D01*
G01*
X155347500Y-103117500D01*
G75*
G02*
X155097500Y-103367500I-250000J0D01*
G01*
G37*
G36*
G01*
X155097500Y-101467500D02*
X154147500Y-101467500D01*
G75*
G02*
X153897500Y-101217500I0J250000D01*
G01*
X153897500Y-100717500D01*
G75*
G02*
X154147500Y-100467500I250000J0D01*
G01*
X155097500Y-100467500D01*
G75*
G02*
X155347500Y-100717500I0J-250000D01*
G01*
X155347500Y-101217500D01*
G75*
G02*
X155097500Y-101467500I-250000J0D01*
G01*
G37*
%TD*%
%TO.C,C6*%
G36*
G01*
X169045000Y-106710500D02*
X169045000Y-105760500D01*
G75*
G02*
X169295000Y-105510500I250000J0D01*
G01*
X169795000Y-105510500D01*
G75*
G02*
X170045000Y-105760500I0J-250000D01*
G01*
X170045000Y-106710500D01*
G75*
G02*
X169795000Y-106960500I-250000J0D01*
G01*
X169295000Y-106960500D01*
G75*
G02*
X169045000Y-106710500I0J250000D01*
G01*
G37*
G36*
G01*
X167145000Y-106710500D02*
X167145000Y-105760500D01*
G75*
G02*
X167395000Y-105510500I250000J0D01*
G01*
X167895000Y-105510500D01*
G75*
G02*
X168145000Y-105760500I0J-250000D01*
G01*
X168145000Y-106710500D01*
G75*
G02*
X167895000Y-106960500I-250000J0D01*
G01*
X167395000Y-106960500D01*
G75*
G02*
X167145000Y-106710500I0J250000D01*
G01*
G37*
%TD*%
%TO.C,C7*%
G36*
G01*
X138623500Y-107218500D02*
X138623500Y-106268500D01*
G75*
G02*
X138873500Y-106018500I250000J0D01*
G01*
X139373500Y-106018500D01*
G75*
G02*
X139623500Y-106268500I0J-250000D01*
G01*
X139623500Y-107218500D01*
G75*
G02*
X139373500Y-107468500I-250000J0D01*
G01*
X138873500Y-107468500D01*
G75*
G02*
X138623500Y-107218500I0J250000D01*
G01*
G37*
G36*
G01*
X136723500Y-107218500D02*
X136723500Y-106268500D01*
G75*
G02*
X136973500Y-106018500I250000J0D01*
G01*
X137473500Y-106018500D01*
G75*
G02*
X137723500Y-106268500I0J-250000D01*
G01*
X137723500Y-107218500D01*
G75*
G02*
X137473500Y-107468500I-250000J0D01*
G01*
X136973500Y-107468500D01*
G75*
G02*
X136723500Y-107218500I0J250000D01*
G01*
G37*
%TD*%
%TO.C,C8*%
G36*
G01*
X129570500Y-112196500D02*
X128620500Y-112196500D01*
G75*
G02*
X128370500Y-111946500I0J250000D01*
G01*
X128370500Y-111446500D01*
G75*
G02*
X128620500Y-111196500I250000J0D01*
G01*
X129570500Y-111196500D01*
G75*
G02*
X129820500Y-111446500I0J-250000D01*
G01*
X129820500Y-111946500D01*
G75*
G02*
X129570500Y-112196500I-250000J0D01*
G01*
G37*
G36*
G01*
X129570500Y-110296500D02*
X128620500Y-110296500D01*
G75*
G02*
X128370500Y-110046500I0J250000D01*
G01*
X128370500Y-109546500D01*
G75*
G02*
X128620500Y-109296500I250000J0D01*
G01*
X129570500Y-109296500D01*
G75*
G02*
X129820500Y-109546500I0J-250000D01*
G01*
X129820500Y-110046500D01*
G75*
G02*
X129570500Y-110296500I-250000J0D01*
G01*
G37*
%TD*%
%TO.C,D1*%
G36*
G01*
X165531000Y-119408000D02*
X166447000Y-119408000D01*
G75*
G02*
X166639000Y-119600000I0J-192000D01*
G01*
X166639000Y-120216000D01*
G75*
G02*
X166447000Y-120408000I-192000J0D01*
G01*
X165531000Y-120408000D01*
G75*
G02*
X165339000Y-120216000I0J192000D01*
G01*
X165339000Y-119600000D01*
G75*
G02*
X165531000Y-119408000I192000J0D01*
G01*
G37*
G36*
G01*
X165531000Y-117483000D02*
X166447000Y-117483000D01*
G75*
G02*
X166639000Y-117675000I0J-192000D01*
G01*
X166639000Y-118291000D01*
G75*
G02*
X166447000Y-118483000I-192000J0D01*
G01*
X165531000Y-118483000D01*
G75*
G02*
X165339000Y-118291000I0J192000D01*
G01*
X165339000Y-117675000D01*
G75*
G02*
X165531000Y-117483000I192000J0D01*
G01*
G37*
%TD*%
%TO.C,D2*%
G36*
G01*
X141895000Y-109810501D02*
X141895000Y-109010499D01*
G75*
G02*
X142144999Y-108760500I249999J0D01*
G01*
X142970001Y-108760500D01*
G75*
G02*
X143220000Y-109010499I0J-249999D01*
G01*
X143220000Y-109810501D01*
G75*
G02*
X142970001Y-110060500I-249999J0D01*
G01*
X142144999Y-110060500D01*
G75*
G02*
X141895000Y-109810501I0J249999D01*
G01*
G37*
G36*
G01*
X143820000Y-109810501D02*
X143820000Y-109010499D01*
G75*
G02*
X144069999Y-108760500I249999J0D01*
G01*
X144895001Y-108760500D01*
G75*
G02*
X145145000Y-109010499I0J-249999D01*
G01*
X145145000Y-109810501D01*
G75*
G02*
X144895001Y-110060500I-249999J0D01*
G01*
X144069999Y-110060500D01*
G75*
G02*
X143820000Y-109810501I0J249999D01*
G01*
G37*
%TD*%
%TO.C,D3*%
G36*
G01*
X141895000Y-111652001D02*
X141895000Y-110851999D01*
G75*
G02*
X142144999Y-110602000I249999J0D01*
G01*
X142970001Y-110602000D01*
G75*
G02*
X143220000Y-110851999I0J-249999D01*
G01*
X143220000Y-111652001D01*
G75*
G02*
X142970001Y-111902000I-249999J0D01*
G01*
X142144999Y-111902000D01*
G75*
G02*
X141895000Y-111652001I0J249999D01*
G01*
G37*
G36*
G01*
X143820000Y-111652001D02*
X143820000Y-110851999D01*
G75*
G02*
X144069999Y-110602000I249999J0D01*
G01*
X144895001Y-110602000D01*
G75*
G02*
X145145000Y-110851999I0J-249999D01*
G01*
X145145000Y-111652001D01*
G75*
G02*
X144895001Y-111902000I-249999J0D01*
G01*
X144069999Y-111902000D01*
G75*
G02*
X143820000Y-111652001I0J249999D01*
G01*
G37*
%TD*%
D13*
%TO.C,J7*%
X130556000Y-86550500D03*
X133096000Y-86550500D03*
%TD*%
D14*
%TO.C,LS1*%
X135309000Y-99922000D03*
X129159000Y-99922000D03*
X129159000Y-106072000D03*
X135309000Y-106072000D03*
%TD*%
D15*
%TO.C,MK1*%
X130347500Y-114755500D03*
X131169500Y-114755500D03*
X131169500Y-113855500D03*
X131169500Y-112955500D03*
X130347500Y-112955500D03*
%TD*%
%TO.C,R1*%
G36*
G01*
X164573000Y-89846998D02*
X164573000Y-90747002D01*
G75*
G02*
X164323002Y-90997000I-249998J0D01*
G01*
X163797998Y-90997000D01*
G75*
G02*
X163548000Y-90747002I0J249998D01*
G01*
X163548000Y-89846998D01*
G75*
G02*
X163797998Y-89597000I249998J0D01*
G01*
X164323002Y-89597000D01*
G75*
G02*
X164573000Y-89846998I0J-249998D01*
G01*
G37*
G36*
G01*
X166398000Y-89846998D02*
X166398000Y-90747002D01*
G75*
G02*
X166148002Y-90997000I-249998J0D01*
G01*
X165622998Y-90997000D01*
G75*
G02*
X165373000Y-90747002I0J249998D01*
G01*
X165373000Y-89846998D01*
G75*
G02*
X165622998Y-89597000I249998J0D01*
G01*
X166148002Y-89597000D01*
G75*
G02*
X166398000Y-89846998I0J-249998D01*
G01*
G37*
%TD*%
%TO.C,R2*%
G36*
G01*
X156077498Y-100492500D02*
X156977502Y-100492500D01*
G75*
G02*
X157227500Y-100742498I0J-249998D01*
G01*
X157227500Y-101267502D01*
G75*
G02*
X156977502Y-101517500I-249998J0D01*
G01*
X156077498Y-101517500D01*
G75*
G02*
X155827500Y-101267502I0J249998D01*
G01*
X155827500Y-100742498D01*
G75*
G02*
X156077498Y-100492500I249998J0D01*
G01*
G37*
G36*
G01*
X156077498Y-102317500D02*
X156977502Y-102317500D01*
G75*
G02*
X157227500Y-102567498I0J-249998D01*
G01*
X157227500Y-103092502D01*
G75*
G02*
X156977502Y-103342500I-249998J0D01*
G01*
X156077498Y-103342500D01*
G75*
G02*
X155827500Y-103092502I0J249998D01*
G01*
X155827500Y-102567498D01*
G75*
G02*
X156077498Y-102317500I249998J0D01*
G01*
G37*
%TD*%
%TO.C,R3*%
G36*
G01*
X157918998Y-102277500D02*
X158819002Y-102277500D01*
G75*
G02*
X159069000Y-102527498I0J-249998D01*
G01*
X159069000Y-103052502D01*
G75*
G02*
X158819002Y-103302500I-249998J0D01*
G01*
X157918998Y-103302500D01*
G75*
G02*
X157669000Y-103052502I0J249998D01*
G01*
X157669000Y-102527498D01*
G75*
G02*
X157918998Y-102277500I249998J0D01*
G01*
G37*
G36*
G01*
X157918998Y-100452500D02*
X158819002Y-100452500D01*
G75*
G02*
X159069000Y-100702498I0J-249998D01*
G01*
X159069000Y-101227502D01*
G75*
G02*
X158819002Y-101477500I-249998J0D01*
G01*
X157918998Y-101477500D01*
G75*
G02*
X157669000Y-101227502I0J249998D01*
G01*
X157669000Y-100702498D01*
G75*
G02*
X157918998Y-100452500I249998J0D01*
G01*
G37*
%TD*%
%TO.C,R4*%
G36*
G01*
X150791500Y-117861502D02*
X150791500Y-116961498D01*
G75*
G02*
X151041498Y-116711500I249998J0D01*
G01*
X151566502Y-116711500D01*
G75*
G02*
X151816500Y-116961498I0J-249998D01*
G01*
X151816500Y-117861502D01*
G75*
G02*
X151566502Y-118111500I-249998J0D01*
G01*
X151041498Y-118111500D01*
G75*
G02*
X150791500Y-117861502I0J249998D01*
G01*
G37*
G36*
G01*
X148966500Y-117861502D02*
X148966500Y-116961498D01*
G75*
G02*
X149216498Y-116711500I249998J0D01*
G01*
X149741502Y-116711500D01*
G75*
G02*
X149991500Y-116961498I0J-249998D01*
G01*
X149991500Y-117861502D01*
G75*
G02*
X149741502Y-118111500I-249998J0D01*
G01*
X149216498Y-118111500D01*
G75*
G02*
X148966500Y-117861502I0J249998D01*
G01*
G37*
%TD*%
%TO.C,R5*%
G36*
G01*
X148983000Y-120147502D02*
X148983000Y-119247498D01*
G75*
G02*
X149232998Y-118997500I249998J0D01*
G01*
X149758002Y-118997500D01*
G75*
G02*
X150008000Y-119247498I0J-249998D01*
G01*
X150008000Y-120147502D01*
G75*
G02*
X149758002Y-120397500I-249998J0D01*
G01*
X149232998Y-120397500D01*
G75*
G02*
X148983000Y-120147502I0J249998D01*
G01*
G37*
G36*
G01*
X150808000Y-120147502D02*
X150808000Y-119247498D01*
G75*
G02*
X151057998Y-118997500I249998J0D01*
G01*
X151583002Y-118997500D01*
G75*
G02*
X151833000Y-119247498I0J-249998D01*
G01*
X151833000Y-120147502D01*
G75*
G02*
X151583002Y-120397500I-249998J0D01*
G01*
X151057998Y-120397500D01*
G75*
G02*
X150808000Y-120147502I0J249998D01*
G01*
G37*
%TD*%
%TO.C,R6*%
G36*
G01*
X161728998Y-117470500D02*
X162629002Y-117470500D01*
G75*
G02*
X162879000Y-117720498I0J-249998D01*
G01*
X162879000Y-118245502D01*
G75*
G02*
X162629002Y-118495500I-249998J0D01*
G01*
X161728998Y-118495500D01*
G75*
G02*
X161479000Y-118245502I0J249998D01*
G01*
X161479000Y-117720498D01*
G75*
G02*
X161728998Y-117470500I249998J0D01*
G01*
G37*
G36*
G01*
X161728998Y-119295500D02*
X162629002Y-119295500D01*
G75*
G02*
X162879000Y-119545498I0J-249998D01*
G01*
X162879000Y-120070502D01*
G75*
G02*
X162629002Y-120320500I-249998J0D01*
G01*
X161728998Y-120320500D01*
G75*
G02*
X161479000Y-120070502I0J249998D01*
G01*
X161479000Y-119545498D01*
G75*
G02*
X161728998Y-119295500I249998J0D01*
G01*
G37*
%TD*%
%TO.C,R7*%
G36*
G01*
X153738000Y-116961498D02*
X153738000Y-117861502D01*
G75*
G02*
X153488002Y-118111500I-249998J0D01*
G01*
X152962998Y-118111500D01*
G75*
G02*
X152713000Y-117861502I0J249998D01*
G01*
X152713000Y-116961498D01*
G75*
G02*
X152962998Y-116711500I249998J0D01*
G01*
X153488002Y-116711500D01*
G75*
G02*
X153738000Y-116961498I0J-249998D01*
G01*
G37*
G36*
G01*
X155563000Y-116961498D02*
X155563000Y-117861502D01*
G75*
G02*
X155313002Y-118111500I-249998J0D01*
G01*
X154787998Y-118111500D01*
G75*
G02*
X154538000Y-117861502I0J249998D01*
G01*
X154538000Y-116961498D01*
G75*
G02*
X154787998Y-116711500I249998J0D01*
G01*
X155313002Y-116711500D01*
G75*
G02*
X155563000Y-116961498I0J-249998D01*
G01*
G37*
%TD*%
%TO.C,R8*%
G36*
G01*
X153738000Y-119247498D02*
X153738000Y-120147502D01*
G75*
G02*
X153488002Y-120397500I-249998J0D01*
G01*
X152962998Y-120397500D01*
G75*
G02*
X152713000Y-120147502I0J249998D01*
G01*
X152713000Y-119247498D01*
G75*
G02*
X152962998Y-118997500I249998J0D01*
G01*
X153488002Y-118997500D01*
G75*
G02*
X153738000Y-119247498I0J-249998D01*
G01*
G37*
G36*
G01*
X155563000Y-119247498D02*
X155563000Y-120147502D01*
G75*
G02*
X155313002Y-120397500I-249998J0D01*
G01*
X154787998Y-120397500D01*
G75*
G02*
X154538000Y-120147502I0J249998D01*
G01*
X154538000Y-119247498D01*
G75*
G02*
X154787998Y-118997500I249998J0D01*
G01*
X155313002Y-118997500D01*
G75*
G02*
X155563000Y-119247498I0J-249998D01*
G01*
G37*
%TD*%
%TO.C,R9*%
G36*
G01*
X161728998Y-113804000D02*
X162629002Y-113804000D01*
G75*
G02*
X162879000Y-114053998I0J-249998D01*
G01*
X162879000Y-114579002D01*
G75*
G02*
X162629002Y-114829000I-249998J0D01*
G01*
X161728998Y-114829000D01*
G75*
G02*
X161479000Y-114579002I0J249998D01*
G01*
X161479000Y-114053998D01*
G75*
G02*
X161728998Y-113804000I249998J0D01*
G01*
G37*
G36*
G01*
X161728998Y-115629000D02*
X162629002Y-115629000D01*
G75*
G02*
X162879000Y-115878998I0J-249998D01*
G01*
X162879000Y-116404002D01*
G75*
G02*
X162629002Y-116654000I-249998J0D01*
G01*
X161728998Y-116654000D01*
G75*
G02*
X161479000Y-116404002I0J249998D01*
G01*
X161479000Y-115878998D01*
G75*
G02*
X161728998Y-115629000I249998J0D01*
G01*
G37*
%TD*%
%TO.C,R11*%
G36*
G01*
X137663500Y-98240002D02*
X137663500Y-97339998D01*
G75*
G02*
X137913498Y-97090000I249998J0D01*
G01*
X138438502Y-97090000D01*
G75*
G02*
X138688500Y-97339998I0J-249998D01*
G01*
X138688500Y-98240002D01*
G75*
G02*
X138438502Y-98490000I-249998J0D01*
G01*
X137913498Y-98490000D01*
G75*
G02*
X137663500Y-98240002I0J249998D01*
G01*
G37*
G36*
G01*
X139488500Y-98240002D02*
X139488500Y-97339998D01*
G75*
G02*
X139738498Y-97090000I249998J0D01*
G01*
X140263502Y-97090000D01*
G75*
G02*
X140513500Y-97339998I0J-249998D01*
G01*
X140513500Y-98240002D01*
G75*
G02*
X140263502Y-98490000I-249998J0D01*
G01*
X139738498Y-98490000D01*
G75*
G02*
X139488500Y-98240002I0J249998D01*
G01*
G37*
%TD*%
%TO.C,R12*%
G36*
G01*
X135147000Y-98240002D02*
X135147000Y-97339998D01*
G75*
G02*
X135396998Y-97090000I249998J0D01*
G01*
X135922002Y-97090000D01*
G75*
G02*
X136172000Y-97339998I0J-249998D01*
G01*
X136172000Y-98240002D01*
G75*
G02*
X135922002Y-98490000I-249998J0D01*
G01*
X135396998Y-98490000D01*
G75*
G02*
X135147000Y-98240002I0J249998D01*
G01*
G37*
G36*
G01*
X133322000Y-98240002D02*
X133322000Y-97339998D01*
G75*
G02*
X133571998Y-97090000I249998J0D01*
G01*
X134097002Y-97090000D01*
G75*
G02*
X134347000Y-97339998I0J-249998D01*
G01*
X134347000Y-98240002D01*
G75*
G02*
X134097002Y-98490000I-249998J0D01*
G01*
X133571998Y-98490000D01*
G75*
G02*
X133322000Y-98240002I0J249998D01*
G01*
G37*
%TD*%
%TO.C,R13*%
G36*
G01*
X129131000Y-98240002D02*
X129131000Y-97339998D01*
G75*
G02*
X129380998Y-97090000I249998J0D01*
G01*
X129906002Y-97090000D01*
G75*
G02*
X130156000Y-97339998I0J-249998D01*
G01*
X130156000Y-98240002D01*
G75*
G02*
X129906002Y-98490000I-249998J0D01*
G01*
X129380998Y-98490000D01*
G75*
G02*
X129131000Y-98240002I0J249998D01*
G01*
G37*
G36*
G01*
X130956000Y-98240002D02*
X130956000Y-97339998D01*
G75*
G02*
X131205998Y-97090000I249998J0D01*
G01*
X131731002Y-97090000D01*
G75*
G02*
X131981000Y-97339998I0J-249998D01*
G01*
X131981000Y-98240002D01*
G75*
G02*
X131731002Y-98490000I-249998J0D01*
G01*
X131205998Y-98490000D01*
G75*
G02*
X130956000Y-98240002I0J249998D01*
G01*
G37*
%TD*%
%TO.C,R14*%
G36*
G01*
X176027502Y-113987000D02*
X175127498Y-113987000D01*
G75*
G02*
X174877500Y-113737002I0J249998D01*
G01*
X174877500Y-113211998D01*
G75*
G02*
X175127498Y-112962000I249998J0D01*
G01*
X176027502Y-112962000D01*
G75*
G02*
X176277500Y-113211998I0J-249998D01*
G01*
X176277500Y-113737002D01*
G75*
G02*
X176027502Y-113987000I-249998J0D01*
G01*
G37*
G36*
G01*
X176027502Y-112162000D02*
X175127498Y-112162000D01*
G75*
G02*
X174877500Y-111912002I0J249998D01*
G01*
X174877500Y-111386998D01*
G75*
G02*
X175127498Y-111137000I249998J0D01*
G01*
X176027502Y-111137000D01*
G75*
G02*
X176277500Y-111386998I0J-249998D01*
G01*
X176277500Y-111912002D01*
G75*
G02*
X176027502Y-112162000I-249998J0D01*
G01*
G37*
%TD*%
%TO.C,R17*%
G36*
G01*
X138297498Y-108620500D02*
X139197502Y-108620500D01*
G75*
G02*
X139447500Y-108870498I0J-249998D01*
G01*
X139447500Y-109395502D01*
G75*
G02*
X139197502Y-109645500I-249998J0D01*
G01*
X138297498Y-109645500D01*
G75*
G02*
X138047500Y-109395502I0J249998D01*
G01*
X138047500Y-108870498D01*
G75*
G02*
X138297498Y-108620500I249998J0D01*
G01*
G37*
G36*
G01*
X138297498Y-110445500D02*
X139197502Y-110445500D01*
G75*
G02*
X139447500Y-110695498I0J-249998D01*
G01*
X139447500Y-111220502D01*
G75*
G02*
X139197502Y-111470500I-249998J0D01*
G01*
X138297498Y-111470500D01*
G75*
G02*
X138047500Y-111220502I0J249998D01*
G01*
X138047500Y-110695498D01*
G75*
G02*
X138297498Y-110445500I249998J0D01*
G01*
G37*
%TD*%
%TO.C,R18*%
G36*
G01*
X140075498Y-110485500D02*
X140975502Y-110485500D01*
G75*
G02*
X141225500Y-110735498I0J-249998D01*
G01*
X141225500Y-111260502D01*
G75*
G02*
X140975502Y-111510500I-249998J0D01*
G01*
X140075498Y-111510500D01*
G75*
G02*
X139825500Y-111260502I0J249998D01*
G01*
X139825500Y-110735498D01*
G75*
G02*
X140075498Y-110485500I249998J0D01*
G01*
G37*
G36*
G01*
X140075498Y-108660500D02*
X140975502Y-108660500D01*
G75*
G02*
X141225500Y-108910498I0J-249998D01*
G01*
X141225500Y-109435502D01*
G75*
G02*
X140975502Y-109685500I-249998J0D01*
G01*
X140075498Y-109685500D01*
G75*
G02*
X139825500Y-109435502I0J249998D01*
G01*
X139825500Y-108910498D01*
G75*
G02*
X140075498Y-108660500I249998J0D01*
G01*
G37*
%TD*%
%TO.C,R19*%
G36*
G01*
X129154500Y-108590502D02*
X129154500Y-107690498D01*
G75*
G02*
X129404498Y-107440500I249998J0D01*
G01*
X129929502Y-107440500D01*
G75*
G02*
X130179500Y-107690498I0J-249998D01*
G01*
X130179500Y-108590502D01*
G75*
G02*
X129929502Y-108840500I-249998J0D01*
G01*
X129404498Y-108840500D01*
G75*
G02*
X129154500Y-108590502I0J249998D01*
G01*
G37*
G36*
G01*
X130979500Y-108590502D02*
X130979500Y-107690498D01*
G75*
G02*
X131229498Y-107440500I249998J0D01*
G01*
X131754502Y-107440500D01*
G75*
G02*
X132004500Y-107690498I0J-249998D01*
G01*
X132004500Y-108590502D01*
G75*
G02*
X131754502Y-108840500I-249998J0D01*
G01*
X131229498Y-108840500D01*
G75*
G02*
X130979500Y-108590502I0J249998D01*
G01*
G37*
%TD*%
%TO.C,R20*%
G36*
G01*
X135424500Y-108590502D02*
X135424500Y-107690498D01*
G75*
G02*
X135674498Y-107440500I249998J0D01*
G01*
X136199502Y-107440500D01*
G75*
G02*
X136449500Y-107690498I0J-249998D01*
G01*
X136449500Y-108590502D01*
G75*
G02*
X136199502Y-108840500I-249998J0D01*
G01*
X135674498Y-108840500D01*
G75*
G02*
X135424500Y-108590502I0J249998D01*
G01*
G37*
G36*
G01*
X133599500Y-108590502D02*
X133599500Y-107690498D01*
G75*
G02*
X133849498Y-107440500I249998J0D01*
G01*
X134374502Y-107440500D01*
G75*
G02*
X134624500Y-107690498I0J-249998D01*
G01*
X134624500Y-108590502D01*
G75*
G02*
X134374502Y-108840500I-249998J0D01*
G01*
X133849498Y-108840500D01*
G75*
G02*
X133599500Y-108590502I0J249998D01*
G01*
G37*
%TD*%
%TO.C,R24*%
G36*
G01*
X140156500Y-107130002D02*
X140156500Y-106229998D01*
G75*
G02*
X140406498Y-105980000I249998J0D01*
G01*
X140931502Y-105980000D01*
G75*
G02*
X141181500Y-106229998I0J-249998D01*
G01*
X141181500Y-107130002D01*
G75*
G02*
X140931502Y-107380000I-249998J0D01*
G01*
X140406498Y-107380000D01*
G75*
G02*
X140156500Y-107130002I0J249998D01*
G01*
G37*
G36*
G01*
X141981500Y-107130002D02*
X141981500Y-106229998D01*
G75*
G02*
X142231498Y-105980000I249998J0D01*
G01*
X142756502Y-105980000D01*
G75*
G02*
X143006500Y-106229998I0J-249998D01*
G01*
X143006500Y-107130002D01*
G75*
G02*
X142756502Y-107380000I-249998J0D01*
G01*
X142231498Y-107380000D01*
G75*
G02*
X141981500Y-107130002I0J249998D01*
G01*
G37*
%TD*%
%TO.C,R25*%
G36*
G01*
X138576000Y-100272002D02*
X138576000Y-99371998D01*
G75*
G02*
X138825998Y-99122000I249998J0D01*
G01*
X139351002Y-99122000D01*
G75*
G02*
X139601000Y-99371998I0J-249998D01*
G01*
X139601000Y-100272002D01*
G75*
G02*
X139351002Y-100522000I-249998J0D01*
G01*
X138825998Y-100522000D01*
G75*
G02*
X138576000Y-100272002I0J249998D01*
G01*
G37*
G36*
G01*
X136751000Y-100272002D02*
X136751000Y-99371998D01*
G75*
G02*
X137000998Y-99122000I249998J0D01*
G01*
X137526002Y-99122000D01*
G75*
G02*
X137776000Y-99371998I0J-249998D01*
G01*
X137776000Y-100272002D01*
G75*
G02*
X137526002Y-100522000I-249998J0D01*
G01*
X137000998Y-100522000D01*
G75*
G02*
X136751000Y-100272002I0J249998D01*
G01*
G37*
%TD*%
%TO.C,R26*%
G36*
G01*
X141965000Y-100272002D02*
X141965000Y-99371998D01*
G75*
G02*
X142214998Y-99122000I249998J0D01*
G01*
X142740002Y-99122000D01*
G75*
G02*
X142990000Y-99371998I0J-249998D01*
G01*
X142990000Y-100272002D01*
G75*
G02*
X142740002Y-100522000I-249998J0D01*
G01*
X142214998Y-100522000D01*
G75*
G02*
X141965000Y-100272002I0J249998D01*
G01*
G37*
G36*
G01*
X140140000Y-100272002D02*
X140140000Y-99371998D01*
G75*
G02*
X140389998Y-99122000I249998J0D01*
G01*
X140915002Y-99122000D01*
G75*
G02*
X141165000Y-99371998I0J-249998D01*
G01*
X141165000Y-100272002D01*
G75*
G02*
X140915002Y-100522000I-249998J0D01*
G01*
X140389998Y-100522000D01*
G75*
G02*
X140140000Y-100272002I0J249998D01*
G01*
G37*
%TD*%
%TO.C,R27*%
G36*
G01*
X132600000Y-115067502D02*
X132600000Y-114167498D01*
G75*
G02*
X132849998Y-113917500I249998J0D01*
G01*
X133375002Y-113917500D01*
G75*
G02*
X133625000Y-114167498I0J-249998D01*
G01*
X133625000Y-115067502D01*
G75*
G02*
X133375002Y-115317500I-249998J0D01*
G01*
X132849998Y-115317500D01*
G75*
G02*
X132600000Y-115067502I0J249998D01*
G01*
G37*
G36*
G01*
X134425000Y-115067502D02*
X134425000Y-114167498D01*
G75*
G02*
X134674998Y-113917500I249998J0D01*
G01*
X135200002Y-113917500D01*
G75*
G02*
X135450000Y-114167498I0J-249998D01*
G01*
X135450000Y-115067502D01*
G75*
G02*
X135200002Y-115317500I-249998J0D01*
G01*
X134674998Y-115317500D01*
G75*
G02*
X134425000Y-115067502I0J249998D01*
G01*
G37*
%TD*%
%TO.C,R29*%
G36*
G01*
X132583500Y-113226002D02*
X132583500Y-112325998D01*
G75*
G02*
X132833498Y-112076000I249998J0D01*
G01*
X133358502Y-112076000D01*
G75*
G02*
X133608500Y-112325998I0J-249998D01*
G01*
X133608500Y-113226002D01*
G75*
G02*
X133358502Y-113476000I-249998J0D01*
G01*
X132833498Y-113476000D01*
G75*
G02*
X132583500Y-113226002I0J249998D01*
G01*
G37*
G36*
G01*
X134408500Y-113226002D02*
X134408500Y-112325998D01*
G75*
G02*
X134658498Y-112076000I249998J0D01*
G01*
X135183502Y-112076000D01*
G75*
G02*
X135433500Y-112325998I0J-249998D01*
G01*
X135433500Y-113226002D01*
G75*
G02*
X135183502Y-113476000I-249998J0D01*
G01*
X134658498Y-113476000D01*
G75*
G02*
X134408500Y-113226002I0J249998D01*
G01*
G37*
%TD*%
%TO.C,R30*%
G36*
G01*
X150806998Y-94420000D02*
X151707002Y-94420000D01*
G75*
G02*
X151957000Y-94669998I0J-249998D01*
G01*
X151957000Y-95195002D01*
G75*
G02*
X151707002Y-95445000I-249998J0D01*
G01*
X150806998Y-95445000D01*
G75*
G02*
X150557000Y-95195002I0J249998D01*
G01*
X150557000Y-94669998D01*
G75*
G02*
X150806998Y-94420000I249998J0D01*
G01*
G37*
G36*
G01*
X150806998Y-96245000D02*
X151707002Y-96245000D01*
G75*
G02*
X151957000Y-96494998I0J-249998D01*
G01*
X151957000Y-97020002D01*
G75*
G02*
X151707002Y-97270000I-249998J0D01*
G01*
X150806998Y-97270000D01*
G75*
G02*
X150557000Y-97020002I0J249998D01*
G01*
X150557000Y-96494998D01*
G75*
G02*
X150806998Y-96245000I249998J0D01*
G01*
G37*
%TD*%
D16*
%TO.C,U1*%
X140271500Y-119757500D03*
X140906500Y-119757500D03*
X141541500Y-119757500D03*
X142176500Y-119757500D03*
X142811500Y-119757500D03*
X143446500Y-119757500D03*
X144081500Y-119757500D03*
X144716500Y-119757500D03*
X144716500Y-114557500D03*
X144081500Y-114557500D03*
X143446500Y-114557500D03*
X142811500Y-114557500D03*
X142176500Y-114557500D03*
X141541500Y-114557500D03*
X140906500Y-114557500D03*
X140271500Y-114557500D03*
%TD*%
D17*
%TO.C,U2*%
X164277000Y-116162000D03*
X165227000Y-116162000D03*
X166177000Y-116162000D03*
X166177000Y-113962000D03*
X164277000Y-113962000D03*
%TD*%
D18*
%TO.C,U4*%
X171302500Y-111508500D03*
X171302500Y-112458500D03*
X171302500Y-113408500D03*
X173502500Y-113408500D03*
X173502500Y-111508500D03*
X173502500Y-112458500D03*
%TD*%
%TO.C,U5*%
G36*
G01*
X165590000Y-108919500D02*
X164840000Y-108919500D01*
G75*
G02*
X164610000Y-108689500I0J230000D01*
G01*
X164610000Y-108229500D01*
G75*
G02*
X164840000Y-107999500I230000J0D01*
G01*
X165590000Y-107999500D01*
G75*
G02*
X165820000Y-108229500I0J-230000D01*
G01*
X165820000Y-108689500D01*
G75*
G02*
X165590000Y-108919500I-230000J0D01*
G01*
G37*
G36*
G01*
X164090000Y-108919500D02*
X163340000Y-108919500D01*
G75*
G02*
X163110000Y-108689500I0J230000D01*
G01*
X163110000Y-108229500D01*
G75*
G02*
X163340000Y-107999500I230000J0D01*
G01*
X164090000Y-107999500D01*
G75*
G02*
X164320000Y-108229500I0J-230000D01*
G01*
X164320000Y-108689500D01*
G75*
G02*
X164090000Y-108919500I-230000J0D01*
G01*
G37*
G36*
G01*
X165590000Y-110059500D02*
X164840000Y-110059500D01*
G75*
G02*
X164610000Y-109829500I0J230000D01*
G01*
X164610000Y-109369500D01*
G75*
G02*
X164840000Y-109139500I230000J0D01*
G01*
X165590000Y-109139500D01*
G75*
G02*
X165820000Y-109369500I0J-230000D01*
G01*
X165820000Y-109829500D01*
G75*
G02*
X165590000Y-110059500I-230000J0D01*
G01*
G37*
G36*
G01*
X164090000Y-110059500D02*
X163340000Y-110059500D01*
G75*
G02*
X163110000Y-109829500I0J230000D01*
G01*
X163110000Y-109369500D01*
G75*
G02*
X163340000Y-109139500I230000J0D01*
G01*
X164090000Y-109139500D01*
G75*
G02*
X164320000Y-109369500I0J-230000D01*
G01*
X164320000Y-109829500D01*
G75*
G02*
X164090000Y-110059500I-230000J0D01*
G01*
G37*
G36*
G01*
X162710000Y-107529500D02*
X162410000Y-107529500D01*
G75*
G02*
X162260000Y-107379500I0J150000D01*
G01*
X162260000Y-105729500D01*
G75*
G02*
X162410000Y-105579500I150000J0D01*
G01*
X162710000Y-105579500D01*
G75*
G02*
X162860000Y-105729500I0J-150000D01*
G01*
X162860000Y-107379500D01*
G75*
G02*
X162710000Y-107529500I-150000J0D01*
G01*
G37*
G36*
G01*
X163980000Y-107529500D02*
X163680000Y-107529500D01*
G75*
G02*
X163530000Y-107379500I0J150000D01*
G01*
X163530000Y-105729500D01*
G75*
G02*
X163680000Y-105579500I150000J0D01*
G01*
X163980000Y-105579500D01*
G75*
G02*
X164130000Y-105729500I0J-150000D01*
G01*
X164130000Y-107379500D01*
G75*
G02*
X163980000Y-107529500I-150000J0D01*
G01*
G37*
G36*
G01*
X165250000Y-107529500D02*
X164950000Y-107529500D01*
G75*
G02*
X164800000Y-107379500I0J150000D01*
G01*
X164800000Y-105729500D01*
G75*
G02*
X164950000Y-105579500I150000J0D01*
G01*
X165250000Y-105579500D01*
G75*
G02*
X165400000Y-105729500I0J-150000D01*
G01*
X165400000Y-107379500D01*
G75*
G02*
X165250000Y-107529500I-150000J0D01*
G01*
G37*
G36*
G01*
X166520000Y-107529500D02*
X166220000Y-107529500D01*
G75*
G02*
X166070000Y-107379500I0J150000D01*
G01*
X166070000Y-105729500D01*
G75*
G02*
X166220000Y-105579500I150000J0D01*
G01*
X166520000Y-105579500D01*
G75*
G02*
X166670000Y-105729500I0J-150000D01*
G01*
X166670000Y-107379500D01*
G75*
G02*
X166520000Y-107529500I-150000J0D01*
G01*
G37*
G36*
G01*
X166520000Y-112479500D02*
X166220000Y-112479500D01*
G75*
G02*
X166070000Y-112329500I0J150000D01*
G01*
X166070000Y-110679500D01*
G75*
G02*
X166220000Y-110529500I150000J0D01*
G01*
X166520000Y-110529500D01*
G75*
G02*
X166670000Y-110679500I0J-150000D01*
G01*
X166670000Y-112329500D01*
G75*
G02*
X166520000Y-112479500I-150000J0D01*
G01*
G37*
G36*
G01*
X165250000Y-112479500D02*
X164950000Y-112479500D01*
G75*
G02*
X164800000Y-112329500I0J150000D01*
G01*
X164800000Y-110679500D01*
G75*
G02*
X164950000Y-110529500I150000J0D01*
G01*
X165250000Y-110529500D01*
G75*
G02*
X165400000Y-110679500I0J-150000D01*
G01*
X165400000Y-112329500D01*
G75*
G02*
X165250000Y-112479500I-150000J0D01*
G01*
G37*
G36*
G01*
X163980000Y-112479500D02*
X163680000Y-112479500D01*
G75*
G02*
X163530000Y-112329500I0J150000D01*
G01*
X163530000Y-110679500D01*
G75*
G02*
X163680000Y-110529500I150000J0D01*
G01*
X163980000Y-110529500D01*
G75*
G02*
X164130000Y-110679500I0J-150000D01*
G01*
X164130000Y-112329500D01*
G75*
G02*
X163980000Y-112479500I-150000J0D01*
G01*
G37*
G36*
G01*
X162710000Y-112479500D02*
X162410000Y-112479500D01*
G75*
G02*
X162260000Y-112329500I0J150000D01*
G01*
X162260000Y-110679500D01*
G75*
G02*
X162410000Y-110529500I150000J0D01*
G01*
X162710000Y-110529500D01*
G75*
G02*
X162860000Y-110679500I0J-150000D01*
G01*
X162860000Y-112329500D01*
G75*
G02*
X162710000Y-112479500I-150000J0D01*
G01*
G37*
%TD*%
%TO.C,U8*%
G36*
G01*
X139229500Y-103521500D02*
X139574500Y-103521500D01*
G75*
G02*
X139747000Y-103694000I0J-172500D01*
G01*
X139747000Y-104039000D01*
G75*
G02*
X139574500Y-104211500I-172500J0D01*
G01*
X139229500Y-104211500D01*
G75*
G02*
X139057000Y-104039000I0J172500D01*
G01*
X139057000Y-103694000D01*
G75*
G02*
X139229500Y-103521500I172500J0D01*
G01*
G37*
G36*
G01*
X140079500Y-103521500D02*
X140424500Y-103521500D01*
G75*
G02*
X140597000Y-103694000I0J-172500D01*
G01*
X140597000Y-104039000D01*
G75*
G02*
X140424500Y-104211500I-172500J0D01*
G01*
X140079500Y-104211500D01*
G75*
G02*
X139907000Y-104039000I0J172500D01*
G01*
X139907000Y-103694000D01*
G75*
G02*
X140079500Y-103521500I172500J0D01*
G01*
G37*
G36*
G01*
X139229500Y-102671500D02*
X139574500Y-102671500D01*
G75*
G02*
X139747000Y-102844000I0J-172500D01*
G01*
X139747000Y-103189000D01*
G75*
G02*
X139574500Y-103361500I-172500J0D01*
G01*
X139229500Y-103361500D01*
G75*
G02*
X139057000Y-103189000I0J172500D01*
G01*
X139057000Y-102844000D01*
G75*
G02*
X139229500Y-102671500I172500J0D01*
G01*
G37*
G36*
G01*
X140079500Y-102671500D02*
X140424500Y-102671500D01*
G75*
G02*
X140597000Y-102844000I0J-172500D01*
G01*
X140597000Y-103189000D01*
G75*
G02*
X140424500Y-103361500I-172500J0D01*
G01*
X140079500Y-103361500D01*
G75*
G02*
X139907000Y-103189000I0J172500D01*
G01*
X139907000Y-102844000D01*
G75*
G02*
X140079500Y-102671500I172500J0D01*
G01*
G37*
G36*
G01*
X140939500Y-102566500D02*
X141639500Y-102566500D01*
G75*
G02*
X141702000Y-102629000I0J-62500D01*
G01*
X141702000Y-102754000D01*
G75*
G02*
X141639500Y-102816500I-62500J0D01*
G01*
X140939500Y-102816500D01*
G75*
G02*
X140877000Y-102754000I0J62500D01*
G01*
X140877000Y-102629000D01*
G75*
G02*
X140939500Y-102566500I62500J0D01*
G01*
G37*
G36*
G01*
X140939500Y-103066500D02*
X141639500Y-103066500D01*
G75*
G02*
X141702000Y-103129000I0J-62500D01*
G01*
X141702000Y-103254000D01*
G75*
G02*
X141639500Y-103316500I-62500J0D01*
G01*
X140939500Y-103316500D01*
G75*
G02*
X140877000Y-103254000I0J62500D01*
G01*
X140877000Y-103129000D01*
G75*
G02*
X140939500Y-103066500I62500J0D01*
G01*
G37*
G36*
G01*
X140939500Y-103566500D02*
X141639500Y-103566500D01*
G75*
G02*
X141702000Y-103629000I0J-62500D01*
G01*
X141702000Y-103754000D01*
G75*
G02*
X141639500Y-103816500I-62500J0D01*
G01*
X140939500Y-103816500D01*
G75*
G02*
X140877000Y-103754000I0J62500D01*
G01*
X140877000Y-103629000D01*
G75*
G02*
X140939500Y-103566500I62500J0D01*
G01*
G37*
G36*
G01*
X140939500Y-104066500D02*
X141639500Y-104066500D01*
G75*
G02*
X141702000Y-104129000I0J-62500D01*
G01*
X141702000Y-104254000D01*
G75*
G02*
X141639500Y-104316500I-62500J0D01*
G01*
X140939500Y-104316500D01*
G75*
G02*
X140877000Y-104254000I0J62500D01*
G01*
X140877000Y-104129000D01*
G75*
G02*
X140939500Y-104066500I62500J0D01*
G01*
G37*
G36*
G01*
X140514500Y-104491500D02*
X140639500Y-104491500D01*
G75*
G02*
X140702000Y-104554000I0J-62500D01*
G01*
X140702000Y-105254000D01*
G75*
G02*
X140639500Y-105316500I-62500J0D01*
G01*
X140514500Y-105316500D01*
G75*
G02*
X140452000Y-105254000I0J62500D01*
G01*
X140452000Y-104554000D01*
G75*
G02*
X140514500Y-104491500I62500J0D01*
G01*
G37*
G36*
G01*
X140014500Y-104491500D02*
X140139500Y-104491500D01*
G75*
G02*
X140202000Y-104554000I0J-62500D01*
G01*
X140202000Y-105254000D01*
G75*
G02*
X140139500Y-105316500I-62500J0D01*
G01*
X140014500Y-105316500D01*
G75*
G02*
X139952000Y-105254000I0J62500D01*
G01*
X139952000Y-104554000D01*
G75*
G02*
X140014500Y-104491500I62500J0D01*
G01*
G37*
G36*
G01*
X139514500Y-104491500D02*
X139639500Y-104491500D01*
G75*
G02*
X139702000Y-104554000I0J-62500D01*
G01*
X139702000Y-105254000D01*
G75*
G02*
X139639500Y-105316500I-62500J0D01*
G01*
X139514500Y-105316500D01*
G75*
G02*
X139452000Y-105254000I0J62500D01*
G01*
X139452000Y-104554000D01*
G75*
G02*
X139514500Y-104491500I62500J0D01*
G01*
G37*
G36*
G01*
X139014500Y-104491500D02*
X139139500Y-104491500D01*
G75*
G02*
X139202000Y-104554000I0J-62500D01*
G01*
X139202000Y-105254000D01*
G75*
G02*
X139139500Y-105316500I-62500J0D01*
G01*
X139014500Y-105316500D01*
G75*
G02*
X138952000Y-105254000I0J62500D01*
G01*
X138952000Y-104554000D01*
G75*
G02*
X139014500Y-104491500I62500J0D01*
G01*
G37*
G36*
G01*
X138014500Y-104066500D02*
X138714500Y-104066500D01*
G75*
G02*
X138777000Y-104129000I0J-62500D01*
G01*
X138777000Y-104254000D01*
G75*
G02*
X138714500Y-104316500I-62500J0D01*
G01*
X138014500Y-104316500D01*
G75*
G02*
X137952000Y-104254000I0J62500D01*
G01*
X137952000Y-104129000D01*
G75*
G02*
X138014500Y-104066500I62500J0D01*
G01*
G37*
G36*
G01*
X138014500Y-103566500D02*
X138714500Y-103566500D01*
G75*
G02*
X138777000Y-103629000I0J-62500D01*
G01*
X138777000Y-103754000D01*
G75*
G02*
X138714500Y-103816500I-62500J0D01*
G01*
X138014500Y-103816500D01*
G75*
G02*
X137952000Y-103754000I0J62500D01*
G01*
X137952000Y-103629000D01*
G75*
G02*
X138014500Y-103566500I62500J0D01*
G01*
G37*
G36*
G01*
X138014500Y-103066500D02*
X138714500Y-103066500D01*
G75*
G02*
X138777000Y-103129000I0J-62500D01*
G01*
X138777000Y-103254000D01*
G75*
G02*
X138714500Y-103316500I-62500J0D01*
G01*
X138014500Y-103316500D01*
G75*
G02*
X137952000Y-103254000I0J62500D01*
G01*
X137952000Y-103129000D01*
G75*
G02*
X138014500Y-103066500I62500J0D01*
G01*
G37*
G36*
G01*
X138014500Y-102566500D02*
X138714500Y-102566500D01*
G75*
G02*
X138777000Y-102629000I0J-62500D01*
G01*
X138777000Y-102754000D01*
G75*
G02*
X138714500Y-102816500I-62500J0D01*
G01*
X138014500Y-102816500D01*
G75*
G02*
X137952000Y-102754000I0J62500D01*
G01*
X137952000Y-102629000D01*
G75*
G02*
X138014500Y-102566500I62500J0D01*
G01*
G37*
G36*
G01*
X139014500Y-101566500D02*
X139139500Y-101566500D01*
G75*
G02*
X139202000Y-101629000I0J-62500D01*
G01*
X139202000Y-102329000D01*
G75*
G02*
X139139500Y-102391500I-62500J0D01*
G01*
X139014500Y-102391500D01*
G75*
G02*
X138952000Y-102329000I0J62500D01*
G01*
X138952000Y-101629000D01*
G75*
G02*
X139014500Y-101566500I62500J0D01*
G01*
G37*
G36*
G01*
X139514500Y-101566500D02*
X139639500Y-101566500D01*
G75*
G02*
X139702000Y-101629000I0J-62500D01*
G01*
X139702000Y-102329000D01*
G75*
G02*
X139639500Y-102391500I-62500J0D01*
G01*
X139514500Y-102391500D01*
G75*
G02*
X139452000Y-102329000I0J62500D01*
G01*
X139452000Y-101629000D01*
G75*
G02*
X139514500Y-101566500I62500J0D01*
G01*
G37*
G36*
G01*
X140014500Y-101566500D02*
X140139500Y-101566500D01*
G75*
G02*
X140202000Y-101629000I0J-62500D01*
G01*
X140202000Y-102329000D01*
G75*
G02*
X140139500Y-102391500I-62500J0D01*
G01*
X140014500Y-102391500D01*
G75*
G02*
X139952000Y-102329000I0J62500D01*
G01*
X139952000Y-101629000D01*
G75*
G02*
X140014500Y-101566500I62500J0D01*
G01*
G37*
G36*
G01*
X140514500Y-101566500D02*
X140639500Y-101566500D01*
G75*
G02*
X140702000Y-101629000I0J-62500D01*
G01*
X140702000Y-102329000D01*
G75*
G02*
X140639500Y-102391500I-62500J0D01*
G01*
X140514500Y-102391500D01*
G75*
G02*
X140452000Y-102329000I0J62500D01*
G01*
X140452000Y-101629000D01*
G75*
G02*
X140514500Y-101566500I62500J0D01*
G01*
G37*
%TD*%
M02*
