%TF.GenerationSoftware,KiCad,Pcbnew,5.1.10*%
%TF.CreationDate,2021-05-20T00:00:09+01:00*%
%TF.ProjectId,watch2-without-led-tab,77617463-6832-42d7-9769-74686f75742d,rev?*%
%TF.SameCoordinates,Original*%
%TF.FileFunction,Paste,Bot*%
%TF.FilePolarity,Positive*%
%FSLAX46Y46*%
G04 Gerber Fmt 4.6, Leading zero omitted, Abs format (unit mm)*
G04 Created by KiCad (PCBNEW 5.1.10) date 2021-05-20 00:00:09*
%MOMM*%
%LPD*%
G01*
G04 APERTURE LIST*
%ADD10R,1.450000X0.700000*%
%ADD11R,0.700000X1.450000*%
%ADD12R,1.000000X2.000000*%
%ADD13R,0.270000X1.000000*%
%ADD14R,0.520000X1.000000*%
%ADD15O,0.900000X3.000000*%
%ADD16O,0.900000X1.500000*%
%ADD17R,5.000000X5.000000*%
%ADD18R,1.000000X1.550000*%
%ADD19R,1.400000X0.800000*%
G04 APERTURE END LIST*
D10*
%TO.C,SW3*%
X169695500Y-115236500D03*
X174855500Y-115236500D03*
X174855500Y-113236500D03*
X169695500Y-113236500D03*
%TD*%
D11*
%TO.C,SW2*%
X158321500Y-114450500D03*
X158321500Y-119610500D03*
X160321500Y-119610500D03*
X160321500Y-114450500D03*
%TD*%
D12*
%TO.C,J1*%
X150873000Y-118797000D03*
X153673000Y-118797000D03*
D13*
X151023000Y-114597000D03*
X151523000Y-114597000D03*
X152023000Y-114597000D03*
X152523000Y-114597000D03*
X153023000Y-114597000D03*
X153523000Y-114597000D03*
X150523000Y-114597000D03*
X154023000Y-114597000D03*
D14*
X149923000Y-114597000D03*
X154623000Y-114597000D03*
X149173000Y-114597000D03*
X155373000Y-114597000D03*
%TD*%
D15*
%TO.C,U7*%
X169016000Y-92570000D03*
X167746000Y-92570000D03*
X166476000Y-92570000D03*
X165206000Y-92570000D03*
X163936000Y-92570000D03*
X162666000Y-92570000D03*
X161396000Y-92570000D03*
X160126000Y-92570000D03*
X158856000Y-92570000D03*
X157586000Y-92570000D03*
X156316000Y-92570000D03*
X155046000Y-92570000D03*
X153776000Y-92570000D03*
X152506000Y-92570000D03*
X151206000Y-92600000D03*
X149936000Y-92600000D03*
X148666000Y-92600000D03*
X147396000Y-92600000D03*
X146126000Y-92600000D03*
D16*
X146126000Y-110600000D03*
D15*
X148666000Y-110600000D03*
X149936000Y-110600000D03*
X151206000Y-110600000D03*
X152506000Y-110600000D03*
X153776000Y-110600000D03*
X155046000Y-110600000D03*
X156316000Y-110600000D03*
X157586000Y-110600000D03*
X158856000Y-110600000D03*
X160126000Y-110600000D03*
X161396000Y-110600000D03*
X162666000Y-110600000D03*
X163936000Y-110600000D03*
X165206000Y-110600000D03*
X166476000Y-110600000D03*
X167746000Y-110600000D03*
X169016000Y-110600000D03*
D17*
X162096000Y-102000000D03*
%TD*%
D18*
%TO.C,IO0*%
X130683000Y-100160000D03*
X130683000Y-105410000D03*
X128983000Y-105410000D03*
X128983000Y-100160000D03*
%TD*%
D19*
%TO.C,D5*%
X130048000Y-86487000D03*
X133648000Y-86487000D03*
%TD*%
M02*
