%TF.GenerationSoftware,KiCad,Pcbnew,5.1.10*%
%TF.CreationDate,2021-05-20T00:00:10+01:00*%
%TF.ProjectId,watch2-without-led-tab,77617463-6832-42d7-9769-74686f75742d,rev?*%
%TF.SameCoordinates,Original*%
%TF.FileFunction,Legend,Top*%
%TF.FilePolarity,Positive*%
%FSLAX46Y46*%
G04 Gerber Fmt 4.6, Leading zero omitted, Abs format (unit mm)*
G04 Created by KiCad (PCBNEW 5.1.10) date 2021-05-20 00:00:10*
%MOMM*%
%LPD*%
G01*
G04 APERTURE LIST*
%ADD10C,0.100000*%
%ADD11C,0.120000*%
%ADD12C,0.150000*%
%ADD13C,0.050000*%
%ADD14C,0.203200*%
%ADD15C,0.127000*%
G04 APERTURE END LIST*
D10*
X134059642Y-88419285D02*
X134031071Y-88505000D01*
X134031071Y-88647857D01*
X134059642Y-88705000D01*
X134088214Y-88733571D01*
X134145357Y-88762142D01*
X134202500Y-88762142D01*
X134259642Y-88733571D01*
X134288214Y-88705000D01*
X134316785Y-88647857D01*
X134345357Y-88533571D01*
X134373928Y-88476428D01*
X134402500Y-88447857D01*
X134459642Y-88419285D01*
X134516785Y-88419285D01*
X134573928Y-88447857D01*
X134602500Y-88476428D01*
X134631071Y-88533571D01*
X134631071Y-88676428D01*
X134602500Y-88762142D01*
X134631071Y-88933571D02*
X134631071Y-89276428D01*
X134031071Y-89105000D02*
X134631071Y-89105000D01*
X134345357Y-89476428D02*
X134345357Y-89676428D01*
X134031071Y-89762142D02*
X134031071Y-89476428D01*
X134631071Y-89476428D01*
X134631071Y-89762142D01*
X134031071Y-90019285D02*
X134631071Y-90019285D01*
X134202500Y-90219285D01*
X134631071Y-90419285D01*
X134031071Y-90419285D01*
X134031071Y-90705000D02*
X134631071Y-90705000D01*
X134202500Y-90905000D01*
X134631071Y-91105000D01*
X134031071Y-91105000D01*
X134202500Y-91362142D02*
X134202500Y-91647857D01*
X134031071Y-91305000D02*
X134631071Y-91505000D01*
X134031071Y-91705000D01*
X133973928Y-92762142D02*
X134002500Y-92705000D01*
X134059642Y-92647857D01*
X134145357Y-92562142D01*
X134173928Y-92505000D01*
X134173928Y-92447857D01*
X134031071Y-92476428D02*
X134059642Y-92419285D01*
X134116785Y-92362142D01*
X134231071Y-92333571D01*
X134431071Y-92333571D01*
X134545357Y-92362142D01*
X134602500Y-92419285D01*
X134631071Y-92476428D01*
X134631071Y-92590714D01*
X134602500Y-92647857D01*
X134545357Y-92705000D01*
X134431071Y-92733571D01*
X134231071Y-92733571D01*
X134116785Y-92705000D01*
X134059642Y-92647857D01*
X134031071Y-92590714D01*
X134031071Y-92476428D01*
X134631071Y-92905000D02*
X134631071Y-93247857D01*
X134031071Y-93076428D02*
X134631071Y-93076428D01*
X130349714Y-92635357D02*
X130435428Y-92663928D01*
X130578285Y-92663928D01*
X130635428Y-92635357D01*
X130664000Y-92606785D01*
X130692571Y-92549642D01*
X130692571Y-92492500D01*
X130664000Y-92435357D01*
X130635428Y-92406785D01*
X130578285Y-92378214D01*
X130464000Y-92349642D01*
X130406857Y-92321071D01*
X130378285Y-92292500D01*
X130349714Y-92235357D01*
X130349714Y-92178214D01*
X130378285Y-92121071D01*
X130406857Y-92092500D01*
X130464000Y-92063928D01*
X130606857Y-92063928D01*
X130692571Y-92092500D01*
X131292571Y-92606785D02*
X131264000Y-92635357D01*
X131178285Y-92663928D01*
X131121142Y-92663928D01*
X131035428Y-92635357D01*
X130978285Y-92578214D01*
X130949714Y-92521071D01*
X130921142Y-92406785D01*
X130921142Y-92321071D01*
X130949714Y-92206785D01*
X130978285Y-92149642D01*
X131035428Y-92092500D01*
X131121142Y-92063928D01*
X131178285Y-92063928D01*
X131264000Y-92092500D01*
X131292571Y-92121071D01*
X131835428Y-92663928D02*
X131549714Y-92663928D01*
X131549714Y-92063928D01*
X130335428Y-91619357D02*
X130421142Y-91647928D01*
X130564000Y-91647928D01*
X130621142Y-91619357D01*
X130649714Y-91590785D01*
X130678285Y-91533642D01*
X130678285Y-91476500D01*
X130649714Y-91419357D01*
X130621142Y-91390785D01*
X130564000Y-91362214D01*
X130449714Y-91333642D01*
X130392571Y-91305071D01*
X130364000Y-91276500D01*
X130335428Y-91219357D01*
X130335428Y-91162214D01*
X130364000Y-91105071D01*
X130392571Y-91076500D01*
X130449714Y-91047928D01*
X130592571Y-91047928D01*
X130678285Y-91076500D01*
X130935428Y-91647928D02*
X130935428Y-91047928D01*
X131078285Y-91047928D01*
X131164000Y-91076500D01*
X131221142Y-91133642D01*
X131249714Y-91190785D01*
X131278285Y-91305071D01*
X131278285Y-91390785D01*
X131249714Y-91505071D01*
X131221142Y-91562214D01*
X131164000Y-91619357D01*
X131078285Y-91647928D01*
X130935428Y-91647928D01*
X131506857Y-91476500D02*
X131792571Y-91476500D01*
X131449714Y-91647928D02*
X131649714Y-91047928D01*
X131849714Y-91647928D01*
X130349714Y-90095428D02*
X130721142Y-90095428D01*
X130521142Y-90324000D01*
X130606857Y-90324000D01*
X130664000Y-90352571D01*
X130692571Y-90381142D01*
X130721142Y-90438285D01*
X130721142Y-90581142D01*
X130692571Y-90638285D01*
X130664000Y-90666857D01*
X130606857Y-90695428D01*
X130435428Y-90695428D01*
X130378285Y-90666857D01*
X130349714Y-90638285D01*
X130921142Y-90295428D02*
X131064000Y-90695428D01*
X131206857Y-90295428D01*
X131378285Y-90095428D02*
X131749714Y-90095428D01*
X131549714Y-90324000D01*
X131635428Y-90324000D01*
X131692571Y-90352571D01*
X131721142Y-90381142D01*
X131749714Y-90438285D01*
X131749714Y-90581142D01*
X131721142Y-90638285D01*
X131692571Y-90666857D01*
X131635428Y-90695428D01*
X131464000Y-90695428D01*
X131406857Y-90666857D01*
X131378285Y-90638285D01*
X130543357Y-89171500D02*
X130486214Y-89142928D01*
X130400500Y-89142928D01*
X130314785Y-89171500D01*
X130257642Y-89228642D01*
X130229071Y-89285785D01*
X130200500Y-89400071D01*
X130200500Y-89485785D01*
X130229071Y-89600071D01*
X130257642Y-89657214D01*
X130314785Y-89714357D01*
X130400500Y-89742928D01*
X130457642Y-89742928D01*
X130543357Y-89714357D01*
X130571928Y-89685785D01*
X130571928Y-89485785D01*
X130457642Y-89485785D01*
X130829071Y-89742928D02*
X130829071Y-89142928D01*
X131171928Y-89742928D01*
X131171928Y-89142928D01*
X131457642Y-89742928D02*
X131457642Y-89142928D01*
X131600500Y-89142928D01*
X131686214Y-89171500D01*
X131743357Y-89228642D01*
X131771928Y-89285785D01*
X131800500Y-89400071D01*
X131800500Y-89485785D01*
X131771928Y-89600071D01*
X131743357Y-89657214D01*
X131686214Y-89714357D01*
X131600500Y-89742928D01*
X131457642Y-89742928D01*
D11*
X147320000Y-96520000D02*
G75*
G03*
X147320000Y-96520000I-254000J0D01*
G01*
X163525200Y-116941600D02*
G75*
G03*
X163525200Y-116941600I-254000J0D01*
G01*
X170302079Y-111252000D02*
G75*
G03*
X170302079Y-111252000I-325279J0D01*
G01*
X163474400Y-113030000D02*
G75*
G03*
X163474400Y-113030000I-254000J0D01*
G01*
X161607126Y-108864400D02*
G75*
G03*
X161607126Y-108864400I-215526J0D01*
G01*
X140596968Y-118059200D02*
G75*
G03*
X140596968Y-118059200I-287368J0D01*
G01*
D10*
X170992857Y-92889428D02*
X171335714Y-92889428D01*
X171164285Y-93489428D02*
X171164285Y-92889428D01*
X171478571Y-92889428D02*
X171878571Y-93489428D01*
X171878571Y-92889428D02*
X171478571Y-93489428D01*
X173890000Y-93489428D02*
X173690000Y-93203714D01*
X173547142Y-93489428D02*
X173547142Y-92889428D01*
X173775714Y-92889428D01*
X173832857Y-92918000D01*
X173861428Y-92946571D01*
X173890000Y-93003714D01*
X173890000Y-93089428D01*
X173861428Y-93146571D01*
X173832857Y-93175142D01*
X173775714Y-93203714D01*
X173547142Y-93203714D01*
X174090000Y-92889428D02*
X174490000Y-93489428D01*
X174490000Y-92889428D02*
X174090000Y-93489428D01*
X175839400Y-88366657D02*
X175867971Y-88309514D01*
X175867971Y-88223800D01*
X175839400Y-88138085D01*
X175782257Y-88080942D01*
X175725114Y-88052371D01*
X175610828Y-88023800D01*
X175525114Y-88023800D01*
X175410828Y-88052371D01*
X175353685Y-88080942D01*
X175296542Y-88138085D01*
X175267971Y-88223800D01*
X175267971Y-88280942D01*
X175296542Y-88366657D01*
X175325114Y-88395228D01*
X175525114Y-88395228D01*
X175525114Y-88280942D01*
X175267971Y-88652371D02*
X175867971Y-88652371D01*
X175267971Y-88995228D01*
X175867971Y-88995228D01*
X175267971Y-89280942D02*
X175867971Y-89280942D01*
X175867971Y-89423800D01*
X175839400Y-89509514D01*
X175782257Y-89566657D01*
X175725114Y-89595228D01*
X175610828Y-89623800D01*
X175525114Y-89623800D01*
X175410828Y-89595228D01*
X175353685Y-89566657D01*
X175296542Y-89509514D01*
X175267971Y-89423800D01*
X175267971Y-89280942D01*
X175867971Y-86204514D02*
X175867971Y-86575942D01*
X175639400Y-86375942D01*
X175639400Y-86461657D01*
X175610828Y-86518800D01*
X175582257Y-86547371D01*
X175525114Y-86575942D01*
X175382257Y-86575942D01*
X175325114Y-86547371D01*
X175296542Y-86518800D01*
X175267971Y-86461657D01*
X175267971Y-86290228D01*
X175296542Y-86233085D01*
X175325114Y-86204514D01*
X175667971Y-86775942D02*
X175267971Y-86918800D01*
X175667971Y-87061657D01*
X175867971Y-87233085D02*
X175867971Y-87604514D01*
X175639400Y-87404514D01*
X175639400Y-87490228D01*
X175610828Y-87547371D01*
X175582257Y-87575942D01*
X175525114Y-87604514D01*
X175382257Y-87604514D01*
X175325114Y-87575942D01*
X175296542Y-87547371D01*
X175267971Y-87490228D01*
X175267971Y-87318800D01*
X175296542Y-87261657D01*
X175325114Y-87233085D01*
D11*
X143764000Y-112268000D02*
X143764000Y-112395000D01*
X143002000Y-111252000D02*
X143764000Y-110871000D01*
X143764000Y-111633000D02*
X143002000Y-111252000D01*
X143764000Y-110998000D02*
X143764000Y-111633000D01*
X143002000Y-109410500D02*
X143764000Y-109029500D01*
X143764000Y-109791500D02*
X143002000Y-109410500D01*
X143764000Y-109029500D02*
X143764000Y-109791500D01*
X165481000Y-119126000D02*
X166497000Y-119126000D01*
X165989000Y-118237000D02*
X165481000Y-119126000D01*
X166497000Y-119126000D02*
X165989000Y-118237000D01*
X140768605Y-101092000D02*
G75*
G03*
X140768605Y-101092000I-179605J0D01*
G01*
X150896609Y-105918000D02*
G75*
G03*
X150896609Y-105918000I-401609J0D01*
G01*
D12*
X168368880Y-99957380D02*
X168368880Y-98957380D01*
X168368880Y-99338333D02*
X168464119Y-99290714D01*
X168654595Y-99290714D01*
X168749833Y-99338333D01*
X168797452Y-99385952D01*
X168845071Y-99481190D01*
X168845071Y-99766904D01*
X168797452Y-99862142D01*
X168749833Y-99909761D01*
X168654595Y-99957380D01*
X168464119Y-99957380D01*
X168368880Y-99909761D01*
X169178404Y-99290714D02*
X169416500Y-99957380D01*
X169654595Y-99290714D02*
X169416500Y-99957380D01*
X169321261Y-100195476D01*
X169273642Y-100243095D01*
X169178404Y-100290714D01*
X171226023Y-99957380D02*
X171226023Y-99433571D01*
X171178404Y-99338333D01*
X171083166Y-99290714D01*
X170892690Y-99290714D01*
X170797452Y-99338333D01*
X171226023Y-99909761D02*
X171130785Y-99957380D01*
X170892690Y-99957380D01*
X170797452Y-99909761D01*
X170749833Y-99814523D01*
X170749833Y-99719285D01*
X170797452Y-99624047D01*
X170892690Y-99576428D01*
X171130785Y-99576428D01*
X171226023Y-99528809D01*
X171559357Y-99290714D02*
X171940309Y-99290714D01*
X171702214Y-98957380D02*
X171702214Y-99814523D01*
X171749833Y-99909761D01*
X171845071Y-99957380D01*
X171940309Y-99957380D01*
X172702214Y-99909761D02*
X172606976Y-99957380D01*
X172416500Y-99957380D01*
X172321261Y-99909761D01*
X172273642Y-99862142D01*
X172226023Y-99766904D01*
X172226023Y-99481190D01*
X172273642Y-99385952D01*
X172321261Y-99338333D01*
X172416500Y-99290714D01*
X172606976Y-99290714D01*
X172702214Y-99338333D01*
X172987928Y-99290714D02*
X173368880Y-99290714D01*
X173130785Y-98957380D02*
X173130785Y-99814523D01*
X173178404Y-99909761D01*
X173273642Y-99957380D01*
X173368880Y-99957380D01*
X173606976Y-99290714D02*
X173797452Y-99957380D01*
X173987928Y-99481190D01*
X174178404Y-99957380D01*
X174368880Y-99290714D01*
X174892690Y-99957380D02*
X174797452Y-99909761D01*
X174749833Y-99862142D01*
X174702214Y-99766904D01*
X174702214Y-99481190D01*
X174749833Y-99385952D01*
X174797452Y-99338333D01*
X174892690Y-99290714D01*
X175035547Y-99290714D01*
X175130785Y-99338333D01*
X175178404Y-99385952D01*
X175226023Y-99481190D01*
X175226023Y-99766904D01*
X175178404Y-99862142D01*
X175130785Y-99909761D01*
X175035547Y-99957380D01*
X174892690Y-99957380D01*
X172416500Y-100940714D02*
X172654595Y-101607380D01*
X172892690Y-100940714D01*
X173797452Y-101607380D02*
X173226023Y-101607380D01*
X173511738Y-101607380D02*
X173511738Y-100607380D01*
X173416500Y-100750238D01*
X173321261Y-100845476D01*
X173226023Y-100893095D01*
X174226023Y-101512142D02*
X174273642Y-101559761D01*
X174226023Y-101607380D01*
X174178404Y-101559761D01*
X174226023Y-101512142D01*
X174226023Y-101607380D01*
X175226023Y-101607380D02*
X174654595Y-101607380D01*
X174940309Y-101607380D02*
X174940309Y-100607380D01*
X174845071Y-100750238D01*
X174749833Y-100845476D01*
X174654595Y-100893095D01*
D10*
X167636000Y-120114000D02*
X167669333Y-120147333D01*
X167702666Y-120247333D01*
X167702666Y-120314000D01*
X167669333Y-120414000D01*
X167602666Y-120480666D01*
X167536000Y-120514000D01*
X167402666Y-120547333D01*
X167302666Y-120547333D01*
X167169333Y-120514000D01*
X167102666Y-120480666D01*
X167036000Y-120414000D01*
X167002666Y-120314000D01*
X167002666Y-120247333D01*
X167036000Y-120147333D01*
X167069333Y-120114000D01*
X167702666Y-119814000D02*
X167002666Y-119814000D01*
X167702666Y-119514000D02*
X167336000Y-119514000D01*
X167269333Y-119547333D01*
X167236000Y-119614000D01*
X167236000Y-119714000D01*
X167269333Y-119780666D01*
X167302666Y-119814000D01*
X167702666Y-118880666D02*
X167336000Y-118880666D01*
X167269333Y-118914000D01*
X167236000Y-118980666D01*
X167236000Y-119114000D01*
X167269333Y-119180666D01*
X167669333Y-118880666D02*
X167702666Y-118947333D01*
X167702666Y-119114000D01*
X167669333Y-119180666D01*
X167602666Y-119214000D01*
X167536000Y-119214000D01*
X167469333Y-119180666D01*
X167436000Y-119114000D01*
X167436000Y-118947333D01*
X167402666Y-118880666D01*
X167702666Y-118547333D02*
X167236000Y-118547333D01*
X167369333Y-118547333D02*
X167302666Y-118514000D01*
X167269333Y-118480666D01*
X167236000Y-118414000D01*
X167236000Y-118347333D01*
X167236000Y-117814000D02*
X167802666Y-117814000D01*
X167869333Y-117847333D01*
X167902666Y-117880666D01*
X167936000Y-117947333D01*
X167936000Y-118047333D01*
X167902666Y-118114000D01*
X167669333Y-117814000D02*
X167702666Y-117880666D01*
X167702666Y-118014000D01*
X167669333Y-118080666D01*
X167636000Y-118114000D01*
X167569333Y-118147333D01*
X167369333Y-118147333D01*
X167302666Y-118114000D01*
X167269333Y-118080666D01*
X167236000Y-118014000D01*
X167236000Y-117880666D01*
X167269333Y-117814000D01*
X167702666Y-117480666D02*
X167236000Y-117480666D01*
X167002666Y-117480666D02*
X167036000Y-117514000D01*
X167069333Y-117480666D01*
X167036000Y-117447333D01*
X167002666Y-117480666D01*
X167069333Y-117480666D01*
X167236000Y-117147333D02*
X167702666Y-117147333D01*
X167302666Y-117147333D02*
X167269333Y-117114000D01*
X167236000Y-117047333D01*
X167236000Y-116947333D01*
X167269333Y-116880666D01*
X167336000Y-116847333D01*
X167702666Y-116847333D01*
X167236000Y-116214000D02*
X167802666Y-116214000D01*
X167869333Y-116247333D01*
X167902666Y-116280666D01*
X167936000Y-116347333D01*
X167936000Y-116447333D01*
X167902666Y-116514000D01*
X167669333Y-116214000D02*
X167702666Y-116280666D01*
X167702666Y-116414000D01*
X167669333Y-116480666D01*
X167636000Y-116514000D01*
X167569333Y-116547333D01*
X167369333Y-116547333D01*
X167302666Y-116514000D01*
X167269333Y-116480666D01*
X167236000Y-116414000D01*
X167236000Y-116280666D01*
X167269333Y-116214000D01*
D11*
X170434000Y-92456000D02*
X176530000Y-92456000D01*
X170434000Y-110680500D02*
X170434000Y-92456000D01*
X176530000Y-110744000D02*
X170434000Y-110680500D01*
D12*
X156114904Y-113418880D02*
X155781571Y-112942690D01*
X155543476Y-113418880D02*
X155543476Y-112418880D01*
X155924428Y-112418880D01*
X156019666Y-112466500D01*
X156067285Y-112514119D01*
X156114904Y-112609357D01*
X156114904Y-112752214D01*
X156067285Y-112847452D01*
X156019666Y-112895071D01*
X155924428Y-112942690D01*
X155543476Y-112942690D01*
X156924428Y-113371261D02*
X156829190Y-113418880D01*
X156638714Y-113418880D01*
X156543476Y-113371261D01*
X156495857Y-113276023D01*
X156495857Y-112895071D01*
X156543476Y-112799833D01*
X156638714Y-112752214D01*
X156829190Y-112752214D01*
X156924428Y-112799833D01*
X156972047Y-112895071D01*
X156972047Y-112990309D01*
X156495857Y-113085547D01*
X157353000Y-113371261D02*
X157448238Y-113418880D01*
X157638714Y-113418880D01*
X157733952Y-113371261D01*
X157781571Y-113276023D01*
X157781571Y-113228404D01*
X157733952Y-113133166D01*
X157638714Y-113085547D01*
X157495857Y-113085547D01*
X157400619Y-113037928D01*
X157353000Y-112942690D01*
X157353000Y-112895071D01*
X157400619Y-112799833D01*
X157495857Y-112752214D01*
X157638714Y-112752214D01*
X157733952Y-112799833D01*
X158591095Y-113371261D02*
X158495857Y-113418880D01*
X158305380Y-113418880D01*
X158210142Y-113371261D01*
X158162523Y-113276023D01*
X158162523Y-112895071D01*
X158210142Y-112799833D01*
X158305380Y-112752214D01*
X158495857Y-112752214D01*
X158591095Y-112799833D01*
X158638714Y-112895071D01*
X158638714Y-112990309D01*
X158162523Y-113085547D01*
X158924428Y-112752214D02*
X159305380Y-112752214D01*
X159067285Y-112418880D02*
X159067285Y-113276023D01*
X159114904Y-113371261D01*
X159210142Y-113418880D01*
X159305380Y-113418880D01*
D13*
X135871267Y-93482474D02*
X131572000Y-93472000D01*
X136154474Y-112794733D02*
X131844733Y-112776000D01*
X139700000Y-108966000D02*
X139700000Y-97028000D01*
X128026474Y-97300733D02*
X128016000Y-109230474D01*
X131844813Y-112775994D02*
G75*
G02*
X128016000Y-109230474I-272813J3545520D01*
G01*
X139699994Y-108965920D02*
G75*
G02*
X136154474Y-112794733I-3545520J-272813D01*
G01*
X135871187Y-93482480D02*
G75*
G02*
X139700000Y-97028000I272813J-3545520D01*
G01*
X128026480Y-97300813D02*
G75*
G02*
X131572000Y-93472000I3545520J272813D01*
G01*
X167614600Y-90258900D02*
X170154600Y-90258900D01*
X172694600Y-87718900D02*
G75*
G02*
X170154600Y-90258900I-2540000J0D01*
G01*
X170154600Y-85178900D02*
G75*
G02*
X172694600Y-87718900I0J-2540000D01*
G01*
X170154600Y-85178900D02*
X137134600Y-85178900D01*
X134594600Y-87718900D02*
G75*
G02*
X137134600Y-85178900I2540000J0D01*
G01*
X137134600Y-90258900D02*
G75*
G02*
X134594600Y-87718900I0J2540000D01*
G01*
X137134600Y-90258900D02*
X139674600Y-90258900D01*
X139674600Y-90258900D02*
X139674600Y-115658900D01*
X139674600Y-115658900D02*
X137134600Y-115658900D01*
X134594600Y-118198900D02*
G75*
G02*
X137134600Y-115658900I2540000J0D01*
G01*
X137134600Y-120738900D02*
G75*
G02*
X134594600Y-118198900I0J2540000D01*
G01*
X136118600Y-120738900D02*
X169138600Y-120738900D01*
X172694600Y-118198900D02*
G75*
G02*
X170154600Y-120738900I-2540000J0D01*
G01*
X170154600Y-115658900D02*
G75*
G02*
X172694600Y-118198900I0J-2540000D01*
G01*
X170154600Y-115658900D02*
X167614600Y-115658900D01*
X167614600Y-115658900D02*
X167614600Y-90258900D01*
%TO.C,*%
G36*
X146663700Y-111161400D02*
G01*
X146799200Y-111161300D01*
X146862300Y-111140900D01*
X146903100Y-111091700D01*
X146906300Y-111018900D01*
X146874200Y-110963400D01*
X146813500Y-110932900D01*
X146679000Y-110931100D01*
X146631700Y-110951500D01*
X146631700Y-111154900D01*
X146663700Y-111161400D01*
G37*
X146663700Y-111161400D02*
X146799200Y-111161300D01*
X146862300Y-111140900D01*
X146903100Y-111091700D01*
X146906300Y-111018900D01*
X146874200Y-110963400D01*
X146813500Y-110932900D01*
X146679000Y-110931100D01*
X146631700Y-110951500D01*
X146631700Y-111154900D01*
X146663700Y-111161400D01*
G36*
X146285900Y-110513900D02*
G01*
X146218800Y-110523400D01*
X146153000Y-110539600D01*
X146089100Y-110562200D01*
X146027800Y-110591200D01*
X145969700Y-110626100D01*
X145915400Y-110666600D01*
X145865400Y-110712400D01*
X145820300Y-110762900D01*
X145780400Y-110817700D01*
X145746100Y-110876200D01*
X145717900Y-110937800D01*
X145696000Y-111002000D01*
X145680700Y-111068000D01*
X145671900Y-111135200D01*
X145670000Y-111202900D01*
X145674800Y-111270500D01*
X145686400Y-111337300D01*
X145704600Y-111402600D01*
X145729200Y-111465700D01*
X145760000Y-111526100D01*
X145796700Y-111583100D01*
X145838900Y-111636100D01*
X145886100Y-111684700D01*
X145938000Y-111728300D01*
X145994000Y-111766500D01*
X146053600Y-111798900D01*
X146116000Y-111825200D01*
X146180800Y-111845100D01*
X146247300Y-111858400D01*
X146314700Y-111865100D01*
X146382500Y-111865800D01*
X148416600Y-111865800D01*
X148484300Y-111862800D01*
X148551400Y-111852900D01*
X148617100Y-111836500D01*
X148680900Y-111813500D01*
X148742000Y-111784300D01*
X148799900Y-111749100D01*
X148854100Y-111708300D01*
X148903800Y-111662300D01*
X148948800Y-111611600D01*
X148988400Y-111556600D01*
X149022300Y-111497900D01*
X149050200Y-111436200D01*
X149071800Y-111371900D01*
X149086900Y-111305900D01*
X149095300Y-111238600D01*
X149096900Y-111170800D01*
X149091800Y-111103300D01*
X149079900Y-111036500D01*
X149061400Y-110971300D01*
X149036500Y-110908300D01*
X149005400Y-110848100D01*
X148968400Y-110791300D01*
X148926000Y-110738400D01*
X148878500Y-110690100D01*
X148826400Y-110646800D01*
X148770200Y-110608800D01*
X148710500Y-110576700D01*
X148647900Y-110550700D01*
X148583100Y-110531100D01*
X148516500Y-110518100D01*
X148449100Y-110511800D01*
X146359700Y-110511200D01*
X146441100Y-110715000D01*
X146498200Y-110701200D01*
X146775500Y-110700800D01*
X146840000Y-110704300D01*
X146902500Y-110720800D01*
X146963900Y-110750800D01*
X147023300Y-110793200D01*
X147069700Y-110839900D01*
X147106700Y-110899000D01*
X147129500Y-110961400D01*
X147139300Y-111028900D01*
X147136100Y-111100400D01*
X147120200Y-111166200D01*
X147091800Y-111225300D01*
X147050800Y-111277600D01*
X147054400Y-111324300D01*
X147109200Y-111451400D01*
X147130700Y-111504200D01*
X147143200Y-111553000D01*
X147321600Y-111521300D01*
X147343400Y-111476900D01*
X147393000Y-111419700D01*
X147620500Y-111168300D01*
X147347100Y-110859700D01*
X147316300Y-110803200D01*
X147334000Y-110751400D01*
X147395800Y-110695100D01*
X147451300Y-110673700D01*
X147505700Y-110697300D01*
X147558100Y-110751000D01*
X147734600Y-110957000D01*
X147778800Y-111002800D01*
X148002900Y-110748500D01*
X148057000Y-110694600D01*
X148108800Y-110673900D01*
X148165200Y-110700800D01*
X148224100Y-110759000D01*
X148235100Y-110810700D01*
X148200700Y-110871700D01*
X147972000Y-111124200D01*
X147932100Y-111168200D01*
X148162800Y-111416600D01*
X148211000Y-111471200D01*
X148236800Y-111529300D01*
X148217600Y-111582800D01*
X148159100Y-111641500D01*
X148103700Y-111662600D01*
X148050600Y-111635700D01*
X147777200Y-111324900D01*
X147556500Y-111580400D01*
X147504600Y-111636700D01*
X147452300Y-111662600D01*
X147398400Y-111641400D01*
X147336100Y-111582700D01*
X147320700Y-111544100D01*
X147139800Y-111575800D01*
X147117200Y-111613100D01*
X147043600Y-111652100D01*
X146981000Y-111660600D01*
X146935300Y-111626300D01*
X146862900Y-111458300D01*
X146811300Y-111391700D01*
X146675700Y-111391700D01*
X146631700Y-111415500D01*
X146631500Y-111552900D01*
X146619700Y-111617100D01*
X146575500Y-111649500D01*
X146489300Y-111654700D01*
X146424500Y-111633400D01*
X146403700Y-111583700D01*
X146401400Y-111512900D01*
X146401600Y-110767800D01*
X146422900Y-110728900D01*
X146334700Y-110511700D01*
X146285900Y-110513900D01*
G37*
X146285900Y-110513900D02*
X146218800Y-110523400D01*
X146153000Y-110539600D01*
X146089100Y-110562200D01*
X146027800Y-110591200D01*
X145969700Y-110626100D01*
X145915400Y-110666600D01*
X145865400Y-110712400D01*
X145820300Y-110762900D01*
X145780400Y-110817700D01*
X145746100Y-110876200D01*
X145717900Y-110937800D01*
X145696000Y-111002000D01*
X145680700Y-111068000D01*
X145671900Y-111135200D01*
X145670000Y-111202900D01*
X145674800Y-111270500D01*
X145686400Y-111337300D01*
X145704600Y-111402600D01*
X145729200Y-111465700D01*
X145760000Y-111526100D01*
X145796700Y-111583100D01*
X145838900Y-111636100D01*
X145886100Y-111684700D01*
X145938000Y-111728300D01*
X145994000Y-111766500D01*
X146053600Y-111798900D01*
X146116000Y-111825200D01*
X146180800Y-111845100D01*
X146247300Y-111858400D01*
X146314700Y-111865100D01*
X146382500Y-111865800D01*
X148416600Y-111865800D01*
X148484300Y-111862800D01*
X148551400Y-111852900D01*
X148617100Y-111836500D01*
X148680900Y-111813500D01*
X148742000Y-111784300D01*
X148799900Y-111749100D01*
X148854100Y-111708300D01*
X148903800Y-111662300D01*
X148948800Y-111611600D01*
X148988400Y-111556600D01*
X149022300Y-111497900D01*
X149050200Y-111436200D01*
X149071800Y-111371900D01*
X149086900Y-111305900D01*
X149095300Y-111238600D01*
X149096900Y-111170800D01*
X149091800Y-111103300D01*
X149079900Y-111036500D01*
X149061400Y-110971300D01*
X149036500Y-110908300D01*
X149005400Y-110848100D01*
X148968400Y-110791300D01*
X148926000Y-110738400D01*
X148878500Y-110690100D01*
X148826400Y-110646800D01*
X148770200Y-110608800D01*
X148710500Y-110576700D01*
X148647900Y-110550700D01*
X148583100Y-110531100D01*
X148516500Y-110518100D01*
X148449100Y-110511800D01*
X146359700Y-110511200D01*
X146441100Y-110715000D01*
X146498200Y-110701200D01*
X146775500Y-110700800D01*
X146840000Y-110704300D01*
X146902500Y-110720800D01*
X146963900Y-110750800D01*
X147023300Y-110793200D01*
X147069700Y-110839900D01*
X147106700Y-110899000D01*
X147129500Y-110961400D01*
X147139300Y-111028900D01*
X147136100Y-111100400D01*
X147120200Y-111166200D01*
X147091800Y-111225300D01*
X147050800Y-111277600D01*
X147054400Y-111324300D01*
X147109200Y-111451400D01*
X147130700Y-111504200D01*
X147143200Y-111553000D01*
X147321600Y-111521300D01*
X147343400Y-111476900D01*
X147393000Y-111419700D01*
X147620500Y-111168300D01*
X147347100Y-110859700D01*
X147316300Y-110803200D01*
X147334000Y-110751400D01*
X147395800Y-110695100D01*
X147451300Y-110673700D01*
X147505700Y-110697300D01*
X147558100Y-110751000D01*
X147734600Y-110957000D01*
X147778800Y-111002800D01*
X148002900Y-110748500D01*
X148057000Y-110694600D01*
X148108800Y-110673900D01*
X148165200Y-110700800D01*
X148224100Y-110759000D01*
X148235100Y-110810700D01*
X148200700Y-110871700D01*
X147972000Y-111124200D01*
X147932100Y-111168200D01*
X148162800Y-111416600D01*
X148211000Y-111471200D01*
X148236800Y-111529300D01*
X148217600Y-111582800D01*
X148159100Y-111641500D01*
X148103700Y-111662600D01*
X148050600Y-111635700D01*
X147777200Y-111324900D01*
X147556500Y-111580400D01*
X147504600Y-111636700D01*
X147452300Y-111662600D01*
X147398400Y-111641400D01*
X147336100Y-111582700D01*
X147320700Y-111544100D01*
X147139800Y-111575800D01*
X147117200Y-111613100D01*
X147043600Y-111652100D01*
X146981000Y-111660600D01*
X146935300Y-111626300D01*
X146862900Y-111458300D01*
X146811300Y-111391700D01*
X146675700Y-111391700D01*
X146631700Y-111415500D01*
X146631500Y-111552900D01*
X146619700Y-111617100D01*
X146575500Y-111649500D01*
X146489300Y-111654700D01*
X146424500Y-111633400D01*
X146403700Y-111583700D01*
X146401400Y-111512900D01*
X146401600Y-110767800D01*
X146422900Y-110728900D01*
X146334700Y-110511700D01*
X146285900Y-110513900D01*
G36*
X146212900Y-108735200D02*
G01*
X146145800Y-108743900D01*
X146079800Y-108759200D01*
X146015700Y-108781100D01*
X145954100Y-108809200D01*
X145895600Y-108843400D01*
X145840800Y-108883200D01*
X145790200Y-108928300D01*
X145744500Y-108978200D01*
X145703900Y-109032400D01*
X145668900Y-109090500D01*
X145640000Y-109151700D01*
X145617200Y-109215500D01*
X145601000Y-109281200D01*
X145591400Y-109348300D01*
X145588600Y-109416000D01*
X145592500Y-109483600D01*
X145603200Y-109550500D01*
X145620500Y-109615900D01*
X145644200Y-109679400D01*
X145674200Y-109740100D01*
X145710100Y-109797600D01*
X145751500Y-109851100D01*
X145798100Y-109900300D01*
X145849300Y-109944600D01*
X145904800Y-109983500D01*
X145963800Y-110016700D01*
X146025800Y-110043900D01*
X146090300Y-110064700D01*
X146156500Y-110078900D01*
X146223800Y-110086500D01*
X146291600Y-110087800D01*
X148459900Y-110087800D01*
X148527600Y-110087300D01*
X148595100Y-110081300D01*
X148661600Y-110068500D01*
X148726500Y-110049200D01*
X148789200Y-110023500D01*
X148849000Y-109991700D01*
X148905300Y-109954000D01*
X148957500Y-109911000D01*
X149005200Y-109862900D01*
X149047900Y-109810300D01*
X149085100Y-109753700D01*
X149116400Y-109693600D01*
X149141600Y-109630800D01*
X149160400Y-109565700D01*
X149172600Y-109499100D01*
X149178100Y-109431500D01*
X149176800Y-109363800D01*
X149168800Y-109296600D01*
X149154100Y-109230500D01*
X149132800Y-109166200D01*
X149105300Y-109104300D01*
X149071700Y-109045500D01*
X149032400Y-108990300D01*
X148987700Y-108939400D01*
X148938200Y-108893100D01*
X148884400Y-108852000D01*
X148826700Y-108816600D01*
X148765800Y-108787000D01*
X148702200Y-108763700D01*
X148636600Y-108746800D01*
X148569600Y-108736600D01*
X148502000Y-108733200D01*
X146278400Y-108733200D01*
X146316100Y-108946100D01*
X146364500Y-108930200D01*
X146386600Y-108929600D01*
X147064200Y-108929600D01*
X147136300Y-108931400D01*
X147188200Y-108962000D01*
X147192800Y-109017800D01*
X147401600Y-109014600D01*
X147414100Y-108974900D01*
X147475300Y-108918300D01*
X147531200Y-108895700D01*
X147585200Y-108917900D01*
X147638100Y-108971500D01*
X147814500Y-109177300D01*
X147858600Y-109226500D01*
X148082600Y-108972300D01*
X148136000Y-108918300D01*
X148188400Y-108895800D01*
X148243900Y-108921000D01*
X148303900Y-108978900D01*
X148316800Y-109030600D01*
X148284200Y-109091000D01*
X148055200Y-109344100D01*
X148013400Y-109390200D01*
X148244000Y-109638400D01*
X148292100Y-109692900D01*
X148318000Y-109751100D01*
X148299100Y-109804500D01*
X148240700Y-109863300D01*
X148185300Y-109884600D01*
X148132300Y-109858000D01*
X147858900Y-109547400D01*
X147814800Y-109595900D01*
X147638400Y-109801700D01*
X147586700Y-109858000D01*
X147534300Y-109884600D01*
X147480600Y-109864100D01*
X147418100Y-109805600D01*
X147397200Y-109755300D01*
X147423800Y-109700100D01*
X147473400Y-109642600D01*
X147700800Y-109391400D01*
X147658100Y-109340600D01*
X147429800Y-109083300D01*
X147404000Y-109037400D01*
X147191800Y-109042600D01*
X147183400Y-109094900D01*
X147126200Y-109117900D01*
X146917800Y-109119200D01*
X146855200Y-109124400D01*
X146855200Y-109734200D01*
X146853600Y-109806200D01*
X146829200Y-109863600D01*
X146769700Y-109883600D01*
X146694600Y-109881800D01*
X146641800Y-109850700D01*
X146631700Y-109789100D01*
X146631700Y-109174900D01*
X146619500Y-109119200D01*
X146416200Y-109119200D01*
X146344100Y-109116500D01*
X146294400Y-109082300D01*
X146286400Y-109013600D01*
X146300900Y-108962000D01*
X146253400Y-108733700D01*
X146212900Y-108735200D01*
G37*
X146212900Y-108735200D02*
X146145800Y-108743900D01*
X146079800Y-108759200D01*
X146015700Y-108781100D01*
X145954100Y-108809200D01*
X145895600Y-108843400D01*
X145840800Y-108883200D01*
X145790200Y-108928300D01*
X145744500Y-108978200D01*
X145703900Y-109032400D01*
X145668900Y-109090500D01*
X145640000Y-109151700D01*
X145617200Y-109215500D01*
X145601000Y-109281200D01*
X145591400Y-109348300D01*
X145588600Y-109416000D01*
X145592500Y-109483600D01*
X145603200Y-109550500D01*
X145620500Y-109615900D01*
X145644200Y-109679400D01*
X145674200Y-109740100D01*
X145710100Y-109797600D01*
X145751500Y-109851100D01*
X145798100Y-109900300D01*
X145849300Y-109944600D01*
X145904800Y-109983500D01*
X145963800Y-110016700D01*
X146025800Y-110043900D01*
X146090300Y-110064700D01*
X146156500Y-110078900D01*
X146223800Y-110086500D01*
X146291600Y-110087800D01*
X148459900Y-110087800D01*
X148527600Y-110087300D01*
X148595100Y-110081300D01*
X148661600Y-110068500D01*
X148726500Y-110049200D01*
X148789200Y-110023500D01*
X148849000Y-109991700D01*
X148905300Y-109954000D01*
X148957500Y-109911000D01*
X149005200Y-109862900D01*
X149047900Y-109810300D01*
X149085100Y-109753700D01*
X149116400Y-109693600D01*
X149141600Y-109630800D01*
X149160400Y-109565700D01*
X149172600Y-109499100D01*
X149178100Y-109431500D01*
X149176800Y-109363800D01*
X149168800Y-109296600D01*
X149154100Y-109230500D01*
X149132800Y-109166200D01*
X149105300Y-109104300D01*
X149071700Y-109045500D01*
X149032400Y-108990300D01*
X148987700Y-108939400D01*
X148938200Y-108893100D01*
X148884400Y-108852000D01*
X148826700Y-108816600D01*
X148765800Y-108787000D01*
X148702200Y-108763700D01*
X148636600Y-108746800D01*
X148569600Y-108736600D01*
X148502000Y-108733200D01*
X146278400Y-108733200D01*
X146316100Y-108946100D01*
X146364500Y-108930200D01*
X146386600Y-108929600D01*
X147064200Y-108929600D01*
X147136300Y-108931400D01*
X147188200Y-108962000D01*
X147192800Y-109017800D01*
X147401600Y-109014600D01*
X147414100Y-108974900D01*
X147475300Y-108918300D01*
X147531200Y-108895700D01*
X147585200Y-108917900D01*
X147638100Y-108971500D01*
X147814500Y-109177300D01*
X147858600Y-109226500D01*
X148082600Y-108972300D01*
X148136000Y-108918300D01*
X148188400Y-108895800D01*
X148243900Y-108921000D01*
X148303900Y-108978900D01*
X148316800Y-109030600D01*
X148284200Y-109091000D01*
X148055200Y-109344100D01*
X148013400Y-109390200D01*
X148244000Y-109638400D01*
X148292100Y-109692900D01*
X148318000Y-109751100D01*
X148299100Y-109804500D01*
X148240700Y-109863300D01*
X148185300Y-109884600D01*
X148132300Y-109858000D01*
X147858900Y-109547400D01*
X147814800Y-109595900D01*
X147638400Y-109801700D01*
X147586700Y-109858000D01*
X147534300Y-109884600D01*
X147480600Y-109864100D01*
X147418100Y-109805600D01*
X147397200Y-109755300D01*
X147423800Y-109700100D01*
X147473400Y-109642600D01*
X147700800Y-109391400D01*
X147658100Y-109340600D01*
X147429800Y-109083300D01*
X147404000Y-109037400D01*
X147191800Y-109042600D01*
X147183400Y-109094900D01*
X147126200Y-109117900D01*
X146917800Y-109119200D01*
X146855200Y-109124400D01*
X146855200Y-109734200D01*
X146853600Y-109806200D01*
X146829200Y-109863600D01*
X146769700Y-109883600D01*
X146694600Y-109881800D01*
X146641800Y-109850700D01*
X146631700Y-109789100D01*
X146631700Y-109174900D01*
X146619500Y-109119200D01*
X146416200Y-109119200D01*
X146344100Y-109116500D01*
X146294400Y-109082300D01*
X146286400Y-109013600D01*
X146300900Y-108962000D01*
X146253400Y-108733700D01*
X146212900Y-108735200D01*
D11*
%TO.C,D+*%
X153963600Y-114604800D02*
G75*
G03*
X153963600Y-114604800I-700000J0D01*
G01*
%TO.C,D-*%
X152592000Y-114604800D02*
G75*
G03*
X152592000Y-114604800I-700000J0D01*
G01*
%TO.C,DOUT*%
X144159200Y-101371400D02*
G75*
G03*
X144159200Y-101371400I-700000J0D01*
G01*
%TO.C,BLK*%
X138291800Y-115265200D02*
G75*
G03*
X138291800Y-115265200I-700000J0D01*
G01*
%TO.C,LRC*%
X138291800Y-113868200D02*
G75*
G03*
X138291800Y-113868200I-700000J0D01*
G01*
%TO.C,DIN*%
X138291800Y-112471200D02*
G75*
G03*
X138291800Y-112471200I-700000J0D01*
G01*
D13*
%TO.C,*%
G36*
X156854800Y-93849200D02*
G01*
X156619600Y-93875900D01*
X156388200Y-93926000D01*
X156163000Y-93998800D01*
X155946100Y-94093700D01*
X155739800Y-94209800D01*
X155546100Y-94345900D01*
X155367000Y-94500700D01*
X155204100Y-94672500D01*
X155059200Y-94859700D01*
X154933800Y-95060500D01*
X154828900Y-95272700D01*
X154745800Y-95494300D01*
X154685100Y-95723200D01*
X154647600Y-95956900D01*
X154633600Y-96193200D01*
X154643200Y-96429800D01*
X154676400Y-96664100D01*
X154732800Y-96894100D01*
X154811800Y-97117200D01*
X154912700Y-97331400D01*
X155034400Y-97534400D01*
X155175800Y-97724300D01*
X155335500Y-97899100D01*
X155511700Y-98057100D01*
X155702800Y-98196800D01*
X155907000Y-98316700D01*
X156122000Y-98415600D01*
X156345900Y-98492600D01*
X156576300Y-98546900D01*
X156811000Y-98578000D01*
X157035100Y-98585500D01*
X157365000Y-97821600D01*
X157303600Y-97613400D01*
X157253100Y-97372300D01*
X157214300Y-97141600D01*
X157180400Y-96902400D01*
X157151000Y-96672700D01*
X157094000Y-96198600D01*
X157070400Y-95963500D01*
X157067600Y-95741100D01*
X157304500Y-95741100D01*
X157526700Y-95756600D01*
X157571000Y-96465700D01*
X157587000Y-96697100D01*
X157607100Y-96931600D01*
X157631500Y-97170400D01*
X157692900Y-97158300D01*
X157757400Y-96934100D01*
X157814800Y-96704200D01*
X157878900Y-96476500D01*
X157936700Y-96253300D01*
X158106700Y-96167800D01*
X158343500Y-96167800D01*
X158403700Y-96390100D01*
X158468000Y-96612900D01*
X158527600Y-96838600D01*
X158583300Y-97071100D01*
X158642500Y-97259200D01*
X158697800Y-96789800D01*
X158719300Y-96554000D01*
X158731600Y-96317600D01*
X158735000Y-96081000D01*
X158747300Y-95844700D01*
X158891300Y-95741100D01*
X159128200Y-95741100D01*
X159221400Y-95878300D01*
X159198400Y-96120200D01*
X159171500Y-96357300D01*
X159140900Y-96589700D01*
X159106500Y-96817300D01*
X159066500Y-97051900D01*
X160090100Y-97111100D01*
X160144400Y-96895400D01*
X160290700Y-96717300D01*
X160484700Y-96588600D01*
X160709300Y-96521900D01*
X160946900Y-96500100D01*
X161196500Y-96512600D01*
X161366200Y-96493800D01*
X161314100Y-96262500D01*
X161162400Y-96132500D01*
X160899300Y-96096700D01*
X160660900Y-96112400D01*
X160422400Y-96155600D01*
X160343300Y-95995300D01*
X160306300Y-95761300D01*
X160466400Y-95680800D01*
X160716300Y-95637900D01*
X160955600Y-95622700D01*
X161038500Y-95623300D01*
X161282700Y-95650800D01*
X161497700Y-95725400D01*
X161690900Y-95853200D01*
X161824300Y-96036800D01*
X161888200Y-96252900D01*
X162598900Y-96031700D01*
X162598900Y-95807400D01*
X162722000Y-95693700D01*
X162958900Y-95693700D01*
X163073100Y-95571000D01*
X163073100Y-95334200D01*
X163123400Y-95140000D01*
X163590600Y-95062100D01*
X163642000Y-95238300D01*
X163642000Y-95475100D01*
X163660300Y-95693700D01*
X164370800Y-95693700D01*
X164542900Y-95758400D01*
X164542900Y-95995200D01*
X164455000Y-96144100D01*
X163744500Y-96144100D01*
X163642000Y-96278500D01*
X163642000Y-96989000D01*
X163670700Y-97225100D01*
X163830500Y-97380800D01*
X164069600Y-97394500D01*
X164489000Y-97313400D01*
X165372600Y-97119700D01*
X165331900Y-96902100D01*
X165346200Y-96530900D01*
X165413600Y-96309000D01*
X165527100Y-96100000D01*
X165675100Y-95924300D01*
X165861500Y-95789200D01*
X166082500Y-95692000D01*
X166305800Y-95640100D01*
X166554800Y-95622500D01*
X166798000Y-95638800D01*
X167019400Y-95686500D01*
X167214000Y-95770700D01*
X167153700Y-95999700D01*
X167067500Y-96182700D01*
X166848400Y-96134500D01*
X166597100Y-96120400D01*
X166355300Y-96145300D01*
X166134400Y-96233400D01*
X165989600Y-96399200D01*
X165906600Y-96620900D01*
X165900700Y-96869400D01*
X165968500Y-97093500D01*
X166101300Y-97261200D01*
X166286100Y-97356300D01*
X166541800Y-97398300D01*
X166796500Y-97392300D01*
X167034200Y-97351400D01*
X167187000Y-97390000D01*
X167220300Y-97611900D01*
X168051500Y-97783700D01*
X168051500Y-94954200D01*
X168149200Y-94800200D01*
X168616400Y-94722300D01*
X168620400Y-94954400D01*
X168620400Y-95664900D01*
X168748200Y-95727200D01*
X168991000Y-95694100D01*
X169234200Y-95725900D01*
X169438200Y-95817800D01*
X169602900Y-95981100D01*
X169708000Y-96188500D01*
X169764000Y-96416000D01*
X169782100Y-96658200D01*
X169782100Y-97830400D01*
X170470500Y-97687000D01*
X170485500Y-97476400D01*
X170551700Y-97248500D01*
X170661100Y-97034400D01*
X170801800Y-96848900D01*
X170961100Y-96673700D01*
X171295700Y-96337300D01*
X171461000Y-96156900D01*
X171585100Y-95959000D01*
X171593800Y-95726100D01*
X171460300Y-95543400D01*
X171237900Y-95480400D01*
X171007600Y-95524000D01*
X170815400Y-95633300D01*
X170644700Y-95710600D01*
X170508100Y-95517100D01*
X170433100Y-95328300D01*
X170620900Y-95182100D01*
X170828900Y-95075800D01*
X171059700Y-95006700D01*
X171290500Y-94982500D01*
X171522500Y-95009300D01*
X171752600Y-95092900D01*
X171943300Y-95219300D01*
X172085900Y-95405400D01*
X172162200Y-95625900D01*
X172176400Y-95788500D01*
X172147200Y-96027100D01*
X172058500Y-96235300D01*
X171920000Y-96432300D01*
X171759000Y-96608900D01*
X171583000Y-96769600D01*
X171422400Y-96935800D01*
X171259500Y-97110100D01*
X171130800Y-97321400D01*
X171252900Y-97400500D01*
X172200200Y-97400500D01*
X172318700Y-97518900D01*
X172318700Y-97755700D01*
X172200800Y-97874700D01*
X170543000Y-97874700D01*
X170474400Y-97711000D01*
X169769700Y-97844800D01*
X169577000Y-97874700D01*
X169340200Y-97874700D01*
X169213100Y-97764900D01*
X169213100Y-96817600D01*
X169204000Y-96551500D01*
X169155400Y-96339700D01*
X169009800Y-96188900D01*
X168767700Y-96182900D01*
X168620400Y-96301400D01*
X168620400Y-97722300D01*
X168536000Y-97874700D01*
X168062300Y-97874700D01*
X168053200Y-97808500D01*
X167219100Y-97636300D01*
X167177900Y-97803700D01*
X166941300Y-97853700D01*
X166712800Y-97872300D01*
X166452600Y-97871300D01*
X166211900Y-97843800D01*
X166000800Y-97787500D01*
X165781400Y-97681700D01*
X165604400Y-97537000D01*
X165463500Y-97347400D01*
X165379700Y-97143600D01*
X164503700Y-97323300D01*
X164547700Y-97543300D01*
X164571900Y-97763800D01*
X164346100Y-97833800D01*
X164108500Y-97865900D01*
X163872700Y-97874400D01*
X163633800Y-97853900D01*
X163407200Y-97787200D01*
X163231200Y-97654500D01*
X163123200Y-97444200D01*
X163082600Y-97230100D01*
X163073100Y-96967200D01*
X163073100Y-96256800D01*
X162972700Y-96144100D01*
X162735900Y-96144100D01*
X162609000Y-96051600D01*
X161892700Y-96277300D01*
X161911500Y-96504300D01*
X161911500Y-97688500D01*
X161790100Y-97799500D01*
X161534200Y-97838800D01*
X161315100Y-97863100D01*
X161070000Y-97874000D01*
X160820200Y-97867400D01*
X160588500Y-97829000D01*
X160372300Y-97737500D01*
X160202600Y-97579200D01*
X160109100Y-97379400D01*
X160088100Y-97135700D01*
X159062100Y-97076500D01*
X159018500Y-97314600D01*
X158972600Y-97546900D01*
X158926700Y-97761200D01*
X158798200Y-97874700D01*
X158561400Y-97874700D01*
X158403300Y-97675700D01*
X158319100Y-97455300D01*
X158249300Y-97237800D01*
X158183700Y-97008800D01*
X158107700Y-96983900D01*
X157971300Y-97430300D01*
X157808600Y-97874700D01*
X157571800Y-97874700D01*
X157380800Y-97836000D01*
X157060100Y-98585900D01*
X172678100Y-98585900D01*
X172914900Y-98584700D01*
X173150900Y-98565400D01*
X173383700Y-98522700D01*
X173611200Y-98457000D01*
X173830900Y-98368900D01*
X174040800Y-98259400D01*
X174238600Y-98129500D01*
X174422600Y-97980500D01*
X174590800Y-97813900D01*
X174741500Y-97631300D01*
X174873200Y-97434600D01*
X174984700Y-97225800D01*
X175074800Y-97006900D01*
X175142600Y-96780100D01*
X175187500Y-96547600D01*
X175208900Y-96311900D01*
X175206800Y-96075200D01*
X175181000Y-95839800D01*
X175131900Y-95608300D01*
X175059900Y-95382700D01*
X174965800Y-95165500D01*
X174850500Y-94958800D01*
X174715200Y-94764500D01*
X174561200Y-94584800D01*
X174390000Y-94421200D01*
X174203400Y-94275600D01*
X174003100Y-94149400D01*
X173791300Y-94043700D01*
X173570000Y-93959600D01*
X173341400Y-93898100D01*
X173107800Y-93859700D01*
X172871500Y-93844700D01*
X157004200Y-93844500D01*
X156854800Y-93849200D01*
G37*
X156854800Y-93849200D02*
X156619600Y-93875900D01*
X156388200Y-93926000D01*
X156163000Y-93998800D01*
X155946100Y-94093700D01*
X155739800Y-94209800D01*
X155546100Y-94345900D01*
X155367000Y-94500700D01*
X155204100Y-94672500D01*
X155059200Y-94859700D01*
X154933800Y-95060500D01*
X154828900Y-95272700D01*
X154745800Y-95494300D01*
X154685100Y-95723200D01*
X154647600Y-95956900D01*
X154633600Y-96193200D01*
X154643200Y-96429800D01*
X154676400Y-96664100D01*
X154732800Y-96894100D01*
X154811800Y-97117200D01*
X154912700Y-97331400D01*
X155034400Y-97534400D01*
X155175800Y-97724300D01*
X155335500Y-97899100D01*
X155511700Y-98057100D01*
X155702800Y-98196800D01*
X155907000Y-98316700D01*
X156122000Y-98415600D01*
X156345900Y-98492600D01*
X156576300Y-98546900D01*
X156811000Y-98578000D01*
X157035100Y-98585500D01*
X157365000Y-97821600D01*
X157303600Y-97613400D01*
X157253100Y-97372300D01*
X157214300Y-97141600D01*
X157180400Y-96902400D01*
X157151000Y-96672700D01*
X157094000Y-96198600D01*
X157070400Y-95963500D01*
X157067600Y-95741100D01*
X157304500Y-95741100D01*
X157526700Y-95756600D01*
X157571000Y-96465700D01*
X157587000Y-96697100D01*
X157607100Y-96931600D01*
X157631500Y-97170400D01*
X157692900Y-97158300D01*
X157757400Y-96934100D01*
X157814800Y-96704200D01*
X157878900Y-96476500D01*
X157936700Y-96253300D01*
X158106700Y-96167800D01*
X158343500Y-96167800D01*
X158403700Y-96390100D01*
X158468000Y-96612900D01*
X158527600Y-96838600D01*
X158583300Y-97071100D01*
X158642500Y-97259200D01*
X158697800Y-96789800D01*
X158719300Y-96554000D01*
X158731600Y-96317600D01*
X158735000Y-96081000D01*
X158747300Y-95844700D01*
X158891300Y-95741100D01*
X159128200Y-95741100D01*
X159221400Y-95878300D01*
X159198400Y-96120200D01*
X159171500Y-96357300D01*
X159140900Y-96589700D01*
X159106500Y-96817300D01*
X159066500Y-97051900D01*
X160090100Y-97111100D01*
X160144400Y-96895400D01*
X160290700Y-96717300D01*
X160484700Y-96588600D01*
X160709300Y-96521900D01*
X160946900Y-96500100D01*
X161196500Y-96512600D01*
X161366200Y-96493800D01*
X161314100Y-96262500D01*
X161162400Y-96132500D01*
X160899300Y-96096700D01*
X160660900Y-96112400D01*
X160422400Y-96155600D01*
X160343300Y-95995300D01*
X160306300Y-95761300D01*
X160466400Y-95680800D01*
X160716300Y-95637900D01*
X160955600Y-95622700D01*
X161038500Y-95623300D01*
X161282700Y-95650800D01*
X161497700Y-95725400D01*
X161690900Y-95853200D01*
X161824300Y-96036800D01*
X161888200Y-96252900D01*
X162598900Y-96031700D01*
X162598900Y-95807400D01*
X162722000Y-95693700D01*
X162958900Y-95693700D01*
X163073100Y-95571000D01*
X163073100Y-95334200D01*
X163123400Y-95140000D01*
X163590600Y-95062100D01*
X163642000Y-95238300D01*
X163642000Y-95475100D01*
X163660300Y-95693700D01*
X164370800Y-95693700D01*
X164542900Y-95758400D01*
X164542900Y-95995200D01*
X164455000Y-96144100D01*
X163744500Y-96144100D01*
X163642000Y-96278500D01*
X163642000Y-96989000D01*
X163670700Y-97225100D01*
X163830500Y-97380800D01*
X164069600Y-97394500D01*
X164489000Y-97313400D01*
X165372600Y-97119700D01*
X165331900Y-96902100D01*
X165346200Y-96530900D01*
X165413600Y-96309000D01*
X165527100Y-96100000D01*
X165675100Y-95924300D01*
X165861500Y-95789200D01*
X166082500Y-95692000D01*
X166305800Y-95640100D01*
X166554800Y-95622500D01*
X166798000Y-95638800D01*
X167019400Y-95686500D01*
X167214000Y-95770700D01*
X167153700Y-95999700D01*
X167067500Y-96182700D01*
X166848400Y-96134500D01*
X166597100Y-96120400D01*
X166355300Y-96145300D01*
X166134400Y-96233400D01*
X165989600Y-96399200D01*
X165906600Y-96620900D01*
X165900700Y-96869400D01*
X165968500Y-97093500D01*
X166101300Y-97261200D01*
X166286100Y-97356300D01*
X166541800Y-97398300D01*
X166796500Y-97392300D01*
X167034200Y-97351400D01*
X167187000Y-97390000D01*
X167220300Y-97611900D01*
X168051500Y-97783700D01*
X168051500Y-94954200D01*
X168149200Y-94800200D01*
X168616400Y-94722300D01*
X168620400Y-94954400D01*
X168620400Y-95664900D01*
X168748200Y-95727200D01*
X168991000Y-95694100D01*
X169234200Y-95725900D01*
X169438200Y-95817800D01*
X169602900Y-95981100D01*
X169708000Y-96188500D01*
X169764000Y-96416000D01*
X169782100Y-96658200D01*
X169782100Y-97830400D01*
X170470500Y-97687000D01*
X170485500Y-97476400D01*
X170551700Y-97248500D01*
X170661100Y-97034400D01*
X170801800Y-96848900D01*
X170961100Y-96673700D01*
X171295700Y-96337300D01*
X171461000Y-96156900D01*
X171585100Y-95959000D01*
X171593800Y-95726100D01*
X171460300Y-95543400D01*
X171237900Y-95480400D01*
X171007600Y-95524000D01*
X170815400Y-95633300D01*
X170644700Y-95710600D01*
X170508100Y-95517100D01*
X170433100Y-95328300D01*
X170620900Y-95182100D01*
X170828900Y-95075800D01*
X171059700Y-95006700D01*
X171290500Y-94982500D01*
X171522500Y-95009300D01*
X171752600Y-95092900D01*
X171943300Y-95219300D01*
X172085900Y-95405400D01*
X172162200Y-95625900D01*
X172176400Y-95788500D01*
X172147200Y-96027100D01*
X172058500Y-96235300D01*
X171920000Y-96432300D01*
X171759000Y-96608900D01*
X171583000Y-96769600D01*
X171422400Y-96935800D01*
X171259500Y-97110100D01*
X171130800Y-97321400D01*
X171252900Y-97400500D01*
X172200200Y-97400500D01*
X172318700Y-97518900D01*
X172318700Y-97755700D01*
X172200800Y-97874700D01*
X170543000Y-97874700D01*
X170474400Y-97711000D01*
X169769700Y-97844800D01*
X169577000Y-97874700D01*
X169340200Y-97874700D01*
X169213100Y-97764900D01*
X169213100Y-96817600D01*
X169204000Y-96551500D01*
X169155400Y-96339700D01*
X169009800Y-96188900D01*
X168767700Y-96182900D01*
X168620400Y-96301400D01*
X168620400Y-97722300D01*
X168536000Y-97874700D01*
X168062300Y-97874700D01*
X168053200Y-97808500D01*
X167219100Y-97636300D01*
X167177900Y-97803700D01*
X166941300Y-97853700D01*
X166712800Y-97872300D01*
X166452600Y-97871300D01*
X166211900Y-97843800D01*
X166000800Y-97787500D01*
X165781400Y-97681700D01*
X165604400Y-97537000D01*
X165463500Y-97347400D01*
X165379700Y-97143600D01*
X164503700Y-97323300D01*
X164547700Y-97543300D01*
X164571900Y-97763800D01*
X164346100Y-97833800D01*
X164108500Y-97865900D01*
X163872700Y-97874400D01*
X163633800Y-97853900D01*
X163407200Y-97787200D01*
X163231200Y-97654500D01*
X163123200Y-97444200D01*
X163082600Y-97230100D01*
X163073100Y-96967200D01*
X163073100Y-96256800D01*
X162972700Y-96144100D01*
X162735900Y-96144100D01*
X162609000Y-96051600D01*
X161892700Y-96277300D01*
X161911500Y-96504300D01*
X161911500Y-97688500D01*
X161790100Y-97799500D01*
X161534200Y-97838800D01*
X161315100Y-97863100D01*
X161070000Y-97874000D01*
X160820200Y-97867400D01*
X160588500Y-97829000D01*
X160372300Y-97737500D01*
X160202600Y-97579200D01*
X160109100Y-97379400D01*
X160088100Y-97135700D01*
X159062100Y-97076500D01*
X159018500Y-97314600D01*
X158972600Y-97546900D01*
X158926700Y-97761200D01*
X158798200Y-97874700D01*
X158561400Y-97874700D01*
X158403300Y-97675700D01*
X158319100Y-97455300D01*
X158249300Y-97237800D01*
X158183700Y-97008800D01*
X158107700Y-96983900D01*
X157971300Y-97430300D01*
X157808600Y-97874700D01*
X157571800Y-97874700D01*
X157380800Y-97836000D01*
X157060100Y-98585900D01*
X172678100Y-98585900D01*
X172914900Y-98584700D01*
X173150900Y-98565400D01*
X173383700Y-98522700D01*
X173611200Y-98457000D01*
X173830900Y-98368900D01*
X174040800Y-98259400D01*
X174238600Y-98129500D01*
X174422600Y-97980500D01*
X174590800Y-97813900D01*
X174741500Y-97631300D01*
X174873200Y-97434600D01*
X174984700Y-97225800D01*
X175074800Y-97006900D01*
X175142600Y-96780100D01*
X175187500Y-96547600D01*
X175208900Y-96311900D01*
X175206800Y-96075200D01*
X175181000Y-95839800D01*
X175131900Y-95608300D01*
X175059900Y-95382700D01*
X174965800Y-95165500D01*
X174850500Y-94958800D01*
X174715200Y-94764500D01*
X174561200Y-94584800D01*
X174390000Y-94421200D01*
X174203400Y-94275600D01*
X174003100Y-94149400D01*
X173791300Y-94043700D01*
X173570000Y-93959600D01*
X173341400Y-93898100D01*
X173107800Y-93859700D01*
X172871500Y-93844700D01*
X157004200Y-93844500D01*
X156854800Y-93849200D01*
G36*
X161161000Y-97424200D02*
G01*
X161366200Y-97395200D01*
X161366200Y-97158300D01*
X161362700Y-96924700D01*
X161125300Y-96902700D01*
X160888300Y-96921100D01*
X160687800Y-97025100D01*
X160671200Y-97261700D01*
X160835900Y-97396800D01*
X161161000Y-97424200D01*
G37*
X161161000Y-97424200D02*
X161366200Y-97395200D01*
X161366200Y-97158300D01*
X161362700Y-96924700D01*
X161125300Y-96902700D01*
X160888300Y-96921100D01*
X160687800Y-97025100D01*
X160671200Y-97261700D01*
X160835900Y-97396800D01*
X161161000Y-97424200D01*
D11*
%TO.C,Speaker*%
X131512000Y-100270000D02*
X132842000Y-100270000D01*
X131512000Y-101600000D02*
X131512000Y-100270000D01*
X131512000Y-102870000D02*
X134172000Y-102870000D01*
X134172000Y-102870000D02*
X134172000Y-105470000D01*
X131512000Y-102870000D02*
X131512000Y-105470000D01*
X131512000Y-105470000D02*
X134172000Y-105470000D01*
%TO.C,REF\u002A\u002A*%
X169993000Y-92643000D02*
X172653000Y-92643000D01*
X169993000Y-92583000D02*
X169993000Y-92643000D01*
X172653000Y-92583000D02*
X172653000Y-92643000D01*
X169993000Y-92583000D02*
X172653000Y-92583000D01*
X169993000Y-91313000D02*
X169993000Y-89983000D01*
X169993000Y-89983000D02*
X171323000Y-89983000D01*
X175129500Y-84903000D02*
X172469500Y-84903000D01*
X175129500Y-90043000D02*
X175129500Y-84903000D01*
X172469500Y-90043000D02*
X172469500Y-84903000D01*
X175129500Y-90043000D02*
X172469500Y-90043000D01*
X175129500Y-91313000D02*
X175129500Y-92643000D01*
X175129500Y-92643000D02*
X173799500Y-92643000D01*
%TO.C,R31*%
X143613763Y-93303000D02*
X145061237Y-93303000D01*
X143613763Y-90593000D02*
X145061237Y-90593000D01*
%TO.C,R28*%
X137134763Y-93239500D02*
X138582237Y-93239500D01*
X137134763Y-90529500D02*
X138582237Y-90529500D01*
%TO.C,R10*%
X164819000Y-119122564D02*
X164819000Y-118668436D01*
X163349000Y-119122564D02*
X163349000Y-118668436D01*
%TO.C,SW2*%
X157571500Y-114580500D02*
X157571500Y-119480500D01*
X161071500Y-119480500D02*
X161071500Y-114580500D01*
X159671500Y-119480500D02*
X158971500Y-119480500D01*
X159671500Y-114580500D02*
X158971500Y-114580500D01*
X161071500Y-114580500D02*
X160971500Y-114580500D01*
X157671500Y-114580500D02*
X157571500Y-114580500D01*
X157571500Y-119480500D02*
X157671500Y-119480500D01*
X161071500Y-119480500D02*
X160971500Y-119480500D01*
%TO.C,U3*%
X160524500Y-106282000D02*
X156524500Y-106282000D01*
X158524500Y-109502000D02*
X156524500Y-109502000D01*
%TO.C,R15*%
X159792936Y-110136000D02*
X160247064Y-110136000D01*
X159792936Y-111606000D02*
X160247064Y-111606000D01*
%TO.C,C3*%
X156915752Y-111606000D02*
X156393248Y-111606000D01*
X156915752Y-110136000D02*
X156393248Y-110136000D01*
%TO.C,U10*%
X143556500Y-97170000D02*
X146481500Y-97170000D01*
X143556500Y-97170000D02*
X142056500Y-97170000D01*
X143556500Y-93950000D02*
X145056500Y-93950000D01*
X143556500Y-93950000D02*
X142056500Y-93950000D01*
%TO.C,C9*%
X144977752Y-97372500D02*
X144455248Y-97372500D01*
X144977752Y-98842500D02*
X144455248Y-98842500D01*
%TO.C,Q3*%
X146819500Y-95502000D02*
X146819500Y-94042000D01*
X149979500Y-95502000D02*
X149979500Y-93342000D01*
X149979500Y-95502000D02*
X149049500Y-95502000D01*
X146819500Y-95502000D02*
X147749500Y-95502000D01*
%TO.C,Q2*%
X146883000Y-92009500D02*
X147813000Y-92009500D01*
X150043000Y-92009500D02*
X149113000Y-92009500D01*
X150043000Y-92009500D02*
X150043000Y-89849500D01*
X146883000Y-92009500D02*
X146883000Y-90549500D01*
%TO.C,R32*%
X151992000Y-91085936D02*
X151992000Y-91540064D01*
X150522000Y-91085936D02*
X150522000Y-91540064D01*
%TO.C,J4*%
X137982000Y-93920000D02*
X137982000Y-95250000D01*
X136652000Y-93920000D02*
X137982000Y-93920000D01*
X135382000Y-93920000D02*
X135382000Y-96580000D01*
X135382000Y-96580000D02*
X130242000Y-96580000D01*
X135382000Y-93920000D02*
X130242000Y-93920000D01*
X130242000Y-93920000D02*
X130242000Y-96580000D01*
%TO.C,J2*%
X128252000Y-88928500D02*
X128252000Y-92808500D01*
X132722000Y-93978500D02*
X132722000Y-92928500D01*
X130222000Y-93978500D02*
X132722000Y-93978500D01*
X132722000Y-88808500D02*
X133712000Y-88808500D01*
X132722000Y-87758500D02*
X132722000Y-88808500D01*
X130222000Y-87758500D02*
X132722000Y-87758500D01*
%TO.C,U6*%
X151667500Y-106813000D02*
X153357500Y-106813000D01*
X151667500Y-107088000D02*
X151667500Y-106813000D01*
X148907500Y-107088000D02*
X151667500Y-107088000D01*
X146147500Y-107088000D02*
X146147500Y-106813000D01*
X148907500Y-107088000D02*
X146147500Y-107088000D01*
X151667500Y-99668000D02*
X151667500Y-99943000D01*
X148907500Y-99668000D02*
X151667500Y-99668000D01*
X146147500Y-99668000D02*
X146147500Y-99943000D01*
X148907500Y-99668000D02*
X146147500Y-99668000D01*
D14*
%TO.C,U$7*%
X139134600Y-118198900D02*
G75*
G03*
X139134600Y-118198900I-2000000J0D01*
G01*
%TO.C,U$8*%
X172154600Y-118198900D02*
G75*
G03*
X172154600Y-118198900I-2000000J0D01*
G01*
%TO.C,U$9*%
X139134600Y-87718900D02*
G75*
G03*
X139134600Y-87718900I-2000000J0D01*
G01*
%TO.C,U$10*%
X172154600Y-87718900D02*
G75*
G03*
X172154600Y-87718900I-2000000J0D01*
G01*
D11*
%TO.C,BT1*%
X172517500Y-117900000D02*
X172517500Y-116840000D01*
X173577500Y-117900000D02*
X172517500Y-117900000D01*
X174577500Y-117900000D02*
X174577500Y-115780000D01*
X174577500Y-115780000D02*
X176637500Y-115780000D01*
X174577500Y-117900000D02*
X176637500Y-117900000D01*
X176637500Y-117900000D02*
X176637500Y-115780000D01*
%TO.C,C1*%
X145569000Y-113655248D02*
X145569000Y-114177752D01*
X147039000Y-113655248D02*
X147039000Y-114177752D01*
%TO.C,C2*%
X173855748Y-118264000D02*
X174378252Y-118264000D01*
X173855748Y-119734000D02*
X174378252Y-119734000D01*
%TO.C,C4*%
X167286000Y-108638748D02*
X167286000Y-109161252D01*
X168756000Y-108638748D02*
X168756000Y-109161252D01*
%TO.C,C5*%
X155357500Y-102178752D02*
X155357500Y-101656248D01*
X153887500Y-102178752D02*
X153887500Y-101656248D01*
%TO.C,C6*%
X168333748Y-105500500D02*
X168856252Y-105500500D01*
X168333748Y-106970500D02*
X168856252Y-106970500D01*
%TO.C,C7*%
X137912248Y-106008500D02*
X138434752Y-106008500D01*
X137912248Y-107478500D02*
X138434752Y-107478500D01*
%TO.C,C8*%
X129830500Y-111007752D02*
X129830500Y-110485248D01*
X128360500Y-111007752D02*
X128360500Y-110485248D01*
%TO.C,D1*%
X166899000Y-119945500D02*
X166899000Y-117060500D01*
X166899000Y-117060500D02*
X165079000Y-117060500D01*
X165079000Y-117060500D02*
X165079000Y-119945500D01*
%TO.C,D2*%
X141635000Y-110320500D02*
X144520000Y-110320500D01*
X141635000Y-108500500D02*
X141635000Y-110320500D01*
X144520000Y-108500500D02*
X141635000Y-108500500D01*
%TO.C,D3*%
X141635000Y-112162000D02*
X144520000Y-112162000D01*
X141635000Y-110342000D02*
X141635000Y-112162000D01*
X144520000Y-110342000D02*
X141635000Y-110342000D01*
%TO.C,J3*%
X147414000Y-120140000D02*
X146304000Y-120140000D01*
X147414000Y-119380000D02*
X147414000Y-120140000D01*
X145740529Y-118620000D02*
X145194000Y-118620000D01*
X147414000Y-118620000D02*
X146867471Y-118620000D01*
X145194000Y-118620000D02*
X145194000Y-116145000D01*
X147414000Y-118620000D02*
X147414000Y-116145000D01*
X145996470Y-116145000D02*
X145194000Y-116145000D01*
X147414000Y-116145000D02*
X146611530Y-116145000D01*
%TO.C,J5*%
X130242000Y-109160000D02*
X130242000Y-111820000D01*
X135382000Y-109160000D02*
X130242000Y-109160000D01*
X135382000Y-111820000D02*
X130242000Y-111820000D01*
X135382000Y-109160000D02*
X135382000Y-111820000D01*
X136652000Y-109160000D02*
X137982000Y-109160000D01*
X137982000Y-109160000D02*
X137982000Y-110490000D01*
%TO.C,J6*%
X167700000Y-86427000D02*
X167700000Y-87757000D01*
X166370000Y-86427000D02*
X167700000Y-86427000D01*
X165100000Y-86427000D02*
X165100000Y-89087000D01*
X165100000Y-89087000D02*
X139640000Y-89087000D01*
X165100000Y-86427000D02*
X139640000Y-86427000D01*
X139640000Y-86427000D02*
X139640000Y-89087000D01*
%TO.C,J7*%
X129226000Y-87880500D02*
X129226000Y-86550500D01*
X130556000Y-87880500D02*
X129226000Y-87880500D01*
X131826000Y-87880500D02*
X131826000Y-85220500D01*
X131826000Y-85220500D02*
X134426000Y-85220500D01*
X131826000Y-87880500D02*
X134426000Y-87880500D01*
X134426000Y-87880500D02*
X134426000Y-85220500D01*
D15*
%TO.C,LS1*%
X130534000Y-106747000D02*
X133934000Y-106747000D01*
X133934000Y-99247000D02*
X130534000Y-99247000D01*
X128484000Y-101297000D02*
X128484000Y-104697000D01*
X135984000Y-104697000D02*
X135984000Y-101297000D01*
%TO.C,MK1*%
X129795500Y-115180500D02*
X128055500Y-115180500D01*
X128055500Y-115180500D02*
X128055500Y-112530500D01*
X128055500Y-112530500D02*
X129795500Y-112530500D01*
D10*
X131377500Y-112277500D02*
G75*
G03*
X131377500Y-112277500I-50000J0D01*
G01*
D11*
%TO.C,R1*%
X165200064Y-91032000D02*
X164745936Y-91032000D01*
X165200064Y-89562000D02*
X164745936Y-89562000D01*
%TO.C,R2*%
X155792500Y-101690436D02*
X155792500Y-102144564D01*
X157262500Y-101690436D02*
X157262500Y-102144564D01*
%TO.C,R3*%
X159104000Y-101650436D02*
X159104000Y-102104564D01*
X157634000Y-101650436D02*
X157634000Y-102104564D01*
%TO.C,R4*%
X150164436Y-116676500D02*
X150618564Y-116676500D01*
X150164436Y-118146500D02*
X150618564Y-118146500D01*
%TO.C,R5*%
X150180936Y-120432500D02*
X150635064Y-120432500D01*
X150180936Y-118962500D02*
X150635064Y-118962500D01*
%TO.C,R6*%
X161444000Y-118668436D02*
X161444000Y-119122564D01*
X162914000Y-118668436D02*
X162914000Y-119122564D01*
%TO.C,R7*%
X154365064Y-118146500D02*
X153910936Y-118146500D01*
X154365064Y-116676500D02*
X153910936Y-116676500D01*
%TO.C,R8*%
X154365064Y-120432500D02*
X153910936Y-120432500D01*
X154365064Y-118962500D02*
X153910936Y-118962500D01*
%TO.C,R9*%
X161444000Y-115001936D02*
X161444000Y-115456064D01*
X162914000Y-115001936D02*
X162914000Y-115456064D01*
%TO.C,R11*%
X138861436Y-98525000D02*
X139315564Y-98525000D01*
X138861436Y-97055000D02*
X139315564Y-97055000D01*
%TO.C,R12*%
X134519936Y-97055000D02*
X134974064Y-97055000D01*
X134519936Y-98525000D02*
X134974064Y-98525000D01*
%TO.C,R13*%
X130328936Y-98525000D02*
X130783064Y-98525000D01*
X130328936Y-97055000D02*
X130783064Y-97055000D01*
%TO.C,R14*%
X176312500Y-112789064D02*
X176312500Y-112334936D01*
X174842500Y-112789064D02*
X174842500Y-112334936D01*
%TO.C,R17*%
X138012500Y-109818436D02*
X138012500Y-110272564D01*
X139482500Y-109818436D02*
X139482500Y-110272564D01*
%TO.C,R18*%
X141260500Y-109858436D02*
X141260500Y-110312564D01*
X139790500Y-109858436D02*
X139790500Y-110312564D01*
%TO.C,R19*%
X130352436Y-108875500D02*
X130806564Y-108875500D01*
X130352436Y-107405500D02*
X130806564Y-107405500D01*
%TO.C,R20*%
X134797436Y-107405500D02*
X135251564Y-107405500D01*
X134797436Y-108875500D02*
X135251564Y-108875500D01*
%TO.C,R24*%
X141354436Y-107415000D02*
X141808564Y-107415000D01*
X141354436Y-105945000D02*
X141808564Y-105945000D01*
%TO.C,R25*%
X137948936Y-99087000D02*
X138403064Y-99087000D01*
X137948936Y-100557000D02*
X138403064Y-100557000D01*
%TO.C,R26*%
X141337936Y-99087000D02*
X141792064Y-99087000D01*
X141337936Y-100557000D02*
X141792064Y-100557000D01*
%TO.C,R27*%
X133797936Y-115352500D02*
X134252064Y-115352500D01*
X133797936Y-113882500D02*
X134252064Y-113882500D01*
%TO.C,R29*%
X133781436Y-113511000D02*
X134235564Y-113511000D01*
X133781436Y-112041000D02*
X134235564Y-112041000D01*
%TO.C,R30*%
X150522000Y-95617936D02*
X150522000Y-96072064D01*
X151992000Y-95617936D02*
X151992000Y-96072064D01*
D12*
%TO.C,U1*%
X139769000Y-120432500D02*
X139769000Y-115157500D01*
X145169000Y-119157500D02*
X145169000Y-115157500D01*
D11*
%TO.C,U2*%
X163617000Y-114162000D02*
X163617000Y-116612000D01*
X166837000Y-115962000D02*
X166837000Y-114162000D01*
%TO.C,U4*%
X173302500Y-110848500D02*
X170852500Y-110848500D01*
X171502500Y-114068500D02*
X173302500Y-114068500D01*
%TO.C,U5*%
X167025000Y-109029500D02*
X167025000Y-107079500D01*
X167025000Y-109029500D02*
X167025000Y-110979500D01*
X161905000Y-109029500D02*
X161905000Y-107079500D01*
X161905000Y-109029500D02*
X161905000Y-112479500D01*
%TO.C,U8*%
X141437000Y-104576500D02*
X141437000Y-105051500D01*
X141437000Y-105051500D02*
X140962000Y-105051500D01*
X138217000Y-102306500D02*
X138217000Y-101831500D01*
X138217000Y-101831500D02*
X138692000Y-101831500D01*
X138217000Y-104576500D02*
X138217000Y-105051500D01*
X138217000Y-105051500D02*
X138692000Y-105051500D01*
X141437000Y-102306500D02*
X141437000Y-101831500D01*
%TO.C,U9*%
X134172000Y-118721000D02*
X129082000Y-118721000D01*
X134172000Y-118381000D02*
X134172000Y-118721000D01*
X134172000Y-115711000D02*
X131572000Y-115711000D01*
X134172000Y-116061000D02*
X134172000Y-115711000D01*
X129472083Y-118722736D02*
G75*
G03*
X133672000Y-118721000I2099917J101736D01*
G01*
%TO.C,*%
D12*
%TO.C,D+*%
D10*
X154652628Y-115133371D02*
X154052628Y-115133371D01*
X154052628Y-114990514D01*
X154081200Y-114904800D01*
X154138342Y-114847657D01*
X154195485Y-114819085D01*
X154309771Y-114790514D01*
X154395485Y-114790514D01*
X154509771Y-114819085D01*
X154566914Y-114847657D01*
X154624057Y-114904800D01*
X154652628Y-114990514D01*
X154652628Y-115133371D01*
X154424057Y-114533371D02*
X154424057Y-114076228D01*
X154652628Y-114304800D02*
X154195485Y-114304800D01*
%TO.C,D-*%
X151045828Y-115133371D02*
X150445828Y-115133371D01*
X150445828Y-114990514D01*
X150474400Y-114904800D01*
X150531542Y-114847657D01*
X150588685Y-114819085D01*
X150702971Y-114790514D01*
X150788685Y-114790514D01*
X150902971Y-114819085D01*
X150960114Y-114847657D01*
X151017257Y-114904800D01*
X151045828Y-114990514D01*
X151045828Y-115133371D01*
X150817257Y-114533371D02*
X150817257Y-114076228D01*
%TO.C,DOUT*%
X143806828Y-104290685D02*
X143206828Y-104290685D01*
X143206828Y-104147828D01*
X143235400Y-104062114D01*
X143292542Y-104004971D01*
X143349685Y-103976400D01*
X143463971Y-103947828D01*
X143549685Y-103947828D01*
X143663971Y-103976400D01*
X143721114Y-104004971D01*
X143778257Y-104062114D01*
X143806828Y-104147828D01*
X143806828Y-104290685D01*
X143206828Y-103576400D02*
X143206828Y-103462114D01*
X143235400Y-103404971D01*
X143292542Y-103347828D01*
X143406828Y-103319257D01*
X143606828Y-103319257D01*
X143721114Y-103347828D01*
X143778257Y-103404971D01*
X143806828Y-103462114D01*
X143806828Y-103576400D01*
X143778257Y-103633542D01*
X143721114Y-103690685D01*
X143606828Y-103719257D01*
X143406828Y-103719257D01*
X143292542Y-103690685D01*
X143235400Y-103633542D01*
X143206828Y-103576400D01*
X143206828Y-103062114D02*
X143692542Y-103062114D01*
X143749685Y-103033542D01*
X143778257Y-103004971D01*
X143806828Y-102947828D01*
X143806828Y-102833542D01*
X143778257Y-102776400D01*
X143749685Y-102747828D01*
X143692542Y-102719257D01*
X143206828Y-102719257D01*
X143206828Y-102519257D02*
X143206828Y-102176400D01*
X143806828Y-102347828D02*
X143206828Y-102347828D01*
%TO.C,BLK*%
X138666600Y-115247742D02*
X138752314Y-115276314D01*
X138780885Y-115304885D01*
X138809457Y-115362028D01*
X138809457Y-115447742D01*
X138780885Y-115504885D01*
X138752314Y-115533457D01*
X138695171Y-115562028D01*
X138466600Y-115562028D01*
X138466600Y-114962028D01*
X138666600Y-114962028D01*
X138723742Y-114990600D01*
X138752314Y-115019171D01*
X138780885Y-115076314D01*
X138780885Y-115133457D01*
X138752314Y-115190600D01*
X138723742Y-115219171D01*
X138666600Y-115247742D01*
X138466600Y-115247742D01*
X139352314Y-115562028D02*
X139066600Y-115562028D01*
X139066600Y-114962028D01*
X139552314Y-115562028D02*
X139552314Y-114962028D01*
X139895171Y-115562028D02*
X139638028Y-115219171D01*
X139895171Y-114962028D02*
X139552314Y-115304885D01*
%TO.C,LRC*%
X138752314Y-114165028D02*
X138466600Y-114165028D01*
X138466600Y-113565028D01*
X139295171Y-114165028D02*
X139095171Y-113879314D01*
X138952314Y-114165028D02*
X138952314Y-113565028D01*
X139180885Y-113565028D01*
X139238028Y-113593600D01*
X139266600Y-113622171D01*
X139295171Y-113679314D01*
X139295171Y-113765028D01*
X139266600Y-113822171D01*
X139238028Y-113850742D01*
X139180885Y-113879314D01*
X138952314Y-113879314D01*
X139895171Y-114107885D02*
X139866600Y-114136457D01*
X139780885Y-114165028D01*
X139723742Y-114165028D01*
X139638028Y-114136457D01*
X139580885Y-114079314D01*
X139552314Y-114022171D01*
X139523742Y-113907885D01*
X139523742Y-113822171D01*
X139552314Y-113707885D01*
X139580885Y-113650742D01*
X139638028Y-113593600D01*
X139723742Y-113565028D01*
X139780885Y-113565028D01*
X139866600Y-113593600D01*
X139895171Y-113622171D01*
%TO.C,DIN*%
X138450714Y-112768028D02*
X138450714Y-112168028D01*
X138593571Y-112168028D01*
X138679285Y-112196600D01*
X138736428Y-112253742D01*
X138765000Y-112310885D01*
X138793571Y-112425171D01*
X138793571Y-112510885D01*
X138765000Y-112625171D01*
X138736428Y-112682314D01*
X138679285Y-112739457D01*
X138593571Y-112768028D01*
X138450714Y-112768028D01*
X139050714Y-112768028D02*
X139050714Y-112168028D01*
X139336428Y-112768028D02*
X139336428Y-112168028D01*
X139679285Y-112768028D01*
X139679285Y-112168028D01*
%TO.C,*%
D12*
%TO.C,R31*%
D10*
X142003428Y-92905214D02*
X141717714Y-93105214D01*
X142003428Y-93248071D02*
X141403428Y-93248071D01*
X141403428Y-93019500D01*
X141432000Y-92962357D01*
X141460571Y-92933785D01*
X141517714Y-92905214D01*
X141603428Y-92905214D01*
X141660571Y-92933785D01*
X141689142Y-92962357D01*
X141717714Y-93019500D01*
X141717714Y-93248071D01*
X141403428Y-92705214D02*
X141403428Y-92333785D01*
X141632000Y-92533785D01*
X141632000Y-92448071D01*
X141660571Y-92390928D01*
X141689142Y-92362357D01*
X141746285Y-92333785D01*
X141889142Y-92333785D01*
X141946285Y-92362357D01*
X141974857Y-92390928D01*
X142003428Y-92448071D01*
X142003428Y-92619500D01*
X141974857Y-92676642D01*
X141946285Y-92705214D01*
X142003428Y-91762357D02*
X142003428Y-92105214D01*
X142003428Y-91933785D02*
X141403428Y-91933785D01*
X141489142Y-91990928D01*
X141546285Y-92048071D01*
X141574857Y-92105214D01*
%TO.C,R28*%
X140733428Y-92905214D02*
X140447714Y-93105214D01*
X140733428Y-93248071D02*
X140133428Y-93248071D01*
X140133428Y-93019500D01*
X140162000Y-92962357D01*
X140190571Y-92933785D01*
X140247714Y-92905214D01*
X140333428Y-92905214D01*
X140390571Y-92933785D01*
X140419142Y-92962357D01*
X140447714Y-93019500D01*
X140447714Y-93248071D01*
X140190571Y-92676642D02*
X140162000Y-92648071D01*
X140133428Y-92590928D01*
X140133428Y-92448071D01*
X140162000Y-92390928D01*
X140190571Y-92362357D01*
X140247714Y-92333785D01*
X140304857Y-92333785D01*
X140390571Y-92362357D01*
X140733428Y-92705214D01*
X140733428Y-92333785D01*
X140390571Y-91990928D02*
X140362000Y-92048071D01*
X140333428Y-92076642D01*
X140276285Y-92105214D01*
X140247714Y-92105214D01*
X140190571Y-92076642D01*
X140162000Y-92048071D01*
X140133428Y-91990928D01*
X140133428Y-91876642D01*
X140162000Y-91819500D01*
X140190571Y-91790928D01*
X140247714Y-91762357D01*
X140276285Y-91762357D01*
X140333428Y-91790928D01*
X140362000Y-91819500D01*
X140390571Y-91876642D01*
X140390571Y-91990928D01*
X140419142Y-92048071D01*
X140447714Y-92076642D01*
X140504857Y-92105214D01*
X140619142Y-92105214D01*
X140676285Y-92076642D01*
X140704857Y-92048071D01*
X140733428Y-91990928D01*
X140733428Y-91876642D01*
X140704857Y-91819500D01*
X140676285Y-91790928D01*
X140619142Y-91762357D01*
X140504857Y-91762357D01*
X140447714Y-91790928D01*
X140419142Y-91819500D01*
X140390571Y-91876642D01*
%TO.C,R10*%
X163698285Y-119166928D02*
X163498285Y-118881214D01*
X163355428Y-119166928D02*
X163355428Y-118566928D01*
X163584000Y-118566928D01*
X163641142Y-118595500D01*
X163669714Y-118624071D01*
X163698285Y-118681214D01*
X163698285Y-118766928D01*
X163669714Y-118824071D01*
X163641142Y-118852642D01*
X163584000Y-118881214D01*
X163355428Y-118881214D01*
X164269714Y-119166928D02*
X163926857Y-119166928D01*
X164098285Y-119166928D02*
X164098285Y-118566928D01*
X164041142Y-118652642D01*
X163984000Y-118709785D01*
X163926857Y-118738357D01*
X164641142Y-118566928D02*
X164698285Y-118566928D01*
X164755428Y-118595500D01*
X164784000Y-118624071D01*
X164812571Y-118681214D01*
X164841142Y-118795500D01*
X164841142Y-118938357D01*
X164812571Y-119052642D01*
X164784000Y-119109785D01*
X164755428Y-119138357D01*
X164698285Y-119166928D01*
X164641142Y-119166928D01*
X164584000Y-119138357D01*
X164555428Y-119109785D01*
X164526857Y-119052642D01*
X164498285Y-118938357D01*
X164498285Y-118795500D01*
X164526857Y-118681214D01*
X164555428Y-118624071D01*
X164584000Y-118595500D01*
X164641142Y-118566928D01*
%TO.C,SW2*%
X159537500Y-113463357D02*
X159623214Y-113491928D01*
X159766071Y-113491928D01*
X159823214Y-113463357D01*
X159851785Y-113434785D01*
X159880357Y-113377642D01*
X159880357Y-113320500D01*
X159851785Y-113263357D01*
X159823214Y-113234785D01*
X159766071Y-113206214D01*
X159651785Y-113177642D01*
X159594642Y-113149071D01*
X159566071Y-113120500D01*
X159537500Y-113063357D01*
X159537500Y-113006214D01*
X159566071Y-112949071D01*
X159594642Y-112920500D01*
X159651785Y-112891928D01*
X159794642Y-112891928D01*
X159880357Y-112920500D01*
X160080357Y-112891928D02*
X160223214Y-113491928D01*
X160337500Y-113063357D01*
X160451785Y-113491928D01*
X160594642Y-112891928D01*
X160794642Y-112949071D02*
X160823214Y-112920500D01*
X160880357Y-112891928D01*
X161023214Y-112891928D01*
X161080357Y-112920500D01*
X161108928Y-112949071D01*
X161137500Y-113006214D01*
X161137500Y-113063357D01*
X161108928Y-113149071D01*
X160766071Y-113491928D01*
X161137500Y-113491928D01*
%TO.C,U3*%
X155246428Y-109232642D02*
X155732142Y-109232642D01*
X155789285Y-109204071D01*
X155817857Y-109175500D01*
X155846428Y-109118357D01*
X155846428Y-109004071D01*
X155817857Y-108946928D01*
X155789285Y-108918357D01*
X155732142Y-108889785D01*
X155246428Y-108889785D01*
X155246428Y-108661214D02*
X155246428Y-108289785D01*
X155475000Y-108489785D01*
X155475000Y-108404071D01*
X155503571Y-108346928D01*
X155532142Y-108318357D01*
X155589285Y-108289785D01*
X155732142Y-108289785D01*
X155789285Y-108318357D01*
X155817857Y-108346928D01*
X155846428Y-108404071D01*
X155846428Y-108575500D01*
X155817857Y-108632642D01*
X155789285Y-108661214D01*
%TO.C,R15*%
X159634285Y-112475928D02*
X159434285Y-112190214D01*
X159291428Y-112475928D02*
X159291428Y-111875928D01*
X159520000Y-111875928D01*
X159577142Y-111904500D01*
X159605714Y-111933071D01*
X159634285Y-111990214D01*
X159634285Y-112075928D01*
X159605714Y-112133071D01*
X159577142Y-112161642D01*
X159520000Y-112190214D01*
X159291428Y-112190214D01*
X160205714Y-112475928D02*
X159862857Y-112475928D01*
X160034285Y-112475928D02*
X160034285Y-111875928D01*
X159977142Y-111961642D01*
X159920000Y-112018785D01*
X159862857Y-112047357D01*
X160748571Y-111875928D02*
X160462857Y-111875928D01*
X160434285Y-112161642D01*
X160462857Y-112133071D01*
X160520000Y-112104500D01*
X160662857Y-112104500D01*
X160720000Y-112133071D01*
X160748571Y-112161642D01*
X160777142Y-112218785D01*
X160777142Y-112361642D01*
X160748571Y-112418785D01*
X160720000Y-112447357D01*
X160662857Y-112475928D01*
X160520000Y-112475928D01*
X160462857Y-112447357D01*
X160434285Y-112418785D01*
%TO.C,C3*%
X156554500Y-112418785D02*
X156525928Y-112447357D01*
X156440214Y-112475928D01*
X156383071Y-112475928D01*
X156297357Y-112447357D01*
X156240214Y-112390214D01*
X156211642Y-112333071D01*
X156183071Y-112218785D01*
X156183071Y-112133071D01*
X156211642Y-112018785D01*
X156240214Y-111961642D01*
X156297357Y-111904500D01*
X156383071Y-111875928D01*
X156440214Y-111875928D01*
X156525928Y-111904500D01*
X156554500Y-111933071D01*
X156754500Y-111875928D02*
X157125928Y-111875928D01*
X156925928Y-112104500D01*
X157011642Y-112104500D01*
X157068785Y-112133071D01*
X157097357Y-112161642D01*
X157125928Y-112218785D01*
X157125928Y-112361642D01*
X157097357Y-112418785D01*
X157068785Y-112447357D01*
X157011642Y-112475928D01*
X156840214Y-112475928D01*
X156783071Y-112447357D01*
X156754500Y-112418785D01*
%TO.C,U10*%
X139625428Y-96310357D02*
X140111142Y-96310357D01*
X140168285Y-96281785D01*
X140196857Y-96253214D01*
X140225428Y-96196071D01*
X140225428Y-96081785D01*
X140196857Y-96024642D01*
X140168285Y-95996071D01*
X140111142Y-95967500D01*
X139625428Y-95967500D01*
X140225428Y-95367500D02*
X140225428Y-95710357D01*
X140225428Y-95538928D02*
X139625428Y-95538928D01*
X139711142Y-95596071D01*
X139768285Y-95653214D01*
X139796857Y-95710357D01*
X139625428Y-94996071D02*
X139625428Y-94938928D01*
X139654000Y-94881785D01*
X139682571Y-94853214D01*
X139739714Y-94824642D01*
X139854000Y-94796071D01*
X139996857Y-94796071D01*
X140111142Y-94824642D01*
X140168285Y-94853214D01*
X140196857Y-94881785D01*
X140225428Y-94938928D01*
X140225428Y-94996071D01*
X140196857Y-95053214D01*
X140168285Y-95081785D01*
X140111142Y-95110357D01*
X139996857Y-95138928D01*
X139854000Y-95138928D01*
X139739714Y-95110357D01*
X139682571Y-95081785D01*
X139654000Y-95053214D01*
X139625428Y-94996071D01*
%TO.C,C9*%
X142835285Y-98271000D02*
X142863857Y-98299571D01*
X142892428Y-98385285D01*
X142892428Y-98442428D01*
X142863857Y-98528142D01*
X142806714Y-98585285D01*
X142749571Y-98613857D01*
X142635285Y-98642428D01*
X142549571Y-98642428D01*
X142435285Y-98613857D01*
X142378142Y-98585285D01*
X142321000Y-98528142D01*
X142292428Y-98442428D01*
X142292428Y-98385285D01*
X142321000Y-98299571D01*
X142349571Y-98271000D01*
X142892428Y-97985285D02*
X142892428Y-97871000D01*
X142863857Y-97813857D01*
X142835285Y-97785285D01*
X142749571Y-97728142D01*
X142635285Y-97699571D01*
X142406714Y-97699571D01*
X142349571Y-97728142D01*
X142321000Y-97756714D01*
X142292428Y-97813857D01*
X142292428Y-97928142D01*
X142321000Y-97985285D01*
X142349571Y-98013857D01*
X142406714Y-98042428D01*
X142549571Y-98042428D01*
X142606714Y-98013857D01*
X142635285Y-97985285D01*
X142663857Y-97928142D01*
X142663857Y-97813857D01*
X142635285Y-97756714D01*
X142606714Y-97728142D01*
X142549571Y-97699571D01*
%TO.C,Q3*%
X149574257Y-96365971D02*
X149517114Y-96337400D01*
X149459971Y-96280257D01*
X149374257Y-96194542D01*
X149317114Y-96165971D01*
X149259971Y-96165971D01*
X149288542Y-96308828D02*
X149231400Y-96280257D01*
X149174257Y-96223114D01*
X149145685Y-96108828D01*
X149145685Y-95908828D01*
X149174257Y-95794542D01*
X149231400Y-95737400D01*
X149288542Y-95708828D01*
X149402828Y-95708828D01*
X149459971Y-95737400D01*
X149517114Y-95794542D01*
X149545685Y-95908828D01*
X149545685Y-96108828D01*
X149517114Y-96223114D01*
X149459971Y-96280257D01*
X149402828Y-96308828D01*
X149288542Y-96308828D01*
X149745685Y-95708828D02*
X150117114Y-95708828D01*
X149917114Y-95937400D01*
X150002828Y-95937400D01*
X150059971Y-95965971D01*
X150088542Y-95994542D01*
X150117114Y-96051685D01*
X150117114Y-96194542D01*
X150088542Y-96251685D01*
X150059971Y-96280257D01*
X150002828Y-96308828D01*
X149831400Y-96308828D01*
X149774257Y-96280257D01*
X149745685Y-96251685D01*
%TO.C,Q2*%
X149625057Y-92911571D02*
X149567914Y-92883000D01*
X149510771Y-92825857D01*
X149425057Y-92740142D01*
X149367914Y-92711571D01*
X149310771Y-92711571D01*
X149339342Y-92854428D02*
X149282200Y-92825857D01*
X149225057Y-92768714D01*
X149196485Y-92654428D01*
X149196485Y-92454428D01*
X149225057Y-92340142D01*
X149282200Y-92283000D01*
X149339342Y-92254428D01*
X149453628Y-92254428D01*
X149510771Y-92283000D01*
X149567914Y-92340142D01*
X149596485Y-92454428D01*
X149596485Y-92654428D01*
X149567914Y-92768714D01*
X149510771Y-92825857D01*
X149453628Y-92854428D01*
X149339342Y-92854428D01*
X149825057Y-92311571D02*
X149853628Y-92283000D01*
X149910771Y-92254428D01*
X150053628Y-92254428D01*
X150110771Y-92283000D01*
X150139342Y-92311571D01*
X150167914Y-92368714D01*
X150167914Y-92425857D01*
X150139342Y-92511571D01*
X149796485Y-92854428D01*
X150167914Y-92854428D01*
%TO.C,R32*%
X152649285Y-90695428D02*
X152449285Y-90409714D01*
X152306428Y-90695428D02*
X152306428Y-90095428D01*
X152535000Y-90095428D01*
X152592142Y-90124000D01*
X152620714Y-90152571D01*
X152649285Y-90209714D01*
X152649285Y-90295428D01*
X152620714Y-90352571D01*
X152592142Y-90381142D01*
X152535000Y-90409714D01*
X152306428Y-90409714D01*
X152849285Y-90095428D02*
X153220714Y-90095428D01*
X153020714Y-90324000D01*
X153106428Y-90324000D01*
X153163571Y-90352571D01*
X153192142Y-90381142D01*
X153220714Y-90438285D01*
X153220714Y-90581142D01*
X153192142Y-90638285D01*
X153163571Y-90666857D01*
X153106428Y-90695428D01*
X152935000Y-90695428D01*
X152877857Y-90666857D01*
X152849285Y-90638285D01*
X153449285Y-90152571D02*
X153477857Y-90124000D01*
X153535000Y-90095428D01*
X153677857Y-90095428D01*
X153735000Y-90124000D01*
X153763571Y-90152571D01*
X153792142Y-90209714D01*
X153792142Y-90266857D01*
X153763571Y-90352571D01*
X153420714Y-90695428D01*
X153792142Y-90695428D01*
%TO.C,J4*%
X136579000Y-93524428D02*
X136579000Y-93953000D01*
X136550428Y-94038714D01*
X136493285Y-94095857D01*
X136407571Y-94124428D01*
X136350428Y-94124428D01*
X137121857Y-93724428D02*
X137121857Y-94124428D01*
X136979000Y-93495857D02*
X136836142Y-93924428D01*
X137207571Y-93924428D01*
%TO.C,J2*%
X128957428Y-92084500D02*
X129386000Y-92084500D01*
X129471714Y-92113071D01*
X129528857Y-92170214D01*
X129557428Y-92255928D01*
X129557428Y-92313071D01*
X129014571Y-91827357D02*
X128986000Y-91798785D01*
X128957428Y-91741642D01*
X128957428Y-91598785D01*
X128986000Y-91541642D01*
X129014571Y-91513071D01*
X129071714Y-91484500D01*
X129128857Y-91484500D01*
X129214571Y-91513071D01*
X129557428Y-91855928D01*
X129557428Y-91484500D01*
%TO.C,U6*%
X149275857Y-107367428D02*
X149275857Y-107853142D01*
X149304428Y-107910285D01*
X149333000Y-107938857D01*
X149390142Y-107967428D01*
X149504428Y-107967428D01*
X149561571Y-107938857D01*
X149590142Y-107910285D01*
X149618714Y-107853142D01*
X149618714Y-107367428D01*
X150161571Y-107367428D02*
X150047285Y-107367428D01*
X149990142Y-107396000D01*
X149961571Y-107424571D01*
X149904428Y-107510285D01*
X149875857Y-107624571D01*
X149875857Y-107853142D01*
X149904428Y-107910285D01*
X149933000Y-107938857D01*
X149990142Y-107967428D01*
X150104428Y-107967428D01*
X150161571Y-107938857D01*
X150190142Y-107910285D01*
X150218714Y-107853142D01*
X150218714Y-107710285D01*
X150190142Y-107653142D01*
X150161571Y-107624571D01*
X150104428Y-107596000D01*
X149990142Y-107596000D01*
X149933000Y-107624571D01*
X149904428Y-107653142D01*
X149875857Y-107710285D01*
%TO.C,BT1*%
X175296571Y-115336642D02*
X175382285Y-115365214D01*
X175410857Y-115393785D01*
X175439428Y-115450928D01*
X175439428Y-115536642D01*
X175410857Y-115593785D01*
X175382285Y-115622357D01*
X175325142Y-115650928D01*
X175096571Y-115650928D01*
X175096571Y-115050928D01*
X175296571Y-115050928D01*
X175353714Y-115079500D01*
X175382285Y-115108071D01*
X175410857Y-115165214D01*
X175410857Y-115222357D01*
X175382285Y-115279500D01*
X175353714Y-115308071D01*
X175296571Y-115336642D01*
X175096571Y-115336642D01*
X175610857Y-115050928D02*
X175953714Y-115050928D01*
X175782285Y-115650928D02*
X175782285Y-115050928D01*
X176468000Y-115650928D02*
X176125142Y-115650928D01*
X176296571Y-115650928D02*
X176296571Y-115050928D01*
X176239428Y-115136642D01*
X176182285Y-115193785D01*
X176125142Y-115222357D01*
%TO.C,C1*%
X147664500Y-112863285D02*
X147635928Y-112891857D01*
X147550214Y-112920428D01*
X147493071Y-112920428D01*
X147407357Y-112891857D01*
X147350214Y-112834714D01*
X147321642Y-112777571D01*
X147293071Y-112663285D01*
X147293071Y-112577571D01*
X147321642Y-112463285D01*
X147350214Y-112406142D01*
X147407357Y-112349000D01*
X147493071Y-112320428D01*
X147550214Y-112320428D01*
X147635928Y-112349000D01*
X147664500Y-112377571D01*
X148235928Y-112920428D02*
X147893071Y-112920428D01*
X148064500Y-112920428D02*
X148064500Y-112320428D01*
X148007357Y-112406142D01*
X147950214Y-112463285D01*
X147893071Y-112491857D01*
%TO.C,C2*%
X173509000Y-120483285D02*
X173480428Y-120511857D01*
X173394714Y-120540428D01*
X173337571Y-120540428D01*
X173251857Y-120511857D01*
X173194714Y-120454714D01*
X173166142Y-120397571D01*
X173137571Y-120283285D01*
X173137571Y-120197571D01*
X173166142Y-120083285D01*
X173194714Y-120026142D01*
X173251857Y-119969000D01*
X173337571Y-119940428D01*
X173394714Y-119940428D01*
X173480428Y-119969000D01*
X173509000Y-119997571D01*
X173737571Y-119997571D02*
X173766142Y-119969000D01*
X173823285Y-119940428D01*
X173966142Y-119940428D01*
X174023285Y-119969000D01*
X174051857Y-119997571D01*
X174080428Y-120054714D01*
X174080428Y-120111857D01*
X174051857Y-120197571D01*
X173709000Y-120540428D01*
X174080428Y-120540428D01*
%TO.C,C4*%
X169445000Y-109180285D02*
X169416428Y-109208857D01*
X169330714Y-109237428D01*
X169273571Y-109237428D01*
X169187857Y-109208857D01*
X169130714Y-109151714D01*
X169102142Y-109094571D01*
X169073571Y-108980285D01*
X169073571Y-108894571D01*
X169102142Y-108780285D01*
X169130714Y-108723142D01*
X169187857Y-108666000D01*
X169273571Y-108637428D01*
X169330714Y-108637428D01*
X169416428Y-108666000D01*
X169445000Y-108694571D01*
X169959285Y-108837428D02*
X169959285Y-109237428D01*
X169816428Y-108608857D02*
X169673571Y-109037428D01*
X170045000Y-109037428D01*
%TO.C,C5*%
X154459000Y-100163285D02*
X154430428Y-100191857D01*
X154344714Y-100220428D01*
X154287571Y-100220428D01*
X154201857Y-100191857D01*
X154144714Y-100134714D01*
X154116142Y-100077571D01*
X154087571Y-99963285D01*
X154087571Y-99877571D01*
X154116142Y-99763285D01*
X154144714Y-99706142D01*
X154201857Y-99649000D01*
X154287571Y-99620428D01*
X154344714Y-99620428D01*
X154430428Y-99649000D01*
X154459000Y-99677571D01*
X155001857Y-99620428D02*
X154716142Y-99620428D01*
X154687571Y-99906142D01*
X154716142Y-99877571D01*
X154773285Y-99849000D01*
X154916142Y-99849000D01*
X154973285Y-99877571D01*
X155001857Y-99906142D01*
X155030428Y-99963285D01*
X155030428Y-100106142D01*
X155001857Y-100163285D01*
X154973285Y-100191857D01*
X154916142Y-100220428D01*
X154773285Y-100220428D01*
X154716142Y-100191857D01*
X154687571Y-100163285D01*
%TO.C,C6*%
X169445000Y-107910285D02*
X169416428Y-107938857D01*
X169330714Y-107967428D01*
X169273571Y-107967428D01*
X169187857Y-107938857D01*
X169130714Y-107881714D01*
X169102142Y-107824571D01*
X169073571Y-107710285D01*
X169073571Y-107624571D01*
X169102142Y-107510285D01*
X169130714Y-107453142D01*
X169187857Y-107396000D01*
X169273571Y-107367428D01*
X169330714Y-107367428D01*
X169416428Y-107396000D01*
X169445000Y-107424571D01*
X169959285Y-107367428D02*
X169845000Y-107367428D01*
X169787857Y-107396000D01*
X169759285Y-107424571D01*
X169702142Y-107510285D01*
X169673571Y-107624571D01*
X169673571Y-107853142D01*
X169702142Y-107910285D01*
X169730714Y-107938857D01*
X169787857Y-107967428D01*
X169902142Y-107967428D01*
X169959285Y-107938857D01*
X169987857Y-107910285D01*
X170016428Y-107853142D01*
X170016428Y-107710285D01*
X169987857Y-107653142D01*
X169959285Y-107624571D01*
X169902142Y-107596000D01*
X169787857Y-107596000D01*
X169730714Y-107624571D01*
X169702142Y-107653142D01*
X169673571Y-107710285D01*
%TO.C,C7*%
X137123500Y-105624285D02*
X137094928Y-105652857D01*
X137009214Y-105681428D01*
X136952071Y-105681428D01*
X136866357Y-105652857D01*
X136809214Y-105595714D01*
X136780642Y-105538571D01*
X136752071Y-105424285D01*
X136752071Y-105338571D01*
X136780642Y-105224285D01*
X136809214Y-105167142D01*
X136866357Y-105110000D01*
X136952071Y-105081428D01*
X137009214Y-105081428D01*
X137094928Y-105110000D01*
X137123500Y-105138571D01*
X137323500Y-105081428D02*
X137723500Y-105081428D01*
X137466357Y-105681428D01*
%TO.C,C8*%
X130456000Y-111974285D02*
X130427428Y-112002857D01*
X130341714Y-112031428D01*
X130284571Y-112031428D01*
X130198857Y-112002857D01*
X130141714Y-111945714D01*
X130113142Y-111888571D01*
X130084571Y-111774285D01*
X130084571Y-111688571D01*
X130113142Y-111574285D01*
X130141714Y-111517142D01*
X130198857Y-111460000D01*
X130284571Y-111431428D01*
X130341714Y-111431428D01*
X130427428Y-111460000D01*
X130456000Y-111488571D01*
X130798857Y-111688571D02*
X130741714Y-111660000D01*
X130713142Y-111631428D01*
X130684571Y-111574285D01*
X130684571Y-111545714D01*
X130713142Y-111488571D01*
X130741714Y-111460000D01*
X130798857Y-111431428D01*
X130913142Y-111431428D01*
X130970285Y-111460000D01*
X130998857Y-111488571D01*
X131027428Y-111545714D01*
X131027428Y-111574285D01*
X130998857Y-111631428D01*
X130970285Y-111660000D01*
X130913142Y-111688571D01*
X130798857Y-111688571D01*
X130741714Y-111717142D01*
X130713142Y-111745714D01*
X130684571Y-111802857D01*
X130684571Y-111917142D01*
X130713142Y-111974285D01*
X130741714Y-112002857D01*
X130798857Y-112031428D01*
X130913142Y-112031428D01*
X130970285Y-112002857D01*
X130998857Y-111974285D01*
X131027428Y-111917142D01*
X131027428Y-111802857D01*
X130998857Y-111745714D01*
X130970285Y-111717142D01*
X130913142Y-111688571D01*
%TO.C,D1*%
X165546142Y-119143428D02*
X165546142Y-118543428D01*
X165689000Y-118543428D01*
X165774714Y-118572000D01*
X165831857Y-118629142D01*
X165860428Y-118686285D01*
X165889000Y-118800571D01*
X165889000Y-118886285D01*
X165860428Y-119000571D01*
X165831857Y-119057714D01*
X165774714Y-119114857D01*
X165689000Y-119143428D01*
X165546142Y-119143428D01*
X166460428Y-119143428D02*
X166117571Y-119143428D01*
X166289000Y-119143428D02*
X166289000Y-118543428D01*
X166231857Y-118629142D01*
X166174714Y-118686285D01*
X166117571Y-118714857D01*
%TO.C,D2*%
X141670142Y-108348428D02*
X141670142Y-107748428D01*
X141813000Y-107748428D01*
X141898714Y-107777000D01*
X141955857Y-107834142D01*
X141984428Y-107891285D01*
X142013000Y-108005571D01*
X142013000Y-108091285D01*
X141984428Y-108205571D01*
X141955857Y-108262714D01*
X141898714Y-108319857D01*
X141813000Y-108348428D01*
X141670142Y-108348428D01*
X142241571Y-107805571D02*
X142270142Y-107777000D01*
X142327285Y-107748428D01*
X142470142Y-107748428D01*
X142527285Y-107777000D01*
X142555857Y-107805571D01*
X142584428Y-107862714D01*
X142584428Y-107919857D01*
X142555857Y-108005571D01*
X142213000Y-108348428D01*
X142584428Y-108348428D01*
%TO.C,D3*%
X141606642Y-112920428D02*
X141606642Y-112320428D01*
X141749500Y-112320428D01*
X141835214Y-112349000D01*
X141892357Y-112406142D01*
X141920928Y-112463285D01*
X141949500Y-112577571D01*
X141949500Y-112663285D01*
X141920928Y-112777571D01*
X141892357Y-112834714D01*
X141835214Y-112891857D01*
X141749500Y-112920428D01*
X141606642Y-112920428D01*
X142149500Y-112320428D02*
X142520928Y-112320428D01*
X142320928Y-112549000D01*
X142406642Y-112549000D01*
X142463785Y-112577571D01*
X142492357Y-112606142D01*
X142520928Y-112663285D01*
X142520928Y-112806142D01*
X142492357Y-112863285D01*
X142463785Y-112891857D01*
X142406642Y-112920428D01*
X142235214Y-112920428D01*
X142178071Y-112891857D01*
X142149500Y-112863285D01*
%TO.C,J3*%
X145149928Y-119580000D02*
X145578500Y-119580000D01*
X145664214Y-119608571D01*
X145721357Y-119665714D01*
X145749928Y-119751428D01*
X145749928Y-119808571D01*
X145149928Y-119351428D02*
X145149928Y-118980000D01*
X145378500Y-119180000D01*
X145378500Y-119094285D01*
X145407071Y-119037142D01*
X145435642Y-119008571D01*
X145492785Y-118980000D01*
X145635642Y-118980000D01*
X145692785Y-119008571D01*
X145721357Y-119037142D01*
X145749928Y-119094285D01*
X145749928Y-119265714D01*
X145721357Y-119322857D01*
X145692785Y-119351428D01*
%TO.C,J5*%
X136452000Y-108831428D02*
X136452000Y-109260000D01*
X136423428Y-109345714D01*
X136366285Y-109402857D01*
X136280571Y-109431428D01*
X136223428Y-109431428D01*
X137023428Y-108831428D02*
X136737714Y-108831428D01*
X136709142Y-109117142D01*
X136737714Y-109088571D01*
X136794857Y-109060000D01*
X136937714Y-109060000D01*
X136994857Y-109088571D01*
X137023428Y-109117142D01*
X137052000Y-109174285D01*
X137052000Y-109317142D01*
X137023428Y-109374285D01*
X136994857Y-109402857D01*
X136937714Y-109431428D01*
X136794857Y-109431428D01*
X136737714Y-109402857D01*
X136709142Y-109374285D01*
%TO.C,J6*%
X162360000Y-89333428D02*
X162360000Y-89762000D01*
X162331428Y-89847714D01*
X162274285Y-89904857D01*
X162188571Y-89933428D01*
X162131428Y-89933428D01*
X162902857Y-89333428D02*
X162788571Y-89333428D01*
X162731428Y-89362000D01*
X162702857Y-89390571D01*
X162645714Y-89476285D01*
X162617142Y-89590571D01*
X162617142Y-89819142D01*
X162645714Y-89876285D01*
X162674285Y-89904857D01*
X162731428Y-89933428D01*
X162845714Y-89933428D01*
X162902857Y-89904857D01*
X162931428Y-89876285D01*
X162960000Y-89819142D01*
X162960000Y-89676285D01*
X162931428Y-89619142D01*
X162902857Y-89590571D01*
X162845714Y-89562000D01*
X162731428Y-89562000D01*
X162674285Y-89590571D01*
X162645714Y-89619142D01*
X162617142Y-89676285D01*
%TO.C,J7*%
X128512928Y-87004500D02*
X128941500Y-87004500D01*
X129027214Y-87033071D01*
X129084357Y-87090214D01*
X129112928Y-87175928D01*
X129112928Y-87233071D01*
X128512928Y-86775928D02*
X128512928Y-86375928D01*
X129112928Y-86633071D01*
%TO.C,LS1*%
X136796428Y-103636714D02*
X136796428Y-103922428D01*
X136196428Y-103922428D01*
X136767857Y-103465285D02*
X136796428Y-103379571D01*
X136796428Y-103236714D01*
X136767857Y-103179571D01*
X136739285Y-103151000D01*
X136682142Y-103122428D01*
X136625000Y-103122428D01*
X136567857Y-103151000D01*
X136539285Y-103179571D01*
X136510714Y-103236714D01*
X136482142Y-103351000D01*
X136453571Y-103408142D01*
X136425000Y-103436714D01*
X136367857Y-103465285D01*
X136310714Y-103465285D01*
X136253571Y-103436714D01*
X136225000Y-103408142D01*
X136196428Y-103351000D01*
X136196428Y-103208142D01*
X136225000Y-103122428D01*
X136796428Y-102551000D02*
X136796428Y-102893857D01*
X136796428Y-102722428D02*
X136196428Y-102722428D01*
X136282142Y-102779571D01*
X136339285Y-102836714D01*
X136367857Y-102893857D01*
X136154190Y-104693714D02*
X136641809Y-104693714D01*
X136398000Y-104937523D02*
X136398000Y-104449904D01*
X136507214Y-100129309D02*
X136507214Y-99641690D01*
%TO.C,MK1*%
X128273247Y-115851741D02*
X128273247Y-115369312D01*
X128434057Y-115713904D01*
X128594867Y-115369312D01*
X128594867Y-115851741D01*
X128824595Y-115851741D02*
X128824595Y-115369312D01*
X129100268Y-115851741D02*
X128893513Y-115576067D01*
X129100268Y-115369312D02*
X128824595Y-115644986D01*
X129559725Y-115851741D02*
X129284051Y-115851741D01*
X129421888Y-115851741D02*
X129421888Y-115369312D01*
X129375942Y-115438231D01*
X129329996Y-115484176D01*
X129284051Y-115507149D01*
%TO.C,R1*%
X164873000Y-91965428D02*
X164673000Y-91679714D01*
X164530142Y-91965428D02*
X164530142Y-91365428D01*
X164758714Y-91365428D01*
X164815857Y-91394000D01*
X164844428Y-91422571D01*
X164873000Y-91479714D01*
X164873000Y-91565428D01*
X164844428Y-91622571D01*
X164815857Y-91651142D01*
X164758714Y-91679714D01*
X164530142Y-91679714D01*
X165444428Y-91965428D02*
X165101571Y-91965428D01*
X165273000Y-91965428D02*
X165273000Y-91365428D01*
X165215857Y-91451142D01*
X165158714Y-91508285D01*
X165101571Y-91536857D01*
%TO.C,R2*%
X156427500Y-100220428D02*
X156227500Y-99934714D01*
X156084642Y-100220428D02*
X156084642Y-99620428D01*
X156313214Y-99620428D01*
X156370357Y-99649000D01*
X156398928Y-99677571D01*
X156427500Y-99734714D01*
X156427500Y-99820428D01*
X156398928Y-99877571D01*
X156370357Y-99906142D01*
X156313214Y-99934714D01*
X156084642Y-99934714D01*
X156656071Y-99677571D02*
X156684642Y-99649000D01*
X156741785Y-99620428D01*
X156884642Y-99620428D01*
X156941785Y-99649000D01*
X156970357Y-99677571D01*
X156998928Y-99734714D01*
X156998928Y-99791857D01*
X156970357Y-99877571D01*
X156627500Y-100220428D01*
X156998928Y-100220428D01*
%TO.C,R3*%
X158332500Y-100220428D02*
X158132500Y-99934714D01*
X157989642Y-100220428D02*
X157989642Y-99620428D01*
X158218214Y-99620428D01*
X158275357Y-99649000D01*
X158303928Y-99677571D01*
X158332500Y-99734714D01*
X158332500Y-99820428D01*
X158303928Y-99877571D01*
X158275357Y-99906142D01*
X158218214Y-99934714D01*
X157989642Y-99934714D01*
X158532500Y-99620428D02*
X158903928Y-99620428D01*
X158703928Y-99849000D01*
X158789642Y-99849000D01*
X158846785Y-99877571D01*
X158875357Y-99906142D01*
X158903928Y-99963285D01*
X158903928Y-100106142D01*
X158875357Y-100163285D01*
X158846785Y-100191857D01*
X158789642Y-100220428D01*
X158618214Y-100220428D01*
X158561071Y-100191857D01*
X158532500Y-100163285D01*
%TO.C,R4*%
X151220500Y-116603428D02*
X151020500Y-116317714D01*
X150877642Y-116603428D02*
X150877642Y-116003428D01*
X151106214Y-116003428D01*
X151163357Y-116032000D01*
X151191928Y-116060571D01*
X151220500Y-116117714D01*
X151220500Y-116203428D01*
X151191928Y-116260571D01*
X151163357Y-116289142D01*
X151106214Y-116317714D01*
X150877642Y-116317714D01*
X151734785Y-116203428D02*
X151734785Y-116603428D01*
X151591928Y-115974857D02*
X151449071Y-116403428D01*
X151820500Y-116403428D01*
%TO.C,R5*%
X151284000Y-118889428D02*
X151084000Y-118603714D01*
X150941142Y-118889428D02*
X150941142Y-118289428D01*
X151169714Y-118289428D01*
X151226857Y-118318000D01*
X151255428Y-118346571D01*
X151284000Y-118403714D01*
X151284000Y-118489428D01*
X151255428Y-118546571D01*
X151226857Y-118575142D01*
X151169714Y-118603714D01*
X150941142Y-118603714D01*
X151826857Y-118289428D02*
X151541142Y-118289428D01*
X151512571Y-118575142D01*
X151541142Y-118546571D01*
X151598285Y-118518000D01*
X151741142Y-118518000D01*
X151798285Y-118546571D01*
X151826857Y-118575142D01*
X151855428Y-118632285D01*
X151855428Y-118775142D01*
X151826857Y-118832285D01*
X151798285Y-118860857D01*
X151741142Y-118889428D01*
X151598285Y-118889428D01*
X151541142Y-118860857D01*
X151512571Y-118832285D01*
%TO.C,R6*%
X161888500Y-117365428D02*
X161688500Y-117079714D01*
X161545642Y-117365428D02*
X161545642Y-116765428D01*
X161774214Y-116765428D01*
X161831357Y-116794000D01*
X161859928Y-116822571D01*
X161888500Y-116879714D01*
X161888500Y-116965428D01*
X161859928Y-117022571D01*
X161831357Y-117051142D01*
X161774214Y-117079714D01*
X161545642Y-117079714D01*
X162402785Y-116765428D02*
X162288500Y-116765428D01*
X162231357Y-116794000D01*
X162202785Y-116822571D01*
X162145642Y-116908285D01*
X162117071Y-117022571D01*
X162117071Y-117251142D01*
X162145642Y-117308285D01*
X162174214Y-117336857D01*
X162231357Y-117365428D01*
X162345642Y-117365428D01*
X162402785Y-117336857D01*
X162431357Y-117308285D01*
X162459928Y-117251142D01*
X162459928Y-117108285D01*
X162431357Y-117051142D01*
X162402785Y-117022571D01*
X162345642Y-116994000D01*
X162231357Y-116994000D01*
X162174214Y-117022571D01*
X162145642Y-117051142D01*
X162117071Y-117108285D01*
%TO.C,R7*%
X153062000Y-116603428D02*
X152862000Y-116317714D01*
X152719142Y-116603428D02*
X152719142Y-116003428D01*
X152947714Y-116003428D01*
X153004857Y-116032000D01*
X153033428Y-116060571D01*
X153062000Y-116117714D01*
X153062000Y-116203428D01*
X153033428Y-116260571D01*
X153004857Y-116289142D01*
X152947714Y-116317714D01*
X152719142Y-116317714D01*
X153262000Y-116003428D02*
X153662000Y-116003428D01*
X153404857Y-116603428D01*
%TO.C,R8*%
X153062000Y-118889428D02*
X152862000Y-118603714D01*
X152719142Y-118889428D02*
X152719142Y-118289428D01*
X152947714Y-118289428D01*
X153004857Y-118318000D01*
X153033428Y-118346571D01*
X153062000Y-118403714D01*
X153062000Y-118489428D01*
X153033428Y-118546571D01*
X153004857Y-118575142D01*
X152947714Y-118603714D01*
X152719142Y-118603714D01*
X153404857Y-118546571D02*
X153347714Y-118518000D01*
X153319142Y-118489428D01*
X153290571Y-118432285D01*
X153290571Y-118403714D01*
X153319142Y-118346571D01*
X153347714Y-118318000D01*
X153404857Y-118289428D01*
X153519142Y-118289428D01*
X153576285Y-118318000D01*
X153604857Y-118346571D01*
X153633428Y-118403714D01*
X153633428Y-118432285D01*
X153604857Y-118489428D01*
X153576285Y-118518000D01*
X153519142Y-118546571D01*
X153404857Y-118546571D01*
X153347714Y-118575142D01*
X153319142Y-118603714D01*
X153290571Y-118660857D01*
X153290571Y-118775142D01*
X153319142Y-118832285D01*
X153347714Y-118860857D01*
X153404857Y-118889428D01*
X153519142Y-118889428D01*
X153576285Y-118860857D01*
X153604857Y-118832285D01*
X153633428Y-118775142D01*
X153633428Y-118660857D01*
X153604857Y-118603714D01*
X153576285Y-118575142D01*
X153519142Y-118546571D01*
%TO.C,R9*%
X162079000Y-113508428D02*
X161879000Y-113222714D01*
X161736142Y-113508428D02*
X161736142Y-112908428D01*
X161964714Y-112908428D01*
X162021857Y-112937000D01*
X162050428Y-112965571D01*
X162079000Y-113022714D01*
X162079000Y-113108428D01*
X162050428Y-113165571D01*
X162021857Y-113194142D01*
X161964714Y-113222714D01*
X161736142Y-113222714D01*
X162364714Y-113508428D02*
X162479000Y-113508428D01*
X162536142Y-113479857D01*
X162564714Y-113451285D01*
X162621857Y-113365571D01*
X162650428Y-113251285D01*
X162650428Y-113022714D01*
X162621857Y-112965571D01*
X162593285Y-112937000D01*
X162536142Y-112908428D01*
X162421857Y-112908428D01*
X162364714Y-112937000D01*
X162336142Y-112965571D01*
X162307571Y-113022714D01*
X162307571Y-113165571D01*
X162336142Y-113222714D01*
X162364714Y-113251285D01*
X162421857Y-113279857D01*
X162536142Y-113279857D01*
X162593285Y-113251285D01*
X162621857Y-113222714D01*
X162650428Y-113165571D01*
%TO.C,R11*%
X137431428Y-98175714D02*
X137145714Y-98375714D01*
X137431428Y-98518571D02*
X136831428Y-98518571D01*
X136831428Y-98290000D01*
X136860000Y-98232857D01*
X136888571Y-98204285D01*
X136945714Y-98175714D01*
X137031428Y-98175714D01*
X137088571Y-98204285D01*
X137117142Y-98232857D01*
X137145714Y-98290000D01*
X137145714Y-98518571D01*
X137431428Y-97604285D02*
X137431428Y-97947142D01*
X137431428Y-97775714D02*
X136831428Y-97775714D01*
X136917142Y-97832857D01*
X136974285Y-97890000D01*
X137002857Y-97947142D01*
X137431428Y-97032857D02*
X137431428Y-97375714D01*
X137431428Y-97204285D02*
X136831428Y-97204285D01*
X136917142Y-97261428D01*
X136974285Y-97318571D01*
X137002857Y-97375714D01*
%TO.C,R12*%
X132962928Y-98175714D02*
X132677214Y-98375714D01*
X132962928Y-98518571D02*
X132362928Y-98518571D01*
X132362928Y-98290000D01*
X132391500Y-98232857D01*
X132420071Y-98204285D01*
X132477214Y-98175714D01*
X132562928Y-98175714D01*
X132620071Y-98204285D01*
X132648642Y-98232857D01*
X132677214Y-98290000D01*
X132677214Y-98518571D01*
X132962928Y-97604285D02*
X132962928Y-97947142D01*
X132962928Y-97775714D02*
X132362928Y-97775714D01*
X132448642Y-97832857D01*
X132505785Y-97890000D01*
X132534357Y-97947142D01*
X132420071Y-97375714D02*
X132391500Y-97347142D01*
X132362928Y-97290000D01*
X132362928Y-97147142D01*
X132391500Y-97090000D01*
X132420071Y-97061428D01*
X132477214Y-97032857D01*
X132534357Y-97032857D01*
X132620071Y-97061428D01*
X132962928Y-97404285D01*
X132962928Y-97032857D01*
%TO.C,R13*%
X128795428Y-98175714D02*
X128509714Y-98375714D01*
X128795428Y-98518571D02*
X128195428Y-98518571D01*
X128195428Y-98290000D01*
X128224000Y-98232857D01*
X128252571Y-98204285D01*
X128309714Y-98175714D01*
X128395428Y-98175714D01*
X128452571Y-98204285D01*
X128481142Y-98232857D01*
X128509714Y-98290000D01*
X128509714Y-98518571D01*
X128795428Y-97604285D02*
X128795428Y-97947142D01*
X128795428Y-97775714D02*
X128195428Y-97775714D01*
X128281142Y-97832857D01*
X128338285Y-97890000D01*
X128366857Y-97947142D01*
X128195428Y-97404285D02*
X128195428Y-97032857D01*
X128424000Y-97232857D01*
X128424000Y-97147142D01*
X128452571Y-97090000D01*
X128481142Y-97061428D01*
X128538285Y-97032857D01*
X128681142Y-97032857D01*
X128738285Y-97061428D01*
X128766857Y-97090000D01*
X128795428Y-97147142D01*
X128795428Y-97318571D01*
X128766857Y-97375714D01*
X128738285Y-97404285D01*
%TO.C,R14*%
X175255285Y-114825428D02*
X175055285Y-114539714D01*
X174912428Y-114825428D02*
X174912428Y-114225428D01*
X175141000Y-114225428D01*
X175198142Y-114254000D01*
X175226714Y-114282571D01*
X175255285Y-114339714D01*
X175255285Y-114425428D01*
X175226714Y-114482571D01*
X175198142Y-114511142D01*
X175141000Y-114539714D01*
X174912428Y-114539714D01*
X175826714Y-114825428D02*
X175483857Y-114825428D01*
X175655285Y-114825428D02*
X175655285Y-114225428D01*
X175598142Y-114311142D01*
X175541000Y-114368285D01*
X175483857Y-114396857D01*
X176341000Y-114425428D02*
X176341000Y-114825428D01*
X176198142Y-114196857D02*
X176055285Y-114625428D01*
X176426714Y-114625428D01*
%TO.C,R17*%
X138361785Y-108308428D02*
X138161785Y-108022714D01*
X138018928Y-108308428D02*
X138018928Y-107708428D01*
X138247500Y-107708428D01*
X138304642Y-107737000D01*
X138333214Y-107765571D01*
X138361785Y-107822714D01*
X138361785Y-107908428D01*
X138333214Y-107965571D01*
X138304642Y-107994142D01*
X138247500Y-108022714D01*
X138018928Y-108022714D01*
X138933214Y-108308428D02*
X138590357Y-108308428D01*
X138761785Y-108308428D02*
X138761785Y-107708428D01*
X138704642Y-107794142D01*
X138647500Y-107851285D01*
X138590357Y-107879857D01*
X139133214Y-107708428D02*
X139533214Y-107708428D01*
X139276071Y-108308428D01*
%TO.C,R18*%
X140139785Y-108348428D02*
X139939785Y-108062714D01*
X139796928Y-108348428D02*
X139796928Y-107748428D01*
X140025500Y-107748428D01*
X140082642Y-107777000D01*
X140111214Y-107805571D01*
X140139785Y-107862714D01*
X140139785Y-107948428D01*
X140111214Y-108005571D01*
X140082642Y-108034142D01*
X140025500Y-108062714D01*
X139796928Y-108062714D01*
X140711214Y-108348428D02*
X140368357Y-108348428D01*
X140539785Y-108348428D02*
X140539785Y-107748428D01*
X140482642Y-107834142D01*
X140425500Y-107891285D01*
X140368357Y-107919857D01*
X141054071Y-108005571D02*
X140996928Y-107977000D01*
X140968357Y-107948428D01*
X140939785Y-107891285D01*
X140939785Y-107862714D01*
X140968357Y-107805571D01*
X140996928Y-107777000D01*
X141054071Y-107748428D01*
X141168357Y-107748428D01*
X141225500Y-107777000D01*
X141254071Y-107805571D01*
X141282642Y-107862714D01*
X141282642Y-107891285D01*
X141254071Y-107948428D01*
X141225500Y-107977000D01*
X141168357Y-108005571D01*
X141054071Y-108005571D01*
X140996928Y-108034142D01*
X140968357Y-108062714D01*
X140939785Y-108119857D01*
X140939785Y-108234142D01*
X140968357Y-108291285D01*
X140996928Y-108319857D01*
X141054071Y-108348428D01*
X141168357Y-108348428D01*
X141225500Y-108319857D01*
X141254071Y-108291285D01*
X141282642Y-108234142D01*
X141282642Y-108119857D01*
X141254071Y-108062714D01*
X141225500Y-108034142D01*
X141168357Y-108005571D01*
%TO.C,R19*%
X128842428Y-108526214D02*
X128556714Y-108726214D01*
X128842428Y-108869071D02*
X128242428Y-108869071D01*
X128242428Y-108640500D01*
X128271000Y-108583357D01*
X128299571Y-108554785D01*
X128356714Y-108526214D01*
X128442428Y-108526214D01*
X128499571Y-108554785D01*
X128528142Y-108583357D01*
X128556714Y-108640500D01*
X128556714Y-108869071D01*
X128842428Y-107954785D02*
X128842428Y-108297642D01*
X128842428Y-108126214D02*
X128242428Y-108126214D01*
X128328142Y-108183357D01*
X128385285Y-108240500D01*
X128413857Y-108297642D01*
X128842428Y-107669071D02*
X128842428Y-107554785D01*
X128813857Y-107497642D01*
X128785285Y-107469071D01*
X128699571Y-107411928D01*
X128585285Y-107383357D01*
X128356714Y-107383357D01*
X128299571Y-107411928D01*
X128271000Y-107440500D01*
X128242428Y-107497642D01*
X128242428Y-107611928D01*
X128271000Y-107669071D01*
X128299571Y-107697642D01*
X128356714Y-107726214D01*
X128499571Y-107726214D01*
X128556714Y-107697642D01*
X128585285Y-107669071D01*
X128613857Y-107611928D01*
X128613857Y-107497642D01*
X128585285Y-107440500D01*
X128556714Y-107411928D01*
X128499571Y-107383357D01*
%TO.C,R20*%
X133073428Y-108462714D02*
X132787714Y-108662714D01*
X133073428Y-108805571D02*
X132473428Y-108805571D01*
X132473428Y-108577000D01*
X132502000Y-108519857D01*
X132530571Y-108491285D01*
X132587714Y-108462714D01*
X132673428Y-108462714D01*
X132730571Y-108491285D01*
X132759142Y-108519857D01*
X132787714Y-108577000D01*
X132787714Y-108805571D01*
X132530571Y-108234142D02*
X132502000Y-108205571D01*
X132473428Y-108148428D01*
X132473428Y-108005571D01*
X132502000Y-107948428D01*
X132530571Y-107919857D01*
X132587714Y-107891285D01*
X132644857Y-107891285D01*
X132730571Y-107919857D01*
X133073428Y-108262714D01*
X133073428Y-107891285D01*
X132473428Y-107519857D02*
X132473428Y-107462714D01*
X132502000Y-107405571D01*
X132530571Y-107377000D01*
X132587714Y-107348428D01*
X132702000Y-107319857D01*
X132844857Y-107319857D01*
X132959142Y-107348428D01*
X133016285Y-107377000D01*
X133044857Y-107405571D01*
X133073428Y-107462714D01*
X133073428Y-107519857D01*
X133044857Y-107577000D01*
X133016285Y-107605571D01*
X132959142Y-107634142D01*
X132844857Y-107662714D01*
X132702000Y-107662714D01*
X132587714Y-107634142D01*
X132530571Y-107605571D01*
X132502000Y-107577000D01*
X132473428Y-107519857D01*
%TO.C,R24*%
X142108285Y-105617928D02*
X141908285Y-105332214D01*
X141765428Y-105617928D02*
X141765428Y-105017928D01*
X141994000Y-105017928D01*
X142051142Y-105046500D01*
X142079714Y-105075071D01*
X142108285Y-105132214D01*
X142108285Y-105217928D01*
X142079714Y-105275071D01*
X142051142Y-105303642D01*
X141994000Y-105332214D01*
X141765428Y-105332214D01*
X142336857Y-105075071D02*
X142365428Y-105046500D01*
X142422571Y-105017928D01*
X142565428Y-105017928D01*
X142622571Y-105046500D01*
X142651142Y-105075071D01*
X142679714Y-105132214D01*
X142679714Y-105189357D01*
X142651142Y-105275071D01*
X142308285Y-105617928D01*
X142679714Y-105617928D01*
X143194000Y-105217928D02*
X143194000Y-105617928D01*
X143051142Y-104989357D02*
X142908285Y-105417928D01*
X143279714Y-105417928D01*
%TO.C,R25*%
X136901285Y-101426928D02*
X136701285Y-101141214D01*
X136558428Y-101426928D02*
X136558428Y-100826928D01*
X136787000Y-100826928D01*
X136844142Y-100855500D01*
X136872714Y-100884071D01*
X136901285Y-100941214D01*
X136901285Y-101026928D01*
X136872714Y-101084071D01*
X136844142Y-101112642D01*
X136787000Y-101141214D01*
X136558428Y-101141214D01*
X137129857Y-100884071D02*
X137158428Y-100855500D01*
X137215571Y-100826928D01*
X137358428Y-100826928D01*
X137415571Y-100855500D01*
X137444142Y-100884071D01*
X137472714Y-100941214D01*
X137472714Y-100998357D01*
X137444142Y-101084071D01*
X137101285Y-101426928D01*
X137472714Y-101426928D01*
X138015571Y-100826928D02*
X137729857Y-100826928D01*
X137701285Y-101112642D01*
X137729857Y-101084071D01*
X137787000Y-101055500D01*
X137929857Y-101055500D01*
X137987000Y-101084071D01*
X138015571Y-101112642D01*
X138044142Y-101169785D01*
X138044142Y-101312642D01*
X138015571Y-101369785D01*
X137987000Y-101398357D01*
X137929857Y-101426928D01*
X137787000Y-101426928D01*
X137729857Y-101398357D01*
X137701285Y-101369785D01*
%TO.C,R26*%
X141270085Y-101388828D02*
X141070085Y-101103114D01*
X140927228Y-101388828D02*
X140927228Y-100788828D01*
X141155800Y-100788828D01*
X141212942Y-100817400D01*
X141241514Y-100845971D01*
X141270085Y-100903114D01*
X141270085Y-100988828D01*
X141241514Y-101045971D01*
X141212942Y-101074542D01*
X141155800Y-101103114D01*
X140927228Y-101103114D01*
X141498657Y-100845971D02*
X141527228Y-100817400D01*
X141584371Y-100788828D01*
X141727228Y-100788828D01*
X141784371Y-100817400D01*
X141812942Y-100845971D01*
X141841514Y-100903114D01*
X141841514Y-100960257D01*
X141812942Y-101045971D01*
X141470085Y-101388828D01*
X141841514Y-101388828D01*
X142355800Y-100788828D02*
X142241514Y-100788828D01*
X142184371Y-100817400D01*
X142155800Y-100845971D01*
X142098657Y-100931685D01*
X142070085Y-101045971D01*
X142070085Y-101274542D01*
X142098657Y-101331685D01*
X142127228Y-101360257D01*
X142184371Y-101388828D01*
X142298657Y-101388828D01*
X142355800Y-101360257D01*
X142384371Y-101331685D01*
X142412942Y-101274542D01*
X142412942Y-101131685D01*
X142384371Y-101074542D01*
X142355800Y-101045971D01*
X142298657Y-101017400D01*
X142184371Y-101017400D01*
X142127228Y-101045971D01*
X142098657Y-101074542D01*
X142070085Y-101131685D01*
%TO.C,R27*%
X132287928Y-114939714D02*
X132002214Y-115139714D01*
X132287928Y-115282571D02*
X131687928Y-115282571D01*
X131687928Y-115054000D01*
X131716500Y-114996857D01*
X131745071Y-114968285D01*
X131802214Y-114939714D01*
X131887928Y-114939714D01*
X131945071Y-114968285D01*
X131973642Y-114996857D01*
X132002214Y-115054000D01*
X132002214Y-115282571D01*
X131745071Y-114711142D02*
X131716500Y-114682571D01*
X131687928Y-114625428D01*
X131687928Y-114482571D01*
X131716500Y-114425428D01*
X131745071Y-114396857D01*
X131802214Y-114368285D01*
X131859357Y-114368285D01*
X131945071Y-114396857D01*
X132287928Y-114739714D01*
X132287928Y-114368285D01*
X131687928Y-114168285D02*
X131687928Y-113768285D01*
X132287928Y-114025428D01*
%TO.C,R29*%
X132287928Y-113161714D02*
X132002214Y-113361714D01*
X132287928Y-113504571D02*
X131687928Y-113504571D01*
X131687928Y-113276000D01*
X131716500Y-113218857D01*
X131745071Y-113190285D01*
X131802214Y-113161714D01*
X131887928Y-113161714D01*
X131945071Y-113190285D01*
X131973642Y-113218857D01*
X132002214Y-113276000D01*
X132002214Y-113504571D01*
X131745071Y-112933142D02*
X131716500Y-112904571D01*
X131687928Y-112847428D01*
X131687928Y-112704571D01*
X131716500Y-112647428D01*
X131745071Y-112618857D01*
X131802214Y-112590285D01*
X131859357Y-112590285D01*
X131945071Y-112618857D01*
X132287928Y-112961714D01*
X132287928Y-112590285D01*
X132287928Y-112304571D02*
X132287928Y-112190285D01*
X132259357Y-112133142D01*
X132230785Y-112104571D01*
X132145071Y-112047428D01*
X132030785Y-112018857D01*
X131802214Y-112018857D01*
X131745071Y-112047428D01*
X131716500Y-112076000D01*
X131687928Y-112133142D01*
X131687928Y-112247428D01*
X131716500Y-112304571D01*
X131745071Y-112333142D01*
X131802214Y-112361714D01*
X131945071Y-112361714D01*
X132002214Y-112333142D01*
X132030785Y-112304571D01*
X132059357Y-112247428D01*
X132059357Y-112133142D01*
X132030785Y-112076000D01*
X132002214Y-112047428D01*
X131945071Y-112018857D01*
%TO.C,R30*%
X152649285Y-97045428D02*
X152449285Y-96759714D01*
X152306428Y-97045428D02*
X152306428Y-96445428D01*
X152535000Y-96445428D01*
X152592142Y-96474000D01*
X152620714Y-96502571D01*
X152649285Y-96559714D01*
X152649285Y-96645428D01*
X152620714Y-96702571D01*
X152592142Y-96731142D01*
X152535000Y-96759714D01*
X152306428Y-96759714D01*
X152849285Y-96445428D02*
X153220714Y-96445428D01*
X153020714Y-96674000D01*
X153106428Y-96674000D01*
X153163571Y-96702571D01*
X153192142Y-96731142D01*
X153220714Y-96788285D01*
X153220714Y-96931142D01*
X153192142Y-96988285D01*
X153163571Y-97016857D01*
X153106428Y-97045428D01*
X152935000Y-97045428D01*
X152877857Y-97016857D01*
X152849285Y-96988285D01*
X153592142Y-96445428D02*
X153649285Y-96445428D01*
X153706428Y-96474000D01*
X153735000Y-96502571D01*
X153763571Y-96559714D01*
X153792142Y-96674000D01*
X153792142Y-96816857D01*
X153763571Y-96931142D01*
X153735000Y-96988285D01*
X153706428Y-97016857D01*
X153649285Y-97045428D01*
X153592142Y-97045428D01*
X153535000Y-97016857D01*
X153506428Y-96988285D01*
X153477857Y-96931142D01*
X153449285Y-96816857D01*
X153449285Y-96674000D01*
X153477857Y-96559714D01*
X153506428Y-96502571D01*
X153535000Y-96474000D01*
X153592142Y-96445428D01*
%TO.C,U1*%
X138863428Y-116408142D02*
X139349142Y-116408142D01*
X139406285Y-116379571D01*
X139434857Y-116351000D01*
X139463428Y-116293857D01*
X139463428Y-116179571D01*
X139434857Y-116122428D01*
X139406285Y-116093857D01*
X139349142Y-116065285D01*
X138863428Y-116065285D01*
X139463428Y-115465285D02*
X139463428Y-115808142D01*
X139463428Y-115636714D02*
X138863428Y-115636714D01*
X138949142Y-115693857D01*
X139006285Y-115751000D01*
X139034857Y-115808142D01*
%TO.C,U2*%
X164898428Y-114503142D02*
X165384142Y-114503142D01*
X165441285Y-114474571D01*
X165469857Y-114446000D01*
X165498428Y-114388857D01*
X165498428Y-114274571D01*
X165469857Y-114217428D01*
X165441285Y-114188857D01*
X165384142Y-114160285D01*
X164898428Y-114160285D01*
X164955571Y-113903142D02*
X164927000Y-113874571D01*
X164898428Y-113817428D01*
X164898428Y-113674571D01*
X164927000Y-113617428D01*
X164955571Y-113588857D01*
X165012714Y-113560285D01*
X165069857Y-113560285D01*
X165155571Y-113588857D01*
X165498428Y-113931714D01*
X165498428Y-113560285D01*
%TO.C,U4*%
X171881857Y-114098428D02*
X171881857Y-114584142D01*
X171910428Y-114641285D01*
X171939000Y-114669857D01*
X171996142Y-114698428D01*
X172110428Y-114698428D01*
X172167571Y-114669857D01*
X172196142Y-114641285D01*
X172224714Y-114584142D01*
X172224714Y-114098428D01*
X172767571Y-114298428D02*
X172767571Y-114698428D01*
X172624714Y-114069857D02*
X172481857Y-114498428D01*
X172853285Y-114498428D01*
%TO.C,U5*%
X164007857Y-104700428D02*
X164007857Y-105186142D01*
X164036428Y-105243285D01*
X164065000Y-105271857D01*
X164122142Y-105300428D01*
X164236428Y-105300428D01*
X164293571Y-105271857D01*
X164322142Y-105243285D01*
X164350714Y-105186142D01*
X164350714Y-104700428D01*
X164922142Y-104700428D02*
X164636428Y-104700428D01*
X164607857Y-104986142D01*
X164636428Y-104957571D01*
X164693571Y-104929000D01*
X164836428Y-104929000D01*
X164893571Y-104957571D01*
X164922142Y-104986142D01*
X164950714Y-105043285D01*
X164950714Y-105186142D01*
X164922142Y-105243285D01*
X164893571Y-105271857D01*
X164836428Y-105300428D01*
X164693571Y-105300428D01*
X164636428Y-105271857D01*
X164607857Y-105243285D01*
%TO.C,U8*%
X137085428Y-103708142D02*
X137571142Y-103708142D01*
X137628285Y-103679571D01*
X137656857Y-103651000D01*
X137685428Y-103593857D01*
X137685428Y-103479571D01*
X137656857Y-103422428D01*
X137628285Y-103393857D01*
X137571142Y-103365285D01*
X137085428Y-103365285D01*
X137342571Y-102993857D02*
X137314000Y-103051000D01*
X137285428Y-103079571D01*
X137228285Y-103108142D01*
X137199714Y-103108142D01*
X137142571Y-103079571D01*
X137114000Y-103051000D01*
X137085428Y-102993857D01*
X137085428Y-102879571D01*
X137114000Y-102822428D01*
X137142571Y-102793857D01*
X137199714Y-102765285D01*
X137228285Y-102765285D01*
X137285428Y-102793857D01*
X137314000Y-102822428D01*
X137342571Y-102879571D01*
X137342571Y-102993857D01*
X137371142Y-103051000D01*
X137399714Y-103079571D01*
X137456857Y-103108142D01*
X137571142Y-103108142D01*
X137628285Y-103079571D01*
X137656857Y-103051000D01*
X137685428Y-102993857D01*
X137685428Y-102879571D01*
X137656857Y-102822428D01*
X137628285Y-102793857D01*
X137571142Y-102765285D01*
X137456857Y-102765285D01*
X137399714Y-102793857D01*
X137371142Y-102822428D01*
X137342571Y-102879571D01*
%TO.C,U9*%
D12*
X130873595Y-119086380D02*
X130873595Y-119895904D01*
X130921214Y-119991142D01*
X130968833Y-120038761D01*
X131064071Y-120086380D01*
X131254547Y-120086380D01*
X131349785Y-120038761D01*
X131397404Y-119991142D01*
X131445023Y-119895904D01*
X131445023Y-119086380D01*
X131968833Y-120086380D02*
X132159309Y-120086380D01*
X132254547Y-120038761D01*
X132302166Y-119991142D01*
X132397404Y-119848285D01*
X132445023Y-119657809D01*
X132445023Y-119276857D01*
X132397404Y-119181619D01*
X132349785Y-119134000D01*
X132254547Y-119086380D01*
X132064071Y-119086380D01*
X131968833Y-119134000D01*
X131921214Y-119181619D01*
X131873595Y-119276857D01*
X131873595Y-119514952D01*
X131921214Y-119610190D01*
X131968833Y-119657809D01*
X132064071Y-119705428D01*
X132254547Y-119705428D01*
X132349785Y-119657809D01*
X132397404Y-119610190D01*
X132445023Y-119514952D01*
%TD*%
M02*
