%TF.GenerationSoftware,KiCad,Pcbnew,5.1.9*%
%TF.CreationDate,2021-02-12T16:46:07+00:00*%
%TF.ProjectId,watch2,77617463-6832-42e6-9b69-6361645f7063,rev?*%
%TF.SameCoordinates,Original*%
%TF.FileFunction,Legend,Bot*%
%TF.FilePolarity,Positive*%
%FSLAX46Y46*%
G04 Gerber Fmt 4.6, Leading zero omitted, Abs format (unit mm)*
G04 Created by KiCad (PCBNEW 5.1.9) date 2021-02-12 16:46:07*
%MOMM*%
%LPD*%
G01*
G04 APERTURE LIST*
%ADD10C,0.150000*%
%ADD11C,0.100000*%
%ADD12C,0.050000*%
%ADD13C,0.200000*%
%ADD14C,0.127000*%
G04 APERTURE END LIST*
D10*
X135802738Y-108314476D02*
X135755119Y-108171619D01*
X135755119Y-107933523D01*
X135802738Y-107838285D01*
X135850357Y-107790666D01*
X135945595Y-107743047D01*
X136040833Y-107743047D01*
X136136071Y-107790666D01*
X136183690Y-107838285D01*
X136231309Y-107933523D01*
X136278928Y-108124000D01*
X136326547Y-108219238D01*
X136374166Y-108266857D01*
X136469404Y-108314476D01*
X136564642Y-108314476D01*
X136659880Y-108266857D01*
X136707500Y-108219238D01*
X136755119Y-108124000D01*
X136755119Y-107885904D01*
X136707500Y-107743047D01*
X135802738Y-106933523D02*
X135755119Y-107028761D01*
X135755119Y-107219238D01*
X135802738Y-107314476D01*
X135897976Y-107362095D01*
X136278928Y-107362095D01*
X136374166Y-107314476D01*
X136421785Y-107219238D01*
X136421785Y-107028761D01*
X136374166Y-106933523D01*
X136278928Y-106885904D01*
X136183690Y-106885904D01*
X136088452Y-107362095D01*
X135755119Y-106457333D02*
X136421785Y-106457333D01*
X136231309Y-106457333D02*
X136326547Y-106409714D01*
X136374166Y-106362095D01*
X136421785Y-106266857D01*
X136421785Y-106171619D01*
X135755119Y-105838285D02*
X136421785Y-105838285D01*
X136755119Y-105838285D02*
X136707500Y-105885904D01*
X136659880Y-105838285D01*
X136707500Y-105790666D01*
X136755119Y-105838285D01*
X136659880Y-105838285D01*
X135755119Y-104933523D02*
X136278928Y-104933523D01*
X136374166Y-104981142D01*
X136421785Y-105076380D01*
X136421785Y-105266857D01*
X136374166Y-105362095D01*
X135802738Y-104933523D02*
X135755119Y-105028761D01*
X135755119Y-105266857D01*
X135802738Y-105362095D01*
X135897976Y-105409714D01*
X135993214Y-105409714D01*
X136088452Y-105362095D01*
X136136071Y-105266857D01*
X136136071Y-105028761D01*
X136183690Y-104933523D01*
X135755119Y-104314476D02*
X135802738Y-104409714D01*
X135897976Y-104457333D01*
X136755119Y-104457333D01*
X135755119Y-103171619D02*
X136755119Y-103171619D01*
X135755119Y-102600190D01*
X136755119Y-102600190D01*
X136421785Y-101695428D02*
X135755119Y-101695428D01*
X136421785Y-102124000D02*
X135897976Y-102124000D01*
X135802738Y-102076380D01*
X135755119Y-101981142D01*
X135755119Y-101838285D01*
X135802738Y-101743047D01*
X135850357Y-101695428D01*
X135755119Y-101219238D02*
X136421785Y-101219238D01*
X136326547Y-101219238D02*
X136374166Y-101171619D01*
X136421785Y-101076380D01*
X136421785Y-100933523D01*
X136374166Y-100838285D01*
X136278928Y-100790666D01*
X135755119Y-100790666D01*
X136278928Y-100790666D02*
X136374166Y-100743047D01*
X136421785Y-100647809D01*
X136421785Y-100504952D01*
X136374166Y-100409714D01*
X136278928Y-100362095D01*
X135755119Y-100362095D01*
X135755119Y-99885904D02*
X136755119Y-99885904D01*
X136374166Y-99885904D02*
X136421785Y-99790666D01*
X136421785Y-99600190D01*
X136374166Y-99504952D01*
X136326547Y-99457333D01*
X136231309Y-99409714D01*
X135945595Y-99409714D01*
X135850357Y-99457333D01*
X135802738Y-99504952D01*
X135755119Y-99600190D01*
X135755119Y-99790666D01*
X135802738Y-99885904D01*
X135802738Y-98600190D02*
X135755119Y-98695428D01*
X135755119Y-98885904D01*
X135802738Y-98981142D01*
X135897976Y-99028761D01*
X136278928Y-99028761D01*
X136374166Y-98981142D01*
X136421785Y-98885904D01*
X136421785Y-98695428D01*
X136374166Y-98600190D01*
X136278928Y-98552571D01*
X136183690Y-98552571D01*
X136088452Y-99028761D01*
X135755119Y-98124000D02*
X136421785Y-98124000D01*
X136231309Y-98124000D02*
X136326547Y-98076380D01*
X136374166Y-98028761D01*
X136421785Y-97933523D01*
X136421785Y-97838285D01*
D11*
G36*
X135191500Y-109220000D02*
G01*
X130238500Y-109220000D01*
X130238500Y-96583500D01*
X135191500Y-96583500D01*
X135191500Y-109220000D01*
G37*
X135191500Y-109220000D02*
X130238500Y-109220000D01*
X130238500Y-96583500D01*
X135191500Y-96583500D01*
X135191500Y-109220000D01*
X129819428Y-88349142D02*
X130276571Y-88349142D01*
X133959571Y-88307857D02*
X133502428Y-88307857D01*
X133731000Y-88536428D02*
X133731000Y-88079285D01*
D12*
%TO.C,U7*%
X144976000Y-92600000D02*
X144976000Y-110600000D01*
X170506000Y-92600000D02*
X144976000Y-92600000D01*
X170506000Y-110600000D02*
X170506000Y-92600000D01*
X144976000Y-110600000D02*
X170506000Y-110600000D01*
D10*
X170561000Y-110617000D02*
X176530000Y-110617000D01*
X170561000Y-92583000D02*
X176530000Y-92583000D01*
X176530000Y-92583000D02*
X176530000Y-110617000D01*
D13*
%TO.C,J1*%
X155473000Y-113197000D02*
G75*
G03*
X155473000Y-113197000I-100000J0D01*
G01*
D14*
X156743000Y-116502000D02*
X156743000Y-117267000D01*
X156743000Y-120747000D02*
X156743000Y-120327000D01*
X147803000Y-120747000D02*
X156743000Y-120747000D01*
X147803000Y-120327000D02*
X147803000Y-120747000D01*
X147803000Y-116502000D02*
X147803000Y-117267000D01*
D13*
%TO.C,D5*%
X130698000Y-85337000D02*
X132998000Y-85337000D01*
X129348000Y-87637000D02*
X132998000Y-87637000D01*
%TO.C,U7*%
D11*
X173304142Y-111431428D02*
X173304142Y-111917142D01*
X173275571Y-111974285D01*
X173247000Y-112002857D01*
X173189857Y-112031428D01*
X173075571Y-112031428D01*
X173018428Y-112002857D01*
X172989857Y-111974285D01*
X172961285Y-111917142D01*
X172961285Y-111431428D01*
X172732714Y-111431428D02*
X172332714Y-111431428D01*
X172589857Y-112031428D01*
%TO.C,J1*%
X153616000Y-113209428D02*
X153616000Y-113638000D01*
X153644571Y-113723714D01*
X153701714Y-113780857D01*
X153787428Y-113809428D01*
X153844571Y-113809428D01*
X153016000Y-113809428D02*
X153358857Y-113809428D01*
X153187428Y-113809428D02*
X153187428Y-113209428D01*
X153244571Y-113295142D01*
X153301714Y-113352285D01*
X153358857Y-113380857D01*
%TO.C,D4*%
X141539857Y-80281428D02*
X141539857Y-79681428D01*
X141397000Y-79681428D01*
X141311285Y-79710000D01*
X141254142Y-79767142D01*
X141225571Y-79824285D01*
X141197000Y-79938571D01*
X141197000Y-80024285D01*
X141225571Y-80138571D01*
X141254142Y-80195714D01*
X141311285Y-80252857D01*
X141397000Y-80281428D01*
X141539857Y-80281428D01*
X140682714Y-79881428D02*
X140682714Y-80281428D01*
X140825571Y-79652857D02*
X140968428Y-80081428D01*
X140597000Y-80081428D01*
%TO.C,D5*%
X132268857Y-88663428D02*
X132268857Y-88063428D01*
X132126000Y-88063428D01*
X132040285Y-88092000D01*
X131983142Y-88149142D01*
X131954571Y-88206285D01*
X131926000Y-88320571D01*
X131926000Y-88406285D01*
X131954571Y-88520571D01*
X131983142Y-88577714D01*
X132040285Y-88634857D01*
X132126000Y-88663428D01*
X132268857Y-88663428D01*
X131383142Y-88063428D02*
X131668857Y-88063428D01*
X131697428Y-88349142D01*
X131668857Y-88320571D01*
X131611714Y-88292000D01*
X131468857Y-88292000D01*
X131411714Y-88320571D01*
X131383142Y-88349142D01*
X131354571Y-88406285D01*
X131354571Y-88549142D01*
X131383142Y-88606285D01*
X131411714Y-88634857D01*
X131468857Y-88663428D01*
X131611714Y-88663428D01*
X131668857Y-88634857D01*
X131697428Y-88606285D01*
%TO.C,J8*%
X141297000Y-80570428D02*
X141297000Y-80999000D01*
X141325571Y-81084714D01*
X141382714Y-81141857D01*
X141468428Y-81170428D01*
X141525571Y-81170428D01*
X140925571Y-80827571D02*
X140982714Y-80799000D01*
X141011285Y-80770428D01*
X141039857Y-80713285D01*
X141039857Y-80684714D01*
X141011285Y-80627571D01*
X140982714Y-80599000D01*
X140925571Y-80570428D01*
X140811285Y-80570428D01*
X140754142Y-80599000D01*
X140725571Y-80627571D01*
X140697000Y-80684714D01*
X140697000Y-80713285D01*
X140725571Y-80770428D01*
X140754142Y-80799000D01*
X140811285Y-80827571D01*
X140925571Y-80827571D01*
X140982714Y-80856142D01*
X141011285Y-80884714D01*
X141039857Y-80941857D01*
X141039857Y-81056142D01*
X141011285Y-81113285D01*
X140982714Y-81141857D01*
X140925571Y-81170428D01*
X140811285Y-81170428D01*
X140754142Y-81141857D01*
X140725571Y-81113285D01*
X140697000Y-81056142D01*
X140697000Y-80941857D01*
X140725571Y-80884714D01*
X140754142Y-80856142D01*
X140811285Y-80827571D01*
%TD*%
M02*
