M48
; DRILL file {KiCad 5.1.9} date Fri Feb 12 16:46:11 2021
; FORMAT={-:-/ absolute / inch / decimal}
; #@! TF.CreationDate,2021-02-12T16:46:11+00:00
; #@! TF.GenerationSoftware,Kicad,Pcbnew,5.1.9
FMAT,2
INCH
T1C0.0118
T2C0.0157
T3C0.0236
T4C0.0256
T5C0.0315
T6C0.0354
T7C0.0394
T8C0.0984
T9C0.0236
T10C0.0248
T11C0.0315
%
G90
G05
T1
X6.3034Y-3.937
X6.3034Y-3.9764
X6.3034Y-4.0157
X6.3034Y-4.0551
X6.3034Y-4.0945
X6.3428Y-3.937
X6.3428Y-3.9764
X6.3428Y-4.0157
X6.3428Y-4.0551
X6.3428Y-4.0945
X6.3821Y-3.937
X6.3821Y-3.9764
X6.3821Y-4.0157
X6.3821Y-4.0551
X6.3821Y-4.0945
X6.4215Y-3.937
X6.4215Y-3.9764
X6.4215Y-4.0157
X6.4215Y-4.0551
X6.4215Y-4.0945
X6.4609Y-3.937
X6.4609Y-3.9764
X6.4609Y-4.0157
X6.4609Y-4.0551
X6.4609Y-4.0945
T2
X5.0825Y-4.3225
X5.0825Y-4.44
X5.0825Y-4.5219
X5.085Y-4.175
X5.1575Y-4.555
X5.175Y-3.855
X5.175Y-4.4425
X5.1775Y-3.5975
X5.1775Y-4.26
X5.2326Y-3.6376
X5.24Y-3.465
X5.2425Y-4.5125
X5.2875Y-3.5175
X5.2875Y-3.5575
X5.3Y-3.405
X5.3125Y-4.515
X5.325Y-3.9325
X5.34Y-3.855
X5.3525Y-4.2575
X5.37Y-4.425
X5.37Y-4.4575
X5.37Y-4.49
X5.3975Y-4.085
X5.4025Y-4.1975
X5.425Y-4.1275
X5.44Y-4.16
X5.445Y-4.0125
X5.5125Y-3.8525
X5.515Y-3.55
X5.54Y-4.1975
X5.555Y-4.4575
X5.565Y-4.0125
X5.565Y-4.665
X5.5975Y-4.615
X5.5975Y-4.6475
X5.605Y-4.0125
X5.61Y-4.0725
X5.61Y-4.1175
X5.64Y-4.5675
X5.6475Y-4.24
X5.6725Y-4.5675
X5.675Y-3.925
X5.68Y-4.24
X5.6825Y-3.55
X5.6883Y-4.365
X5.7125Y-4.615
X5.725Y-4.1975
X5.7275Y-4.4875
X5.77Y-4.27
X5.775Y-4.545
X5.78Y-4.215
X5.7925Y-3.93
X5.7925Y-3.97
X5.7925Y-4.0025
X5.7925Y-4.035
X5.7925Y-4.0675
X5.7925Y-4.1
X5.815Y-4.13
X5.8151Y-3.7363
X5.8275Y-4.2775
X5.8375Y-4.4325
X5.85Y-4.055
X5.85Y-4.16
X5.85Y-4.1925
X5.85Y-4.225
X5.8525Y-3.815
X5.8625Y-4.46
X5.8725Y-4.1325
X5.8836Y-3.8794
X5.885Y-4.055
X5.9025Y-4.32
X5.905Y-3.9125
X5.915Y-4.5625
X5.925Y-4.43
X5.9475Y-4.5725
X5.9575Y-3.9125
X5.9575Y-4.615
X5.965Y-4.4375
X5.98Y-4.2725
X5.98Y-4.705
X6.0025Y-3.9125
X6.005Y-4.48
X6.01Y-4.5725
X6.02Y-3.745
X6.02Y-3.7775
X6.03Y-4.4225
X6.0475Y-4.5625
X6.055Y-3.645
X6.075Y-3.8875
X6.075Y-3.92
X6.0875Y-3.9751
X6.0925Y-4.105
X6.0925Y-4.1375
X6.1044Y-4.7125
X6.14Y-4.59
X6.1575Y-4.105
X6.165Y-4.0375
X6.175Y-4.2525
X6.19Y-4.59
X6.195Y-4.1375
X6.205Y-3.6425
X6.21Y-3.745
X6.21Y-3.7775
X6.2225Y-4.0375
X6.225Y-3.56
X6.25Y-4.1225
X6.25Y-4.1575
X6.2875Y-3.8664
X6.305Y-4.2975
X6.325Y-4.6175
X6.3325Y-4.4325
X6.3575Y-4.17
X6.365Y-3.54
X6.385Y-3.86
X6.385Y-4.645
X6.4575Y-4.645
X6.46Y-3.83
X6.4925Y-4.5275
X6.505Y-4.4575
X6.505Y-4.575
X6.525Y-3.8975
X6.525Y-3.9725
X6.5424Y-4.4867
X6.55Y-4.1951
X6.57Y-3.95
X6.6Y-3.83
X6.615Y-4.25
X6.6369Y-4.1334
X6.65Y-4.325
X6.6525Y-4.38
X6.6575Y-3.645
X6.675Y-4.1825
X6.6925Y-4.335
X6.73Y-4.5375
X6.745Y-4.4275
X6.8325Y-4.465
T3
X5.46Y-3.34
X5.505Y-3.34
X5.555Y-3.34
X5.605Y-3.34
X5.65Y-3.34
T4
X5.76Y-4.6
X5.76Y-4.65
X5.76Y-4.7
T5
X6.8338Y-4.6
X6.9125Y-4.6
T6
X5.08Y-4.615
X5.18Y-4.615
X5.28Y-4.615
T7
X5.18Y-3.75
X5.18Y-4.35
X5.28Y-3.75
X5.28Y-4.35
X5.38Y-3.75
X5.38Y-4.35
X5.5075Y-3.2675
X5.55Y-3.455
X5.6075Y-3.2675
X5.65Y-3.455
X5.75Y-3.455
X5.85Y-3.455
X5.95Y-3.455
X6.05Y-3.455
X6.15Y-3.455
X6.25Y-3.455
X6.35Y-3.455
X6.45Y-3.455
X6.55Y-3.455
T8
X5.399Y-3.4535
X5.399Y-4.6535
X6.699Y-3.4535
X6.699Y-4.6535
T9
X5.8769Y-4.555
T10
X5.8769Y-4.555
X6.1131Y-4.555
T11
X5.0825Y-4.4825
T4
G00X5.8249Y-4.5461
M15
G01X5.8249Y-4.5068
M16
G05
G00X5.8249Y-4.7026
M15
G01X5.8249Y-4.6515
M16
G05
G00X6.1651Y-4.5461
M15
G01X6.1651Y-4.5068
M16
G05
G00X6.1651Y-4.7026
M15
G01X6.1651Y-4.6515
M16
G05
T0
M30
