%TF.GenerationSoftware,KiCad,Pcbnew,5.1.9*%
%TF.CreationDate,2021-02-12T16:46:07+00:00*%
%TF.ProjectId,watch2,77617463-6832-42e6-9b69-6361645f7063,rev?*%
%TF.SameCoordinates,Original*%
%TF.FileFunction,Legend,Top*%
%TF.FilePolarity,Positive*%
%FSLAX46Y46*%
G04 Gerber Fmt 4.6, Leading zero omitted, Abs format (unit mm)*
G04 Created by KiCad (PCBNEW 5.1.9) date 2021-02-12 16:46:07*
%MOMM*%
%LPD*%
G01*
G04 APERTURE LIST*
%ADD10C,0.120000*%
%ADD11C,0.150000*%
%ADD12C,0.400000*%
%ADD13C,0.100000*%
%ADD14C,0.050000*%
%ADD15C,0.203200*%
%ADD16C,0.127000*%
G04 APERTURE END LIST*
D10*
X140768605Y-101092000D02*
G75*
G03*
X140768605Y-101092000I-179605J0D01*
G01*
X150896609Y-105918000D02*
G75*
G03*
X150896609Y-105918000I-401609J0D01*
G01*
D11*
X168495880Y-98814380D02*
X168495880Y-97814380D01*
X168495880Y-98195333D02*
X168591119Y-98147714D01*
X168781595Y-98147714D01*
X168876833Y-98195333D01*
X168924452Y-98242952D01*
X168972071Y-98338190D01*
X168972071Y-98623904D01*
X168924452Y-98719142D01*
X168876833Y-98766761D01*
X168781595Y-98814380D01*
X168591119Y-98814380D01*
X168495880Y-98766761D01*
X169305404Y-98147714D02*
X169543500Y-98814380D01*
X169781595Y-98147714D02*
X169543500Y-98814380D01*
X169448261Y-99052476D01*
X169400642Y-99100095D01*
X169305404Y-99147714D01*
X171353023Y-98814380D02*
X171353023Y-98290571D01*
X171305404Y-98195333D01*
X171210166Y-98147714D01*
X171019690Y-98147714D01*
X170924452Y-98195333D01*
X171353023Y-98766761D02*
X171257785Y-98814380D01*
X171019690Y-98814380D01*
X170924452Y-98766761D01*
X170876833Y-98671523D01*
X170876833Y-98576285D01*
X170924452Y-98481047D01*
X171019690Y-98433428D01*
X171257785Y-98433428D01*
X171353023Y-98385809D01*
X171686357Y-98147714D02*
X172067309Y-98147714D01*
X171829214Y-97814380D02*
X171829214Y-98671523D01*
X171876833Y-98766761D01*
X171972071Y-98814380D01*
X172067309Y-98814380D01*
X172829214Y-98766761D02*
X172733976Y-98814380D01*
X172543500Y-98814380D01*
X172448261Y-98766761D01*
X172400642Y-98719142D01*
X172353023Y-98623904D01*
X172353023Y-98338190D01*
X172400642Y-98242952D01*
X172448261Y-98195333D01*
X172543500Y-98147714D01*
X172733976Y-98147714D01*
X172829214Y-98195333D01*
X173114928Y-98147714D02*
X173495880Y-98147714D01*
X173257785Y-97814380D02*
X173257785Y-98671523D01*
X173305404Y-98766761D01*
X173400642Y-98814380D01*
X173495880Y-98814380D01*
X173733976Y-98147714D02*
X173924452Y-98814380D01*
X174114928Y-98338190D01*
X174305404Y-98814380D01*
X174495880Y-98147714D01*
X175019690Y-98814380D02*
X174924452Y-98766761D01*
X174876833Y-98719142D01*
X174829214Y-98623904D01*
X174829214Y-98338190D01*
X174876833Y-98242952D01*
X174924452Y-98195333D01*
X175019690Y-98147714D01*
X175162547Y-98147714D01*
X175257785Y-98195333D01*
X175305404Y-98242952D01*
X175353023Y-98338190D01*
X175353023Y-98623904D01*
X175305404Y-98719142D01*
X175257785Y-98766761D01*
X175162547Y-98814380D01*
X175019690Y-98814380D01*
X172543500Y-99797714D02*
X172781595Y-100464380D01*
X173019690Y-99797714D01*
X173924452Y-100464380D02*
X173353023Y-100464380D01*
X173638738Y-100464380D02*
X173638738Y-99464380D01*
X173543500Y-99607238D01*
X173448261Y-99702476D01*
X173353023Y-99750095D01*
X174353023Y-100369142D02*
X174400642Y-100416761D01*
X174353023Y-100464380D01*
X174305404Y-100416761D01*
X174353023Y-100369142D01*
X174353023Y-100464380D01*
X175019690Y-99464380D02*
X175114928Y-99464380D01*
X175210166Y-99512000D01*
X175257785Y-99559619D01*
X175305404Y-99654857D01*
X175353023Y-99845333D01*
X175353023Y-100083428D01*
X175305404Y-100273904D01*
X175257785Y-100369142D01*
X175210166Y-100416761D01*
X175114928Y-100464380D01*
X175019690Y-100464380D01*
X174924452Y-100416761D01*
X174876833Y-100369142D01*
X174829214Y-100273904D01*
X174781595Y-100083428D01*
X174781595Y-99845333D01*
X174829214Y-99654857D01*
X174876833Y-99559619D01*
X174924452Y-99512000D01*
X175019690Y-99464380D01*
D12*
X155462380Y-94773857D02*
X155890952Y-97440523D01*
X156890952Y-95535761D01*
X157414761Y-97440523D01*
X158510000Y-94773857D01*
X161414761Y-97440523D02*
X161676666Y-95345285D01*
X161533809Y-94964333D01*
X161176666Y-94773857D01*
X160414761Y-94773857D01*
X160010000Y-94964333D01*
X161438571Y-97250047D02*
X161033809Y-97440523D01*
X160081428Y-97440523D01*
X159724285Y-97250047D01*
X159581428Y-96869095D01*
X159629047Y-96488142D01*
X159867142Y-96107190D01*
X160271904Y-95916714D01*
X161224285Y-95916714D01*
X161629047Y-95726238D01*
X163081428Y-94773857D02*
X164605238Y-94773857D01*
X163819523Y-93440523D02*
X163390952Y-96869095D01*
X163533809Y-97250047D01*
X163890952Y-97440523D01*
X164271904Y-97440523D01*
X167343333Y-97250047D02*
X166938571Y-97440523D01*
X166176666Y-97440523D01*
X165819523Y-97250047D01*
X165652857Y-97059571D01*
X165510000Y-96678619D01*
X165652857Y-95535761D01*
X165890952Y-95154809D01*
X166105238Y-94964333D01*
X166510000Y-94773857D01*
X167271904Y-94773857D01*
X167629047Y-94964333D01*
X169033809Y-97440523D02*
X169533809Y-93440523D01*
X170748095Y-97440523D02*
X171010000Y-95345285D01*
X170867142Y-94964333D01*
X170510000Y-94773857D01*
X169938571Y-94773857D01*
X169533809Y-94964333D01*
X169319523Y-95154809D01*
X172914761Y-93821476D02*
X173129047Y-93631000D01*
X173533809Y-93440523D01*
X174486190Y-93440523D01*
X174843333Y-93631000D01*
X175010000Y-93821476D01*
X175152857Y-94202428D01*
X175105238Y-94583380D01*
X174843333Y-95154809D01*
X172271904Y-97440523D01*
X174748095Y-97440523D01*
D13*
X167699500Y-120050500D02*
X167732833Y-120083833D01*
X167766166Y-120183833D01*
X167766166Y-120250500D01*
X167732833Y-120350500D01*
X167666166Y-120417166D01*
X167599500Y-120450500D01*
X167466166Y-120483833D01*
X167366166Y-120483833D01*
X167232833Y-120450500D01*
X167166166Y-120417166D01*
X167099500Y-120350500D01*
X167066166Y-120250500D01*
X167066166Y-120183833D01*
X167099500Y-120083833D01*
X167132833Y-120050500D01*
X167766166Y-119750500D02*
X167066166Y-119750500D01*
X167766166Y-119450500D02*
X167399500Y-119450500D01*
X167332833Y-119483833D01*
X167299500Y-119550500D01*
X167299500Y-119650500D01*
X167332833Y-119717166D01*
X167366166Y-119750500D01*
X167766166Y-118817166D02*
X167399500Y-118817166D01*
X167332833Y-118850500D01*
X167299500Y-118917166D01*
X167299500Y-119050500D01*
X167332833Y-119117166D01*
X167732833Y-118817166D02*
X167766166Y-118883833D01*
X167766166Y-119050500D01*
X167732833Y-119117166D01*
X167666166Y-119150500D01*
X167599500Y-119150500D01*
X167532833Y-119117166D01*
X167499500Y-119050500D01*
X167499500Y-118883833D01*
X167466166Y-118817166D01*
X167766166Y-118483833D02*
X167299500Y-118483833D01*
X167432833Y-118483833D02*
X167366166Y-118450500D01*
X167332833Y-118417166D01*
X167299500Y-118350500D01*
X167299500Y-118283833D01*
X167299500Y-117750500D02*
X167866166Y-117750500D01*
X167932833Y-117783833D01*
X167966166Y-117817166D01*
X167999500Y-117883833D01*
X167999500Y-117983833D01*
X167966166Y-118050500D01*
X167732833Y-117750500D02*
X167766166Y-117817166D01*
X167766166Y-117950500D01*
X167732833Y-118017166D01*
X167699500Y-118050500D01*
X167632833Y-118083833D01*
X167432833Y-118083833D01*
X167366166Y-118050500D01*
X167332833Y-118017166D01*
X167299500Y-117950500D01*
X167299500Y-117817166D01*
X167332833Y-117750500D01*
X167766166Y-117417166D02*
X167299500Y-117417166D01*
X167066166Y-117417166D02*
X167099500Y-117450500D01*
X167132833Y-117417166D01*
X167099500Y-117383833D01*
X167066166Y-117417166D01*
X167132833Y-117417166D01*
X167299500Y-117083833D02*
X167766166Y-117083833D01*
X167366166Y-117083833D02*
X167332833Y-117050500D01*
X167299500Y-116983833D01*
X167299500Y-116883833D01*
X167332833Y-116817166D01*
X167399500Y-116783833D01*
X167766166Y-116783833D01*
X167299500Y-116150500D02*
X167866166Y-116150500D01*
X167932833Y-116183833D01*
X167966166Y-116217166D01*
X167999500Y-116283833D01*
X167999500Y-116383833D01*
X167966166Y-116450500D01*
X167732833Y-116150500D02*
X167766166Y-116217166D01*
X167766166Y-116350500D01*
X167732833Y-116417166D01*
X167699500Y-116450500D01*
X167632833Y-116483833D01*
X167432833Y-116483833D01*
X167366166Y-116450500D01*
X167332833Y-116417166D01*
X167299500Y-116350500D01*
X167299500Y-116217166D01*
X167332833Y-116150500D01*
D10*
X170434000Y-92456000D02*
X176530000Y-92456000D01*
X170434000Y-110680500D02*
X170434000Y-92456000D01*
X176530000Y-110744000D02*
X170434000Y-110680500D01*
D11*
X156114904Y-113418880D02*
X155781571Y-112942690D01*
X155543476Y-113418880D02*
X155543476Y-112418880D01*
X155924428Y-112418880D01*
X156019666Y-112466500D01*
X156067285Y-112514119D01*
X156114904Y-112609357D01*
X156114904Y-112752214D01*
X156067285Y-112847452D01*
X156019666Y-112895071D01*
X155924428Y-112942690D01*
X155543476Y-112942690D01*
X156924428Y-113371261D02*
X156829190Y-113418880D01*
X156638714Y-113418880D01*
X156543476Y-113371261D01*
X156495857Y-113276023D01*
X156495857Y-112895071D01*
X156543476Y-112799833D01*
X156638714Y-112752214D01*
X156829190Y-112752214D01*
X156924428Y-112799833D01*
X156972047Y-112895071D01*
X156972047Y-112990309D01*
X156495857Y-113085547D01*
X157353000Y-113371261D02*
X157448238Y-113418880D01*
X157638714Y-113418880D01*
X157733952Y-113371261D01*
X157781571Y-113276023D01*
X157781571Y-113228404D01*
X157733952Y-113133166D01*
X157638714Y-113085547D01*
X157495857Y-113085547D01*
X157400619Y-113037928D01*
X157353000Y-112942690D01*
X157353000Y-112895071D01*
X157400619Y-112799833D01*
X157495857Y-112752214D01*
X157638714Y-112752214D01*
X157733952Y-112799833D01*
X158591095Y-113371261D02*
X158495857Y-113418880D01*
X158305380Y-113418880D01*
X158210142Y-113371261D01*
X158162523Y-113276023D01*
X158162523Y-112895071D01*
X158210142Y-112799833D01*
X158305380Y-112752214D01*
X158495857Y-112752214D01*
X158591095Y-112799833D01*
X158638714Y-112895071D01*
X158638714Y-112990309D01*
X158162523Y-113085547D01*
X158924428Y-112752214D02*
X159305380Y-112752214D01*
X159067285Y-112418880D02*
X159067285Y-113276023D01*
X159114904Y-113371261D01*
X159210142Y-113418880D01*
X159305380Y-113418880D01*
X147026333Y-112212380D02*
X146693000Y-111736190D01*
X146454904Y-112212380D02*
X146454904Y-111212380D01*
X146835857Y-111212380D01*
X146931095Y-111260000D01*
X146978714Y-111307619D01*
X147026333Y-111402857D01*
X147026333Y-111545714D01*
X146978714Y-111640952D01*
X146931095Y-111688571D01*
X146835857Y-111736190D01*
X146454904Y-111736190D01*
X147359666Y-111212380D02*
X148026333Y-112212380D01*
X148026333Y-111212380D02*
X147359666Y-112212380D01*
X146558095Y-109942380D02*
X147129523Y-109942380D01*
X146843809Y-110942380D02*
X146843809Y-109942380D01*
X147367619Y-109942380D02*
X148034285Y-110942380D01*
X148034285Y-109942380D02*
X147367619Y-110942380D01*
D14*
X135871267Y-93482474D02*
X131572000Y-93472000D01*
X136154474Y-112794733D02*
X131844733Y-112776000D01*
X139700000Y-108966000D02*
X139700000Y-97028000D01*
X128026474Y-97300733D02*
X128016000Y-109230474D01*
X131844813Y-112775994D02*
G75*
G02*
X128016000Y-109230474I-272813J3545520D01*
G01*
X139699994Y-108965920D02*
G75*
G02*
X136154474Y-112794733I-3545520J-272813D01*
G01*
X135871187Y-93482480D02*
G75*
G02*
X139700000Y-97028000I272813J-3545520D01*
G01*
X128026480Y-97300813D02*
G75*
G02*
X131572000Y-93472000I3545520J272813D01*
G01*
X167614600Y-90258900D02*
X170154600Y-90258900D01*
X172694600Y-87718900D02*
G75*
G02*
X170154600Y-90258900I-2540000J0D01*
G01*
X170154600Y-85178900D02*
G75*
G02*
X172694600Y-87718900I0J-2540000D01*
G01*
X170154600Y-85178900D02*
X137134600Y-85178900D01*
X134594600Y-87718900D02*
G75*
G02*
X137134600Y-85178900I2540000J0D01*
G01*
X137134600Y-90258900D02*
G75*
G02*
X134594600Y-87718900I0J2540000D01*
G01*
X137134600Y-90258900D02*
X139674600Y-90258900D01*
X139674600Y-90258900D02*
X139674600Y-115658900D01*
X139674600Y-115658900D02*
X137134600Y-115658900D01*
X134594600Y-118198900D02*
G75*
G02*
X137134600Y-115658900I2540000J0D01*
G01*
X137134600Y-120738900D02*
G75*
G02*
X134594600Y-118198900I0J2540000D01*
G01*
X136118600Y-120738900D02*
X169138600Y-120738900D01*
X172694600Y-118198900D02*
G75*
G02*
X170154600Y-120738900I-2540000J0D01*
G01*
X170154600Y-115658900D02*
G75*
G02*
X172694600Y-118198900I0J-2540000D01*
G01*
X170154600Y-115658900D02*
X167614600Y-115658900D01*
X167614600Y-115658900D02*
X167614600Y-90258900D01*
D10*
%TO.C,IO0*%
X176221000Y-91250000D02*
X176221000Y-90325000D01*
X172521000Y-91250000D02*
X172521000Y-86550000D01*
X174096000Y-86450000D02*
X174646000Y-86450000D01*
X174096000Y-91350000D02*
X174646000Y-91350000D01*
X176221000Y-87475000D02*
X176221000Y-86550000D01*
%TO.C,R28*%
X136535748Y-90174500D02*
X139308252Y-90174500D01*
X136535748Y-93594500D02*
X139308252Y-93594500D01*
%TO.C,R32*%
X151992000Y-91085936D02*
X151992000Y-91540064D01*
X150522000Y-91085936D02*
X150522000Y-91540064D01*
%TO.C,J4*%
X137982000Y-93920000D02*
X137982000Y-95250000D01*
X136652000Y-93920000D02*
X137982000Y-93920000D01*
X135382000Y-93920000D02*
X135382000Y-96580000D01*
X135382000Y-96580000D02*
X130242000Y-96580000D01*
X135382000Y-93920000D02*
X130242000Y-93920000D01*
X130242000Y-93920000D02*
X130242000Y-96580000D01*
%TO.C,J2*%
X128252000Y-88928500D02*
X128252000Y-92808500D01*
X132722000Y-93978500D02*
X132722000Y-92928500D01*
X130222000Y-93978500D02*
X132722000Y-93978500D01*
X132722000Y-88808500D02*
X133712000Y-88808500D01*
X132722000Y-87758500D02*
X132722000Y-88808500D01*
X130222000Y-87758500D02*
X132722000Y-87758500D01*
%TO.C,U6*%
X151667500Y-106813000D02*
X153357500Y-106813000D01*
X151667500Y-107088000D02*
X151667500Y-106813000D01*
X148907500Y-107088000D02*
X151667500Y-107088000D01*
X146147500Y-107088000D02*
X146147500Y-106813000D01*
X148907500Y-107088000D02*
X146147500Y-107088000D01*
X151667500Y-99668000D02*
X151667500Y-99943000D01*
X148907500Y-99668000D02*
X151667500Y-99668000D01*
X146147500Y-99668000D02*
X146147500Y-99943000D01*
X148907500Y-99668000D02*
X146147500Y-99668000D01*
D15*
%TO.C,U$7*%
X139134600Y-118198900D02*
G75*
G03*
X139134600Y-118198900I-2000000J0D01*
G01*
%TO.C,U$8*%
X172154600Y-118198900D02*
G75*
G03*
X172154600Y-118198900I-2000000J0D01*
G01*
%TO.C,U$9*%
X139134600Y-87718900D02*
G75*
G03*
X139134600Y-87718900I-2000000J0D01*
G01*
%TO.C,U$10*%
X172154600Y-87718900D02*
G75*
G03*
X172154600Y-87718900I-2000000J0D01*
G01*
D10*
%TO.C,BT1*%
X172517500Y-117900000D02*
X172517500Y-116840000D01*
X173577500Y-117900000D02*
X172517500Y-117900000D01*
X174577500Y-117900000D02*
X174577500Y-115780000D01*
X174577500Y-115780000D02*
X176637500Y-115780000D01*
X174577500Y-117900000D02*
X176637500Y-117900000D01*
X176637500Y-117900000D02*
X176637500Y-115780000D01*
%TO.C,C1*%
X145569000Y-113655248D02*
X145569000Y-114177752D01*
X147039000Y-113655248D02*
X147039000Y-114177752D01*
%TO.C,C2*%
X173855748Y-118264000D02*
X174378252Y-118264000D01*
X173855748Y-119734000D02*
X174378252Y-119734000D01*
%TO.C,C3*%
X157897500Y-110802748D02*
X157897500Y-111325252D01*
X156427500Y-110802748D02*
X156427500Y-111325252D01*
%TO.C,C4*%
X167286000Y-108638748D02*
X167286000Y-109161252D01*
X168756000Y-108638748D02*
X168756000Y-109161252D01*
%TO.C,C5*%
X155357500Y-102178752D02*
X155357500Y-101656248D01*
X153887500Y-102178752D02*
X153887500Y-101656248D01*
%TO.C,C6*%
X168333748Y-105500500D02*
X168856252Y-105500500D01*
X168333748Y-106970500D02*
X168856252Y-106970500D01*
%TO.C,C7*%
X137912248Y-106008500D02*
X138434752Y-106008500D01*
X137912248Y-107478500D02*
X138434752Y-107478500D01*
%TO.C,C8*%
X129830500Y-111007752D02*
X129830500Y-110485248D01*
X128360500Y-111007752D02*
X128360500Y-110485248D01*
%TO.C,D1*%
X165015500Y-117798500D02*
X165015500Y-120683500D01*
X165015500Y-120683500D02*
X166835500Y-120683500D01*
X166835500Y-120683500D02*
X166835500Y-117798500D01*
%TO.C,D2*%
X141635000Y-111781000D02*
X144520000Y-111781000D01*
X141635000Y-109961000D02*
X141635000Y-111781000D01*
X144520000Y-109961000D02*
X141635000Y-109961000D01*
%TO.C,D3*%
X141635000Y-113622500D02*
X144520000Y-113622500D01*
X141635000Y-111802500D02*
X141635000Y-113622500D01*
X144520000Y-111802500D02*
X141635000Y-111802500D01*
%TO.C,D4*%
X142633700Y-78435200D02*
X142176500Y-77978000D01*
X142430500Y-79756000D02*
X142176500Y-79756000D01*
X139839700Y-79857600D02*
X139839700Y-79552800D01*
X139687300Y-79705200D02*
X139992100Y-79705200D01*
X142634100Y-77978000D02*
X142634100Y-81478000D01*
X139484100Y-81478000D02*
X142634100Y-81478000D01*
X139484100Y-77978000D02*
X142634100Y-77978000D01*
X139484100Y-77978000D02*
X139484100Y-81478000D01*
%TO.C,J3*%
X147414000Y-120140000D02*
X146304000Y-120140000D01*
X147414000Y-119380000D02*
X147414000Y-120140000D01*
X145740529Y-118620000D02*
X145194000Y-118620000D01*
X147414000Y-118620000D02*
X146867471Y-118620000D01*
X145194000Y-118620000D02*
X145194000Y-116145000D01*
X147414000Y-118620000D02*
X147414000Y-116145000D01*
X145996470Y-116145000D02*
X145194000Y-116145000D01*
X147414000Y-116145000D02*
X146611530Y-116145000D01*
%TO.C,J5*%
X130242000Y-109160000D02*
X130242000Y-111820000D01*
X135382000Y-109160000D02*
X130242000Y-109160000D01*
X135382000Y-111820000D02*
X130242000Y-111820000D01*
X135382000Y-109160000D02*
X135382000Y-111820000D01*
X136652000Y-109160000D02*
X137982000Y-109160000D01*
X137982000Y-109160000D02*
X137982000Y-110490000D01*
%TO.C,J6*%
X139640000Y-89087000D02*
X139640000Y-87757000D01*
X140970000Y-89087000D02*
X139640000Y-89087000D01*
X142240000Y-89087000D02*
X142240000Y-86427000D01*
X142240000Y-86427000D02*
X167700000Y-86427000D01*
X142240000Y-89087000D02*
X167700000Y-89087000D01*
X167700000Y-89087000D02*
X167700000Y-86427000D01*
%TO.C,J7*%
X129226000Y-87880500D02*
X129226000Y-86550500D01*
X130556000Y-87880500D02*
X129226000Y-87880500D01*
X131826000Y-87880500D02*
X131826000Y-85220500D01*
X131826000Y-85220500D02*
X134426000Y-85220500D01*
X131826000Y-87880500D02*
X134426000Y-87880500D01*
X134426000Y-87880500D02*
X134426000Y-85220500D01*
%TO.C,J8*%
X143760500Y-84324500D02*
X143760500Y-81664500D01*
X141160500Y-84324500D02*
X143760500Y-84324500D01*
X141160500Y-81664500D02*
X143760500Y-81664500D01*
X141160500Y-84324500D02*
X141160500Y-81664500D01*
X139890500Y-84324500D02*
X138560500Y-84324500D01*
X138560500Y-84324500D02*
X138560500Y-82994500D01*
D16*
%TO.C,LS1*%
X135984000Y-104697000D02*
X135984000Y-101297000D01*
X128484000Y-101297000D02*
X128484000Y-104697000D01*
X133934000Y-99247000D02*
X130534000Y-99247000D01*
X130534000Y-106747000D02*
X133934000Y-106747000D01*
D13*
%TO.C,MK1*%
X131377500Y-112277500D02*
G75*
G03*
X131377500Y-112277500I-50000J0D01*
G01*
D16*
X128055500Y-112530500D02*
X129795500Y-112530500D01*
X128055500Y-115180500D02*
X128055500Y-112530500D01*
X129795500Y-115180500D02*
X128055500Y-115180500D01*
D10*
%TO.C,Q1*%
X170492500Y-111524000D02*
X170492500Y-112984000D01*
X167332500Y-111524000D02*
X167332500Y-113684000D01*
X167332500Y-111524000D02*
X168262500Y-111524000D01*
X170492500Y-111524000D02*
X169562500Y-111524000D01*
%TO.C,Q2*%
X147073500Y-92136500D02*
X147073500Y-90676500D01*
X150233500Y-92136500D02*
X150233500Y-89976500D01*
X150233500Y-92136500D02*
X149303500Y-92136500D01*
X147073500Y-92136500D02*
X148003500Y-92136500D01*
%TO.C,Q3*%
X147073500Y-96661000D02*
X148003500Y-96661000D01*
X150233500Y-96661000D02*
X149303500Y-96661000D01*
X150233500Y-96661000D02*
X150233500Y-94501000D01*
X147073500Y-96661000D02*
X147073500Y-95201000D01*
%TO.C,R1*%
X165200064Y-91032000D02*
X164745936Y-91032000D01*
X165200064Y-89562000D02*
X164745936Y-89562000D01*
%TO.C,R2*%
X155792500Y-101690436D02*
X155792500Y-102144564D01*
X157262500Y-101690436D02*
X157262500Y-102144564D01*
%TO.C,R3*%
X159104000Y-101650436D02*
X159104000Y-102104564D01*
X157634000Y-101650436D02*
X157634000Y-102104564D01*
%TO.C,R4*%
X150164436Y-116676500D02*
X150618564Y-116676500D01*
X150164436Y-118146500D02*
X150618564Y-118146500D01*
%TO.C,R5*%
X150180936Y-120432500D02*
X150635064Y-120432500D01*
X150180936Y-118962500D02*
X150635064Y-118962500D01*
%TO.C,R6*%
X161444000Y-118668436D02*
X161444000Y-119122564D01*
X162914000Y-118668436D02*
X162914000Y-119122564D01*
%TO.C,R7*%
X154365064Y-118146500D02*
X153910936Y-118146500D01*
X154365064Y-116676500D02*
X153910936Y-116676500D01*
%TO.C,R8*%
X154365064Y-120432500D02*
X153910936Y-120432500D01*
X154365064Y-118962500D02*
X153910936Y-118962500D01*
%TO.C,R9*%
X161444000Y-115001936D02*
X161444000Y-115456064D01*
X162914000Y-115001936D02*
X162914000Y-115456064D01*
%TO.C,R10*%
X163285500Y-119122564D02*
X163285500Y-118668436D01*
X164755500Y-119122564D02*
X164755500Y-118668436D01*
%TO.C,R11*%
X138861436Y-98525000D02*
X139315564Y-98525000D01*
X138861436Y-97055000D02*
X139315564Y-97055000D01*
%TO.C,R12*%
X134519936Y-97055000D02*
X134974064Y-97055000D01*
X134519936Y-98525000D02*
X134974064Y-98525000D01*
%TO.C,R13*%
X130328936Y-98525000D02*
X130783064Y-98525000D01*
X130328936Y-97055000D02*
X130783064Y-97055000D01*
%TO.C,R14*%
X176312500Y-112789064D02*
X176312500Y-112334936D01*
X174842500Y-112789064D02*
X174842500Y-112334936D01*
%TO.C,R15*%
X160110500Y-110921436D02*
X160110500Y-111375564D01*
X161580500Y-110921436D02*
X161580500Y-111375564D01*
%TO.C,R16*%
X159739000Y-110921436D02*
X159739000Y-111375564D01*
X158269000Y-110921436D02*
X158269000Y-111375564D01*
%TO.C,R17*%
X138012500Y-109818436D02*
X138012500Y-110272564D01*
X139482500Y-109818436D02*
X139482500Y-110272564D01*
%TO.C,R18*%
X141260500Y-109858436D02*
X141260500Y-110312564D01*
X139790500Y-109858436D02*
X139790500Y-110312564D01*
%TO.C,R19*%
X130352436Y-108875500D02*
X130806564Y-108875500D01*
X130352436Y-107405500D02*
X130806564Y-107405500D01*
%TO.C,R20*%
X134797436Y-107405500D02*
X135251564Y-107405500D01*
X134797436Y-108875500D02*
X135251564Y-108875500D01*
%TO.C,R21*%
X155992500Y-110921436D02*
X155992500Y-111375564D01*
X154522500Y-110921436D02*
X154522500Y-111375564D01*
%TO.C,R22*%
X168642936Y-114517500D02*
X169097064Y-114517500D01*
X168642936Y-115987500D02*
X169097064Y-115987500D01*
%TO.C,R23*%
X154151000Y-111392064D02*
X154151000Y-110937936D01*
X152681000Y-111392064D02*
X152681000Y-110937936D01*
%TO.C,R24*%
X141354436Y-107415000D02*
X141808564Y-107415000D01*
X141354436Y-105945000D02*
X141808564Y-105945000D01*
%TO.C,R25*%
X137948936Y-99087000D02*
X138403064Y-99087000D01*
X137948936Y-100557000D02*
X138403064Y-100557000D01*
%TO.C,R26*%
X141337936Y-99087000D02*
X141792064Y-99087000D01*
X141337936Y-100557000D02*
X141792064Y-100557000D01*
%TO.C,R27*%
X133797936Y-115352500D02*
X134252064Y-115352500D01*
X133797936Y-113882500D02*
X134252064Y-113882500D01*
%TO.C,R29*%
X133781436Y-113511000D02*
X134235564Y-113511000D01*
X133781436Y-112041000D02*
X134235564Y-112041000D01*
%TO.C,R30*%
X150522000Y-95617936D02*
X150522000Y-96072064D01*
X151992000Y-95617936D02*
X151992000Y-96072064D01*
%TO.C,R31*%
X142441248Y-93594500D02*
X145213752Y-93594500D01*
X142441248Y-90174500D02*
X145213752Y-90174500D01*
%TO.C,SW2*%
X157571500Y-114580500D02*
X157571500Y-119480500D01*
X161071500Y-119480500D02*
X161071500Y-114580500D01*
X159671500Y-119480500D02*
X158971500Y-119480500D01*
X159671500Y-114580500D02*
X158971500Y-114580500D01*
X161071500Y-114580500D02*
X160971500Y-114580500D01*
X157671500Y-114580500D02*
X157571500Y-114580500D01*
X157571500Y-119480500D02*
X157671500Y-119480500D01*
X161071500Y-119480500D02*
X160971500Y-119480500D01*
D11*
%TO.C,U1*%
X139769000Y-120432500D02*
X139769000Y-115157500D01*
X145169000Y-119157500D02*
X145169000Y-115157500D01*
D10*
%TO.C,U2*%
X163617000Y-114162000D02*
X163617000Y-116612000D01*
X166837000Y-115962000D02*
X166837000Y-114162000D01*
%TO.C,U3*%
X160885000Y-106522500D02*
X157885000Y-106522500D01*
X159385000Y-108742500D02*
X157885000Y-108742500D01*
%TO.C,U4*%
X173302500Y-110848500D02*
X170852500Y-110848500D01*
X171502500Y-114068500D02*
X173302500Y-114068500D01*
%TO.C,U5*%
X161905000Y-109029500D02*
X161905000Y-112479500D01*
X161905000Y-109029500D02*
X161905000Y-107079500D01*
X167025000Y-109029500D02*
X167025000Y-110979500D01*
X167025000Y-109029500D02*
X167025000Y-107079500D01*
%TO.C,U8*%
X141437000Y-102306500D02*
X141437000Y-101831500D01*
X138217000Y-105051500D02*
X138692000Y-105051500D01*
X138217000Y-104576500D02*
X138217000Y-105051500D01*
X138217000Y-101831500D02*
X138692000Y-101831500D01*
X138217000Y-102306500D02*
X138217000Y-101831500D01*
X141437000Y-105051500D02*
X140962000Y-105051500D01*
X141437000Y-104576500D02*
X141437000Y-105051500D01*
%TO.C,U9*%
X134172000Y-118721000D02*
X129082000Y-118721000D01*
X134172000Y-118381000D02*
X134172000Y-118721000D01*
X134172000Y-115711000D02*
X131572000Y-115711000D01*
X134172000Y-116061000D02*
X134172000Y-115711000D01*
X129472083Y-118722736D02*
G75*
G03*
X133672000Y-118721000I2099917J101736D01*
G01*
%TO.C,IO0*%
D13*
X172229428Y-91786000D02*
X171629428Y-91786000D01*
X171629428Y-91386000D02*
X171629428Y-91271714D01*
X171658000Y-91214571D01*
X171715142Y-91157428D01*
X171829428Y-91128857D01*
X172029428Y-91128857D01*
X172143714Y-91157428D01*
X172200857Y-91214571D01*
X172229428Y-91271714D01*
X172229428Y-91386000D01*
X172200857Y-91443142D01*
X172143714Y-91500285D01*
X172029428Y-91528857D01*
X171829428Y-91528857D01*
X171715142Y-91500285D01*
X171658000Y-91443142D01*
X171629428Y-91386000D01*
X171629428Y-90757428D02*
X171629428Y-90700285D01*
X171658000Y-90643142D01*
X171686571Y-90614571D01*
X171743714Y-90586000D01*
X171858000Y-90557428D01*
X172000857Y-90557428D01*
X172115142Y-90586000D01*
X172172285Y-90614571D01*
X172200857Y-90643142D01*
X172229428Y-90700285D01*
X172229428Y-90757428D01*
X172200857Y-90814571D01*
X172172285Y-90843142D01*
X172115142Y-90871714D01*
X172000857Y-90900285D01*
X171858000Y-90900285D01*
X171743714Y-90871714D01*
X171686571Y-90843142D01*
X171658000Y-90814571D01*
X171629428Y-90757428D01*
%TO.C,R28*%
X139568285Y-89615928D02*
X139368285Y-89330214D01*
X139225428Y-89615928D02*
X139225428Y-89015928D01*
X139454000Y-89015928D01*
X139511142Y-89044500D01*
X139539714Y-89073071D01*
X139568285Y-89130214D01*
X139568285Y-89215928D01*
X139539714Y-89273071D01*
X139511142Y-89301642D01*
X139454000Y-89330214D01*
X139225428Y-89330214D01*
X139796857Y-89073071D02*
X139825428Y-89044500D01*
X139882571Y-89015928D01*
X140025428Y-89015928D01*
X140082571Y-89044500D01*
X140111142Y-89073071D01*
X140139714Y-89130214D01*
X140139714Y-89187357D01*
X140111142Y-89273071D01*
X139768285Y-89615928D01*
X140139714Y-89615928D01*
X140482571Y-89273071D02*
X140425428Y-89244500D01*
X140396857Y-89215928D01*
X140368285Y-89158785D01*
X140368285Y-89130214D01*
X140396857Y-89073071D01*
X140425428Y-89044500D01*
X140482571Y-89015928D01*
X140596857Y-89015928D01*
X140654000Y-89044500D01*
X140682571Y-89073071D01*
X140711142Y-89130214D01*
X140711142Y-89158785D01*
X140682571Y-89215928D01*
X140654000Y-89244500D01*
X140596857Y-89273071D01*
X140482571Y-89273071D01*
X140425428Y-89301642D01*
X140396857Y-89330214D01*
X140368285Y-89387357D01*
X140368285Y-89501642D01*
X140396857Y-89558785D01*
X140425428Y-89587357D01*
X140482571Y-89615928D01*
X140596857Y-89615928D01*
X140654000Y-89587357D01*
X140682571Y-89558785D01*
X140711142Y-89501642D01*
X140711142Y-89387357D01*
X140682571Y-89330214D01*
X140654000Y-89301642D01*
X140596857Y-89273071D01*
%TO.C,R32*%
X152649285Y-90695428D02*
X152449285Y-90409714D01*
X152306428Y-90695428D02*
X152306428Y-90095428D01*
X152535000Y-90095428D01*
X152592142Y-90124000D01*
X152620714Y-90152571D01*
X152649285Y-90209714D01*
X152649285Y-90295428D01*
X152620714Y-90352571D01*
X152592142Y-90381142D01*
X152535000Y-90409714D01*
X152306428Y-90409714D01*
X152849285Y-90095428D02*
X153220714Y-90095428D01*
X153020714Y-90324000D01*
X153106428Y-90324000D01*
X153163571Y-90352571D01*
X153192142Y-90381142D01*
X153220714Y-90438285D01*
X153220714Y-90581142D01*
X153192142Y-90638285D01*
X153163571Y-90666857D01*
X153106428Y-90695428D01*
X152935000Y-90695428D01*
X152877857Y-90666857D01*
X152849285Y-90638285D01*
X153449285Y-90152571D02*
X153477857Y-90124000D01*
X153535000Y-90095428D01*
X153677857Y-90095428D01*
X153735000Y-90124000D01*
X153763571Y-90152571D01*
X153792142Y-90209714D01*
X153792142Y-90266857D01*
X153763571Y-90352571D01*
X153420714Y-90695428D01*
X153792142Y-90695428D01*
%TO.C,J4*%
X136579000Y-93524428D02*
X136579000Y-93953000D01*
X136550428Y-94038714D01*
X136493285Y-94095857D01*
X136407571Y-94124428D01*
X136350428Y-94124428D01*
X137121857Y-93724428D02*
X137121857Y-94124428D01*
X136979000Y-93495857D02*
X136836142Y-93924428D01*
X137207571Y-93924428D01*
%TO.C,J2*%
X134037428Y-92148000D02*
X134466000Y-92148000D01*
X134551714Y-92176571D01*
X134608857Y-92233714D01*
X134637428Y-92319428D01*
X134637428Y-92376571D01*
X134094571Y-91890857D02*
X134066000Y-91862285D01*
X134037428Y-91805142D01*
X134037428Y-91662285D01*
X134066000Y-91605142D01*
X134094571Y-91576571D01*
X134151714Y-91548000D01*
X134208857Y-91548000D01*
X134294571Y-91576571D01*
X134637428Y-91919428D01*
X134637428Y-91548000D01*
%TO.C,U6*%
X149275857Y-107367428D02*
X149275857Y-107853142D01*
X149304428Y-107910285D01*
X149333000Y-107938857D01*
X149390142Y-107967428D01*
X149504428Y-107967428D01*
X149561571Y-107938857D01*
X149590142Y-107910285D01*
X149618714Y-107853142D01*
X149618714Y-107367428D01*
X150161571Y-107367428D02*
X150047285Y-107367428D01*
X149990142Y-107396000D01*
X149961571Y-107424571D01*
X149904428Y-107510285D01*
X149875857Y-107624571D01*
X149875857Y-107853142D01*
X149904428Y-107910285D01*
X149933000Y-107938857D01*
X149990142Y-107967428D01*
X150104428Y-107967428D01*
X150161571Y-107938857D01*
X150190142Y-107910285D01*
X150218714Y-107853142D01*
X150218714Y-107710285D01*
X150190142Y-107653142D01*
X150161571Y-107624571D01*
X150104428Y-107596000D01*
X149990142Y-107596000D01*
X149933000Y-107624571D01*
X149904428Y-107653142D01*
X149875857Y-107710285D01*
%TO.C,BT1*%
X175296571Y-115336642D02*
X175382285Y-115365214D01*
X175410857Y-115393785D01*
X175439428Y-115450928D01*
X175439428Y-115536642D01*
X175410857Y-115593785D01*
X175382285Y-115622357D01*
X175325142Y-115650928D01*
X175096571Y-115650928D01*
X175096571Y-115050928D01*
X175296571Y-115050928D01*
X175353714Y-115079500D01*
X175382285Y-115108071D01*
X175410857Y-115165214D01*
X175410857Y-115222357D01*
X175382285Y-115279500D01*
X175353714Y-115308071D01*
X175296571Y-115336642D01*
X175096571Y-115336642D01*
X175610857Y-115050928D02*
X175953714Y-115050928D01*
X175782285Y-115650928D02*
X175782285Y-115050928D01*
X176468000Y-115650928D02*
X176125142Y-115650928D01*
X176296571Y-115650928D02*
X176296571Y-115050928D01*
X176239428Y-115136642D01*
X176182285Y-115193785D01*
X176125142Y-115222357D01*
%TO.C,C1*%
X147664500Y-112863285D02*
X147635928Y-112891857D01*
X147550214Y-112920428D01*
X147493071Y-112920428D01*
X147407357Y-112891857D01*
X147350214Y-112834714D01*
X147321642Y-112777571D01*
X147293071Y-112663285D01*
X147293071Y-112577571D01*
X147321642Y-112463285D01*
X147350214Y-112406142D01*
X147407357Y-112349000D01*
X147493071Y-112320428D01*
X147550214Y-112320428D01*
X147635928Y-112349000D01*
X147664500Y-112377571D01*
X148235928Y-112920428D02*
X147893071Y-112920428D01*
X148064500Y-112920428D02*
X148064500Y-112320428D01*
X148007357Y-112406142D01*
X147950214Y-112463285D01*
X147893071Y-112491857D01*
%TO.C,C2*%
X173509000Y-120483285D02*
X173480428Y-120511857D01*
X173394714Y-120540428D01*
X173337571Y-120540428D01*
X173251857Y-120511857D01*
X173194714Y-120454714D01*
X173166142Y-120397571D01*
X173137571Y-120283285D01*
X173137571Y-120197571D01*
X173166142Y-120083285D01*
X173194714Y-120026142D01*
X173251857Y-119969000D01*
X173337571Y-119940428D01*
X173394714Y-119940428D01*
X173480428Y-119969000D01*
X173509000Y-119997571D01*
X173737571Y-119997571D02*
X173766142Y-119969000D01*
X173823285Y-119940428D01*
X173966142Y-119940428D01*
X174023285Y-119969000D01*
X174051857Y-119997571D01*
X174080428Y-120054714D01*
X174080428Y-120111857D01*
X174051857Y-120197571D01*
X173709000Y-120540428D01*
X174080428Y-120540428D01*
%TO.C,C3*%
X157062500Y-109370785D02*
X157033928Y-109399357D01*
X156948214Y-109427928D01*
X156891071Y-109427928D01*
X156805357Y-109399357D01*
X156748214Y-109342214D01*
X156719642Y-109285071D01*
X156691071Y-109170785D01*
X156691071Y-109085071D01*
X156719642Y-108970785D01*
X156748214Y-108913642D01*
X156805357Y-108856500D01*
X156891071Y-108827928D01*
X156948214Y-108827928D01*
X157033928Y-108856500D01*
X157062500Y-108885071D01*
X157262500Y-108827928D02*
X157633928Y-108827928D01*
X157433928Y-109056500D01*
X157519642Y-109056500D01*
X157576785Y-109085071D01*
X157605357Y-109113642D01*
X157633928Y-109170785D01*
X157633928Y-109313642D01*
X157605357Y-109370785D01*
X157576785Y-109399357D01*
X157519642Y-109427928D01*
X157348214Y-109427928D01*
X157291071Y-109399357D01*
X157262500Y-109370785D01*
%TO.C,C4*%
X169445000Y-109180285D02*
X169416428Y-109208857D01*
X169330714Y-109237428D01*
X169273571Y-109237428D01*
X169187857Y-109208857D01*
X169130714Y-109151714D01*
X169102142Y-109094571D01*
X169073571Y-108980285D01*
X169073571Y-108894571D01*
X169102142Y-108780285D01*
X169130714Y-108723142D01*
X169187857Y-108666000D01*
X169273571Y-108637428D01*
X169330714Y-108637428D01*
X169416428Y-108666000D01*
X169445000Y-108694571D01*
X169959285Y-108837428D02*
X169959285Y-109237428D01*
X169816428Y-108608857D02*
X169673571Y-109037428D01*
X170045000Y-109037428D01*
%TO.C,C5*%
X154459000Y-100163285D02*
X154430428Y-100191857D01*
X154344714Y-100220428D01*
X154287571Y-100220428D01*
X154201857Y-100191857D01*
X154144714Y-100134714D01*
X154116142Y-100077571D01*
X154087571Y-99963285D01*
X154087571Y-99877571D01*
X154116142Y-99763285D01*
X154144714Y-99706142D01*
X154201857Y-99649000D01*
X154287571Y-99620428D01*
X154344714Y-99620428D01*
X154430428Y-99649000D01*
X154459000Y-99677571D01*
X155001857Y-99620428D02*
X154716142Y-99620428D01*
X154687571Y-99906142D01*
X154716142Y-99877571D01*
X154773285Y-99849000D01*
X154916142Y-99849000D01*
X154973285Y-99877571D01*
X155001857Y-99906142D01*
X155030428Y-99963285D01*
X155030428Y-100106142D01*
X155001857Y-100163285D01*
X154973285Y-100191857D01*
X154916142Y-100220428D01*
X154773285Y-100220428D01*
X154716142Y-100191857D01*
X154687571Y-100163285D01*
%TO.C,C6*%
X169445000Y-107910285D02*
X169416428Y-107938857D01*
X169330714Y-107967428D01*
X169273571Y-107967428D01*
X169187857Y-107938857D01*
X169130714Y-107881714D01*
X169102142Y-107824571D01*
X169073571Y-107710285D01*
X169073571Y-107624571D01*
X169102142Y-107510285D01*
X169130714Y-107453142D01*
X169187857Y-107396000D01*
X169273571Y-107367428D01*
X169330714Y-107367428D01*
X169416428Y-107396000D01*
X169445000Y-107424571D01*
X169959285Y-107367428D02*
X169845000Y-107367428D01*
X169787857Y-107396000D01*
X169759285Y-107424571D01*
X169702142Y-107510285D01*
X169673571Y-107624571D01*
X169673571Y-107853142D01*
X169702142Y-107910285D01*
X169730714Y-107938857D01*
X169787857Y-107967428D01*
X169902142Y-107967428D01*
X169959285Y-107938857D01*
X169987857Y-107910285D01*
X170016428Y-107853142D01*
X170016428Y-107710285D01*
X169987857Y-107653142D01*
X169959285Y-107624571D01*
X169902142Y-107596000D01*
X169787857Y-107596000D01*
X169730714Y-107624571D01*
X169702142Y-107653142D01*
X169673571Y-107710285D01*
%TO.C,C7*%
X137123500Y-105624285D02*
X137094928Y-105652857D01*
X137009214Y-105681428D01*
X136952071Y-105681428D01*
X136866357Y-105652857D01*
X136809214Y-105595714D01*
X136780642Y-105538571D01*
X136752071Y-105424285D01*
X136752071Y-105338571D01*
X136780642Y-105224285D01*
X136809214Y-105167142D01*
X136866357Y-105110000D01*
X136952071Y-105081428D01*
X137009214Y-105081428D01*
X137094928Y-105110000D01*
X137123500Y-105138571D01*
X137323500Y-105081428D02*
X137723500Y-105081428D01*
X137466357Y-105681428D01*
%TO.C,C8*%
X130456000Y-111974285D02*
X130427428Y-112002857D01*
X130341714Y-112031428D01*
X130284571Y-112031428D01*
X130198857Y-112002857D01*
X130141714Y-111945714D01*
X130113142Y-111888571D01*
X130084571Y-111774285D01*
X130084571Y-111688571D01*
X130113142Y-111574285D01*
X130141714Y-111517142D01*
X130198857Y-111460000D01*
X130284571Y-111431428D01*
X130341714Y-111431428D01*
X130427428Y-111460000D01*
X130456000Y-111488571D01*
X130798857Y-111688571D02*
X130741714Y-111660000D01*
X130713142Y-111631428D01*
X130684571Y-111574285D01*
X130684571Y-111545714D01*
X130713142Y-111488571D01*
X130741714Y-111460000D01*
X130798857Y-111431428D01*
X130913142Y-111431428D01*
X130970285Y-111460000D01*
X130998857Y-111488571D01*
X131027428Y-111545714D01*
X131027428Y-111574285D01*
X130998857Y-111631428D01*
X130970285Y-111660000D01*
X130913142Y-111688571D01*
X130798857Y-111688571D01*
X130741714Y-111717142D01*
X130713142Y-111745714D01*
X130684571Y-111802857D01*
X130684571Y-111917142D01*
X130713142Y-111974285D01*
X130741714Y-112002857D01*
X130798857Y-112031428D01*
X130913142Y-112031428D01*
X130970285Y-112002857D01*
X130998857Y-111974285D01*
X131027428Y-111917142D01*
X131027428Y-111802857D01*
X130998857Y-111745714D01*
X130970285Y-111717142D01*
X130913142Y-111688571D01*
%TO.C,D1*%
X163514142Y-117365428D02*
X163514142Y-116765428D01*
X163657000Y-116765428D01*
X163742714Y-116794000D01*
X163799857Y-116851142D01*
X163828428Y-116908285D01*
X163857000Y-117022571D01*
X163857000Y-117108285D01*
X163828428Y-117222571D01*
X163799857Y-117279714D01*
X163742714Y-117336857D01*
X163657000Y-117365428D01*
X163514142Y-117365428D01*
X164428428Y-117365428D02*
X164085571Y-117365428D01*
X164257000Y-117365428D02*
X164257000Y-116765428D01*
X164199857Y-116851142D01*
X164142714Y-116908285D01*
X164085571Y-116936857D01*
%TO.C,D2*%
X145353142Y-111523428D02*
X145353142Y-110923428D01*
X145496000Y-110923428D01*
X145581714Y-110952000D01*
X145638857Y-111009142D01*
X145667428Y-111066285D01*
X145696000Y-111180571D01*
X145696000Y-111266285D01*
X145667428Y-111380571D01*
X145638857Y-111437714D01*
X145581714Y-111494857D01*
X145496000Y-111523428D01*
X145353142Y-111523428D01*
X145924571Y-110980571D02*
X145953142Y-110952000D01*
X146010285Y-110923428D01*
X146153142Y-110923428D01*
X146210285Y-110952000D01*
X146238857Y-110980571D01*
X146267428Y-111037714D01*
X146267428Y-111094857D01*
X146238857Y-111180571D01*
X145896000Y-111523428D01*
X146267428Y-111523428D01*
%TO.C,D3*%
X145353142Y-112285428D02*
X145353142Y-111685428D01*
X145496000Y-111685428D01*
X145581714Y-111714000D01*
X145638857Y-111771142D01*
X145667428Y-111828285D01*
X145696000Y-111942571D01*
X145696000Y-112028285D01*
X145667428Y-112142571D01*
X145638857Y-112199714D01*
X145581714Y-112256857D01*
X145496000Y-112285428D01*
X145353142Y-112285428D01*
X145896000Y-111685428D02*
X146267428Y-111685428D01*
X146067428Y-111914000D01*
X146153142Y-111914000D01*
X146210285Y-111942571D01*
X146238857Y-111971142D01*
X146267428Y-112028285D01*
X146267428Y-112171142D01*
X146238857Y-112228285D01*
X146210285Y-112256857D01*
X146153142Y-112285428D01*
X145981714Y-112285428D01*
X145924571Y-112256857D01*
X145896000Y-112228285D01*
%TO.C,J3*%
X145149928Y-119580000D02*
X145578500Y-119580000D01*
X145664214Y-119608571D01*
X145721357Y-119665714D01*
X145749928Y-119751428D01*
X145749928Y-119808571D01*
X145149928Y-119351428D02*
X145149928Y-118980000D01*
X145378500Y-119180000D01*
X145378500Y-119094285D01*
X145407071Y-119037142D01*
X145435642Y-119008571D01*
X145492785Y-118980000D01*
X145635642Y-118980000D01*
X145692785Y-119008571D01*
X145721357Y-119037142D01*
X145749928Y-119094285D01*
X145749928Y-119265714D01*
X145721357Y-119322857D01*
X145692785Y-119351428D01*
%TO.C,J5*%
X136452000Y-108831428D02*
X136452000Y-109260000D01*
X136423428Y-109345714D01*
X136366285Y-109402857D01*
X136280571Y-109431428D01*
X136223428Y-109431428D01*
X137023428Y-108831428D02*
X136737714Y-108831428D01*
X136709142Y-109117142D01*
X136737714Y-109088571D01*
X136794857Y-109060000D01*
X136937714Y-109060000D01*
X136994857Y-109088571D01*
X137023428Y-109117142D01*
X137052000Y-109174285D01*
X137052000Y-109317142D01*
X137023428Y-109374285D01*
X136994857Y-109402857D01*
X136937714Y-109431428D01*
X136794857Y-109431428D01*
X136737714Y-109402857D01*
X136709142Y-109374285D01*
%TO.C,J6*%
X144580000Y-85523428D02*
X144580000Y-85952000D01*
X144551428Y-86037714D01*
X144494285Y-86094857D01*
X144408571Y-86123428D01*
X144351428Y-86123428D01*
X145122857Y-85523428D02*
X145008571Y-85523428D01*
X144951428Y-85552000D01*
X144922857Y-85580571D01*
X144865714Y-85666285D01*
X144837142Y-85780571D01*
X144837142Y-86009142D01*
X144865714Y-86066285D01*
X144894285Y-86094857D01*
X144951428Y-86123428D01*
X145065714Y-86123428D01*
X145122857Y-86094857D01*
X145151428Y-86066285D01*
X145180000Y-86009142D01*
X145180000Y-85866285D01*
X145151428Y-85809142D01*
X145122857Y-85780571D01*
X145065714Y-85752000D01*
X144951428Y-85752000D01*
X144894285Y-85780571D01*
X144865714Y-85809142D01*
X144837142Y-85866285D01*
%TO.C,J7*%
X128512928Y-87004500D02*
X128941500Y-87004500D01*
X129027214Y-87033071D01*
X129084357Y-87090214D01*
X129112928Y-87175928D01*
X129112928Y-87233071D01*
X128512928Y-86775928D02*
X128512928Y-86375928D01*
X129112928Y-86633071D01*
%TO.C,LS1*%
X136796428Y-103636714D02*
X136796428Y-103922428D01*
X136196428Y-103922428D01*
X136767857Y-103465285D02*
X136796428Y-103379571D01*
X136796428Y-103236714D01*
X136767857Y-103179571D01*
X136739285Y-103151000D01*
X136682142Y-103122428D01*
X136625000Y-103122428D01*
X136567857Y-103151000D01*
X136539285Y-103179571D01*
X136510714Y-103236714D01*
X136482142Y-103351000D01*
X136453571Y-103408142D01*
X136425000Y-103436714D01*
X136367857Y-103465285D01*
X136310714Y-103465285D01*
X136253571Y-103436714D01*
X136225000Y-103408142D01*
X136196428Y-103351000D01*
X136196428Y-103208142D01*
X136225000Y-103122428D01*
X136796428Y-102551000D02*
X136796428Y-102893857D01*
X136796428Y-102722428D02*
X136196428Y-102722428D01*
X136282142Y-102779571D01*
X136339285Y-102836714D01*
X136367857Y-102893857D01*
X136507214Y-100129309D02*
X136507214Y-99641690D01*
X136154190Y-104693714D02*
X136641809Y-104693714D01*
X136398000Y-104937523D02*
X136398000Y-104449904D01*
%TO.C,MK1*%
X128273247Y-115851741D02*
X128273247Y-115369312D01*
X128434057Y-115713904D01*
X128594867Y-115369312D01*
X128594867Y-115851741D01*
X128824595Y-115851741D02*
X128824595Y-115369312D01*
X129100268Y-115851741D02*
X128893513Y-115576067D01*
X129100268Y-115369312D02*
X128824595Y-115644986D01*
X129559725Y-115851741D02*
X129284051Y-115851741D01*
X129421888Y-115851741D02*
X129421888Y-115369312D01*
X129375942Y-115438231D01*
X129329996Y-115484176D01*
X129284051Y-115507149D01*
%TO.C,Q1*%
X169995857Y-111326571D02*
X169938714Y-111298000D01*
X169881571Y-111240857D01*
X169795857Y-111155142D01*
X169738714Y-111126571D01*
X169681571Y-111126571D01*
X169710142Y-111269428D02*
X169653000Y-111240857D01*
X169595857Y-111183714D01*
X169567285Y-111069428D01*
X169567285Y-110869428D01*
X169595857Y-110755142D01*
X169653000Y-110698000D01*
X169710142Y-110669428D01*
X169824428Y-110669428D01*
X169881571Y-110698000D01*
X169938714Y-110755142D01*
X169967285Y-110869428D01*
X169967285Y-111069428D01*
X169938714Y-111183714D01*
X169881571Y-111240857D01*
X169824428Y-111269428D01*
X169710142Y-111269428D01*
X170538714Y-111269428D02*
X170195857Y-111269428D01*
X170367285Y-111269428D02*
X170367285Y-110669428D01*
X170310142Y-110755142D01*
X170253000Y-110812285D01*
X170195857Y-110840857D01*
%TO.C,Q2*%
X147326357Y-93038571D02*
X147269214Y-93010000D01*
X147212071Y-92952857D01*
X147126357Y-92867142D01*
X147069214Y-92838571D01*
X147012071Y-92838571D01*
X147040642Y-92981428D02*
X146983500Y-92952857D01*
X146926357Y-92895714D01*
X146897785Y-92781428D01*
X146897785Y-92581428D01*
X146926357Y-92467142D01*
X146983500Y-92410000D01*
X147040642Y-92381428D01*
X147154928Y-92381428D01*
X147212071Y-92410000D01*
X147269214Y-92467142D01*
X147297785Y-92581428D01*
X147297785Y-92781428D01*
X147269214Y-92895714D01*
X147212071Y-92952857D01*
X147154928Y-92981428D01*
X147040642Y-92981428D01*
X147526357Y-92438571D02*
X147554928Y-92410000D01*
X147612071Y-92381428D01*
X147754928Y-92381428D01*
X147812071Y-92410000D01*
X147840642Y-92438571D01*
X147869214Y-92495714D01*
X147869214Y-92552857D01*
X147840642Y-92638571D01*
X147497785Y-92981428D01*
X147869214Y-92981428D01*
%TO.C,Q3*%
X147326357Y-94181571D02*
X147269214Y-94153000D01*
X147212071Y-94095857D01*
X147126357Y-94010142D01*
X147069214Y-93981571D01*
X147012071Y-93981571D01*
X147040642Y-94124428D02*
X146983500Y-94095857D01*
X146926357Y-94038714D01*
X146897785Y-93924428D01*
X146897785Y-93724428D01*
X146926357Y-93610142D01*
X146983500Y-93553000D01*
X147040642Y-93524428D01*
X147154928Y-93524428D01*
X147212071Y-93553000D01*
X147269214Y-93610142D01*
X147297785Y-93724428D01*
X147297785Y-93924428D01*
X147269214Y-94038714D01*
X147212071Y-94095857D01*
X147154928Y-94124428D01*
X147040642Y-94124428D01*
X147497785Y-93524428D02*
X147869214Y-93524428D01*
X147669214Y-93753000D01*
X147754928Y-93753000D01*
X147812071Y-93781571D01*
X147840642Y-93810142D01*
X147869214Y-93867285D01*
X147869214Y-94010142D01*
X147840642Y-94067285D01*
X147812071Y-94095857D01*
X147754928Y-94124428D01*
X147583500Y-94124428D01*
X147526357Y-94095857D01*
X147497785Y-94067285D01*
%TO.C,R1*%
D11*
X164806333Y-92399380D02*
X164473000Y-91923190D01*
X164234904Y-92399380D02*
X164234904Y-91399380D01*
X164615857Y-91399380D01*
X164711095Y-91447000D01*
X164758714Y-91494619D01*
X164806333Y-91589857D01*
X164806333Y-91732714D01*
X164758714Y-91827952D01*
X164711095Y-91875571D01*
X164615857Y-91923190D01*
X164234904Y-91923190D01*
X165758714Y-92399380D02*
X165187285Y-92399380D01*
X165473000Y-92399380D02*
X165473000Y-91399380D01*
X165377761Y-91542238D01*
X165282523Y-91637476D01*
X165187285Y-91685095D01*
%TO.C,R2*%
D13*
X156427500Y-100220428D02*
X156227500Y-99934714D01*
X156084642Y-100220428D02*
X156084642Y-99620428D01*
X156313214Y-99620428D01*
X156370357Y-99649000D01*
X156398928Y-99677571D01*
X156427500Y-99734714D01*
X156427500Y-99820428D01*
X156398928Y-99877571D01*
X156370357Y-99906142D01*
X156313214Y-99934714D01*
X156084642Y-99934714D01*
X156656071Y-99677571D02*
X156684642Y-99649000D01*
X156741785Y-99620428D01*
X156884642Y-99620428D01*
X156941785Y-99649000D01*
X156970357Y-99677571D01*
X156998928Y-99734714D01*
X156998928Y-99791857D01*
X156970357Y-99877571D01*
X156627500Y-100220428D01*
X156998928Y-100220428D01*
%TO.C,R3*%
X158332500Y-100220428D02*
X158132500Y-99934714D01*
X157989642Y-100220428D02*
X157989642Y-99620428D01*
X158218214Y-99620428D01*
X158275357Y-99649000D01*
X158303928Y-99677571D01*
X158332500Y-99734714D01*
X158332500Y-99820428D01*
X158303928Y-99877571D01*
X158275357Y-99906142D01*
X158218214Y-99934714D01*
X157989642Y-99934714D01*
X158532500Y-99620428D02*
X158903928Y-99620428D01*
X158703928Y-99849000D01*
X158789642Y-99849000D01*
X158846785Y-99877571D01*
X158875357Y-99906142D01*
X158903928Y-99963285D01*
X158903928Y-100106142D01*
X158875357Y-100163285D01*
X158846785Y-100191857D01*
X158789642Y-100220428D01*
X158618214Y-100220428D01*
X158561071Y-100191857D01*
X158532500Y-100163285D01*
%TO.C,R4*%
X151220500Y-116603428D02*
X151020500Y-116317714D01*
X150877642Y-116603428D02*
X150877642Y-116003428D01*
X151106214Y-116003428D01*
X151163357Y-116032000D01*
X151191928Y-116060571D01*
X151220500Y-116117714D01*
X151220500Y-116203428D01*
X151191928Y-116260571D01*
X151163357Y-116289142D01*
X151106214Y-116317714D01*
X150877642Y-116317714D01*
X151734785Y-116203428D02*
X151734785Y-116603428D01*
X151591928Y-115974857D02*
X151449071Y-116403428D01*
X151820500Y-116403428D01*
%TO.C,R5*%
X151284000Y-118889428D02*
X151084000Y-118603714D01*
X150941142Y-118889428D02*
X150941142Y-118289428D01*
X151169714Y-118289428D01*
X151226857Y-118318000D01*
X151255428Y-118346571D01*
X151284000Y-118403714D01*
X151284000Y-118489428D01*
X151255428Y-118546571D01*
X151226857Y-118575142D01*
X151169714Y-118603714D01*
X150941142Y-118603714D01*
X151826857Y-118289428D02*
X151541142Y-118289428D01*
X151512571Y-118575142D01*
X151541142Y-118546571D01*
X151598285Y-118518000D01*
X151741142Y-118518000D01*
X151798285Y-118546571D01*
X151826857Y-118575142D01*
X151855428Y-118632285D01*
X151855428Y-118775142D01*
X151826857Y-118832285D01*
X151798285Y-118860857D01*
X151741142Y-118889428D01*
X151598285Y-118889428D01*
X151541142Y-118860857D01*
X151512571Y-118832285D01*
%TO.C,R6*%
X161888500Y-117365428D02*
X161688500Y-117079714D01*
X161545642Y-117365428D02*
X161545642Y-116765428D01*
X161774214Y-116765428D01*
X161831357Y-116794000D01*
X161859928Y-116822571D01*
X161888500Y-116879714D01*
X161888500Y-116965428D01*
X161859928Y-117022571D01*
X161831357Y-117051142D01*
X161774214Y-117079714D01*
X161545642Y-117079714D01*
X162402785Y-116765428D02*
X162288500Y-116765428D01*
X162231357Y-116794000D01*
X162202785Y-116822571D01*
X162145642Y-116908285D01*
X162117071Y-117022571D01*
X162117071Y-117251142D01*
X162145642Y-117308285D01*
X162174214Y-117336857D01*
X162231357Y-117365428D01*
X162345642Y-117365428D01*
X162402785Y-117336857D01*
X162431357Y-117308285D01*
X162459928Y-117251142D01*
X162459928Y-117108285D01*
X162431357Y-117051142D01*
X162402785Y-117022571D01*
X162345642Y-116994000D01*
X162231357Y-116994000D01*
X162174214Y-117022571D01*
X162145642Y-117051142D01*
X162117071Y-117108285D01*
%TO.C,R7*%
X153062000Y-116603428D02*
X152862000Y-116317714D01*
X152719142Y-116603428D02*
X152719142Y-116003428D01*
X152947714Y-116003428D01*
X153004857Y-116032000D01*
X153033428Y-116060571D01*
X153062000Y-116117714D01*
X153062000Y-116203428D01*
X153033428Y-116260571D01*
X153004857Y-116289142D01*
X152947714Y-116317714D01*
X152719142Y-116317714D01*
X153262000Y-116003428D02*
X153662000Y-116003428D01*
X153404857Y-116603428D01*
%TO.C,R8*%
X153062000Y-118889428D02*
X152862000Y-118603714D01*
X152719142Y-118889428D02*
X152719142Y-118289428D01*
X152947714Y-118289428D01*
X153004857Y-118318000D01*
X153033428Y-118346571D01*
X153062000Y-118403714D01*
X153062000Y-118489428D01*
X153033428Y-118546571D01*
X153004857Y-118575142D01*
X152947714Y-118603714D01*
X152719142Y-118603714D01*
X153404857Y-118546571D02*
X153347714Y-118518000D01*
X153319142Y-118489428D01*
X153290571Y-118432285D01*
X153290571Y-118403714D01*
X153319142Y-118346571D01*
X153347714Y-118318000D01*
X153404857Y-118289428D01*
X153519142Y-118289428D01*
X153576285Y-118318000D01*
X153604857Y-118346571D01*
X153633428Y-118403714D01*
X153633428Y-118432285D01*
X153604857Y-118489428D01*
X153576285Y-118518000D01*
X153519142Y-118546571D01*
X153404857Y-118546571D01*
X153347714Y-118575142D01*
X153319142Y-118603714D01*
X153290571Y-118660857D01*
X153290571Y-118775142D01*
X153319142Y-118832285D01*
X153347714Y-118860857D01*
X153404857Y-118889428D01*
X153519142Y-118889428D01*
X153576285Y-118860857D01*
X153604857Y-118832285D01*
X153633428Y-118775142D01*
X153633428Y-118660857D01*
X153604857Y-118603714D01*
X153576285Y-118575142D01*
X153519142Y-118546571D01*
%TO.C,R9*%
X162079000Y-113508428D02*
X161879000Y-113222714D01*
X161736142Y-113508428D02*
X161736142Y-112908428D01*
X161964714Y-112908428D01*
X162021857Y-112937000D01*
X162050428Y-112965571D01*
X162079000Y-113022714D01*
X162079000Y-113108428D01*
X162050428Y-113165571D01*
X162021857Y-113194142D01*
X161964714Y-113222714D01*
X161736142Y-113222714D01*
X162364714Y-113508428D02*
X162479000Y-113508428D01*
X162536142Y-113479857D01*
X162564714Y-113451285D01*
X162621857Y-113365571D01*
X162650428Y-113251285D01*
X162650428Y-113022714D01*
X162621857Y-112965571D01*
X162593285Y-112937000D01*
X162536142Y-112908428D01*
X162421857Y-112908428D01*
X162364714Y-112937000D01*
X162336142Y-112965571D01*
X162307571Y-113022714D01*
X162307571Y-113165571D01*
X162336142Y-113222714D01*
X162364714Y-113251285D01*
X162421857Y-113279857D01*
X162536142Y-113279857D01*
X162593285Y-113251285D01*
X162621857Y-113222714D01*
X162650428Y-113165571D01*
%TO.C,R10*%
D11*
X162822880Y-119538357D02*
X162346690Y-119871690D01*
X162822880Y-120109785D02*
X161822880Y-120109785D01*
X161822880Y-119728833D01*
X161870500Y-119633595D01*
X161918119Y-119585976D01*
X162013357Y-119538357D01*
X162156214Y-119538357D01*
X162251452Y-119585976D01*
X162299071Y-119633595D01*
X162346690Y-119728833D01*
X162346690Y-120109785D01*
X162822880Y-118585976D02*
X162822880Y-119157404D01*
X162822880Y-118871690D02*
X161822880Y-118871690D01*
X161965738Y-118966928D01*
X162060976Y-119062166D01*
X162108595Y-119157404D01*
X161822880Y-117966928D02*
X161822880Y-117871690D01*
X161870500Y-117776452D01*
X161918119Y-117728833D01*
X162013357Y-117681214D01*
X162203833Y-117633595D01*
X162441928Y-117633595D01*
X162632404Y-117681214D01*
X162727642Y-117728833D01*
X162775261Y-117776452D01*
X162822880Y-117871690D01*
X162822880Y-117966928D01*
X162775261Y-118062166D01*
X162727642Y-118109785D01*
X162632404Y-118157404D01*
X162441928Y-118205023D01*
X162203833Y-118205023D01*
X162013357Y-118157404D01*
X161918119Y-118109785D01*
X161870500Y-118062166D01*
X161822880Y-117966928D01*
%TO.C,R11*%
D13*
X137431428Y-98175714D02*
X137145714Y-98375714D01*
X137431428Y-98518571D02*
X136831428Y-98518571D01*
X136831428Y-98290000D01*
X136860000Y-98232857D01*
X136888571Y-98204285D01*
X136945714Y-98175714D01*
X137031428Y-98175714D01*
X137088571Y-98204285D01*
X137117142Y-98232857D01*
X137145714Y-98290000D01*
X137145714Y-98518571D01*
X137431428Y-97604285D02*
X137431428Y-97947142D01*
X137431428Y-97775714D02*
X136831428Y-97775714D01*
X136917142Y-97832857D01*
X136974285Y-97890000D01*
X137002857Y-97947142D01*
X137431428Y-97032857D02*
X137431428Y-97375714D01*
X137431428Y-97204285D02*
X136831428Y-97204285D01*
X136917142Y-97261428D01*
X136974285Y-97318571D01*
X137002857Y-97375714D01*
%TO.C,R12*%
X132962928Y-98175714D02*
X132677214Y-98375714D01*
X132962928Y-98518571D02*
X132362928Y-98518571D01*
X132362928Y-98290000D01*
X132391500Y-98232857D01*
X132420071Y-98204285D01*
X132477214Y-98175714D01*
X132562928Y-98175714D01*
X132620071Y-98204285D01*
X132648642Y-98232857D01*
X132677214Y-98290000D01*
X132677214Y-98518571D01*
X132962928Y-97604285D02*
X132962928Y-97947142D01*
X132962928Y-97775714D02*
X132362928Y-97775714D01*
X132448642Y-97832857D01*
X132505785Y-97890000D01*
X132534357Y-97947142D01*
X132420071Y-97375714D02*
X132391500Y-97347142D01*
X132362928Y-97290000D01*
X132362928Y-97147142D01*
X132391500Y-97090000D01*
X132420071Y-97061428D01*
X132477214Y-97032857D01*
X132534357Y-97032857D01*
X132620071Y-97061428D01*
X132962928Y-97404285D01*
X132962928Y-97032857D01*
%TO.C,R13*%
X128795428Y-98175714D02*
X128509714Y-98375714D01*
X128795428Y-98518571D02*
X128195428Y-98518571D01*
X128195428Y-98290000D01*
X128224000Y-98232857D01*
X128252571Y-98204285D01*
X128309714Y-98175714D01*
X128395428Y-98175714D01*
X128452571Y-98204285D01*
X128481142Y-98232857D01*
X128509714Y-98290000D01*
X128509714Y-98518571D01*
X128795428Y-97604285D02*
X128795428Y-97947142D01*
X128795428Y-97775714D02*
X128195428Y-97775714D01*
X128281142Y-97832857D01*
X128338285Y-97890000D01*
X128366857Y-97947142D01*
X128195428Y-97404285D02*
X128195428Y-97032857D01*
X128424000Y-97232857D01*
X128424000Y-97147142D01*
X128452571Y-97090000D01*
X128481142Y-97061428D01*
X128538285Y-97032857D01*
X128681142Y-97032857D01*
X128738285Y-97061428D01*
X128766857Y-97090000D01*
X128795428Y-97147142D01*
X128795428Y-97318571D01*
X128766857Y-97375714D01*
X128738285Y-97404285D01*
%TO.C,R14*%
X175255285Y-114825428D02*
X175055285Y-114539714D01*
X174912428Y-114825428D02*
X174912428Y-114225428D01*
X175141000Y-114225428D01*
X175198142Y-114254000D01*
X175226714Y-114282571D01*
X175255285Y-114339714D01*
X175255285Y-114425428D01*
X175226714Y-114482571D01*
X175198142Y-114511142D01*
X175141000Y-114539714D01*
X174912428Y-114539714D01*
X175826714Y-114825428D02*
X175483857Y-114825428D01*
X175655285Y-114825428D02*
X175655285Y-114225428D01*
X175598142Y-114311142D01*
X175541000Y-114368285D01*
X175483857Y-114396857D01*
X176341000Y-114425428D02*
X176341000Y-114825428D01*
X176198142Y-114196857D02*
X176055285Y-114625428D01*
X176426714Y-114625428D01*
%TO.C,R15*%
X160459785Y-109427928D02*
X160259785Y-109142214D01*
X160116928Y-109427928D02*
X160116928Y-108827928D01*
X160345500Y-108827928D01*
X160402642Y-108856500D01*
X160431214Y-108885071D01*
X160459785Y-108942214D01*
X160459785Y-109027928D01*
X160431214Y-109085071D01*
X160402642Y-109113642D01*
X160345500Y-109142214D01*
X160116928Y-109142214D01*
X161031214Y-109427928D02*
X160688357Y-109427928D01*
X160859785Y-109427928D02*
X160859785Y-108827928D01*
X160802642Y-108913642D01*
X160745500Y-108970785D01*
X160688357Y-108999357D01*
X161574071Y-108827928D02*
X161288357Y-108827928D01*
X161259785Y-109113642D01*
X161288357Y-109085071D01*
X161345500Y-109056500D01*
X161488357Y-109056500D01*
X161545500Y-109085071D01*
X161574071Y-109113642D01*
X161602642Y-109170785D01*
X161602642Y-109313642D01*
X161574071Y-109370785D01*
X161545500Y-109399357D01*
X161488357Y-109427928D01*
X161345500Y-109427928D01*
X161288357Y-109399357D01*
X161259785Y-109370785D01*
%TO.C,R16*%
X158618285Y-109427928D02*
X158418285Y-109142214D01*
X158275428Y-109427928D02*
X158275428Y-108827928D01*
X158504000Y-108827928D01*
X158561142Y-108856500D01*
X158589714Y-108885071D01*
X158618285Y-108942214D01*
X158618285Y-109027928D01*
X158589714Y-109085071D01*
X158561142Y-109113642D01*
X158504000Y-109142214D01*
X158275428Y-109142214D01*
X159189714Y-109427928D02*
X158846857Y-109427928D01*
X159018285Y-109427928D02*
X159018285Y-108827928D01*
X158961142Y-108913642D01*
X158904000Y-108970785D01*
X158846857Y-108999357D01*
X159704000Y-108827928D02*
X159589714Y-108827928D01*
X159532571Y-108856500D01*
X159504000Y-108885071D01*
X159446857Y-108970785D01*
X159418285Y-109085071D01*
X159418285Y-109313642D01*
X159446857Y-109370785D01*
X159475428Y-109399357D01*
X159532571Y-109427928D01*
X159646857Y-109427928D01*
X159704000Y-109399357D01*
X159732571Y-109370785D01*
X159761142Y-109313642D01*
X159761142Y-109170785D01*
X159732571Y-109113642D01*
X159704000Y-109085071D01*
X159646857Y-109056500D01*
X159532571Y-109056500D01*
X159475428Y-109085071D01*
X159446857Y-109113642D01*
X159418285Y-109170785D01*
%TO.C,R17*%
X138361785Y-108308428D02*
X138161785Y-108022714D01*
X138018928Y-108308428D02*
X138018928Y-107708428D01*
X138247500Y-107708428D01*
X138304642Y-107737000D01*
X138333214Y-107765571D01*
X138361785Y-107822714D01*
X138361785Y-107908428D01*
X138333214Y-107965571D01*
X138304642Y-107994142D01*
X138247500Y-108022714D01*
X138018928Y-108022714D01*
X138933214Y-108308428D02*
X138590357Y-108308428D01*
X138761785Y-108308428D02*
X138761785Y-107708428D01*
X138704642Y-107794142D01*
X138647500Y-107851285D01*
X138590357Y-107879857D01*
X139133214Y-107708428D02*
X139533214Y-107708428D01*
X139276071Y-108308428D01*
%TO.C,R18*%
X140139785Y-108348428D02*
X139939785Y-108062714D01*
X139796928Y-108348428D02*
X139796928Y-107748428D01*
X140025500Y-107748428D01*
X140082642Y-107777000D01*
X140111214Y-107805571D01*
X140139785Y-107862714D01*
X140139785Y-107948428D01*
X140111214Y-108005571D01*
X140082642Y-108034142D01*
X140025500Y-108062714D01*
X139796928Y-108062714D01*
X140711214Y-108348428D02*
X140368357Y-108348428D01*
X140539785Y-108348428D02*
X140539785Y-107748428D01*
X140482642Y-107834142D01*
X140425500Y-107891285D01*
X140368357Y-107919857D01*
X141054071Y-108005571D02*
X140996928Y-107977000D01*
X140968357Y-107948428D01*
X140939785Y-107891285D01*
X140939785Y-107862714D01*
X140968357Y-107805571D01*
X140996928Y-107777000D01*
X141054071Y-107748428D01*
X141168357Y-107748428D01*
X141225500Y-107777000D01*
X141254071Y-107805571D01*
X141282642Y-107862714D01*
X141282642Y-107891285D01*
X141254071Y-107948428D01*
X141225500Y-107977000D01*
X141168357Y-108005571D01*
X141054071Y-108005571D01*
X140996928Y-108034142D01*
X140968357Y-108062714D01*
X140939785Y-108119857D01*
X140939785Y-108234142D01*
X140968357Y-108291285D01*
X140996928Y-108319857D01*
X141054071Y-108348428D01*
X141168357Y-108348428D01*
X141225500Y-108319857D01*
X141254071Y-108291285D01*
X141282642Y-108234142D01*
X141282642Y-108119857D01*
X141254071Y-108062714D01*
X141225500Y-108034142D01*
X141168357Y-108005571D01*
%TO.C,R19*%
X128842428Y-108526214D02*
X128556714Y-108726214D01*
X128842428Y-108869071D02*
X128242428Y-108869071D01*
X128242428Y-108640500D01*
X128271000Y-108583357D01*
X128299571Y-108554785D01*
X128356714Y-108526214D01*
X128442428Y-108526214D01*
X128499571Y-108554785D01*
X128528142Y-108583357D01*
X128556714Y-108640500D01*
X128556714Y-108869071D01*
X128842428Y-107954785D02*
X128842428Y-108297642D01*
X128842428Y-108126214D02*
X128242428Y-108126214D01*
X128328142Y-108183357D01*
X128385285Y-108240500D01*
X128413857Y-108297642D01*
X128842428Y-107669071D02*
X128842428Y-107554785D01*
X128813857Y-107497642D01*
X128785285Y-107469071D01*
X128699571Y-107411928D01*
X128585285Y-107383357D01*
X128356714Y-107383357D01*
X128299571Y-107411928D01*
X128271000Y-107440500D01*
X128242428Y-107497642D01*
X128242428Y-107611928D01*
X128271000Y-107669071D01*
X128299571Y-107697642D01*
X128356714Y-107726214D01*
X128499571Y-107726214D01*
X128556714Y-107697642D01*
X128585285Y-107669071D01*
X128613857Y-107611928D01*
X128613857Y-107497642D01*
X128585285Y-107440500D01*
X128556714Y-107411928D01*
X128499571Y-107383357D01*
%TO.C,R20*%
X133073428Y-108462714D02*
X132787714Y-108662714D01*
X133073428Y-108805571D02*
X132473428Y-108805571D01*
X132473428Y-108577000D01*
X132502000Y-108519857D01*
X132530571Y-108491285D01*
X132587714Y-108462714D01*
X132673428Y-108462714D01*
X132730571Y-108491285D01*
X132759142Y-108519857D01*
X132787714Y-108577000D01*
X132787714Y-108805571D01*
X132530571Y-108234142D02*
X132502000Y-108205571D01*
X132473428Y-108148428D01*
X132473428Y-108005571D01*
X132502000Y-107948428D01*
X132530571Y-107919857D01*
X132587714Y-107891285D01*
X132644857Y-107891285D01*
X132730571Y-107919857D01*
X133073428Y-108262714D01*
X133073428Y-107891285D01*
X132473428Y-107519857D02*
X132473428Y-107462714D01*
X132502000Y-107405571D01*
X132530571Y-107377000D01*
X132587714Y-107348428D01*
X132702000Y-107319857D01*
X132844857Y-107319857D01*
X132959142Y-107348428D01*
X133016285Y-107377000D01*
X133044857Y-107405571D01*
X133073428Y-107462714D01*
X133073428Y-107519857D01*
X133044857Y-107577000D01*
X133016285Y-107605571D01*
X132959142Y-107634142D01*
X132844857Y-107662714D01*
X132702000Y-107662714D01*
X132587714Y-107634142D01*
X132530571Y-107605571D01*
X132502000Y-107577000D01*
X132473428Y-107519857D01*
%TO.C,R21*%
X154871785Y-109451428D02*
X154671785Y-109165714D01*
X154528928Y-109451428D02*
X154528928Y-108851428D01*
X154757500Y-108851428D01*
X154814642Y-108880000D01*
X154843214Y-108908571D01*
X154871785Y-108965714D01*
X154871785Y-109051428D01*
X154843214Y-109108571D01*
X154814642Y-109137142D01*
X154757500Y-109165714D01*
X154528928Y-109165714D01*
X155100357Y-108908571D02*
X155128928Y-108880000D01*
X155186071Y-108851428D01*
X155328928Y-108851428D01*
X155386071Y-108880000D01*
X155414642Y-108908571D01*
X155443214Y-108965714D01*
X155443214Y-109022857D01*
X155414642Y-109108571D01*
X155071785Y-109451428D01*
X155443214Y-109451428D01*
X156014642Y-109451428D02*
X155671785Y-109451428D01*
X155843214Y-109451428D02*
X155843214Y-108851428D01*
X155786071Y-108937142D01*
X155728928Y-108994285D01*
X155671785Y-109022857D01*
%TO.C,R22*%
X171213428Y-115638214D02*
X170927714Y-115838214D01*
X171213428Y-115981071D02*
X170613428Y-115981071D01*
X170613428Y-115752500D01*
X170642000Y-115695357D01*
X170670571Y-115666785D01*
X170727714Y-115638214D01*
X170813428Y-115638214D01*
X170870571Y-115666785D01*
X170899142Y-115695357D01*
X170927714Y-115752500D01*
X170927714Y-115981071D01*
X170670571Y-115409642D02*
X170642000Y-115381071D01*
X170613428Y-115323928D01*
X170613428Y-115181071D01*
X170642000Y-115123928D01*
X170670571Y-115095357D01*
X170727714Y-115066785D01*
X170784857Y-115066785D01*
X170870571Y-115095357D01*
X171213428Y-115438214D01*
X171213428Y-115066785D01*
X170670571Y-114838214D02*
X170642000Y-114809642D01*
X170613428Y-114752500D01*
X170613428Y-114609642D01*
X170642000Y-114552500D01*
X170670571Y-114523928D01*
X170727714Y-114495357D01*
X170784857Y-114495357D01*
X170870571Y-114523928D01*
X171213428Y-114866785D01*
X171213428Y-114495357D01*
%TO.C,R23*%
X153030285Y-109444428D02*
X152830285Y-109158714D01*
X152687428Y-109444428D02*
X152687428Y-108844428D01*
X152916000Y-108844428D01*
X152973142Y-108873000D01*
X153001714Y-108901571D01*
X153030285Y-108958714D01*
X153030285Y-109044428D01*
X153001714Y-109101571D01*
X152973142Y-109130142D01*
X152916000Y-109158714D01*
X152687428Y-109158714D01*
X153258857Y-108901571D02*
X153287428Y-108873000D01*
X153344571Y-108844428D01*
X153487428Y-108844428D01*
X153544571Y-108873000D01*
X153573142Y-108901571D01*
X153601714Y-108958714D01*
X153601714Y-109015857D01*
X153573142Y-109101571D01*
X153230285Y-109444428D01*
X153601714Y-109444428D01*
X153801714Y-108844428D02*
X154173142Y-108844428D01*
X153973142Y-109073000D01*
X154058857Y-109073000D01*
X154116000Y-109101571D01*
X154144571Y-109130142D01*
X154173142Y-109187285D01*
X154173142Y-109330142D01*
X154144571Y-109387285D01*
X154116000Y-109415857D01*
X154058857Y-109444428D01*
X153887428Y-109444428D01*
X153830285Y-109415857D01*
X153801714Y-109387285D01*
%TO.C,R24*%
X142108285Y-105617928D02*
X141908285Y-105332214D01*
X141765428Y-105617928D02*
X141765428Y-105017928D01*
X141994000Y-105017928D01*
X142051142Y-105046500D01*
X142079714Y-105075071D01*
X142108285Y-105132214D01*
X142108285Y-105217928D01*
X142079714Y-105275071D01*
X142051142Y-105303642D01*
X141994000Y-105332214D01*
X141765428Y-105332214D01*
X142336857Y-105075071D02*
X142365428Y-105046500D01*
X142422571Y-105017928D01*
X142565428Y-105017928D01*
X142622571Y-105046500D01*
X142651142Y-105075071D01*
X142679714Y-105132214D01*
X142679714Y-105189357D01*
X142651142Y-105275071D01*
X142308285Y-105617928D01*
X142679714Y-105617928D01*
X143194000Y-105217928D02*
X143194000Y-105617928D01*
X143051142Y-104989357D02*
X142908285Y-105417928D01*
X143279714Y-105417928D01*
%TO.C,R25*%
X136901285Y-101426928D02*
X136701285Y-101141214D01*
X136558428Y-101426928D02*
X136558428Y-100826928D01*
X136787000Y-100826928D01*
X136844142Y-100855500D01*
X136872714Y-100884071D01*
X136901285Y-100941214D01*
X136901285Y-101026928D01*
X136872714Y-101084071D01*
X136844142Y-101112642D01*
X136787000Y-101141214D01*
X136558428Y-101141214D01*
X137129857Y-100884071D02*
X137158428Y-100855500D01*
X137215571Y-100826928D01*
X137358428Y-100826928D01*
X137415571Y-100855500D01*
X137444142Y-100884071D01*
X137472714Y-100941214D01*
X137472714Y-100998357D01*
X137444142Y-101084071D01*
X137101285Y-101426928D01*
X137472714Y-101426928D01*
X138015571Y-100826928D02*
X137729857Y-100826928D01*
X137701285Y-101112642D01*
X137729857Y-101084071D01*
X137787000Y-101055500D01*
X137929857Y-101055500D01*
X137987000Y-101084071D01*
X138015571Y-101112642D01*
X138044142Y-101169785D01*
X138044142Y-101312642D01*
X138015571Y-101369785D01*
X137987000Y-101398357D01*
X137929857Y-101426928D01*
X137787000Y-101426928D01*
X137729857Y-101398357D01*
X137701285Y-101369785D01*
%TO.C,R26*%
X142108285Y-101426928D02*
X141908285Y-101141214D01*
X141765428Y-101426928D02*
X141765428Y-100826928D01*
X141994000Y-100826928D01*
X142051142Y-100855500D01*
X142079714Y-100884071D01*
X142108285Y-100941214D01*
X142108285Y-101026928D01*
X142079714Y-101084071D01*
X142051142Y-101112642D01*
X141994000Y-101141214D01*
X141765428Y-101141214D01*
X142336857Y-100884071D02*
X142365428Y-100855500D01*
X142422571Y-100826928D01*
X142565428Y-100826928D01*
X142622571Y-100855500D01*
X142651142Y-100884071D01*
X142679714Y-100941214D01*
X142679714Y-100998357D01*
X142651142Y-101084071D01*
X142308285Y-101426928D01*
X142679714Y-101426928D01*
X143194000Y-100826928D02*
X143079714Y-100826928D01*
X143022571Y-100855500D01*
X142994000Y-100884071D01*
X142936857Y-100969785D01*
X142908285Y-101084071D01*
X142908285Y-101312642D01*
X142936857Y-101369785D01*
X142965428Y-101398357D01*
X143022571Y-101426928D01*
X143136857Y-101426928D01*
X143194000Y-101398357D01*
X143222571Y-101369785D01*
X143251142Y-101312642D01*
X143251142Y-101169785D01*
X143222571Y-101112642D01*
X143194000Y-101084071D01*
X143136857Y-101055500D01*
X143022571Y-101055500D01*
X142965428Y-101084071D01*
X142936857Y-101112642D01*
X142908285Y-101169785D01*
%TO.C,R27*%
X132287928Y-114939714D02*
X132002214Y-115139714D01*
X132287928Y-115282571D02*
X131687928Y-115282571D01*
X131687928Y-115054000D01*
X131716500Y-114996857D01*
X131745071Y-114968285D01*
X131802214Y-114939714D01*
X131887928Y-114939714D01*
X131945071Y-114968285D01*
X131973642Y-114996857D01*
X132002214Y-115054000D01*
X132002214Y-115282571D01*
X131745071Y-114711142D02*
X131716500Y-114682571D01*
X131687928Y-114625428D01*
X131687928Y-114482571D01*
X131716500Y-114425428D01*
X131745071Y-114396857D01*
X131802214Y-114368285D01*
X131859357Y-114368285D01*
X131945071Y-114396857D01*
X132287928Y-114739714D01*
X132287928Y-114368285D01*
X131687928Y-114168285D02*
X131687928Y-113768285D01*
X132287928Y-114025428D01*
%TO.C,R29*%
X132287928Y-113161714D02*
X132002214Y-113361714D01*
X132287928Y-113504571D02*
X131687928Y-113504571D01*
X131687928Y-113276000D01*
X131716500Y-113218857D01*
X131745071Y-113190285D01*
X131802214Y-113161714D01*
X131887928Y-113161714D01*
X131945071Y-113190285D01*
X131973642Y-113218857D01*
X132002214Y-113276000D01*
X132002214Y-113504571D01*
X131745071Y-112933142D02*
X131716500Y-112904571D01*
X131687928Y-112847428D01*
X131687928Y-112704571D01*
X131716500Y-112647428D01*
X131745071Y-112618857D01*
X131802214Y-112590285D01*
X131859357Y-112590285D01*
X131945071Y-112618857D01*
X132287928Y-112961714D01*
X132287928Y-112590285D01*
X132287928Y-112304571D02*
X132287928Y-112190285D01*
X132259357Y-112133142D01*
X132230785Y-112104571D01*
X132145071Y-112047428D01*
X132030785Y-112018857D01*
X131802214Y-112018857D01*
X131745071Y-112047428D01*
X131716500Y-112076000D01*
X131687928Y-112133142D01*
X131687928Y-112247428D01*
X131716500Y-112304571D01*
X131745071Y-112333142D01*
X131802214Y-112361714D01*
X131945071Y-112361714D01*
X132002214Y-112333142D01*
X132030785Y-112304571D01*
X132059357Y-112247428D01*
X132059357Y-112133142D01*
X132030785Y-112076000D01*
X132002214Y-112047428D01*
X131945071Y-112018857D01*
%TO.C,R30*%
X152649285Y-97045428D02*
X152449285Y-96759714D01*
X152306428Y-97045428D02*
X152306428Y-96445428D01*
X152535000Y-96445428D01*
X152592142Y-96474000D01*
X152620714Y-96502571D01*
X152649285Y-96559714D01*
X152649285Y-96645428D01*
X152620714Y-96702571D01*
X152592142Y-96731142D01*
X152535000Y-96759714D01*
X152306428Y-96759714D01*
X152849285Y-96445428D02*
X153220714Y-96445428D01*
X153020714Y-96674000D01*
X153106428Y-96674000D01*
X153163571Y-96702571D01*
X153192142Y-96731142D01*
X153220714Y-96788285D01*
X153220714Y-96931142D01*
X153192142Y-96988285D01*
X153163571Y-97016857D01*
X153106428Y-97045428D01*
X152935000Y-97045428D01*
X152877857Y-97016857D01*
X152849285Y-96988285D01*
X153592142Y-96445428D02*
X153649285Y-96445428D01*
X153706428Y-96474000D01*
X153735000Y-96502571D01*
X153763571Y-96559714D01*
X153792142Y-96674000D01*
X153792142Y-96816857D01*
X153763571Y-96931142D01*
X153735000Y-96988285D01*
X153706428Y-97016857D01*
X153649285Y-97045428D01*
X153592142Y-97045428D01*
X153535000Y-97016857D01*
X153506428Y-96988285D01*
X153477857Y-96931142D01*
X153449285Y-96816857D01*
X153449285Y-96674000D01*
X153477857Y-96559714D01*
X153506428Y-96502571D01*
X153535000Y-96474000D01*
X153592142Y-96445428D01*
%TO.C,R31*%
X141346285Y-89615928D02*
X141146285Y-89330214D01*
X141003428Y-89615928D02*
X141003428Y-89015928D01*
X141232000Y-89015928D01*
X141289142Y-89044500D01*
X141317714Y-89073071D01*
X141346285Y-89130214D01*
X141346285Y-89215928D01*
X141317714Y-89273071D01*
X141289142Y-89301642D01*
X141232000Y-89330214D01*
X141003428Y-89330214D01*
X141546285Y-89015928D02*
X141917714Y-89015928D01*
X141717714Y-89244500D01*
X141803428Y-89244500D01*
X141860571Y-89273071D01*
X141889142Y-89301642D01*
X141917714Y-89358785D01*
X141917714Y-89501642D01*
X141889142Y-89558785D01*
X141860571Y-89587357D01*
X141803428Y-89615928D01*
X141632000Y-89615928D01*
X141574857Y-89587357D01*
X141546285Y-89558785D01*
X142489142Y-89615928D02*
X142146285Y-89615928D01*
X142317714Y-89615928D02*
X142317714Y-89015928D01*
X142260571Y-89101642D01*
X142203428Y-89158785D01*
X142146285Y-89187357D01*
%TO.C,SW2*%
X159537500Y-113463357D02*
X159623214Y-113491928D01*
X159766071Y-113491928D01*
X159823214Y-113463357D01*
X159851785Y-113434785D01*
X159880357Y-113377642D01*
X159880357Y-113320500D01*
X159851785Y-113263357D01*
X159823214Y-113234785D01*
X159766071Y-113206214D01*
X159651785Y-113177642D01*
X159594642Y-113149071D01*
X159566071Y-113120500D01*
X159537500Y-113063357D01*
X159537500Y-113006214D01*
X159566071Y-112949071D01*
X159594642Y-112920500D01*
X159651785Y-112891928D01*
X159794642Y-112891928D01*
X159880357Y-112920500D01*
X160080357Y-112891928D02*
X160223214Y-113491928D01*
X160337500Y-113063357D01*
X160451785Y-113491928D01*
X160594642Y-112891928D01*
X160794642Y-112949071D02*
X160823214Y-112920500D01*
X160880357Y-112891928D01*
X161023214Y-112891928D01*
X161080357Y-112920500D01*
X161108928Y-112949071D01*
X161137500Y-113006214D01*
X161137500Y-113063357D01*
X161108928Y-113149071D01*
X160766071Y-113491928D01*
X161137500Y-113491928D01*
%TO.C,U1*%
X138863428Y-116408142D02*
X139349142Y-116408142D01*
X139406285Y-116379571D01*
X139434857Y-116351000D01*
X139463428Y-116293857D01*
X139463428Y-116179571D01*
X139434857Y-116122428D01*
X139406285Y-116093857D01*
X139349142Y-116065285D01*
X138863428Y-116065285D01*
X139463428Y-115465285D02*
X139463428Y-115808142D01*
X139463428Y-115636714D02*
X138863428Y-115636714D01*
X138949142Y-115693857D01*
X139006285Y-115751000D01*
X139034857Y-115808142D01*
%TO.C,U2*%
X164898428Y-114503142D02*
X165384142Y-114503142D01*
X165441285Y-114474571D01*
X165469857Y-114446000D01*
X165498428Y-114388857D01*
X165498428Y-114274571D01*
X165469857Y-114217428D01*
X165441285Y-114188857D01*
X165384142Y-114160285D01*
X164898428Y-114160285D01*
X164955571Y-113903142D02*
X164927000Y-113874571D01*
X164898428Y-113817428D01*
X164898428Y-113674571D01*
X164927000Y-113617428D01*
X164955571Y-113588857D01*
X165012714Y-113560285D01*
X165069857Y-113560285D01*
X165155571Y-113588857D01*
X165498428Y-113931714D01*
X165498428Y-113560285D01*
%TO.C,U3*%
X158991357Y-105716428D02*
X158991357Y-106202142D01*
X159019928Y-106259285D01*
X159048500Y-106287857D01*
X159105642Y-106316428D01*
X159219928Y-106316428D01*
X159277071Y-106287857D01*
X159305642Y-106259285D01*
X159334214Y-106202142D01*
X159334214Y-105716428D01*
X159562785Y-105716428D02*
X159934214Y-105716428D01*
X159734214Y-105945000D01*
X159819928Y-105945000D01*
X159877071Y-105973571D01*
X159905642Y-106002142D01*
X159934214Y-106059285D01*
X159934214Y-106202142D01*
X159905642Y-106259285D01*
X159877071Y-106287857D01*
X159819928Y-106316428D01*
X159648500Y-106316428D01*
X159591357Y-106287857D01*
X159562785Y-106259285D01*
%TO.C,U4*%
X171881857Y-114098428D02*
X171881857Y-114584142D01*
X171910428Y-114641285D01*
X171939000Y-114669857D01*
X171996142Y-114698428D01*
X172110428Y-114698428D01*
X172167571Y-114669857D01*
X172196142Y-114641285D01*
X172224714Y-114584142D01*
X172224714Y-114098428D01*
X172767571Y-114298428D02*
X172767571Y-114698428D01*
X172624714Y-114069857D02*
X172481857Y-114498428D01*
X172853285Y-114498428D01*
%TO.C,U5*%
X164007857Y-104700428D02*
X164007857Y-105186142D01*
X164036428Y-105243285D01*
X164065000Y-105271857D01*
X164122142Y-105300428D01*
X164236428Y-105300428D01*
X164293571Y-105271857D01*
X164322142Y-105243285D01*
X164350714Y-105186142D01*
X164350714Y-104700428D01*
X164922142Y-104700428D02*
X164636428Y-104700428D01*
X164607857Y-104986142D01*
X164636428Y-104957571D01*
X164693571Y-104929000D01*
X164836428Y-104929000D01*
X164893571Y-104957571D01*
X164922142Y-104986142D01*
X164950714Y-105043285D01*
X164950714Y-105186142D01*
X164922142Y-105243285D01*
X164893571Y-105271857D01*
X164836428Y-105300428D01*
X164693571Y-105300428D01*
X164636428Y-105271857D01*
X164607857Y-105243285D01*
%TO.C,U8*%
X137085428Y-103708142D02*
X137571142Y-103708142D01*
X137628285Y-103679571D01*
X137656857Y-103651000D01*
X137685428Y-103593857D01*
X137685428Y-103479571D01*
X137656857Y-103422428D01*
X137628285Y-103393857D01*
X137571142Y-103365285D01*
X137085428Y-103365285D01*
X137342571Y-102993857D02*
X137314000Y-103051000D01*
X137285428Y-103079571D01*
X137228285Y-103108142D01*
X137199714Y-103108142D01*
X137142571Y-103079571D01*
X137114000Y-103051000D01*
X137085428Y-102993857D01*
X137085428Y-102879571D01*
X137114000Y-102822428D01*
X137142571Y-102793857D01*
X137199714Y-102765285D01*
X137228285Y-102765285D01*
X137285428Y-102793857D01*
X137314000Y-102822428D01*
X137342571Y-102879571D01*
X137342571Y-102993857D01*
X137371142Y-103051000D01*
X137399714Y-103079571D01*
X137456857Y-103108142D01*
X137571142Y-103108142D01*
X137628285Y-103079571D01*
X137656857Y-103051000D01*
X137685428Y-102993857D01*
X137685428Y-102879571D01*
X137656857Y-102822428D01*
X137628285Y-102793857D01*
X137571142Y-102765285D01*
X137456857Y-102765285D01*
X137399714Y-102793857D01*
X137371142Y-102822428D01*
X137342571Y-102879571D01*
%TO.C,U9*%
D11*
X130873595Y-119086380D02*
X130873595Y-119895904D01*
X130921214Y-119991142D01*
X130968833Y-120038761D01*
X131064071Y-120086380D01*
X131254547Y-120086380D01*
X131349785Y-120038761D01*
X131397404Y-119991142D01*
X131445023Y-119895904D01*
X131445023Y-119086380D01*
X131968833Y-120086380D02*
X132159309Y-120086380D01*
X132254547Y-120038761D01*
X132302166Y-119991142D01*
X132397404Y-119848285D01*
X132445023Y-119657809D01*
X132445023Y-119276857D01*
X132397404Y-119181619D01*
X132349785Y-119134000D01*
X132254547Y-119086380D01*
X132064071Y-119086380D01*
X131968833Y-119134000D01*
X131921214Y-119181619D01*
X131873595Y-119276857D01*
X131873595Y-119514952D01*
X131921214Y-119610190D01*
X131968833Y-119657809D01*
X132064071Y-119705428D01*
X132254547Y-119705428D01*
X132349785Y-119657809D01*
X132397404Y-119610190D01*
X132445023Y-119514952D01*
%TD*%
M02*
