%TF.GenerationSoftware,KiCad,Pcbnew,5.1.9*%
%TF.CreationDate,2021-02-12T16:46:07+00:00*%
%TF.ProjectId,watch2,77617463-6832-42e6-9b69-6361645f7063,rev?*%
%TF.SameCoordinates,Original*%
%TF.FileFunction,Profile,NP*%
%FSLAX46Y46*%
G04 Gerber Fmt 4.6, Leading zero omitted, Abs format (unit mm)*
G04 Created by KiCad (PCBNEW 5.1.9) date 2021-02-12 16:46:07*
%MOMM*%
%LPD*%
G01*
G04 APERTURE LIST*
%TA.AperFunction,Profile*%
%ADD10C,0.050000*%
%TD*%
%TA.AperFunction,Profile*%
%ADD11C,0.100000*%
%TD*%
G04 APERTURE END LIST*
D10*
X176593500Y-118237000D02*
G75*
G02*
X174053500Y-120777000I-2540000J0D01*
G01*
X130492500Y-120777000D02*
G75*
G02*
X127952500Y-118237000I0J2540000D01*
G01*
X128016000Y-87693500D02*
G75*
G02*
X130556000Y-85153500I2540000J0D01*
G01*
X174053500Y-85153500D02*
G75*
G02*
X176593500Y-87693500I0J-2540000D01*
G01*
X174053500Y-85153500D02*
X144018000Y-85153500D01*
X176593500Y-87693500D02*
X176593500Y-118237000D01*
X174053500Y-120777000D02*
X130492500Y-120777000D01*
X128016000Y-87693500D02*
X127952500Y-118237000D01*
X138176000Y-85153500D02*
X130556000Y-85153500D01*
X143129000Y-77851000D02*
G75*
G02*
X144018000Y-78740000I0J-889000D01*
G01*
X138176000Y-78740000D02*
G75*
G02*
X139065000Y-77851000I889000J0D01*
G01*
X139065000Y-77851000D02*
X143129000Y-77851000D01*
X144018000Y-78740000D02*
X144018000Y-85153500D01*
X138176000Y-78740000D02*
X138176000Y-85153500D01*
D11*
%TO.C,J1*%
X149148000Y-116012000D02*
X149398000Y-116012000D01*
X149398000Y-115382000D02*
X149148000Y-115382000D01*
X149148000Y-115382000D02*
G75*
G03*
X148833000Y-115697000I0J-315000D01*
G01*
X148833000Y-115697000D02*
G75*
G03*
X149148000Y-116012000I315000J0D01*
G01*
X149398000Y-116012000D02*
G75*
G03*
X149713000Y-115697000I0J315000D01*
G01*
X149713000Y-115697000D02*
G75*
G03*
X149398000Y-115382000I-315000J0D01*
G01*
%TD*%
M02*
