%TF.GenerationSoftware,KiCad,Pcbnew,5.1.9*%
%TF.CreationDate,2021-02-12T16:46:07+00:00*%
%TF.ProjectId,watch2,77617463-6832-42e6-9b69-6361645f7063,rev?*%
%TF.SameCoordinates,Original*%
%TF.FileFunction,Soldermask,Top*%
%TF.FilePolarity,Negative*%
%FSLAX46Y46*%
G04 Gerber Fmt 4.6, Leading zero omitted, Abs format (unit mm)*
G04 Created by KiCad (PCBNEW 5.1.9) date 2021-02-12 16:46:07*
%MOMM*%
%LPD*%
G01*
G04 APERTURE LIST*
%ADD10C,0.912000*%
%ADD11R,1.000000X1.550000*%
%ADD12C,0.800000*%
%ADD13C,0.600000*%
%ADD14C,0.630000*%
%ADD15O,1.158000X2.316000*%
%ADD16O,1.200000X2.400000*%
%ADD17R,1.700000X1.700000*%
%ADD18O,1.700000X1.700000*%
%ADD19C,3.301600*%
%ADD20R,1.350000X1.350000*%
%ADD21O,1.350000X1.350000*%
%ADD22R,0.700000X3.200000*%
%ADD23R,1.700000X1.350000*%
%ADD24R,1.000000X1.000000*%
%ADD25O,1.000000X1.000000*%
%ADD26C,1.700000*%
%ADD27R,1.800000X1.800000*%
%ADD28R,0.522000X0.600000*%
%ADD29R,0.800000X0.900000*%
%ADD30R,0.700000X1.450000*%
%ADD31R,0.400000X1.200000*%
%ADD32R,0.650000X1.060000*%
%ADD33R,1.700000X1.400000*%
%ADD34R,1.060000X0.650000*%
%ADD35R,3.000000X2.290000*%
%ADD36C,1.800000*%
G04 APERTURE END LIST*
D10*
%TO.C,MK1*%
X129551500Y-113855500D02*
G75*
G03*
X129551500Y-113855500I-456000J0D01*
G01*
%TD*%
D11*
%TO.C,IO0*%
X175221000Y-91525000D03*
X175221000Y-86275000D03*
X173521000Y-86275000D03*
X173521000Y-91525000D03*
%TD*%
D12*
%TO.C,U7*%
X164106000Y-100000000D03*
X163106000Y-100000000D03*
X162106000Y-100000000D03*
X161106000Y-100000000D03*
X160106000Y-100000000D03*
X164106000Y-102000000D03*
X163106000Y-102000000D03*
X162106000Y-102000000D03*
X161106000Y-102000000D03*
X160106000Y-102000000D03*
X160106000Y-101000000D03*
X161106000Y-101000000D03*
X162106000Y-101000000D03*
X163106000Y-101000000D03*
X164106000Y-101000000D03*
X164106000Y-103000000D03*
X163106000Y-103000000D03*
X162106000Y-103000000D03*
X161106000Y-103000000D03*
X160106000Y-103000000D03*
X160106000Y-104000000D03*
X161106000Y-104000000D03*
X162106000Y-104000000D03*
X163106000Y-104000000D03*
X164106000Y-104000000D03*
%TD*%
D13*
%TO.C,J1*%
X149273000Y-115697000D03*
D14*
X149273000Y-115697000D03*
X155273000Y-115697000D03*
D15*
X156593000Y-114972000D03*
X147953000Y-114972000D03*
D16*
X156593000Y-118797000D03*
X147953000Y-118797000D03*
%TD*%
%TO.C,R28*%
G36*
G01*
X139497000Y-93334750D02*
X139497000Y-90434250D01*
G75*
G02*
X139746750Y-90184500I249750J0D01*
G01*
X140372250Y-90184500D01*
G75*
G02*
X140622000Y-90434250I0J-249750D01*
G01*
X140622000Y-93334750D01*
G75*
G02*
X140372250Y-93584500I-249750J0D01*
G01*
X139746750Y-93584500D01*
G75*
G02*
X139497000Y-93334750I0J249750D01*
G01*
G37*
G36*
G01*
X135222000Y-93334750D02*
X135222000Y-90434250D01*
G75*
G02*
X135471750Y-90184500I249750J0D01*
G01*
X136097250Y-90184500D01*
G75*
G02*
X136347000Y-90434250I0J-249750D01*
G01*
X136347000Y-93334750D01*
G75*
G02*
X136097250Y-93584500I-249750J0D01*
G01*
X135471750Y-93584500D01*
G75*
G02*
X135222000Y-93334750I0J249750D01*
G01*
G37*
%TD*%
%TO.C,R32*%
G36*
G01*
X150806999Y-91713000D02*
X151707001Y-91713000D01*
G75*
G02*
X151957000Y-91962999I0J-249999D01*
G01*
X151957000Y-92488001D01*
G75*
G02*
X151707001Y-92738000I-249999J0D01*
G01*
X150806999Y-92738000D01*
G75*
G02*
X150557000Y-92488001I0J249999D01*
G01*
X150557000Y-91962999D01*
G75*
G02*
X150806999Y-91713000I249999J0D01*
G01*
G37*
G36*
G01*
X150806999Y-89888000D02*
X151707001Y-89888000D01*
G75*
G02*
X151957000Y-90137999I0J-249999D01*
G01*
X151957000Y-90663001D01*
G75*
G02*
X151707001Y-90913000I-249999J0D01*
G01*
X150806999Y-90913000D01*
G75*
G02*
X150557000Y-90663001I0J249999D01*
G01*
X150557000Y-90137999D01*
G75*
G02*
X150806999Y-89888000I249999J0D01*
G01*
G37*
%TD*%
D17*
%TO.C,J4*%
X136652000Y-95250000D03*
D18*
X134112000Y-95250000D03*
X131572000Y-95250000D03*
%TD*%
%TO.C,J2*%
G36*
G01*
X132312000Y-89068500D02*
X133562000Y-89068500D01*
G75*
G02*
X133712000Y-89218500I0J-150000D01*
G01*
X133712000Y-89518500D01*
G75*
G02*
X133562000Y-89668500I-150000J0D01*
G01*
X132312000Y-89668500D01*
G75*
G02*
X132162000Y-89518500I0J150000D01*
G01*
X132162000Y-89218500D01*
G75*
G02*
X132312000Y-89068500I150000J0D01*
G01*
G37*
G36*
G01*
X132312000Y-90068500D02*
X133562000Y-90068500D01*
G75*
G02*
X133712000Y-90218500I0J-150000D01*
G01*
X133712000Y-90518500D01*
G75*
G02*
X133562000Y-90668500I-150000J0D01*
G01*
X132312000Y-90668500D01*
G75*
G02*
X132162000Y-90518500I0J150000D01*
G01*
X132162000Y-90218500D01*
G75*
G02*
X132312000Y-90068500I150000J0D01*
G01*
G37*
G36*
G01*
X132312000Y-91068500D02*
X133562000Y-91068500D01*
G75*
G02*
X133712000Y-91218500I0J-150000D01*
G01*
X133712000Y-91518500D01*
G75*
G02*
X133562000Y-91668500I-150000J0D01*
G01*
X132312000Y-91668500D01*
G75*
G02*
X132162000Y-91518500I0J150000D01*
G01*
X132162000Y-91218500D01*
G75*
G02*
X132312000Y-91068500I150000J0D01*
G01*
G37*
G36*
G01*
X132312000Y-92068500D02*
X133562000Y-92068500D01*
G75*
G02*
X133712000Y-92218500I0J-150000D01*
G01*
X133712000Y-92518500D01*
G75*
G02*
X133562000Y-92668500I-150000J0D01*
G01*
X132312000Y-92668500D01*
G75*
G02*
X132162000Y-92518500I0J150000D01*
G01*
X132162000Y-92218500D01*
G75*
G02*
X132312000Y-92068500I150000J0D01*
G01*
G37*
G36*
G01*
X128411999Y-87468500D02*
X129712001Y-87468500D01*
G75*
G02*
X129962000Y-87718499I0J-249999D01*
G01*
X129962000Y-88418501D01*
G75*
G02*
X129712001Y-88668500I-249999J0D01*
G01*
X128411999Y-88668500D01*
G75*
G02*
X128162000Y-88418501I0J249999D01*
G01*
X128162000Y-87718499D01*
G75*
G02*
X128411999Y-87468500I249999J0D01*
G01*
G37*
G36*
G01*
X128411999Y-93068500D02*
X129712001Y-93068500D01*
G75*
G02*
X129962000Y-93318499I0J-249999D01*
G01*
X129962000Y-94018501D01*
G75*
G02*
X129712001Y-94268500I-249999J0D01*
G01*
X128411999Y-94268500D01*
G75*
G02*
X128162000Y-94018501I0J249999D01*
G01*
X128162000Y-93318499D01*
G75*
G02*
X128411999Y-93068500I249999J0D01*
G01*
G37*
%TD*%
%TO.C,U6*%
G36*
G01*
X146357500Y-106178000D02*
X146357500Y-106428000D01*
G75*
G02*
X146232500Y-106553000I-125000J0D01*
G01*
X144582500Y-106553000D01*
G75*
G02*
X144457500Y-106428000I0J125000D01*
G01*
X144457500Y-106178000D01*
G75*
G02*
X144582500Y-106053000I125000J0D01*
G01*
X146232500Y-106053000D01*
G75*
G02*
X146357500Y-106178000I0J-125000D01*
G01*
G37*
G36*
G01*
X146357500Y-105528000D02*
X146357500Y-105778000D01*
G75*
G02*
X146232500Y-105903000I-125000J0D01*
G01*
X144582500Y-105903000D01*
G75*
G02*
X144457500Y-105778000I0J125000D01*
G01*
X144457500Y-105528000D01*
G75*
G02*
X144582500Y-105403000I125000J0D01*
G01*
X146232500Y-105403000D01*
G75*
G02*
X146357500Y-105528000I0J-125000D01*
G01*
G37*
G36*
G01*
X146357500Y-104878000D02*
X146357500Y-105128000D01*
G75*
G02*
X146232500Y-105253000I-125000J0D01*
G01*
X144582500Y-105253000D01*
G75*
G02*
X144457500Y-105128000I0J125000D01*
G01*
X144457500Y-104878000D01*
G75*
G02*
X144582500Y-104753000I125000J0D01*
G01*
X146232500Y-104753000D01*
G75*
G02*
X146357500Y-104878000I0J-125000D01*
G01*
G37*
G36*
G01*
X146357500Y-104228000D02*
X146357500Y-104478000D01*
G75*
G02*
X146232500Y-104603000I-125000J0D01*
G01*
X144582500Y-104603000D01*
G75*
G02*
X144457500Y-104478000I0J125000D01*
G01*
X144457500Y-104228000D01*
G75*
G02*
X144582500Y-104103000I125000J0D01*
G01*
X146232500Y-104103000D01*
G75*
G02*
X146357500Y-104228000I0J-125000D01*
G01*
G37*
G36*
G01*
X146357500Y-103578000D02*
X146357500Y-103828000D01*
G75*
G02*
X146232500Y-103953000I-125000J0D01*
G01*
X144582500Y-103953000D01*
G75*
G02*
X144457500Y-103828000I0J125000D01*
G01*
X144457500Y-103578000D01*
G75*
G02*
X144582500Y-103453000I125000J0D01*
G01*
X146232500Y-103453000D01*
G75*
G02*
X146357500Y-103578000I0J-125000D01*
G01*
G37*
G36*
G01*
X146357500Y-102928000D02*
X146357500Y-103178000D01*
G75*
G02*
X146232500Y-103303000I-125000J0D01*
G01*
X144582500Y-103303000D01*
G75*
G02*
X144457500Y-103178000I0J125000D01*
G01*
X144457500Y-102928000D01*
G75*
G02*
X144582500Y-102803000I125000J0D01*
G01*
X146232500Y-102803000D01*
G75*
G02*
X146357500Y-102928000I0J-125000D01*
G01*
G37*
G36*
G01*
X146357500Y-102278000D02*
X146357500Y-102528000D01*
G75*
G02*
X146232500Y-102653000I-125000J0D01*
G01*
X144582500Y-102653000D01*
G75*
G02*
X144457500Y-102528000I0J125000D01*
G01*
X144457500Y-102278000D01*
G75*
G02*
X144582500Y-102153000I125000J0D01*
G01*
X146232500Y-102153000D01*
G75*
G02*
X146357500Y-102278000I0J-125000D01*
G01*
G37*
G36*
G01*
X146357500Y-101628000D02*
X146357500Y-101878000D01*
G75*
G02*
X146232500Y-102003000I-125000J0D01*
G01*
X144582500Y-102003000D01*
G75*
G02*
X144457500Y-101878000I0J125000D01*
G01*
X144457500Y-101628000D01*
G75*
G02*
X144582500Y-101503000I125000J0D01*
G01*
X146232500Y-101503000D01*
G75*
G02*
X146357500Y-101628000I0J-125000D01*
G01*
G37*
G36*
G01*
X146357500Y-100978000D02*
X146357500Y-101228000D01*
G75*
G02*
X146232500Y-101353000I-125000J0D01*
G01*
X144582500Y-101353000D01*
G75*
G02*
X144457500Y-101228000I0J125000D01*
G01*
X144457500Y-100978000D01*
G75*
G02*
X144582500Y-100853000I125000J0D01*
G01*
X146232500Y-100853000D01*
G75*
G02*
X146357500Y-100978000I0J-125000D01*
G01*
G37*
G36*
G01*
X146357500Y-100328000D02*
X146357500Y-100578000D01*
G75*
G02*
X146232500Y-100703000I-125000J0D01*
G01*
X144582500Y-100703000D01*
G75*
G02*
X144457500Y-100578000I0J125000D01*
G01*
X144457500Y-100328000D01*
G75*
G02*
X144582500Y-100203000I125000J0D01*
G01*
X146232500Y-100203000D01*
G75*
G02*
X146357500Y-100328000I0J-125000D01*
G01*
G37*
G36*
G01*
X153357500Y-100328000D02*
X153357500Y-100578000D01*
G75*
G02*
X153232500Y-100703000I-125000J0D01*
G01*
X151582500Y-100703000D01*
G75*
G02*
X151457500Y-100578000I0J125000D01*
G01*
X151457500Y-100328000D01*
G75*
G02*
X151582500Y-100203000I125000J0D01*
G01*
X153232500Y-100203000D01*
G75*
G02*
X153357500Y-100328000I0J-125000D01*
G01*
G37*
G36*
G01*
X153357500Y-100978000D02*
X153357500Y-101228000D01*
G75*
G02*
X153232500Y-101353000I-125000J0D01*
G01*
X151582500Y-101353000D01*
G75*
G02*
X151457500Y-101228000I0J125000D01*
G01*
X151457500Y-100978000D01*
G75*
G02*
X151582500Y-100853000I125000J0D01*
G01*
X153232500Y-100853000D01*
G75*
G02*
X153357500Y-100978000I0J-125000D01*
G01*
G37*
G36*
G01*
X153357500Y-101628000D02*
X153357500Y-101878000D01*
G75*
G02*
X153232500Y-102003000I-125000J0D01*
G01*
X151582500Y-102003000D01*
G75*
G02*
X151457500Y-101878000I0J125000D01*
G01*
X151457500Y-101628000D01*
G75*
G02*
X151582500Y-101503000I125000J0D01*
G01*
X153232500Y-101503000D01*
G75*
G02*
X153357500Y-101628000I0J-125000D01*
G01*
G37*
G36*
G01*
X153357500Y-102278000D02*
X153357500Y-102528000D01*
G75*
G02*
X153232500Y-102653000I-125000J0D01*
G01*
X151582500Y-102653000D01*
G75*
G02*
X151457500Y-102528000I0J125000D01*
G01*
X151457500Y-102278000D01*
G75*
G02*
X151582500Y-102153000I125000J0D01*
G01*
X153232500Y-102153000D01*
G75*
G02*
X153357500Y-102278000I0J-125000D01*
G01*
G37*
G36*
G01*
X153357500Y-102928000D02*
X153357500Y-103178000D01*
G75*
G02*
X153232500Y-103303000I-125000J0D01*
G01*
X151582500Y-103303000D01*
G75*
G02*
X151457500Y-103178000I0J125000D01*
G01*
X151457500Y-102928000D01*
G75*
G02*
X151582500Y-102803000I125000J0D01*
G01*
X153232500Y-102803000D01*
G75*
G02*
X153357500Y-102928000I0J-125000D01*
G01*
G37*
G36*
G01*
X153357500Y-103578000D02*
X153357500Y-103828000D01*
G75*
G02*
X153232500Y-103953000I-125000J0D01*
G01*
X151582500Y-103953000D01*
G75*
G02*
X151457500Y-103828000I0J125000D01*
G01*
X151457500Y-103578000D01*
G75*
G02*
X151582500Y-103453000I125000J0D01*
G01*
X153232500Y-103453000D01*
G75*
G02*
X153357500Y-103578000I0J-125000D01*
G01*
G37*
G36*
G01*
X153357500Y-104228000D02*
X153357500Y-104478000D01*
G75*
G02*
X153232500Y-104603000I-125000J0D01*
G01*
X151582500Y-104603000D01*
G75*
G02*
X151457500Y-104478000I0J125000D01*
G01*
X151457500Y-104228000D01*
G75*
G02*
X151582500Y-104103000I125000J0D01*
G01*
X153232500Y-104103000D01*
G75*
G02*
X153357500Y-104228000I0J-125000D01*
G01*
G37*
G36*
G01*
X153357500Y-104878000D02*
X153357500Y-105128000D01*
G75*
G02*
X153232500Y-105253000I-125000J0D01*
G01*
X151582500Y-105253000D01*
G75*
G02*
X151457500Y-105128000I0J125000D01*
G01*
X151457500Y-104878000D01*
G75*
G02*
X151582500Y-104753000I125000J0D01*
G01*
X153232500Y-104753000D01*
G75*
G02*
X153357500Y-104878000I0J-125000D01*
G01*
G37*
G36*
G01*
X153357500Y-105528000D02*
X153357500Y-105778000D01*
G75*
G02*
X153232500Y-105903000I-125000J0D01*
G01*
X151582500Y-105903000D01*
G75*
G02*
X151457500Y-105778000I0J125000D01*
G01*
X151457500Y-105528000D01*
G75*
G02*
X151582500Y-105403000I125000J0D01*
G01*
X153232500Y-105403000D01*
G75*
G02*
X153357500Y-105528000I0J-125000D01*
G01*
G37*
G36*
G01*
X153357500Y-106178000D02*
X153357500Y-106428000D01*
G75*
G02*
X153232500Y-106553000I-125000J0D01*
G01*
X151582500Y-106553000D01*
G75*
G02*
X151457500Y-106428000I0J125000D01*
G01*
X151457500Y-106178000D01*
G75*
G02*
X151582500Y-106053000I125000J0D01*
G01*
X153232500Y-106053000D01*
G75*
G02*
X153357500Y-106178000I0J-125000D01*
G01*
G37*
%TD*%
D19*
%TO.C,U$7*%
X137134600Y-118198900D03*
%TD*%
%TO.C,U$8*%
X170154600Y-118198900D03*
%TD*%
%TO.C,U$9*%
X137134600Y-87718900D03*
%TD*%
%TO.C,U$10*%
X170154600Y-87718900D03*
%TD*%
D20*
%TO.C,BT1*%
X173577500Y-116840000D03*
D21*
X175577500Y-116840000D03*
%TD*%
%TO.C,C1*%
G36*
G01*
X145829000Y-112466500D02*
X146779000Y-112466500D01*
G75*
G02*
X147029000Y-112716500I0J-250000D01*
G01*
X147029000Y-113216500D01*
G75*
G02*
X146779000Y-113466500I-250000J0D01*
G01*
X145829000Y-113466500D01*
G75*
G02*
X145579000Y-113216500I0J250000D01*
G01*
X145579000Y-112716500D01*
G75*
G02*
X145829000Y-112466500I250000J0D01*
G01*
G37*
G36*
G01*
X145829000Y-114366500D02*
X146779000Y-114366500D01*
G75*
G02*
X147029000Y-114616500I0J-250000D01*
G01*
X147029000Y-115116500D01*
G75*
G02*
X146779000Y-115366500I-250000J0D01*
G01*
X145829000Y-115366500D01*
G75*
G02*
X145579000Y-115116500I0J250000D01*
G01*
X145579000Y-114616500D01*
G75*
G02*
X145829000Y-114366500I250000J0D01*
G01*
G37*
%TD*%
%TO.C,C2*%
G36*
G01*
X174567000Y-119474000D02*
X174567000Y-118524000D01*
G75*
G02*
X174817000Y-118274000I250000J0D01*
G01*
X175317000Y-118274000D01*
G75*
G02*
X175567000Y-118524000I0J-250000D01*
G01*
X175567000Y-119474000D01*
G75*
G02*
X175317000Y-119724000I-250000J0D01*
G01*
X174817000Y-119724000D01*
G75*
G02*
X174567000Y-119474000I0J250000D01*
G01*
G37*
G36*
G01*
X172667000Y-119474000D02*
X172667000Y-118524000D01*
G75*
G02*
X172917000Y-118274000I250000J0D01*
G01*
X173417000Y-118274000D01*
G75*
G02*
X173667000Y-118524000I0J-250000D01*
G01*
X173667000Y-119474000D01*
G75*
G02*
X173417000Y-119724000I-250000J0D01*
G01*
X172917000Y-119724000D01*
G75*
G02*
X172667000Y-119474000I0J250000D01*
G01*
G37*
%TD*%
%TO.C,C3*%
G36*
G01*
X156687500Y-111514000D02*
X157637500Y-111514000D01*
G75*
G02*
X157887500Y-111764000I0J-250000D01*
G01*
X157887500Y-112264000D01*
G75*
G02*
X157637500Y-112514000I-250000J0D01*
G01*
X156687500Y-112514000D01*
G75*
G02*
X156437500Y-112264000I0J250000D01*
G01*
X156437500Y-111764000D01*
G75*
G02*
X156687500Y-111514000I250000J0D01*
G01*
G37*
G36*
G01*
X156687500Y-109614000D02*
X157637500Y-109614000D01*
G75*
G02*
X157887500Y-109864000I0J-250000D01*
G01*
X157887500Y-110364000D01*
G75*
G02*
X157637500Y-110614000I-250000J0D01*
G01*
X156687500Y-110614000D01*
G75*
G02*
X156437500Y-110364000I0J250000D01*
G01*
X156437500Y-109864000D01*
G75*
G02*
X156687500Y-109614000I250000J0D01*
G01*
G37*
%TD*%
%TO.C,C4*%
G36*
G01*
X167546000Y-107450000D02*
X168496000Y-107450000D01*
G75*
G02*
X168746000Y-107700000I0J-250000D01*
G01*
X168746000Y-108200000D01*
G75*
G02*
X168496000Y-108450000I-250000J0D01*
G01*
X167546000Y-108450000D01*
G75*
G02*
X167296000Y-108200000I0J250000D01*
G01*
X167296000Y-107700000D01*
G75*
G02*
X167546000Y-107450000I250000J0D01*
G01*
G37*
G36*
G01*
X167546000Y-109350000D02*
X168496000Y-109350000D01*
G75*
G02*
X168746000Y-109600000I0J-250000D01*
G01*
X168746000Y-110100000D01*
G75*
G02*
X168496000Y-110350000I-250000J0D01*
G01*
X167546000Y-110350000D01*
G75*
G02*
X167296000Y-110100000I0J250000D01*
G01*
X167296000Y-109600000D01*
G75*
G02*
X167546000Y-109350000I250000J0D01*
G01*
G37*
%TD*%
%TO.C,C5*%
G36*
G01*
X155097500Y-103367500D02*
X154147500Y-103367500D01*
G75*
G02*
X153897500Y-103117500I0J250000D01*
G01*
X153897500Y-102617500D01*
G75*
G02*
X154147500Y-102367500I250000J0D01*
G01*
X155097500Y-102367500D01*
G75*
G02*
X155347500Y-102617500I0J-250000D01*
G01*
X155347500Y-103117500D01*
G75*
G02*
X155097500Y-103367500I-250000J0D01*
G01*
G37*
G36*
G01*
X155097500Y-101467500D02*
X154147500Y-101467500D01*
G75*
G02*
X153897500Y-101217500I0J250000D01*
G01*
X153897500Y-100717500D01*
G75*
G02*
X154147500Y-100467500I250000J0D01*
G01*
X155097500Y-100467500D01*
G75*
G02*
X155347500Y-100717500I0J-250000D01*
G01*
X155347500Y-101217500D01*
G75*
G02*
X155097500Y-101467500I-250000J0D01*
G01*
G37*
%TD*%
%TO.C,C6*%
G36*
G01*
X169045000Y-106710500D02*
X169045000Y-105760500D01*
G75*
G02*
X169295000Y-105510500I250000J0D01*
G01*
X169795000Y-105510500D01*
G75*
G02*
X170045000Y-105760500I0J-250000D01*
G01*
X170045000Y-106710500D01*
G75*
G02*
X169795000Y-106960500I-250000J0D01*
G01*
X169295000Y-106960500D01*
G75*
G02*
X169045000Y-106710500I0J250000D01*
G01*
G37*
G36*
G01*
X167145000Y-106710500D02*
X167145000Y-105760500D01*
G75*
G02*
X167395000Y-105510500I250000J0D01*
G01*
X167895000Y-105510500D01*
G75*
G02*
X168145000Y-105760500I0J-250000D01*
G01*
X168145000Y-106710500D01*
G75*
G02*
X167895000Y-106960500I-250000J0D01*
G01*
X167395000Y-106960500D01*
G75*
G02*
X167145000Y-106710500I0J250000D01*
G01*
G37*
%TD*%
%TO.C,C7*%
G36*
G01*
X138623500Y-107218500D02*
X138623500Y-106268500D01*
G75*
G02*
X138873500Y-106018500I250000J0D01*
G01*
X139373500Y-106018500D01*
G75*
G02*
X139623500Y-106268500I0J-250000D01*
G01*
X139623500Y-107218500D01*
G75*
G02*
X139373500Y-107468500I-250000J0D01*
G01*
X138873500Y-107468500D01*
G75*
G02*
X138623500Y-107218500I0J250000D01*
G01*
G37*
G36*
G01*
X136723500Y-107218500D02*
X136723500Y-106268500D01*
G75*
G02*
X136973500Y-106018500I250000J0D01*
G01*
X137473500Y-106018500D01*
G75*
G02*
X137723500Y-106268500I0J-250000D01*
G01*
X137723500Y-107218500D01*
G75*
G02*
X137473500Y-107468500I-250000J0D01*
G01*
X136973500Y-107468500D01*
G75*
G02*
X136723500Y-107218500I0J250000D01*
G01*
G37*
%TD*%
%TO.C,C8*%
G36*
G01*
X129570500Y-112196500D02*
X128620500Y-112196500D01*
G75*
G02*
X128370500Y-111946500I0J250000D01*
G01*
X128370500Y-111446500D01*
G75*
G02*
X128620500Y-111196500I250000J0D01*
G01*
X129570500Y-111196500D01*
G75*
G02*
X129820500Y-111446500I0J-250000D01*
G01*
X129820500Y-111946500D01*
G75*
G02*
X129570500Y-112196500I-250000J0D01*
G01*
G37*
G36*
G01*
X129570500Y-110296500D02*
X128620500Y-110296500D01*
G75*
G02*
X128370500Y-110046500I0J250000D01*
G01*
X128370500Y-109546500D01*
G75*
G02*
X128620500Y-109296500I250000J0D01*
G01*
X129570500Y-109296500D01*
G75*
G02*
X129820500Y-109546500I0J-250000D01*
G01*
X129820500Y-110046500D01*
G75*
G02*
X129570500Y-110296500I-250000J0D01*
G01*
G37*
%TD*%
%TO.C,D1*%
G36*
G01*
X166383500Y-118336000D02*
X165467500Y-118336000D01*
G75*
G02*
X165275500Y-118144000I0J192000D01*
G01*
X165275500Y-117528000D01*
G75*
G02*
X165467500Y-117336000I192000J0D01*
G01*
X166383500Y-117336000D01*
G75*
G02*
X166575500Y-117528000I0J-192000D01*
G01*
X166575500Y-118144000D01*
G75*
G02*
X166383500Y-118336000I-192000J0D01*
G01*
G37*
G36*
G01*
X166383500Y-120261000D02*
X165467500Y-120261000D01*
G75*
G02*
X165275500Y-120069000I0J192000D01*
G01*
X165275500Y-119453000D01*
G75*
G02*
X165467500Y-119261000I192000J0D01*
G01*
X166383500Y-119261000D01*
G75*
G02*
X166575500Y-119453000I0J-192000D01*
G01*
X166575500Y-120069000D01*
G75*
G02*
X166383500Y-120261000I-192000J0D01*
G01*
G37*
%TD*%
%TO.C,D2*%
G36*
G01*
X141895000Y-111271000D02*
X141895000Y-110471000D01*
G75*
G02*
X142145000Y-110221000I250000J0D01*
G01*
X142970000Y-110221000D01*
G75*
G02*
X143220000Y-110471000I0J-250000D01*
G01*
X143220000Y-111271000D01*
G75*
G02*
X142970000Y-111521000I-250000J0D01*
G01*
X142145000Y-111521000D01*
G75*
G02*
X141895000Y-111271000I0J250000D01*
G01*
G37*
G36*
G01*
X143820000Y-111271000D02*
X143820000Y-110471000D01*
G75*
G02*
X144070000Y-110221000I250000J0D01*
G01*
X144895000Y-110221000D01*
G75*
G02*
X145145000Y-110471000I0J-250000D01*
G01*
X145145000Y-111271000D01*
G75*
G02*
X144895000Y-111521000I-250000J0D01*
G01*
X144070000Y-111521000D01*
G75*
G02*
X143820000Y-111271000I0J250000D01*
G01*
G37*
%TD*%
%TO.C,D3*%
G36*
G01*
X141895000Y-113112500D02*
X141895000Y-112312500D01*
G75*
G02*
X142145000Y-112062500I250000J0D01*
G01*
X142970000Y-112062500D01*
G75*
G02*
X143220000Y-112312500I0J-250000D01*
G01*
X143220000Y-113112500D01*
G75*
G02*
X142970000Y-113362500I-250000J0D01*
G01*
X142145000Y-113362500D01*
G75*
G02*
X141895000Y-113112500I0J250000D01*
G01*
G37*
G36*
G01*
X143820000Y-113112500D02*
X143820000Y-112312500D01*
G75*
G02*
X144070000Y-112062500I250000J0D01*
G01*
X144895000Y-112062500D01*
G75*
G02*
X145145000Y-112312500I0J-250000D01*
G01*
X145145000Y-113112500D01*
G75*
G02*
X144895000Y-113362500I-250000J0D01*
G01*
X144070000Y-113362500D01*
G75*
G02*
X143820000Y-113112500I0J250000D01*
G01*
G37*
%TD*%
D22*
%TO.C,D4*%
X141071600Y-79692500D03*
D23*
X139382500Y-78740000D03*
X139382500Y-80670400D03*
X142735300Y-80670400D03*
X142735300Y-78740000D03*
%TD*%
D24*
%TO.C,J3*%
X146304000Y-119380000D03*
D25*
X146304000Y-118110000D03*
X146304000Y-116840000D03*
%TD*%
D18*
%TO.C,J5*%
X131572000Y-110490000D03*
X134112000Y-110490000D03*
D17*
X136652000Y-110490000D03*
%TD*%
%TO.C,J6*%
X140970000Y-87757000D03*
D18*
X143510000Y-87757000D03*
X146050000Y-87757000D03*
X148590000Y-87757000D03*
X151130000Y-87757000D03*
X153670000Y-87757000D03*
X156210000Y-87757000D03*
X158750000Y-87757000D03*
X161290000Y-87757000D03*
X163830000Y-87757000D03*
X166370000Y-87757000D03*
%TD*%
D26*
%TO.C,J7*%
X130556000Y-86550500D03*
X133096000Y-86550500D03*
%TD*%
D18*
%TO.C,J8*%
X142430500Y-82994500D03*
D17*
X139890500Y-82994500D03*
%TD*%
D27*
%TO.C,LS1*%
X135309000Y-106072000D03*
X129159000Y-106072000D03*
X129159000Y-99922000D03*
X135309000Y-99922000D03*
%TD*%
D28*
%TO.C,MK1*%
X130347500Y-112955500D03*
X131169500Y-112955500D03*
X131169500Y-113855500D03*
X131169500Y-114755500D03*
X130347500Y-114755500D03*
D12*
X129095500Y-113855500D03*
%TD*%
D29*
%TO.C,Q1*%
X167962500Y-113284000D03*
X169862500Y-113284000D03*
X168912500Y-111284000D03*
%TD*%
%TO.C,Q2*%
X149603500Y-90376500D03*
X147703500Y-90376500D03*
X148653500Y-92376500D03*
%TD*%
%TO.C,Q3*%
X148653500Y-96901000D03*
X147703500Y-94901000D03*
X149603500Y-94901000D03*
%TD*%
%TO.C,R1*%
G36*
G01*
X164573000Y-89846999D02*
X164573000Y-90747001D01*
G75*
G02*
X164323001Y-90997000I-249999J0D01*
G01*
X163797999Y-90997000D01*
G75*
G02*
X163548000Y-90747001I0J249999D01*
G01*
X163548000Y-89846999D01*
G75*
G02*
X163797999Y-89597000I249999J0D01*
G01*
X164323001Y-89597000D01*
G75*
G02*
X164573000Y-89846999I0J-249999D01*
G01*
G37*
G36*
G01*
X166398000Y-89846999D02*
X166398000Y-90747001D01*
G75*
G02*
X166148001Y-90997000I-249999J0D01*
G01*
X165622999Y-90997000D01*
G75*
G02*
X165373000Y-90747001I0J249999D01*
G01*
X165373000Y-89846999D01*
G75*
G02*
X165622999Y-89597000I249999J0D01*
G01*
X166148001Y-89597000D01*
G75*
G02*
X166398000Y-89846999I0J-249999D01*
G01*
G37*
%TD*%
%TO.C,R2*%
G36*
G01*
X156077499Y-100492500D02*
X156977501Y-100492500D01*
G75*
G02*
X157227500Y-100742499I0J-249999D01*
G01*
X157227500Y-101267501D01*
G75*
G02*
X156977501Y-101517500I-249999J0D01*
G01*
X156077499Y-101517500D01*
G75*
G02*
X155827500Y-101267501I0J249999D01*
G01*
X155827500Y-100742499D01*
G75*
G02*
X156077499Y-100492500I249999J0D01*
G01*
G37*
G36*
G01*
X156077499Y-102317500D02*
X156977501Y-102317500D01*
G75*
G02*
X157227500Y-102567499I0J-249999D01*
G01*
X157227500Y-103092501D01*
G75*
G02*
X156977501Y-103342500I-249999J0D01*
G01*
X156077499Y-103342500D01*
G75*
G02*
X155827500Y-103092501I0J249999D01*
G01*
X155827500Y-102567499D01*
G75*
G02*
X156077499Y-102317500I249999J0D01*
G01*
G37*
%TD*%
%TO.C,R3*%
G36*
G01*
X157918999Y-102277500D02*
X158819001Y-102277500D01*
G75*
G02*
X159069000Y-102527499I0J-249999D01*
G01*
X159069000Y-103052501D01*
G75*
G02*
X158819001Y-103302500I-249999J0D01*
G01*
X157918999Y-103302500D01*
G75*
G02*
X157669000Y-103052501I0J249999D01*
G01*
X157669000Y-102527499D01*
G75*
G02*
X157918999Y-102277500I249999J0D01*
G01*
G37*
G36*
G01*
X157918999Y-100452500D02*
X158819001Y-100452500D01*
G75*
G02*
X159069000Y-100702499I0J-249999D01*
G01*
X159069000Y-101227501D01*
G75*
G02*
X158819001Y-101477500I-249999J0D01*
G01*
X157918999Y-101477500D01*
G75*
G02*
X157669000Y-101227501I0J249999D01*
G01*
X157669000Y-100702499D01*
G75*
G02*
X157918999Y-100452500I249999J0D01*
G01*
G37*
%TD*%
%TO.C,R4*%
G36*
G01*
X150791500Y-117861501D02*
X150791500Y-116961499D01*
G75*
G02*
X151041499Y-116711500I249999J0D01*
G01*
X151566501Y-116711500D01*
G75*
G02*
X151816500Y-116961499I0J-249999D01*
G01*
X151816500Y-117861501D01*
G75*
G02*
X151566501Y-118111500I-249999J0D01*
G01*
X151041499Y-118111500D01*
G75*
G02*
X150791500Y-117861501I0J249999D01*
G01*
G37*
G36*
G01*
X148966500Y-117861501D02*
X148966500Y-116961499D01*
G75*
G02*
X149216499Y-116711500I249999J0D01*
G01*
X149741501Y-116711500D01*
G75*
G02*
X149991500Y-116961499I0J-249999D01*
G01*
X149991500Y-117861501D01*
G75*
G02*
X149741501Y-118111500I-249999J0D01*
G01*
X149216499Y-118111500D01*
G75*
G02*
X148966500Y-117861501I0J249999D01*
G01*
G37*
%TD*%
%TO.C,R5*%
G36*
G01*
X148983000Y-120147501D02*
X148983000Y-119247499D01*
G75*
G02*
X149232999Y-118997500I249999J0D01*
G01*
X149758001Y-118997500D01*
G75*
G02*
X150008000Y-119247499I0J-249999D01*
G01*
X150008000Y-120147501D01*
G75*
G02*
X149758001Y-120397500I-249999J0D01*
G01*
X149232999Y-120397500D01*
G75*
G02*
X148983000Y-120147501I0J249999D01*
G01*
G37*
G36*
G01*
X150808000Y-120147501D02*
X150808000Y-119247499D01*
G75*
G02*
X151057999Y-118997500I249999J0D01*
G01*
X151583001Y-118997500D01*
G75*
G02*
X151833000Y-119247499I0J-249999D01*
G01*
X151833000Y-120147501D01*
G75*
G02*
X151583001Y-120397500I-249999J0D01*
G01*
X151057999Y-120397500D01*
G75*
G02*
X150808000Y-120147501I0J249999D01*
G01*
G37*
%TD*%
%TO.C,R6*%
G36*
G01*
X161728999Y-117470500D02*
X162629001Y-117470500D01*
G75*
G02*
X162879000Y-117720499I0J-249999D01*
G01*
X162879000Y-118245501D01*
G75*
G02*
X162629001Y-118495500I-249999J0D01*
G01*
X161728999Y-118495500D01*
G75*
G02*
X161479000Y-118245501I0J249999D01*
G01*
X161479000Y-117720499D01*
G75*
G02*
X161728999Y-117470500I249999J0D01*
G01*
G37*
G36*
G01*
X161728999Y-119295500D02*
X162629001Y-119295500D01*
G75*
G02*
X162879000Y-119545499I0J-249999D01*
G01*
X162879000Y-120070501D01*
G75*
G02*
X162629001Y-120320500I-249999J0D01*
G01*
X161728999Y-120320500D01*
G75*
G02*
X161479000Y-120070501I0J249999D01*
G01*
X161479000Y-119545499D01*
G75*
G02*
X161728999Y-119295500I249999J0D01*
G01*
G37*
%TD*%
%TO.C,R7*%
G36*
G01*
X153738000Y-116961499D02*
X153738000Y-117861501D01*
G75*
G02*
X153488001Y-118111500I-249999J0D01*
G01*
X152962999Y-118111500D01*
G75*
G02*
X152713000Y-117861501I0J249999D01*
G01*
X152713000Y-116961499D01*
G75*
G02*
X152962999Y-116711500I249999J0D01*
G01*
X153488001Y-116711500D01*
G75*
G02*
X153738000Y-116961499I0J-249999D01*
G01*
G37*
G36*
G01*
X155563000Y-116961499D02*
X155563000Y-117861501D01*
G75*
G02*
X155313001Y-118111500I-249999J0D01*
G01*
X154787999Y-118111500D01*
G75*
G02*
X154538000Y-117861501I0J249999D01*
G01*
X154538000Y-116961499D01*
G75*
G02*
X154787999Y-116711500I249999J0D01*
G01*
X155313001Y-116711500D01*
G75*
G02*
X155563000Y-116961499I0J-249999D01*
G01*
G37*
%TD*%
%TO.C,R8*%
G36*
G01*
X153738000Y-119247499D02*
X153738000Y-120147501D01*
G75*
G02*
X153488001Y-120397500I-249999J0D01*
G01*
X152962999Y-120397500D01*
G75*
G02*
X152713000Y-120147501I0J249999D01*
G01*
X152713000Y-119247499D01*
G75*
G02*
X152962999Y-118997500I249999J0D01*
G01*
X153488001Y-118997500D01*
G75*
G02*
X153738000Y-119247499I0J-249999D01*
G01*
G37*
G36*
G01*
X155563000Y-119247499D02*
X155563000Y-120147501D01*
G75*
G02*
X155313001Y-120397500I-249999J0D01*
G01*
X154787999Y-120397500D01*
G75*
G02*
X154538000Y-120147501I0J249999D01*
G01*
X154538000Y-119247499D01*
G75*
G02*
X154787999Y-118997500I249999J0D01*
G01*
X155313001Y-118997500D01*
G75*
G02*
X155563000Y-119247499I0J-249999D01*
G01*
G37*
%TD*%
%TO.C,R9*%
G36*
G01*
X161728999Y-113804000D02*
X162629001Y-113804000D01*
G75*
G02*
X162879000Y-114053999I0J-249999D01*
G01*
X162879000Y-114579001D01*
G75*
G02*
X162629001Y-114829000I-249999J0D01*
G01*
X161728999Y-114829000D01*
G75*
G02*
X161479000Y-114579001I0J249999D01*
G01*
X161479000Y-114053999D01*
G75*
G02*
X161728999Y-113804000I249999J0D01*
G01*
G37*
G36*
G01*
X161728999Y-115629000D02*
X162629001Y-115629000D01*
G75*
G02*
X162879000Y-115878999I0J-249999D01*
G01*
X162879000Y-116404001D01*
G75*
G02*
X162629001Y-116654000I-249999J0D01*
G01*
X161728999Y-116654000D01*
G75*
G02*
X161479000Y-116404001I0J249999D01*
G01*
X161479000Y-115878999D01*
G75*
G02*
X161728999Y-115629000I249999J0D01*
G01*
G37*
%TD*%
%TO.C,R10*%
G36*
G01*
X164470501Y-118495500D02*
X163570499Y-118495500D01*
G75*
G02*
X163320500Y-118245501I0J249999D01*
G01*
X163320500Y-117720499D01*
G75*
G02*
X163570499Y-117470500I249999J0D01*
G01*
X164470501Y-117470500D01*
G75*
G02*
X164720500Y-117720499I0J-249999D01*
G01*
X164720500Y-118245501D01*
G75*
G02*
X164470501Y-118495500I-249999J0D01*
G01*
G37*
G36*
G01*
X164470501Y-120320500D02*
X163570499Y-120320500D01*
G75*
G02*
X163320500Y-120070501I0J249999D01*
G01*
X163320500Y-119545499D01*
G75*
G02*
X163570499Y-119295500I249999J0D01*
G01*
X164470501Y-119295500D01*
G75*
G02*
X164720500Y-119545499I0J-249999D01*
G01*
X164720500Y-120070501D01*
G75*
G02*
X164470501Y-120320500I-249999J0D01*
G01*
G37*
%TD*%
%TO.C,R11*%
G36*
G01*
X137663500Y-98240001D02*
X137663500Y-97339999D01*
G75*
G02*
X137913499Y-97090000I249999J0D01*
G01*
X138438501Y-97090000D01*
G75*
G02*
X138688500Y-97339999I0J-249999D01*
G01*
X138688500Y-98240001D01*
G75*
G02*
X138438501Y-98490000I-249999J0D01*
G01*
X137913499Y-98490000D01*
G75*
G02*
X137663500Y-98240001I0J249999D01*
G01*
G37*
G36*
G01*
X139488500Y-98240001D02*
X139488500Y-97339999D01*
G75*
G02*
X139738499Y-97090000I249999J0D01*
G01*
X140263501Y-97090000D01*
G75*
G02*
X140513500Y-97339999I0J-249999D01*
G01*
X140513500Y-98240001D01*
G75*
G02*
X140263501Y-98490000I-249999J0D01*
G01*
X139738499Y-98490000D01*
G75*
G02*
X139488500Y-98240001I0J249999D01*
G01*
G37*
%TD*%
%TO.C,R12*%
G36*
G01*
X135147000Y-98240001D02*
X135147000Y-97339999D01*
G75*
G02*
X135396999Y-97090000I249999J0D01*
G01*
X135922001Y-97090000D01*
G75*
G02*
X136172000Y-97339999I0J-249999D01*
G01*
X136172000Y-98240001D01*
G75*
G02*
X135922001Y-98490000I-249999J0D01*
G01*
X135396999Y-98490000D01*
G75*
G02*
X135147000Y-98240001I0J249999D01*
G01*
G37*
G36*
G01*
X133322000Y-98240001D02*
X133322000Y-97339999D01*
G75*
G02*
X133571999Y-97090000I249999J0D01*
G01*
X134097001Y-97090000D01*
G75*
G02*
X134347000Y-97339999I0J-249999D01*
G01*
X134347000Y-98240001D01*
G75*
G02*
X134097001Y-98490000I-249999J0D01*
G01*
X133571999Y-98490000D01*
G75*
G02*
X133322000Y-98240001I0J249999D01*
G01*
G37*
%TD*%
%TO.C,R13*%
G36*
G01*
X129131000Y-98240001D02*
X129131000Y-97339999D01*
G75*
G02*
X129380999Y-97090000I249999J0D01*
G01*
X129906001Y-97090000D01*
G75*
G02*
X130156000Y-97339999I0J-249999D01*
G01*
X130156000Y-98240001D01*
G75*
G02*
X129906001Y-98490000I-249999J0D01*
G01*
X129380999Y-98490000D01*
G75*
G02*
X129131000Y-98240001I0J249999D01*
G01*
G37*
G36*
G01*
X130956000Y-98240001D02*
X130956000Y-97339999D01*
G75*
G02*
X131205999Y-97090000I249999J0D01*
G01*
X131731001Y-97090000D01*
G75*
G02*
X131981000Y-97339999I0J-249999D01*
G01*
X131981000Y-98240001D01*
G75*
G02*
X131731001Y-98490000I-249999J0D01*
G01*
X131205999Y-98490000D01*
G75*
G02*
X130956000Y-98240001I0J249999D01*
G01*
G37*
%TD*%
%TO.C,R14*%
G36*
G01*
X176027501Y-113987000D02*
X175127499Y-113987000D01*
G75*
G02*
X174877500Y-113737001I0J249999D01*
G01*
X174877500Y-113211999D01*
G75*
G02*
X175127499Y-112962000I249999J0D01*
G01*
X176027501Y-112962000D01*
G75*
G02*
X176277500Y-113211999I0J-249999D01*
G01*
X176277500Y-113737001D01*
G75*
G02*
X176027501Y-113987000I-249999J0D01*
G01*
G37*
G36*
G01*
X176027501Y-112162000D02*
X175127499Y-112162000D01*
G75*
G02*
X174877500Y-111912001I0J249999D01*
G01*
X174877500Y-111386999D01*
G75*
G02*
X175127499Y-111137000I249999J0D01*
G01*
X176027501Y-111137000D01*
G75*
G02*
X176277500Y-111386999I0J-249999D01*
G01*
X176277500Y-111912001D01*
G75*
G02*
X176027501Y-112162000I-249999J0D01*
G01*
G37*
%TD*%
%TO.C,R15*%
G36*
G01*
X160395499Y-109723500D02*
X161295501Y-109723500D01*
G75*
G02*
X161545500Y-109973499I0J-249999D01*
G01*
X161545500Y-110498501D01*
G75*
G02*
X161295501Y-110748500I-249999J0D01*
G01*
X160395499Y-110748500D01*
G75*
G02*
X160145500Y-110498501I0J249999D01*
G01*
X160145500Y-109973499D01*
G75*
G02*
X160395499Y-109723500I249999J0D01*
G01*
G37*
G36*
G01*
X160395499Y-111548500D02*
X161295501Y-111548500D01*
G75*
G02*
X161545500Y-111798499I0J-249999D01*
G01*
X161545500Y-112323501D01*
G75*
G02*
X161295501Y-112573500I-249999J0D01*
G01*
X160395499Y-112573500D01*
G75*
G02*
X160145500Y-112323501I0J249999D01*
G01*
X160145500Y-111798499D01*
G75*
G02*
X160395499Y-111548500I249999J0D01*
G01*
G37*
%TD*%
%TO.C,R16*%
G36*
G01*
X158553999Y-111548500D02*
X159454001Y-111548500D01*
G75*
G02*
X159704000Y-111798499I0J-249999D01*
G01*
X159704000Y-112323501D01*
G75*
G02*
X159454001Y-112573500I-249999J0D01*
G01*
X158553999Y-112573500D01*
G75*
G02*
X158304000Y-112323501I0J249999D01*
G01*
X158304000Y-111798499D01*
G75*
G02*
X158553999Y-111548500I249999J0D01*
G01*
G37*
G36*
G01*
X158553999Y-109723500D02*
X159454001Y-109723500D01*
G75*
G02*
X159704000Y-109973499I0J-249999D01*
G01*
X159704000Y-110498501D01*
G75*
G02*
X159454001Y-110748500I-249999J0D01*
G01*
X158553999Y-110748500D01*
G75*
G02*
X158304000Y-110498501I0J249999D01*
G01*
X158304000Y-109973499D01*
G75*
G02*
X158553999Y-109723500I249999J0D01*
G01*
G37*
%TD*%
%TO.C,R17*%
G36*
G01*
X138297499Y-108620500D02*
X139197501Y-108620500D01*
G75*
G02*
X139447500Y-108870499I0J-249999D01*
G01*
X139447500Y-109395501D01*
G75*
G02*
X139197501Y-109645500I-249999J0D01*
G01*
X138297499Y-109645500D01*
G75*
G02*
X138047500Y-109395501I0J249999D01*
G01*
X138047500Y-108870499D01*
G75*
G02*
X138297499Y-108620500I249999J0D01*
G01*
G37*
G36*
G01*
X138297499Y-110445500D02*
X139197501Y-110445500D01*
G75*
G02*
X139447500Y-110695499I0J-249999D01*
G01*
X139447500Y-111220501D01*
G75*
G02*
X139197501Y-111470500I-249999J0D01*
G01*
X138297499Y-111470500D01*
G75*
G02*
X138047500Y-111220501I0J249999D01*
G01*
X138047500Y-110695499D01*
G75*
G02*
X138297499Y-110445500I249999J0D01*
G01*
G37*
%TD*%
%TO.C,R18*%
G36*
G01*
X140075499Y-110485500D02*
X140975501Y-110485500D01*
G75*
G02*
X141225500Y-110735499I0J-249999D01*
G01*
X141225500Y-111260501D01*
G75*
G02*
X140975501Y-111510500I-249999J0D01*
G01*
X140075499Y-111510500D01*
G75*
G02*
X139825500Y-111260501I0J249999D01*
G01*
X139825500Y-110735499D01*
G75*
G02*
X140075499Y-110485500I249999J0D01*
G01*
G37*
G36*
G01*
X140075499Y-108660500D02*
X140975501Y-108660500D01*
G75*
G02*
X141225500Y-108910499I0J-249999D01*
G01*
X141225500Y-109435501D01*
G75*
G02*
X140975501Y-109685500I-249999J0D01*
G01*
X140075499Y-109685500D01*
G75*
G02*
X139825500Y-109435501I0J249999D01*
G01*
X139825500Y-108910499D01*
G75*
G02*
X140075499Y-108660500I249999J0D01*
G01*
G37*
%TD*%
%TO.C,R19*%
G36*
G01*
X129154500Y-108590501D02*
X129154500Y-107690499D01*
G75*
G02*
X129404499Y-107440500I249999J0D01*
G01*
X129929501Y-107440500D01*
G75*
G02*
X130179500Y-107690499I0J-249999D01*
G01*
X130179500Y-108590501D01*
G75*
G02*
X129929501Y-108840500I-249999J0D01*
G01*
X129404499Y-108840500D01*
G75*
G02*
X129154500Y-108590501I0J249999D01*
G01*
G37*
G36*
G01*
X130979500Y-108590501D02*
X130979500Y-107690499D01*
G75*
G02*
X131229499Y-107440500I249999J0D01*
G01*
X131754501Y-107440500D01*
G75*
G02*
X132004500Y-107690499I0J-249999D01*
G01*
X132004500Y-108590501D01*
G75*
G02*
X131754501Y-108840500I-249999J0D01*
G01*
X131229499Y-108840500D01*
G75*
G02*
X130979500Y-108590501I0J249999D01*
G01*
G37*
%TD*%
%TO.C,R20*%
G36*
G01*
X135424500Y-108590501D02*
X135424500Y-107690499D01*
G75*
G02*
X135674499Y-107440500I249999J0D01*
G01*
X136199501Y-107440500D01*
G75*
G02*
X136449500Y-107690499I0J-249999D01*
G01*
X136449500Y-108590501D01*
G75*
G02*
X136199501Y-108840500I-249999J0D01*
G01*
X135674499Y-108840500D01*
G75*
G02*
X135424500Y-108590501I0J249999D01*
G01*
G37*
G36*
G01*
X133599500Y-108590501D02*
X133599500Y-107690499D01*
G75*
G02*
X133849499Y-107440500I249999J0D01*
G01*
X134374501Y-107440500D01*
G75*
G02*
X134624500Y-107690499I0J-249999D01*
G01*
X134624500Y-108590501D01*
G75*
G02*
X134374501Y-108840500I-249999J0D01*
G01*
X133849499Y-108840500D01*
G75*
G02*
X133599500Y-108590501I0J249999D01*
G01*
G37*
%TD*%
%TO.C,R21*%
G36*
G01*
X154807499Y-111548500D02*
X155707501Y-111548500D01*
G75*
G02*
X155957500Y-111798499I0J-249999D01*
G01*
X155957500Y-112323501D01*
G75*
G02*
X155707501Y-112573500I-249999J0D01*
G01*
X154807499Y-112573500D01*
G75*
G02*
X154557500Y-112323501I0J249999D01*
G01*
X154557500Y-111798499D01*
G75*
G02*
X154807499Y-111548500I249999J0D01*
G01*
G37*
G36*
G01*
X154807499Y-109723500D02*
X155707501Y-109723500D01*
G75*
G02*
X155957500Y-109973499I0J-249999D01*
G01*
X155957500Y-110498501D01*
G75*
G02*
X155707501Y-110748500I-249999J0D01*
G01*
X154807499Y-110748500D01*
G75*
G02*
X154557500Y-110498501I0J249999D01*
G01*
X154557500Y-109973499D01*
G75*
G02*
X154807499Y-109723500I249999J0D01*
G01*
G37*
%TD*%
%TO.C,R22*%
G36*
G01*
X169270000Y-115702501D02*
X169270000Y-114802499D01*
G75*
G02*
X169519999Y-114552500I249999J0D01*
G01*
X170045001Y-114552500D01*
G75*
G02*
X170295000Y-114802499I0J-249999D01*
G01*
X170295000Y-115702501D01*
G75*
G02*
X170045001Y-115952500I-249999J0D01*
G01*
X169519999Y-115952500D01*
G75*
G02*
X169270000Y-115702501I0J249999D01*
G01*
G37*
G36*
G01*
X167445000Y-115702501D02*
X167445000Y-114802499D01*
G75*
G02*
X167694999Y-114552500I249999J0D01*
G01*
X168220001Y-114552500D01*
G75*
G02*
X168470000Y-114802499I0J-249999D01*
G01*
X168470000Y-115702501D01*
G75*
G02*
X168220001Y-115952500I-249999J0D01*
G01*
X167694999Y-115952500D01*
G75*
G02*
X167445000Y-115702501I0J249999D01*
G01*
G37*
%TD*%
%TO.C,R23*%
G36*
G01*
X153866001Y-112590000D02*
X152965999Y-112590000D01*
G75*
G02*
X152716000Y-112340001I0J249999D01*
G01*
X152716000Y-111814999D01*
G75*
G02*
X152965999Y-111565000I249999J0D01*
G01*
X153866001Y-111565000D01*
G75*
G02*
X154116000Y-111814999I0J-249999D01*
G01*
X154116000Y-112340001D01*
G75*
G02*
X153866001Y-112590000I-249999J0D01*
G01*
G37*
G36*
G01*
X153866001Y-110765000D02*
X152965999Y-110765000D01*
G75*
G02*
X152716000Y-110515001I0J249999D01*
G01*
X152716000Y-109989999D01*
G75*
G02*
X152965999Y-109740000I249999J0D01*
G01*
X153866001Y-109740000D01*
G75*
G02*
X154116000Y-109989999I0J-249999D01*
G01*
X154116000Y-110515001D01*
G75*
G02*
X153866001Y-110765000I-249999J0D01*
G01*
G37*
%TD*%
%TO.C,R24*%
G36*
G01*
X140156500Y-107130001D02*
X140156500Y-106229999D01*
G75*
G02*
X140406499Y-105980000I249999J0D01*
G01*
X140931501Y-105980000D01*
G75*
G02*
X141181500Y-106229999I0J-249999D01*
G01*
X141181500Y-107130001D01*
G75*
G02*
X140931501Y-107380000I-249999J0D01*
G01*
X140406499Y-107380000D01*
G75*
G02*
X140156500Y-107130001I0J249999D01*
G01*
G37*
G36*
G01*
X141981500Y-107130001D02*
X141981500Y-106229999D01*
G75*
G02*
X142231499Y-105980000I249999J0D01*
G01*
X142756501Y-105980000D01*
G75*
G02*
X143006500Y-106229999I0J-249999D01*
G01*
X143006500Y-107130001D01*
G75*
G02*
X142756501Y-107380000I-249999J0D01*
G01*
X142231499Y-107380000D01*
G75*
G02*
X141981500Y-107130001I0J249999D01*
G01*
G37*
%TD*%
%TO.C,R25*%
G36*
G01*
X138576000Y-100272001D02*
X138576000Y-99371999D01*
G75*
G02*
X138825999Y-99122000I249999J0D01*
G01*
X139351001Y-99122000D01*
G75*
G02*
X139601000Y-99371999I0J-249999D01*
G01*
X139601000Y-100272001D01*
G75*
G02*
X139351001Y-100522000I-249999J0D01*
G01*
X138825999Y-100522000D01*
G75*
G02*
X138576000Y-100272001I0J249999D01*
G01*
G37*
G36*
G01*
X136751000Y-100272001D02*
X136751000Y-99371999D01*
G75*
G02*
X137000999Y-99122000I249999J0D01*
G01*
X137526001Y-99122000D01*
G75*
G02*
X137776000Y-99371999I0J-249999D01*
G01*
X137776000Y-100272001D01*
G75*
G02*
X137526001Y-100522000I-249999J0D01*
G01*
X137000999Y-100522000D01*
G75*
G02*
X136751000Y-100272001I0J249999D01*
G01*
G37*
%TD*%
%TO.C,R26*%
G36*
G01*
X141965000Y-100272001D02*
X141965000Y-99371999D01*
G75*
G02*
X142214999Y-99122000I249999J0D01*
G01*
X142740001Y-99122000D01*
G75*
G02*
X142990000Y-99371999I0J-249999D01*
G01*
X142990000Y-100272001D01*
G75*
G02*
X142740001Y-100522000I-249999J0D01*
G01*
X142214999Y-100522000D01*
G75*
G02*
X141965000Y-100272001I0J249999D01*
G01*
G37*
G36*
G01*
X140140000Y-100272001D02*
X140140000Y-99371999D01*
G75*
G02*
X140389999Y-99122000I249999J0D01*
G01*
X140915001Y-99122000D01*
G75*
G02*
X141165000Y-99371999I0J-249999D01*
G01*
X141165000Y-100272001D01*
G75*
G02*
X140915001Y-100522000I-249999J0D01*
G01*
X140389999Y-100522000D01*
G75*
G02*
X140140000Y-100272001I0J249999D01*
G01*
G37*
%TD*%
%TO.C,R27*%
G36*
G01*
X132600000Y-115067501D02*
X132600000Y-114167499D01*
G75*
G02*
X132849999Y-113917500I249999J0D01*
G01*
X133375001Y-113917500D01*
G75*
G02*
X133625000Y-114167499I0J-249999D01*
G01*
X133625000Y-115067501D01*
G75*
G02*
X133375001Y-115317500I-249999J0D01*
G01*
X132849999Y-115317500D01*
G75*
G02*
X132600000Y-115067501I0J249999D01*
G01*
G37*
G36*
G01*
X134425000Y-115067501D02*
X134425000Y-114167499D01*
G75*
G02*
X134674999Y-113917500I249999J0D01*
G01*
X135200001Y-113917500D01*
G75*
G02*
X135450000Y-114167499I0J-249999D01*
G01*
X135450000Y-115067501D01*
G75*
G02*
X135200001Y-115317500I-249999J0D01*
G01*
X134674999Y-115317500D01*
G75*
G02*
X134425000Y-115067501I0J249999D01*
G01*
G37*
%TD*%
%TO.C,R29*%
G36*
G01*
X132583500Y-113226001D02*
X132583500Y-112325999D01*
G75*
G02*
X132833499Y-112076000I249999J0D01*
G01*
X133358501Y-112076000D01*
G75*
G02*
X133608500Y-112325999I0J-249999D01*
G01*
X133608500Y-113226001D01*
G75*
G02*
X133358501Y-113476000I-249999J0D01*
G01*
X132833499Y-113476000D01*
G75*
G02*
X132583500Y-113226001I0J249999D01*
G01*
G37*
G36*
G01*
X134408500Y-113226001D02*
X134408500Y-112325999D01*
G75*
G02*
X134658499Y-112076000I249999J0D01*
G01*
X135183501Y-112076000D01*
G75*
G02*
X135433500Y-112325999I0J-249999D01*
G01*
X135433500Y-113226001D01*
G75*
G02*
X135183501Y-113476000I-249999J0D01*
G01*
X134658499Y-113476000D01*
G75*
G02*
X134408500Y-113226001I0J249999D01*
G01*
G37*
%TD*%
%TO.C,R30*%
G36*
G01*
X150806999Y-94420000D02*
X151707001Y-94420000D01*
G75*
G02*
X151957000Y-94669999I0J-249999D01*
G01*
X151957000Y-95195001D01*
G75*
G02*
X151707001Y-95445000I-249999J0D01*
G01*
X150806999Y-95445000D01*
G75*
G02*
X150557000Y-95195001I0J249999D01*
G01*
X150557000Y-94669999D01*
G75*
G02*
X150806999Y-94420000I249999J0D01*
G01*
G37*
G36*
G01*
X150806999Y-96245000D02*
X151707001Y-96245000D01*
G75*
G02*
X151957000Y-96494999I0J-249999D01*
G01*
X151957000Y-97020001D01*
G75*
G02*
X151707001Y-97270000I-249999J0D01*
G01*
X150806999Y-97270000D01*
G75*
G02*
X150557000Y-97020001I0J249999D01*
G01*
X150557000Y-96494999D01*
G75*
G02*
X150806999Y-96245000I249999J0D01*
G01*
G37*
%TD*%
%TO.C,R31*%
G36*
G01*
X141127500Y-93334501D02*
X141127500Y-90434499D01*
G75*
G02*
X141377499Y-90184500I249999J0D01*
G01*
X142002501Y-90184500D01*
G75*
G02*
X142252500Y-90434499I0J-249999D01*
G01*
X142252500Y-93334501D01*
G75*
G02*
X142002501Y-93584500I-249999J0D01*
G01*
X141377499Y-93584500D01*
G75*
G02*
X141127500Y-93334501I0J249999D01*
G01*
G37*
G36*
G01*
X145402500Y-93334501D02*
X145402500Y-90434499D01*
G75*
G02*
X145652499Y-90184500I249999J0D01*
G01*
X146277501Y-90184500D01*
G75*
G02*
X146527500Y-90434499I0J-249999D01*
G01*
X146527500Y-93334501D01*
G75*
G02*
X146277501Y-93584500I-249999J0D01*
G01*
X145652499Y-93584500D01*
G75*
G02*
X145402500Y-93334501I0J249999D01*
G01*
G37*
%TD*%
D30*
%TO.C,SW2*%
X160321500Y-119610500D03*
X160321500Y-114450500D03*
X158321500Y-114450500D03*
X158321500Y-119610500D03*
%TD*%
D31*
%TO.C,U1*%
X140271500Y-119757500D03*
X140906500Y-119757500D03*
X141541500Y-119757500D03*
X142176500Y-119757500D03*
X142811500Y-119757500D03*
X143446500Y-119757500D03*
X144081500Y-119757500D03*
X144716500Y-119757500D03*
X144716500Y-114557500D03*
X144081500Y-114557500D03*
X143446500Y-114557500D03*
X142811500Y-114557500D03*
X142176500Y-114557500D03*
X141541500Y-114557500D03*
X140906500Y-114557500D03*
X140271500Y-114557500D03*
%TD*%
D32*
%TO.C,U2*%
X164277000Y-116162000D03*
X165227000Y-116162000D03*
X166177000Y-116162000D03*
X166177000Y-113962000D03*
X164277000Y-113962000D03*
%TD*%
%TO.C,U3*%
G36*
G01*
X161235000Y-108320000D02*
X161235000Y-108445000D01*
G75*
G02*
X161172500Y-108507500I-62500J0D01*
G01*
X160497500Y-108507500D01*
G75*
G02*
X160435000Y-108445000I0J62500D01*
G01*
X160435000Y-108320000D01*
G75*
G02*
X160497500Y-108257500I62500J0D01*
G01*
X161172500Y-108257500D01*
G75*
G02*
X161235000Y-108320000I0J-62500D01*
G01*
G37*
G36*
G01*
X161235000Y-107820000D02*
X161235000Y-107945000D01*
G75*
G02*
X161172500Y-108007500I-62500J0D01*
G01*
X160497500Y-108007500D01*
G75*
G02*
X160435000Y-107945000I0J62500D01*
G01*
X160435000Y-107820000D01*
G75*
G02*
X160497500Y-107757500I62500J0D01*
G01*
X161172500Y-107757500D01*
G75*
G02*
X161235000Y-107820000I0J-62500D01*
G01*
G37*
G36*
G01*
X161235000Y-107320000D02*
X161235000Y-107445000D01*
G75*
G02*
X161172500Y-107507500I-62500J0D01*
G01*
X160497500Y-107507500D01*
G75*
G02*
X160435000Y-107445000I0J62500D01*
G01*
X160435000Y-107320000D01*
G75*
G02*
X160497500Y-107257500I62500J0D01*
G01*
X161172500Y-107257500D01*
G75*
G02*
X161235000Y-107320000I0J-62500D01*
G01*
G37*
G36*
G01*
X161235000Y-106820000D02*
X161235000Y-106945000D01*
G75*
G02*
X161172500Y-107007500I-62500J0D01*
G01*
X160497500Y-107007500D01*
G75*
G02*
X160435000Y-106945000I0J62500D01*
G01*
X160435000Y-106820000D01*
G75*
G02*
X160497500Y-106757500I62500J0D01*
G01*
X161172500Y-106757500D01*
G75*
G02*
X161235000Y-106820000I0J-62500D01*
G01*
G37*
G36*
G01*
X158335000Y-106820000D02*
X158335000Y-106945000D01*
G75*
G02*
X158272500Y-107007500I-62500J0D01*
G01*
X157597500Y-107007500D01*
G75*
G02*
X157535000Y-106945000I0J62500D01*
G01*
X157535000Y-106820000D01*
G75*
G02*
X157597500Y-106757500I62500J0D01*
G01*
X158272500Y-106757500D01*
G75*
G02*
X158335000Y-106820000I0J-62500D01*
G01*
G37*
G36*
G01*
X158335000Y-107320000D02*
X158335000Y-107445000D01*
G75*
G02*
X158272500Y-107507500I-62500J0D01*
G01*
X157597500Y-107507500D01*
G75*
G02*
X157535000Y-107445000I0J62500D01*
G01*
X157535000Y-107320000D01*
G75*
G02*
X157597500Y-107257500I62500J0D01*
G01*
X158272500Y-107257500D01*
G75*
G02*
X158335000Y-107320000I0J-62500D01*
G01*
G37*
G36*
G01*
X158335000Y-107820000D02*
X158335000Y-107945000D01*
G75*
G02*
X158272500Y-108007500I-62500J0D01*
G01*
X157597500Y-108007500D01*
G75*
G02*
X157535000Y-107945000I0J62500D01*
G01*
X157535000Y-107820000D01*
G75*
G02*
X157597500Y-107757500I62500J0D01*
G01*
X158272500Y-107757500D01*
G75*
G02*
X158335000Y-107820000I0J-62500D01*
G01*
G37*
G36*
G01*
X158335000Y-108320000D02*
X158335000Y-108445000D01*
G75*
G02*
X158272500Y-108507500I-62500J0D01*
G01*
X157597500Y-108507500D01*
G75*
G02*
X157535000Y-108445000I0J62500D01*
G01*
X157535000Y-108320000D01*
G75*
G02*
X157597500Y-108257500I62500J0D01*
G01*
X158272500Y-108257500D01*
G75*
G02*
X158335000Y-108320000I0J-62500D01*
G01*
G37*
D33*
X159385000Y-107632500D03*
%TD*%
D34*
%TO.C,U4*%
X171302500Y-111508500D03*
X171302500Y-112458500D03*
X171302500Y-113408500D03*
X173502500Y-113408500D03*
X173502500Y-111508500D03*
X173502500Y-112458500D03*
%TD*%
%TO.C,U5*%
G36*
G01*
X162710000Y-112479500D02*
X162410000Y-112479500D01*
G75*
G02*
X162260000Y-112329500I0J150000D01*
G01*
X162260000Y-110679500D01*
G75*
G02*
X162410000Y-110529500I150000J0D01*
G01*
X162710000Y-110529500D01*
G75*
G02*
X162860000Y-110679500I0J-150000D01*
G01*
X162860000Y-112329500D01*
G75*
G02*
X162710000Y-112479500I-150000J0D01*
G01*
G37*
G36*
G01*
X163980000Y-112479500D02*
X163680000Y-112479500D01*
G75*
G02*
X163530000Y-112329500I0J150000D01*
G01*
X163530000Y-110679500D01*
G75*
G02*
X163680000Y-110529500I150000J0D01*
G01*
X163980000Y-110529500D01*
G75*
G02*
X164130000Y-110679500I0J-150000D01*
G01*
X164130000Y-112329500D01*
G75*
G02*
X163980000Y-112479500I-150000J0D01*
G01*
G37*
G36*
G01*
X165250000Y-112479500D02*
X164950000Y-112479500D01*
G75*
G02*
X164800000Y-112329500I0J150000D01*
G01*
X164800000Y-110679500D01*
G75*
G02*
X164950000Y-110529500I150000J0D01*
G01*
X165250000Y-110529500D01*
G75*
G02*
X165400000Y-110679500I0J-150000D01*
G01*
X165400000Y-112329500D01*
G75*
G02*
X165250000Y-112479500I-150000J0D01*
G01*
G37*
G36*
G01*
X166520000Y-112479500D02*
X166220000Y-112479500D01*
G75*
G02*
X166070000Y-112329500I0J150000D01*
G01*
X166070000Y-110679500D01*
G75*
G02*
X166220000Y-110529500I150000J0D01*
G01*
X166520000Y-110529500D01*
G75*
G02*
X166670000Y-110679500I0J-150000D01*
G01*
X166670000Y-112329500D01*
G75*
G02*
X166520000Y-112479500I-150000J0D01*
G01*
G37*
G36*
G01*
X166520000Y-107529500D02*
X166220000Y-107529500D01*
G75*
G02*
X166070000Y-107379500I0J150000D01*
G01*
X166070000Y-105729500D01*
G75*
G02*
X166220000Y-105579500I150000J0D01*
G01*
X166520000Y-105579500D01*
G75*
G02*
X166670000Y-105729500I0J-150000D01*
G01*
X166670000Y-107379500D01*
G75*
G02*
X166520000Y-107529500I-150000J0D01*
G01*
G37*
G36*
G01*
X165250000Y-107529500D02*
X164950000Y-107529500D01*
G75*
G02*
X164800000Y-107379500I0J150000D01*
G01*
X164800000Y-105729500D01*
G75*
G02*
X164950000Y-105579500I150000J0D01*
G01*
X165250000Y-105579500D01*
G75*
G02*
X165400000Y-105729500I0J-150000D01*
G01*
X165400000Y-107379500D01*
G75*
G02*
X165250000Y-107529500I-150000J0D01*
G01*
G37*
G36*
G01*
X163980000Y-107529500D02*
X163680000Y-107529500D01*
G75*
G02*
X163530000Y-107379500I0J150000D01*
G01*
X163530000Y-105729500D01*
G75*
G02*
X163680000Y-105579500I150000J0D01*
G01*
X163980000Y-105579500D01*
G75*
G02*
X164130000Y-105729500I0J-150000D01*
G01*
X164130000Y-107379500D01*
G75*
G02*
X163980000Y-107529500I-150000J0D01*
G01*
G37*
G36*
G01*
X162710000Y-107529500D02*
X162410000Y-107529500D01*
G75*
G02*
X162260000Y-107379500I0J150000D01*
G01*
X162260000Y-105729500D01*
G75*
G02*
X162410000Y-105579500I150000J0D01*
G01*
X162710000Y-105579500D01*
G75*
G02*
X162860000Y-105729500I0J-150000D01*
G01*
X162860000Y-107379500D01*
G75*
G02*
X162710000Y-107529500I-150000J0D01*
G01*
G37*
D35*
X164465000Y-109029500D03*
%TD*%
%TO.C,U8*%
G36*
G01*
X140514500Y-101566500D02*
X140639500Y-101566500D01*
G75*
G02*
X140702000Y-101629000I0J-62500D01*
G01*
X140702000Y-102329000D01*
G75*
G02*
X140639500Y-102391500I-62500J0D01*
G01*
X140514500Y-102391500D01*
G75*
G02*
X140452000Y-102329000I0J62500D01*
G01*
X140452000Y-101629000D01*
G75*
G02*
X140514500Y-101566500I62500J0D01*
G01*
G37*
G36*
G01*
X140014500Y-101566500D02*
X140139500Y-101566500D01*
G75*
G02*
X140202000Y-101629000I0J-62500D01*
G01*
X140202000Y-102329000D01*
G75*
G02*
X140139500Y-102391500I-62500J0D01*
G01*
X140014500Y-102391500D01*
G75*
G02*
X139952000Y-102329000I0J62500D01*
G01*
X139952000Y-101629000D01*
G75*
G02*
X140014500Y-101566500I62500J0D01*
G01*
G37*
G36*
G01*
X139514500Y-101566500D02*
X139639500Y-101566500D01*
G75*
G02*
X139702000Y-101629000I0J-62500D01*
G01*
X139702000Y-102329000D01*
G75*
G02*
X139639500Y-102391500I-62500J0D01*
G01*
X139514500Y-102391500D01*
G75*
G02*
X139452000Y-102329000I0J62500D01*
G01*
X139452000Y-101629000D01*
G75*
G02*
X139514500Y-101566500I62500J0D01*
G01*
G37*
G36*
G01*
X139014500Y-101566500D02*
X139139500Y-101566500D01*
G75*
G02*
X139202000Y-101629000I0J-62500D01*
G01*
X139202000Y-102329000D01*
G75*
G02*
X139139500Y-102391500I-62500J0D01*
G01*
X139014500Y-102391500D01*
G75*
G02*
X138952000Y-102329000I0J62500D01*
G01*
X138952000Y-101629000D01*
G75*
G02*
X139014500Y-101566500I62500J0D01*
G01*
G37*
G36*
G01*
X138014500Y-102566500D02*
X138714500Y-102566500D01*
G75*
G02*
X138777000Y-102629000I0J-62500D01*
G01*
X138777000Y-102754000D01*
G75*
G02*
X138714500Y-102816500I-62500J0D01*
G01*
X138014500Y-102816500D01*
G75*
G02*
X137952000Y-102754000I0J62500D01*
G01*
X137952000Y-102629000D01*
G75*
G02*
X138014500Y-102566500I62500J0D01*
G01*
G37*
G36*
G01*
X138014500Y-103066500D02*
X138714500Y-103066500D01*
G75*
G02*
X138777000Y-103129000I0J-62500D01*
G01*
X138777000Y-103254000D01*
G75*
G02*
X138714500Y-103316500I-62500J0D01*
G01*
X138014500Y-103316500D01*
G75*
G02*
X137952000Y-103254000I0J62500D01*
G01*
X137952000Y-103129000D01*
G75*
G02*
X138014500Y-103066500I62500J0D01*
G01*
G37*
G36*
G01*
X138014500Y-103566500D02*
X138714500Y-103566500D01*
G75*
G02*
X138777000Y-103629000I0J-62500D01*
G01*
X138777000Y-103754000D01*
G75*
G02*
X138714500Y-103816500I-62500J0D01*
G01*
X138014500Y-103816500D01*
G75*
G02*
X137952000Y-103754000I0J62500D01*
G01*
X137952000Y-103629000D01*
G75*
G02*
X138014500Y-103566500I62500J0D01*
G01*
G37*
G36*
G01*
X138014500Y-104066500D02*
X138714500Y-104066500D01*
G75*
G02*
X138777000Y-104129000I0J-62500D01*
G01*
X138777000Y-104254000D01*
G75*
G02*
X138714500Y-104316500I-62500J0D01*
G01*
X138014500Y-104316500D01*
G75*
G02*
X137952000Y-104254000I0J62500D01*
G01*
X137952000Y-104129000D01*
G75*
G02*
X138014500Y-104066500I62500J0D01*
G01*
G37*
G36*
G01*
X139014500Y-104491500D02*
X139139500Y-104491500D01*
G75*
G02*
X139202000Y-104554000I0J-62500D01*
G01*
X139202000Y-105254000D01*
G75*
G02*
X139139500Y-105316500I-62500J0D01*
G01*
X139014500Y-105316500D01*
G75*
G02*
X138952000Y-105254000I0J62500D01*
G01*
X138952000Y-104554000D01*
G75*
G02*
X139014500Y-104491500I62500J0D01*
G01*
G37*
G36*
G01*
X139514500Y-104491500D02*
X139639500Y-104491500D01*
G75*
G02*
X139702000Y-104554000I0J-62500D01*
G01*
X139702000Y-105254000D01*
G75*
G02*
X139639500Y-105316500I-62500J0D01*
G01*
X139514500Y-105316500D01*
G75*
G02*
X139452000Y-105254000I0J62500D01*
G01*
X139452000Y-104554000D01*
G75*
G02*
X139514500Y-104491500I62500J0D01*
G01*
G37*
G36*
G01*
X140014500Y-104491500D02*
X140139500Y-104491500D01*
G75*
G02*
X140202000Y-104554000I0J-62500D01*
G01*
X140202000Y-105254000D01*
G75*
G02*
X140139500Y-105316500I-62500J0D01*
G01*
X140014500Y-105316500D01*
G75*
G02*
X139952000Y-105254000I0J62500D01*
G01*
X139952000Y-104554000D01*
G75*
G02*
X140014500Y-104491500I62500J0D01*
G01*
G37*
G36*
G01*
X140514500Y-104491500D02*
X140639500Y-104491500D01*
G75*
G02*
X140702000Y-104554000I0J-62500D01*
G01*
X140702000Y-105254000D01*
G75*
G02*
X140639500Y-105316500I-62500J0D01*
G01*
X140514500Y-105316500D01*
G75*
G02*
X140452000Y-105254000I0J62500D01*
G01*
X140452000Y-104554000D01*
G75*
G02*
X140514500Y-104491500I62500J0D01*
G01*
G37*
G36*
G01*
X140939500Y-104066500D02*
X141639500Y-104066500D01*
G75*
G02*
X141702000Y-104129000I0J-62500D01*
G01*
X141702000Y-104254000D01*
G75*
G02*
X141639500Y-104316500I-62500J0D01*
G01*
X140939500Y-104316500D01*
G75*
G02*
X140877000Y-104254000I0J62500D01*
G01*
X140877000Y-104129000D01*
G75*
G02*
X140939500Y-104066500I62500J0D01*
G01*
G37*
G36*
G01*
X140939500Y-103566500D02*
X141639500Y-103566500D01*
G75*
G02*
X141702000Y-103629000I0J-62500D01*
G01*
X141702000Y-103754000D01*
G75*
G02*
X141639500Y-103816500I-62500J0D01*
G01*
X140939500Y-103816500D01*
G75*
G02*
X140877000Y-103754000I0J62500D01*
G01*
X140877000Y-103629000D01*
G75*
G02*
X140939500Y-103566500I62500J0D01*
G01*
G37*
G36*
G01*
X140939500Y-103066500D02*
X141639500Y-103066500D01*
G75*
G02*
X141702000Y-103129000I0J-62500D01*
G01*
X141702000Y-103254000D01*
G75*
G02*
X141639500Y-103316500I-62500J0D01*
G01*
X140939500Y-103316500D01*
G75*
G02*
X140877000Y-103254000I0J62500D01*
G01*
X140877000Y-103129000D01*
G75*
G02*
X140939500Y-103066500I62500J0D01*
G01*
G37*
G36*
G01*
X140939500Y-102566500D02*
X141639500Y-102566500D01*
G75*
G02*
X141702000Y-102629000I0J-62500D01*
G01*
X141702000Y-102754000D01*
G75*
G02*
X141639500Y-102816500I-62500J0D01*
G01*
X140939500Y-102816500D01*
G75*
G02*
X140877000Y-102754000I0J62500D01*
G01*
X140877000Y-102629000D01*
G75*
G02*
X140939500Y-102566500I62500J0D01*
G01*
G37*
D17*
X139827000Y-103441500D03*
%TD*%
%TO.C,U9*%
G36*
G01*
X128132000Y-117870800D02*
X128132000Y-116571200D01*
G75*
G02*
X128382200Y-116321000I250200J0D01*
G01*
X129681800Y-116321000D01*
G75*
G02*
X129932000Y-116571200I0J-250200D01*
G01*
X129932000Y-117870800D01*
G75*
G02*
X129681800Y-118121000I-250200J0D01*
G01*
X128382200Y-118121000D01*
G75*
G02*
X128132000Y-117870800I0J250200D01*
G01*
G37*
D36*
X131572000Y-117221000D03*
X134112000Y-117221000D03*
%TD*%
M02*
