%TF.GenerationSoftware,KiCad,Pcbnew,5.1.9*%
%TF.CreationDate,2021-02-12T16:46:06+00:00*%
%TF.ProjectId,watch2,77617463-6832-42e6-9b69-6361645f7063,rev?*%
%TF.SameCoordinates,Original*%
%TF.FileFunction,Copper,L2,Bot*%
%TF.FilePolarity,Positive*%
%FSLAX46Y46*%
G04 Gerber Fmt 4.6, Leading zero omitted, Abs format (unit mm)*
G04 Created by KiCad (PCBNEW 5.1.9) date 2021-02-12 16:46:06*
%MOMM*%
%LPD*%
G01*
G04 APERTURE LIST*
%TA.AperFunction,NonConductor*%
%ADD10C,0.100000*%
%TD*%
%TA.AperFunction,ComponentPad*%
%ADD11C,0.800000*%
%TD*%
%TA.AperFunction,SMDPad,CuDef*%
%ADD12O,0.900000X3.000000*%
%TD*%
%TA.AperFunction,SMDPad,CuDef*%
%ADD13R,5.000000X5.000000*%
%TD*%
%TA.AperFunction,SMDPad,CuDef*%
%ADD14R,0.520000X1.000000*%
%TD*%
%TA.AperFunction,SMDPad,CuDef*%
%ADD15R,0.270000X1.000000*%
%TD*%
%TA.AperFunction,SMDPad,CuDef*%
%ADD16R,1.000000X2.000000*%
%TD*%
%TA.AperFunction,ComponentPad*%
%ADD17O,1.158000X2.316000*%
%TD*%
%TA.AperFunction,ComponentPad*%
%ADD18O,1.200000X2.400000*%
%TD*%
%TA.AperFunction,ComponentPad*%
%ADD19R,1.700000X1.700000*%
%TD*%
%TA.AperFunction,ComponentPad*%
%ADD20O,1.700000X1.700000*%
%TD*%
%TA.AperFunction,ComponentPad*%
%ADD21C,3.200000*%
%TD*%
%TA.AperFunction,ComponentPad*%
%ADD22R,1.350000X1.350000*%
%TD*%
%TA.AperFunction,ComponentPad*%
%ADD23O,1.350000X1.350000*%
%TD*%
%TA.AperFunction,SMDPad,CuDef*%
%ADD24R,1.400000X0.800000*%
%TD*%
%TA.AperFunction,ComponentPad*%
%ADD25R,1.000000X1.000000*%
%TD*%
%TA.AperFunction,ComponentPad*%
%ADD26O,1.000000X1.000000*%
%TD*%
%TA.AperFunction,ComponentPad*%
%ADD27C,1.800000*%
%TD*%
%TA.AperFunction,ViaPad*%
%ADD28C,0.800000*%
%TD*%
%TA.AperFunction,Conductor*%
%ADD29C,0.381000*%
%TD*%
%TA.AperFunction,Conductor*%
%ADD30C,0.250000*%
%TD*%
%TA.AperFunction,Conductor*%
%ADD31C,0.304800*%
%TD*%
%TA.AperFunction,Conductor*%
%ADD32C,0.254000*%
%TD*%
%TA.AperFunction,Conductor*%
%ADD33C,0.100000*%
%TD*%
G04 APERTURE END LIST*
D10*
X144338428Y-119405428D02*
X144338428Y-119091142D01*
X144367000Y-119034000D01*
X144424142Y-119005428D01*
X144538428Y-119005428D01*
X144595571Y-119034000D01*
X144338428Y-119376857D02*
X144395571Y-119405428D01*
X144538428Y-119405428D01*
X144595571Y-119376857D01*
X144624142Y-119319714D01*
X144624142Y-119262571D01*
X144595571Y-119205428D01*
X144538428Y-119176857D01*
X144395571Y-119176857D01*
X144338428Y-119148285D01*
X143967000Y-119405428D02*
X144024142Y-119376857D01*
X144052714Y-119319714D01*
X144052714Y-118805428D01*
X143738428Y-119405428D02*
X143738428Y-119005428D01*
X143738428Y-118805428D02*
X143767000Y-118834000D01*
X143738428Y-118862571D01*
X143709857Y-118834000D01*
X143738428Y-118805428D01*
X143738428Y-118862571D01*
X143195571Y-119376857D02*
X143252714Y-119405428D01*
X143367000Y-119405428D01*
X143424142Y-119376857D01*
X143452714Y-119348285D01*
X143481285Y-119291142D01*
X143481285Y-119119714D01*
X143452714Y-119062571D01*
X143424142Y-119034000D01*
X143367000Y-119005428D01*
X143252714Y-119005428D01*
X143195571Y-119034000D01*
X142709857Y-119376857D02*
X142767000Y-119405428D01*
X142881285Y-119405428D01*
X142938428Y-119376857D01*
X142967000Y-119319714D01*
X142967000Y-119091142D01*
X142938428Y-119034000D01*
X142881285Y-119005428D01*
X142767000Y-119005428D01*
X142709857Y-119034000D01*
X142681285Y-119091142D01*
X142681285Y-119148285D01*
X142967000Y-119205428D01*
X142024142Y-119005428D02*
X141909857Y-119405428D01*
X141795571Y-119119714D01*
X141681285Y-119405428D01*
X141567000Y-119005428D01*
X141081285Y-119405428D02*
X141081285Y-119091142D01*
X141109857Y-119034000D01*
X141167000Y-119005428D01*
X141281285Y-119005428D01*
X141338428Y-119034000D01*
X141081285Y-119376857D02*
X141138428Y-119405428D01*
X141281285Y-119405428D01*
X141338428Y-119376857D01*
X141367000Y-119319714D01*
X141367000Y-119262571D01*
X141338428Y-119205428D01*
X141281285Y-119176857D01*
X141138428Y-119176857D01*
X141081285Y-119148285D01*
X140824142Y-119376857D02*
X140767000Y-119405428D01*
X140652714Y-119405428D01*
X140595571Y-119376857D01*
X140567000Y-119319714D01*
X140567000Y-119291142D01*
X140595571Y-119234000D01*
X140652714Y-119205428D01*
X140738428Y-119205428D01*
X140795571Y-119176857D01*
X140824142Y-119119714D01*
X140824142Y-119091142D01*
X140795571Y-119034000D01*
X140738428Y-119005428D01*
X140652714Y-119005428D01*
X140595571Y-119034000D01*
X143767000Y-120405428D02*
X143767000Y-119805428D01*
X143509857Y-120405428D02*
X143509857Y-120091142D01*
X143538428Y-120034000D01*
X143595571Y-120005428D01*
X143681285Y-120005428D01*
X143738428Y-120034000D01*
X143767000Y-120062571D01*
X142995571Y-120376857D02*
X143052714Y-120405428D01*
X143167000Y-120405428D01*
X143224142Y-120376857D01*
X143252714Y-120319714D01*
X143252714Y-120091142D01*
X143224142Y-120034000D01*
X143167000Y-120005428D01*
X143052714Y-120005428D01*
X142995571Y-120034000D01*
X142967000Y-120091142D01*
X142967000Y-120148285D01*
X143252714Y-120205428D01*
X142709857Y-120405428D02*
X142709857Y-120005428D01*
X142709857Y-120119714D02*
X142681285Y-120062571D01*
X142652714Y-120034000D01*
X142595571Y-120005428D01*
X142538428Y-120005428D01*
X142109857Y-120376857D02*
X142167000Y-120405428D01*
X142281285Y-120405428D01*
X142338428Y-120376857D01*
X142367000Y-120319714D01*
X142367000Y-120091142D01*
X142338428Y-120034000D01*
X142281285Y-120005428D01*
X142167000Y-120005428D01*
X142109857Y-120034000D01*
X142081285Y-120091142D01*
X142081285Y-120148285D01*
X142367000Y-120205428D01*
X141367000Y-120348285D02*
X141338428Y-120376857D01*
X141367000Y-120405428D01*
X141395571Y-120376857D01*
X141367000Y-120348285D01*
X141367000Y-120405428D01*
X141367000Y-120034000D02*
X141338428Y-120062571D01*
X141367000Y-120091142D01*
X141395571Y-120062571D01*
X141367000Y-120034000D01*
X141367000Y-120091142D01*
X141138428Y-120634000D02*
X141109857Y-120605428D01*
X141052714Y-120519714D01*
X141024142Y-120462571D01*
X140995571Y-120376857D01*
X140967000Y-120234000D01*
X140967000Y-120119714D01*
X140995571Y-119976857D01*
X141024142Y-119891142D01*
X141052714Y-119834000D01*
X141109857Y-119748285D01*
X141138428Y-119719714D01*
D11*
%TO.P,U7,39*%
%TO.N,GND*%
X164106000Y-100000000D03*
X163106000Y-100000000D03*
X162106000Y-100000000D03*
X161106000Y-100000000D03*
X160106000Y-100000000D03*
X164106000Y-102000000D03*
X163106000Y-102000000D03*
X162106000Y-102000000D03*
X161106000Y-102000000D03*
X160106000Y-102000000D03*
X160106000Y-101000000D03*
X161106000Y-101000000D03*
X162106000Y-101000000D03*
X163106000Y-101000000D03*
X164106000Y-101000000D03*
X164106000Y-103000000D03*
X163106000Y-103000000D03*
X162106000Y-103000000D03*
X161106000Y-103000000D03*
X160106000Y-103000000D03*
X160106000Y-104000000D03*
X161106000Y-104000000D03*
X162106000Y-104000000D03*
X163106000Y-104000000D03*
D12*
%TO.P,U7,38*%
X169016000Y-92570000D03*
%TO.P,U7,37*%
%TO.N,TFT_MOSI*%
X167746000Y-92570000D03*
%TO.P,U7,36*%
%TO.N,TFT_DC*%
X166476000Y-92570000D03*
%TO.P,U7,35*%
%TO.N,ESP_TX*%
X165206000Y-92570000D03*
%TO.P,U7,34*%
%TO.N,ESP_RX*%
X163936000Y-92570000D03*
%TO.P,U7,33*%
%TO.N,TFT_RESET*%
X162666000Y-92570000D03*
%TO.P,U7,32*%
%TO.N,Net-(U7-Pad32)*%
X161396000Y-92570000D03*
%TO.P,U7,31*%
%TO.N,TFT_MISO*%
X160126000Y-92570000D03*
%TO.P,U7,30*%
%TO.N,TFT_CLOCK*%
X158856000Y-92570000D03*
%TO.P,U7,29*%
%TO.N,TFT_CS*%
X157586000Y-92570000D03*
%TO.P,U7,28*%
%TO.N,Net-(U7-Pad28)*%
X156316000Y-92570000D03*
%TO.P,U7,27*%
%TO.N,Net-(U7-Pad27)*%
X155046000Y-92570000D03*
%TO.P,U7,26*%
%TO.N,LED_IR*%
X153776000Y-92570000D03*
%TO.P,U7,25*%
%TO.N,ESP_IO0*%
X152506000Y-92570000D03*
%TO.P,U7,24*%
%TO.N,Net-(U7-Pad24)*%
X151206000Y-92600000D03*
%TO.P,U7,23*%
%TO.N,I2C_SCL*%
X149936000Y-92600000D03*
%TO.P,U7,22*%
%TO.N,Net-(U7-Pad22)*%
X148666000Y-92600000D03*
%TO.P,U7,21*%
%TO.N,Net-(U7-Pad21)*%
X147396000Y-92600000D03*
%TO.P,U7,20*%
%TO.N,Net-(U7-Pad20)*%
X146126000Y-92600000D03*
%TO.P,U7,19*%
%TO.N,Net-(U7-Pad19)*%
X146126000Y-110600000D03*
%TO.P,U7,17*%
%TO.N,Net-(U7-Pad17)*%
X148666000Y-110600000D03*
%TO.P,U7,16*%
%TO.N,SD_CS*%
X149936000Y-110600000D03*
%TO.P,U7,15*%
%TO.N,GND*%
X151206000Y-110600000D03*
%TO.P,U7,14*%
%TO.N,IR_RECV*%
X152506000Y-110600000D03*
%TO.P,U7,13*%
%TO.N,LED_TORCH*%
X153776000Y-110600000D03*
%TO.P,U7,12*%
%TO.N,I2S_BLK*%
X155046000Y-110600000D03*
%TO.P,U7,11*%
%TO.N,I2S_LRC*%
X156316000Y-110600000D03*
%TO.P,U7,10*%
%TO.N,I2S_DOUT*%
X157586000Y-110600000D03*
%TO.P,U7,9*%
%TO.N,TFT_BL*%
X158856000Y-110600000D03*
%TO.P,U7,8*%
%TO.N,I2C_SDA*%
X160126000Y-110600000D03*
%TO.P,U7,7*%
%TO.N,I2S_DIN*%
X161396000Y-110600000D03*
%TO.P,U7,6*%
%TO.N,Net-(U7-Pad6)*%
X162666000Y-110600000D03*
%TO.P,U7,5*%
%TO.N,Net-(U7-Pad5)*%
X163936000Y-110600000D03*
%TO.P,U7,4*%
%TO.N,DPAD_ENTER*%
X165206000Y-110600000D03*
%TO.P,U7,3*%
%TO.N,ESP_EN*%
X166476000Y-110600000D03*
%TO.P,U7,2*%
%TO.N,+3V3*%
X167746000Y-110600000D03*
%TO.P,U7,1*%
%TO.N,GND*%
X169016000Y-110600000D03*
D13*
%TO.P,U7,39*%
X162096000Y-102000000D03*
D11*
X164106000Y-104000000D03*
%TD*%
D14*
%TO.P,J1,1*%
%TO.N,GND*%
X155373000Y-114597000D03*
%TO.P,J1,12*%
X149173000Y-114597000D03*
%TO.P,J1,2*%
%TO.N,+5V*%
X154623000Y-114597000D03*
%TO.P,J1,11*%
X149923000Y-114597000D03*
D15*
%TO.P,J1,3 (CC1)*%
%TO.N,Net-(J1-PadA5)*%
X154023000Y-114597000D03*
%TO.P,J1,10*%
%TO.N,N/C*%
X150523000Y-114597000D03*
%TO.P,J1,4*%
X153523000Y-114597000D03*
%TO.P,J1,5*%
%TO.N,USB_D-*%
X153023000Y-114597000D03*
%TO.P,J1,6*%
%TO.N,USB_D+*%
X152523000Y-114597000D03*
%TO.P,J1,7*%
%TO.N,USB_D-*%
X152023000Y-114597000D03*
%TO.P,J1,8*%
%TO.N,USB_D+*%
X151523000Y-114597000D03*
%TO.P,J1,9 (CC2)*%
%TO.N,Net-(J1-PadB5)*%
X151023000Y-114597000D03*
D16*
%TO.P,J1,S1*%
%TO.N,GND*%
X153673000Y-118797000D03*
%TO.P,J1,S2*%
X150873000Y-118797000D03*
D17*
%TO.P,J1,S3*%
X156593000Y-114972000D03*
%TO.P,J1,S4*%
X147953000Y-114972000D03*
D18*
%TO.P,J1,S5*%
X156593000Y-118797000D03*
%TO.P,J1,S6*%
X147953000Y-118797000D03*
%TD*%
D19*
%TO.P,J4,1*%
%TO.N,DPAD_RIGHT*%
X136652000Y-95250000D03*
D20*
%TO.P,J4,2*%
%TO.N,DPAD_UP*%
X134112000Y-95250000D03*
%TO.P,J4,3*%
%TO.N,DPAD_LEFT*%
X131572000Y-95250000D03*
%TD*%
D21*
%TO.P,U$7,P$1*%
%TO.N,GND*%
X137134600Y-118198900D03*
%TD*%
%TO.P,U$8,P$1*%
%TO.N,GND*%
X170154600Y-118198900D03*
%TD*%
%TO.P,U$9,P$1*%
%TO.N,GND*%
X137134600Y-87718900D03*
%TD*%
%TO.P,U$10,P$1*%
%TO.N,GND*%
X170154600Y-87718900D03*
%TD*%
D22*
%TO.P,BT1,1*%
%TO.N,+5V*%
X173577500Y-116840000D03*
D23*
%TO.P,BT1,2*%
%TO.N,GND*%
X175577500Y-116840000D03*
%TD*%
D24*
%TO.P,D5,1*%
%TO.N,Net-(D5-Pad1)*%
X130048000Y-86487000D03*
%TO.P,D5,2*%
%TO.N,Net-(D5-Pad2)*%
X133648000Y-86487000D03*
%TD*%
D25*
%TO.P,J3,1*%
%TO.N,ESP_RX*%
X146304000Y-119380000D03*
D26*
%TO.P,J3,2*%
%TO.N,ESP_TX*%
X146304000Y-118110000D03*
%TO.P,J3,3*%
%TO.N,GND*%
X146304000Y-116840000D03*
%TD*%
D20*
%TO.P,J5,3*%
%TO.N,+3V3*%
X131572000Y-110490000D03*
%TO.P,J5,2*%
%TO.N,DPAD_DOWN*%
X134112000Y-110490000D03*
D19*
%TO.P,J5,1*%
%TO.N,DPAD_ENTER*%
X136652000Y-110490000D03*
%TD*%
%TO.P,J6,1*%
%TO.N,+3V3*%
X140970000Y-87757000D03*
D20*
%TO.P,J6,2*%
%TO.N,Net-(J6-Pad2)*%
X143510000Y-87757000D03*
%TO.P,J6,3*%
%TO.N,GND*%
X146050000Y-87757000D03*
%TO.P,J6,4*%
%TO.N,TFT_CLOCK*%
X148590000Y-87757000D03*
%TO.P,J6,5*%
%TO.N,TFT_MISO*%
X151130000Y-87757000D03*
%TO.P,J6,6*%
%TO.N,TFT_MOSI*%
X153670000Y-87757000D03*
%TO.P,J6,7*%
%TO.N,TFT_CS*%
X156210000Y-87757000D03*
%TO.P,J6,8*%
%TO.N,TFT_RESET*%
X158750000Y-87757000D03*
%TO.P,J6,9*%
%TO.N,TFT_DC*%
X161290000Y-87757000D03*
%TO.P,J6,10*%
%TO.N,SD_CS*%
X163830000Y-87757000D03*
%TO.P,J6,11*%
%TO.N,TFT_BL*%
X166370000Y-87757000D03*
%TD*%
%TO.P,J8,2*%
%TO.N,Net-(J7-Pad1)*%
X142430500Y-82994500D03*
D19*
%TO.P,J8,1*%
%TO.N,+3V3*%
X139890500Y-82994500D03*
%TD*%
%TO.P,U9,1*%
%TO.N,IR_RECV*%
%TA.AperFunction,ComponentPad*%
G36*
G01*
X128132000Y-117870800D02*
X128132000Y-116571200D01*
G75*
G02*
X128382200Y-116321000I250200J0D01*
G01*
X129681800Y-116321000D01*
G75*
G02*
X129932000Y-116571200I0J-250200D01*
G01*
X129932000Y-117870800D01*
G75*
G02*
X129681800Y-118121000I-250200J0D01*
G01*
X128382200Y-118121000D01*
G75*
G02*
X128132000Y-117870800I0J250200D01*
G01*
G37*
%TD.AperFunction*%
D27*
%TO.P,U9,2*%
%TO.N,GND*%
X131572000Y-117221000D03*
%TO.P,U9,3*%
%TO.N,+3V3*%
X134112000Y-117221000D03*
%TD*%
D28*
%TO.N,*%
X138684000Y-84836000D03*
X143510000Y-84836000D03*
X139827000Y-84836000D03*
X142367000Y-84836000D03*
X141097000Y-84836000D03*
%TO.N,GND*%
X162179000Y-98044000D03*
X161480500Y-105918000D03*
X151511000Y-112712500D03*
X129095500Y-112776000D03*
X133159500Y-114617500D03*
X129159000Y-106045000D03*
X129095500Y-109791500D03*
X131508500Y-108204000D03*
X131445000Y-97917000D03*
X135636000Y-97917000D03*
X140017500Y-97853500D03*
X169545000Y-106235500D03*
X168910000Y-109855000D03*
X168973500Y-111252000D03*
X171323000Y-112458500D03*
X165227000Y-116205000D03*
X146685000Y-115443000D03*
X155050500Y-119697500D03*
X164020500Y-117983000D03*
X166370000Y-106554500D03*
X135953500Y-108140500D03*
X129095500Y-114855503D03*
X148653500Y-96901000D03*
X154622500Y-100967500D03*
X169100500Y-92583000D03*
X132909250Y-92396250D03*
%TO.N,+3V3*%
X150495000Y-112522000D03*
X148272500Y-112585500D03*
X153162000Y-112331500D03*
X162179000Y-117983000D03*
X131508500Y-91376500D03*
X141351000Y-118491000D03*
X143256000Y-116014500D03*
X145415000Y-106616500D03*
X140716000Y-106616500D03*
X165735000Y-98996500D03*
X168021000Y-107950000D03*
X165735000Y-100901500D03*
X137223500Y-106616500D03*
X133096000Y-88011000D03*
X144482500Y-110871000D03*
%TO.N,+5V*%
X160845500Y-112585500D03*
X160655000Y-117284500D03*
X170942000Y-115252500D03*
X157226000Y-116586000D03*
X155956000Y-116586000D03*
X166177000Y-113962000D03*
%TO.N,Net-(D5-Pad1)*%
X147703500Y-94901000D03*
%TO.N,Net-(D5-Pad2)*%
X134620000Y-86487000D03*
%TO.N,I2C_SCL*%
X158051500Y-102552500D03*
X134302500Y-89344500D03*
X156400500Y-104267000D03*
X154749500Y-105092500D03*
X156845000Y-108013500D03*
%TO.N,I2C_SDA*%
X156591000Y-102552500D03*
X134302500Y-90360500D03*
X154749500Y-104267000D03*
X158750000Y-105600500D03*
X160147000Y-109156500D03*
%TO.N,ESP_RX*%
X148590000Y-102997000D03*
X154305000Y-98742500D03*
X152908000Y-95123000D03*
X145097500Y-117221000D03*
X142176500Y-117221000D03*
X157734000Y-95123000D03*
X148018500Y-108648500D03*
%TO.N,ESP_TX*%
X150241000Y-115887500D03*
X149479000Y-102997000D03*
X154305000Y-99568000D03*
X142176500Y-118046500D03*
X152908000Y-95948500D03*
X157734000Y-95948500D03*
%TO.N,DPAD_RIGHT*%
X147129500Y-100838000D03*
%TO.N,DPAD_UP*%
X147129500Y-101663500D03*
%TO.N,DPAD_LEFT*%
X144145000Y-99695000D03*
X147129500Y-99822000D03*
X147129500Y-104140000D03*
%TO.N,DPAD_DOWN*%
X147129500Y-103314500D03*
X144272000Y-107696000D03*
%TO.N,DPAD_ENTER*%
X143446500Y-107696000D03*
X147129500Y-102489000D03*
X165227000Y-113220500D03*
X168577599Y-104989035D03*
X166878000Y-100330000D03*
X159702500Y-98206000D03*
X152463500Y-99377500D03*
X149444000Y-98537766D03*
%TO.N,TFT_CS*%
X157607000Y-92519500D03*
%TO.N,SD_CS*%
X161671000Y-89916000D03*
X149987000Y-99377500D03*
X151320500Y-99377500D03*
X149923500Y-109728000D03*
%TO.N,Net-(J7-Pad1)*%
X144335500Y-90170000D03*
X140081000Y-90170000D03*
%TO.N,Net-(LS1-Pad1)*%
X138176000Y-105664000D03*
X135255000Y-99885500D03*
%TO.N,Net-(LS1-Pad2)*%
X137096500Y-103759000D03*
X137795000Y-104838500D03*
%TO.N,Net-(MK1-Pad2)*%
X134937500Y-114681000D03*
%TO.N,I2S_LRC*%
X142494000Y-103441500D03*
X148590000Y-107315000D03*
X131445000Y-112839500D03*
X136398000Y-113220500D03*
%TO.N,I2S_BLK*%
X142367000Y-101917500D03*
X148590000Y-106489500D03*
X136398000Y-114046000D03*
X131000500Y-115697000D03*
X146558000Y-108458000D03*
%TO.N,LED_TORCH*%
X151892000Y-108521500D03*
%TO.N,ESP_IO0*%
X164084000Y-97282000D03*
X167640000Y-97282000D03*
X158115000Y-90424000D03*
%TO.N,USB_D-*%
X151320500Y-117221000D03*
%TO.N,USB_D+*%
X152654000Y-116141500D03*
X151892000Y-119507000D03*
X152527000Y-113792000D03*
%TO.N,ESP_EN*%
X164909500Y-114998500D03*
%TO.N,Net-(J1-PadA5)*%
X153606500Y-115887500D03*
%TO.N,Net-(J1-PadB5)*%
X151066500Y-116141500D03*
%TO.N,Net-(R18-Pad2)*%
X144081500Y-116014500D03*
X141097000Y-113220500D03*
%TO.N,Net-(R24-Pad2)*%
X142494000Y-104584500D03*
X138303000Y-101917500D03*
%TO.N,I2S_DIN*%
X157353000Y-105092500D03*
X146812000Y-107061000D03*
X148590000Y-105664000D03*
X136398000Y-112395000D03*
X158750000Y-104711500D03*
%TO.N,LED_IR*%
X153797000Y-92583000D03*
%TO.N,Net-(U4-Pad4)*%
X169989500Y-110109000D03*
X173545500Y-113411000D03*
%TO.N,IR_RECV*%
X148907500Y-113284000D03*
X145478500Y-113982500D03*
%TO.N,I2S_DOUT*%
X149161500Y-104965500D03*
X141351000Y-101917500D03*
X147701000Y-104902000D03*
%TD*%
D29*
%TO.N,GND*%
X150873000Y-118924000D02*
X147953000Y-118924000D01*
X156593000Y-118924000D02*
X156593000Y-115099000D01*
D30*
X156218000Y-114724000D02*
X156593000Y-115099000D01*
D29*
X155373000Y-114724000D02*
X156218000Y-114724000D01*
D30*
X148328000Y-114724000D02*
X147953000Y-115099000D01*
X149173000Y-114724000D02*
X148328000Y-114724000D01*
X147926500Y-115125500D02*
X147953000Y-115099000D01*
D29*
X150873000Y-120178000D02*
X151000652Y-120305653D01*
X150873000Y-118797000D02*
X150873000Y-120178000D01*
X153673000Y-120178000D02*
X153673000Y-118797000D01*
X153553499Y-120297501D02*
X153673000Y-120178000D01*
X151008804Y-120297501D02*
X153553499Y-120297501D01*
X151000652Y-120305653D02*
X151008804Y-120297501D01*
X154150000Y-118797000D02*
X155050500Y-119697500D01*
X153673000Y-118797000D02*
X154150000Y-118797000D01*
X155692500Y-119697500D02*
X156593000Y-118797000D01*
X155050500Y-119697500D02*
X155692500Y-119697500D01*
X164020500Y-117411500D02*
X165227000Y-116205000D01*
X164020500Y-117983000D02*
X164020500Y-117411500D01*
X171323000Y-112458500D02*
X171323000Y-114363500D01*
X171323000Y-114363500D02*
X172529500Y-115570000D01*
X172529500Y-115570000D02*
X174625000Y-115570000D01*
X175577500Y-116522500D02*
X175577500Y-116840000D01*
X174625000Y-115570000D02*
X175577500Y-116522500D01*
X169016000Y-110600000D02*
X169016000Y-111739000D01*
X169735500Y-112458500D02*
X171323000Y-112458500D01*
X169016000Y-111739000D02*
X169735500Y-112458500D01*
X175577500Y-116840000D02*
X172228099Y-120189401D01*
X164020500Y-119316500D02*
X164020500Y-117983000D01*
X164893401Y-120189401D02*
X164020500Y-119316500D01*
D30*
X169016000Y-110600000D02*
X169016000Y-109304500D01*
D29*
X169016000Y-110600000D02*
X169016000Y-109241000D01*
X169545000Y-108712000D02*
X169545000Y-106235500D01*
X169016000Y-109241000D02*
X169545000Y-108712000D01*
X166370000Y-106554500D02*
X166940000Y-106554500D01*
X167259000Y-106235500D02*
X169545000Y-106235500D01*
X166940000Y-106554500D02*
X167259000Y-106235500D01*
X169545000Y-106235500D02*
X169545000Y-104838500D01*
X169545000Y-104838500D02*
X168783000Y-104076500D01*
X164182500Y-104076500D02*
X164106000Y-104000000D01*
X168783000Y-104076500D02*
X164182500Y-104076500D01*
X131445000Y-97917000D02*
X135636000Y-97917000D01*
X139954000Y-97917000D02*
X140017500Y-97853500D01*
X135636000Y-97917000D02*
X139954000Y-97917000D01*
X131572000Y-108140500D02*
X131508500Y-108204000D01*
X135953500Y-108140500D02*
X131572000Y-108140500D01*
X129095500Y-109791500D02*
X129095500Y-108585000D01*
X129476500Y-108204000D02*
X131508500Y-108204000D01*
X129095500Y-108585000D02*
X129476500Y-108204000D01*
X129095500Y-106108500D02*
X129159000Y-106045000D01*
X129095500Y-109791500D02*
X129095500Y-106108500D01*
X131572000Y-116205000D02*
X133159500Y-114617500D01*
X131572000Y-117221000D02*
X131572000Y-116205000D01*
D30*
X128995001Y-114580501D02*
X128747499Y-114580501D01*
X128747499Y-114580501D02*
X128370499Y-114203501D01*
X129095500Y-114681000D02*
X128995001Y-114580501D01*
X129443501Y-113130499D02*
X129794000Y-113480998D01*
X129095500Y-114855503D02*
X129095500Y-114681000D01*
X128370499Y-114203501D02*
X128370499Y-113507499D01*
X128370499Y-113507499D02*
X128747499Y-113130499D01*
X129820501Y-114203501D02*
X129820501Y-113507499D01*
X129443501Y-114580501D02*
X129820501Y-114203501D01*
X129195999Y-114580501D02*
X129443501Y-114580501D01*
X129095500Y-114681000D02*
X129195999Y-114580501D01*
X169016000Y-109961000D02*
X168910000Y-109855000D01*
X169016000Y-110600000D02*
X169016000Y-109961000D01*
D29*
X151034550Y-96901000D02*
X148653500Y-96901000D01*
X156985020Y-97676020D02*
X151809569Y-97676020D01*
X151809569Y-97676020D02*
X151034550Y-96901000D01*
X157085980Y-97776980D02*
X156985020Y-97676020D01*
X157085980Y-100520500D02*
X157085980Y-97776980D01*
X156638980Y-100967500D02*
X157085980Y-100520500D01*
X154622500Y-100967500D02*
X156638980Y-100967500D01*
D30*
X146304000Y-115824000D02*
X146685000Y-115443000D01*
X146304000Y-116840000D02*
X146304000Y-115824000D01*
X147156000Y-114972000D02*
X146685000Y-115443000D01*
X147953000Y-114972000D02*
X147156000Y-114972000D01*
D29*
X151206000Y-112407500D02*
X151511000Y-112712500D01*
X151206000Y-110600000D02*
X151206000Y-112407500D01*
D30*
X161480500Y-104374500D02*
X161106000Y-104000000D01*
X161480500Y-105918000D02*
X161480500Y-104374500D01*
X129095500Y-113093500D02*
X129132499Y-113130499D01*
X129132499Y-113130499D02*
X129443501Y-113130499D01*
X129095500Y-112204500D02*
X129095500Y-113093500D01*
X128747499Y-113130499D02*
X129132499Y-113130499D01*
X129095500Y-112776000D02*
X129095500Y-112204500D01*
X129095500Y-112204500D02*
X129095500Y-109791500D01*
X170481401Y-118525701D02*
X170154600Y-118198900D01*
X170481401Y-120189401D02*
X170481401Y-118525701D01*
D29*
X172228099Y-120189401D02*
X170481401Y-120189401D01*
X170481401Y-120189401D02*
X164893401Y-120189401D01*
D30*
X134855098Y-87718900D02*
X137134600Y-87718900D01*
X132909250Y-89664748D02*
X134855098Y-87718900D01*
X132909250Y-92396250D02*
X132909250Y-89664748D01*
X162179000Y-99927000D02*
X162106000Y-100000000D01*
X162179000Y-98044000D02*
X162179000Y-99927000D01*
D29*
%TO.N,+3V3*%
X167746000Y-108225000D02*
X168021000Y-107950000D01*
X167746000Y-110600000D02*
X167746000Y-108225000D01*
X165735000Y-100901500D02*
X165735000Y-98996500D01*
X137223500Y-106616500D02*
X140716000Y-106616500D01*
X140716000Y-106616500D02*
X145415000Y-106616500D01*
X132812501Y-109249499D02*
X131572000Y-110490000D01*
X137223500Y-108013500D02*
X135987501Y-109249499D01*
X135987501Y-109249499D02*
X132812501Y-109249499D01*
X137223500Y-106616500D02*
X137223500Y-108013500D01*
X142213058Y-116014500D02*
X143256000Y-116014500D01*
X141351000Y-116876558D02*
X142213058Y-116014500D01*
X141351000Y-118491000D02*
X141351000Y-116876558D01*
X131508500Y-89598500D02*
X133096000Y-88011000D01*
X131508500Y-91376500D02*
X131508500Y-89598500D01*
X141637960Y-110871000D02*
X137129460Y-115379500D01*
X144482500Y-110871000D02*
X141637960Y-110871000D01*
X135953500Y-115379500D02*
X134112000Y-117221000D01*
X137129460Y-115379500D02*
X135953500Y-115379500D01*
X156931594Y-113360500D02*
X156413500Y-113360500D01*
X157562510Y-113991416D02*
X156931594Y-113360500D01*
X157562510Y-115361952D02*
X157562510Y-113991416D01*
X161034441Y-118075001D02*
X160275559Y-118075001D01*
X161126442Y-117983000D02*
X161034441Y-118075001D01*
X160275559Y-118075001D02*
X157562510Y-115361952D01*
X162179000Y-117983000D02*
X161126442Y-117983000D01*
X156413500Y-113360500D02*
X155638500Y-112585500D01*
D30*
X153416000Y-112585500D02*
X153924000Y-112585500D01*
X153162000Y-112331500D02*
X153416000Y-112585500D01*
D29*
X153924000Y-112585500D02*
X153479500Y-112585500D01*
X155638500Y-112585500D02*
X153924000Y-112585500D01*
X150466499Y-112493499D02*
X150622000Y-112649000D01*
X148528059Y-112493499D02*
X150466499Y-112493499D01*
X148436058Y-112585500D02*
X148528059Y-112493499D01*
X148272500Y-112585500D02*
X148436058Y-112585500D01*
%TO.N,+5V*%
X154623000Y-115334902D02*
X154559000Y-115398902D01*
X154623000Y-114597000D02*
X154623000Y-115334902D01*
X155117858Y-116586000D02*
X156019500Y-116586000D01*
X154559000Y-116027142D02*
X155117858Y-116586000D01*
X154559000Y-115398902D02*
X154559000Y-116027142D01*
X157226000Y-116586000D02*
X157797500Y-117157500D01*
X157797500Y-120078500D02*
X158018192Y-120299193D01*
X157797500Y-117157500D02*
X157797500Y-120078500D01*
X163195000Y-119253000D02*
X162152614Y-120295386D01*
X163195000Y-116586000D02*
X163195000Y-119253000D01*
X158018192Y-120299193D02*
X162152614Y-120295386D01*
X166177000Y-113962000D02*
X163342500Y-113962000D01*
X163195000Y-114109500D02*
X163195000Y-116586000D01*
X163342500Y-113962000D02*
X163195000Y-114109500D01*
X160655000Y-112776000D02*
X160845500Y-112585500D01*
X160655000Y-117284500D02*
X160655000Y-112776000D01*
D30*
%TO.N,Net-(D5-Pad1)*%
X133736591Y-85761999D02*
X130773001Y-85761999D01*
X139794999Y-87534499D02*
X137979990Y-85719490D01*
X130773001Y-85761999D02*
X130048000Y-86487000D01*
X137979990Y-85719490D02*
X133779100Y-85719490D01*
X140372997Y-89444999D02*
X139794999Y-88867001D01*
X139794999Y-88867001D02*
X139794999Y-87534499D01*
X144688979Y-89444999D02*
X140372997Y-89444999D01*
X145350990Y-90107010D02*
X144688979Y-89444999D01*
X146280971Y-94901000D02*
X145350990Y-93971019D01*
X133779100Y-85719490D02*
X133736591Y-85761999D01*
X145350990Y-93971019D02*
X145350990Y-90107010D01*
X147703500Y-94901000D02*
X146280971Y-94901000D01*
%TO.N,Net-(D5-Pad2)*%
X133965500Y-86169500D02*
X133648000Y-86487000D01*
X134747000Y-86169500D02*
X133965500Y-86169500D01*
%TO.N,I2C_SCL*%
X156845000Y-108013500D02*
X156845000Y-106997500D01*
X156845000Y-106997500D02*
X156146500Y-106299000D01*
X156146500Y-106299000D02*
X156146500Y-106172000D01*
X155067000Y-105092500D02*
X154749500Y-105092500D01*
X155575000Y-105092500D02*
X156400500Y-104267000D01*
X154749500Y-105092500D02*
X155575000Y-105092500D01*
X155575000Y-105092500D02*
X155321000Y-105346500D01*
X155321000Y-105346500D02*
X155067000Y-105092500D01*
X155575000Y-105410000D02*
X155479750Y-105505250D01*
X155575000Y-105092500D02*
X155575000Y-105410000D01*
X155479750Y-105505250D02*
X155321000Y-105346500D01*
X155575000Y-105410000D02*
X155575000Y-105600500D01*
X155575000Y-105600500D02*
X155479750Y-105505250D01*
X156146500Y-106172000D02*
X155575000Y-105600500D01*
X146369562Y-95626001D02*
X148659999Y-95626001D01*
X149936000Y-94350000D02*
X149936000Y-92600000D01*
X141638562Y-90895001D02*
X146369562Y-95626001D01*
X136418686Y-90895001D02*
X141638562Y-90895001D01*
X148659999Y-95626001D02*
X149936000Y-94350000D01*
X134868185Y-89344500D02*
X136418686Y-90895001D01*
X134302500Y-89344500D02*
X134868185Y-89344500D01*
X149936000Y-94437000D02*
X149936000Y-92600000D01*
X152209500Y-96710500D02*
X149936000Y-94437000D01*
X158051499Y-97153589D02*
X157608411Y-96710501D01*
X158051500Y-97536000D02*
X158051499Y-97153589D01*
X158051500Y-97536000D02*
X158051500Y-102552500D01*
X157607000Y-96710500D02*
X156273500Y-96710500D01*
X152209500Y-96710500D02*
X157607000Y-96710500D01*
%TO.N,I2C_SDA*%
X160126000Y-107357500D02*
X160126000Y-107421000D01*
X160126000Y-110600000D02*
X160126000Y-107421000D01*
X160126000Y-107421000D02*
X160126000Y-105897000D01*
X159829500Y-105600500D02*
X158750000Y-105600500D01*
X160126000Y-105897000D02*
X159829500Y-105600500D01*
X141452162Y-91345011D02*
X136232286Y-91345011D01*
X135247775Y-90360500D02*
X134302500Y-90360500D01*
X146183162Y-96076011D02*
X141452162Y-91345011D01*
X152023100Y-97160510D02*
X150938601Y-96076011D01*
X157422010Y-97160510D02*
X152023100Y-97160510D01*
X157601490Y-97339990D02*
X157422010Y-97160510D01*
X157601490Y-101542010D02*
X157601490Y-97339990D01*
X136232286Y-91345011D02*
X135247775Y-90360500D01*
X150938601Y-96076011D02*
X146183162Y-96076011D01*
X156591000Y-102552500D02*
X157601490Y-101542010D01*
%TO.N,ESP_RX*%
X142176500Y-117221000D02*
X145097500Y-117221000D01*
X153188501Y-99725501D02*
X152711002Y-100203000D01*
X153188501Y-99293314D02*
X153188501Y-99725501D01*
X153739315Y-98742500D02*
X153188501Y-99293314D01*
X154305000Y-98742500D02*
X153739315Y-98742500D01*
X152711002Y-100203000D02*
X148971000Y-100203000D01*
X148753999Y-102833001D02*
X148590000Y-102997000D01*
X148753999Y-100420001D02*
X148753999Y-102833001D01*
X148971000Y-100203000D02*
X148753999Y-100420001D01*
X145097500Y-115957498D02*
X146494500Y-114560498D01*
X145097500Y-117221000D02*
X145097500Y-115957498D01*
X146494500Y-114560498D02*
X146551502Y-114560498D01*
X146551502Y-114560498D02*
X146939000Y-114173000D01*
X146939000Y-114173000D02*
X146939000Y-113157000D01*
X146939000Y-113157000D02*
X147383500Y-112712500D01*
X147383500Y-109283500D02*
X148018500Y-108648500D01*
X147383500Y-112712500D02*
X147383500Y-109283500D01*
X163195000Y-95123000D02*
X157734000Y-95123000D01*
X163936000Y-94382000D02*
X163195000Y-95123000D01*
X163936000Y-92570000D02*
X163936000Y-94382000D01*
X152908000Y-95123000D02*
X157734000Y-95123000D01*
%TO.N,ESP_TX*%
X146240500Y-118046500D02*
X146304000Y-118110000D01*
X142176500Y-118046500D02*
X146240500Y-118046500D01*
D29*
X152908000Y-95948500D02*
X152908000Y-95948500D01*
D30*
X154305000Y-99568000D02*
X153219990Y-100653010D01*
X153219990Y-100653010D02*
X150044990Y-100653010D01*
X149479000Y-101219000D02*
X149479000Y-102997000D01*
X150044990Y-100653010D02*
X149479000Y-101219000D01*
X147142010Y-117271990D02*
X148856510Y-117271990D01*
X148856510Y-117271990D02*
X150241000Y-115887500D01*
X146304000Y-118110000D02*
X147142010Y-117271990D01*
X163577500Y-95948500D02*
X157734000Y-95948500D01*
X165206000Y-94320000D02*
X163577500Y-95948500D01*
X165206000Y-92570000D02*
X165206000Y-94320000D01*
X157734000Y-95948500D02*
X152908000Y-95948500D01*
%TO.N,DPAD_RIGHT*%
X140150998Y-95250000D02*
X136652000Y-95250000D01*
X140849498Y-95948500D02*
X140150998Y-95250000D01*
X145042200Y-98749290D02*
X145042200Y-97671200D01*
X146504109Y-100211199D02*
X145042200Y-98749290D01*
X145042200Y-97671200D02*
X143319500Y-95948500D01*
X146504110Y-100212610D02*
X146504109Y-100211199D01*
X143319500Y-95948500D02*
X140849498Y-95948500D01*
X147129500Y-100838000D02*
X146504110Y-100212610D01*
%TO.N,DPAD_UP*%
X134112000Y-95250000D02*
X135287001Y-96425001D01*
X135287001Y-96425001D02*
X140367001Y-96425001D01*
X140367001Y-96425001D02*
X140684501Y-96425001D01*
X146054100Y-101153785D02*
X146563815Y-101663500D01*
X143159591Y-96425001D02*
X144085600Y-97351010D01*
X146563815Y-101663500D02*
X147129500Y-101663500D01*
X140367001Y-96425001D02*
X143159591Y-96425001D01*
X144592190Y-97857600D02*
X144085600Y-97351010D01*
X144592190Y-98935690D02*
X144592190Y-97857600D01*
X146054100Y-100397600D02*
X144592190Y-98935690D01*
X146054100Y-101153785D02*
X146054100Y-100397600D01*
%TO.N,DPAD_LEFT*%
X147377002Y-104140000D02*
X147854501Y-103662501D01*
X147129500Y-104140000D02*
X147377002Y-104140000D01*
X144142180Y-99565180D02*
X144145000Y-99568000D01*
X142973191Y-96875011D02*
X144142180Y-98044000D01*
X133197011Y-96875011D02*
X142973191Y-96875011D01*
X144142180Y-98044000D02*
X144142180Y-99565180D01*
X131572000Y-95250000D02*
X133197011Y-96875011D01*
X147854501Y-100489999D02*
X147854501Y-101192499D01*
X147477501Y-100112999D02*
X147854501Y-100489999D01*
X147293499Y-100112999D02*
X147477501Y-100112999D01*
X147129500Y-99949000D02*
X147293499Y-100112999D01*
X147129500Y-99822000D02*
X147129500Y-99949000D01*
X147854501Y-103662501D02*
X147854501Y-101192499D01*
%TO.N,DPAD_DOWN*%
X137762001Y-111665001D02*
X137827001Y-111600001D01*
X135287001Y-111665001D02*
X137762001Y-111665001D01*
X134112000Y-110490000D02*
X135287001Y-111665001D01*
X140234501Y-108421001D02*
X139959510Y-108146010D01*
X144112684Y-108421001D02*
X140234501Y-108421001D01*
X144272000Y-108261685D02*
X144112684Y-108421001D01*
X144272000Y-107696000D02*
X144272000Y-108261685D01*
X137827001Y-108775449D02*
X137827001Y-109441999D01*
X138456440Y-108146010D02*
X137827001Y-108775449D01*
X139959510Y-108146010D02*
X138456440Y-108146010D01*
X137827001Y-109441999D02*
X137827001Y-109378397D01*
X137827001Y-111600001D02*
X137827001Y-109441999D01*
%TO.N,DPAD_ENTER*%
X165206000Y-113199500D02*
X165227000Y-113220500D01*
X165206000Y-110600000D02*
X165206000Y-113199500D01*
X136652000Y-109314040D02*
X136652000Y-110490000D01*
X137952540Y-108013500D02*
X136652000Y-109314040D01*
X138270040Y-107696000D02*
X137952540Y-108013500D01*
X143446500Y-107696000D02*
X138270040Y-107696000D01*
X165206000Y-106645498D02*
X167076498Y-104775000D01*
X165206000Y-110600000D02*
X165206000Y-106645498D01*
X168363564Y-104775000D02*
X168577599Y-104989035D01*
X167076498Y-104775000D02*
X168363564Y-104775000D01*
X151687266Y-98537766D02*
X149444000Y-98537766D01*
X152527000Y-99377500D02*
X151687266Y-98537766D01*
X166083001Y-98271499D02*
X166878000Y-99066498D01*
X164000497Y-98271499D02*
X166083001Y-98271499D01*
X162635508Y-96906510D02*
X164000497Y-98271499D01*
X166878000Y-99066498D02*
X166878000Y-100330000D01*
X161001990Y-96906510D02*
X162635508Y-96906510D01*
X159702500Y-98206000D02*
X161001990Y-96906510D01*
D31*
%TO.N,TFT_CLOCK*%
X149072600Y-88226900D02*
X148564600Y-87718900D01*
D30*
X158856000Y-92570000D02*
X158856000Y-89900510D01*
X150500510Y-89667510D02*
X148590000Y-87757000D01*
X158623000Y-89667510D02*
X150500510Y-89667510D01*
X158856000Y-89900510D02*
X158623000Y-89667510D01*
%TO.N,TFT_MISO*%
X160126000Y-92570000D02*
X160126000Y-89895000D01*
X160126000Y-89895000D02*
X159448500Y-89217500D01*
X152590500Y-89217500D02*
X151130000Y-87757000D01*
X159448500Y-89217500D02*
X152590500Y-89217500D01*
%TO.N,TFT_MOSI*%
X165005001Y-87192999D02*
X163362012Y-85550010D01*
X165005001Y-88079001D02*
X165005001Y-87192999D01*
X167746000Y-90820000D02*
X165005001Y-88079001D01*
X167746000Y-92570000D02*
X167746000Y-90820000D01*
X155876990Y-85550010D02*
X153670000Y-87757000D01*
X163362012Y-85550010D02*
X155876990Y-85550010D01*
%TO.N,TFT_RESET*%
X162666000Y-90820000D02*
X162524000Y-90678000D01*
X162666000Y-92570000D02*
X162666000Y-90820000D01*
X160576010Y-90599010D02*
X160576009Y-89708599D01*
X160655000Y-90678000D02*
X160576010Y-90599010D01*
X162524000Y-90678000D02*
X160655000Y-90678000D01*
X158750000Y-87882590D02*
X158750000Y-87757000D01*
X160576009Y-89708599D02*
X158750000Y-87882590D01*
D32*
%TO.N,TFT_DC*%
X161264600Y-87718900D02*
X160883600Y-87718900D01*
D30*
X162465001Y-88932001D02*
X161290000Y-87757000D01*
X164588001Y-88932001D02*
X162465001Y-88932001D01*
X166476000Y-90820000D02*
X164588001Y-88932001D01*
X166476000Y-92570000D02*
X166476000Y-90820000D01*
D32*
%TO.N,SD_CS*%
X163677600Y-87845900D02*
X163804600Y-87718900D01*
D30*
X149987000Y-99377500D02*
X151320500Y-99377500D01*
X160725999Y-86581999D02*
X162654999Y-86581999D01*
X160114999Y-87192999D02*
X160725999Y-86581999D01*
X160114999Y-88359999D02*
X160114999Y-87192999D01*
X162654999Y-86581999D02*
X163830000Y-87757000D01*
X161671000Y-89916000D02*
X160114999Y-88359999D01*
D31*
%TO.N,TFT_BL*%
X166344600Y-87718900D02*
X166598597Y-87718900D01*
X166598597Y-87718900D02*
X166598600Y-87718904D01*
D30*
X170053000Y-90995500D02*
X166814500Y-87757000D01*
X170053000Y-96075500D02*
X170053000Y-90995500D01*
X169672000Y-96456500D02*
X170053000Y-96075500D01*
X166814500Y-87757000D02*
X166370000Y-87757000D01*
X158856000Y-97938000D02*
X160337500Y-96456500D01*
X160337500Y-96456500D02*
X169672000Y-96456500D01*
X158856000Y-102891000D02*
X158856000Y-97938000D01*
X158051500Y-103695500D02*
X158856000Y-102891000D01*
X158538500Y-106849500D02*
X158051500Y-106362500D01*
X158051500Y-106362500D02*
X158051500Y-103695500D01*
X158856000Y-106849500D02*
X158538500Y-106849500D01*
X158856000Y-110600000D02*
X158856000Y-106849500D01*
%TO.N,Net-(J7-Pad1)*%
X140081000Y-90170000D02*
X142938500Y-90170000D01*
X142938500Y-90170000D02*
X144335500Y-90170000D01*
%TO.N,Net-(LS1-Pad1)*%
X135255000Y-99885500D02*
X135255000Y-99885500D01*
X137547498Y-105664000D02*
X136906000Y-105022502D01*
X138176000Y-105664000D02*
X137547498Y-105664000D01*
X135134498Y-100006002D02*
X135255000Y-99885500D01*
X136906000Y-105022502D02*
X136899502Y-105022502D01*
X136461500Y-104584500D02*
X136461500Y-101092000D01*
X136899502Y-105022502D02*
X136461500Y-104584500D01*
X136461500Y-101092000D02*
X135255000Y-99885500D01*
%TO.N,Net-(LS1-Pad2)*%
X137795000Y-104457500D02*
X137096500Y-103759000D01*
X137795000Y-104838500D02*
X137795000Y-104457500D01*
%TO.N,I2S_LRC*%
X131445000Y-112839500D02*
X135388498Y-112839500D01*
X135769498Y-113220500D02*
X135388498Y-112839500D01*
X136398000Y-113220500D02*
X135769498Y-113220500D01*
X136434999Y-113120001D02*
X137579821Y-113120001D01*
X136398000Y-113157000D02*
X136434999Y-113120001D01*
X136398000Y-113220500D02*
X136398000Y-113157000D01*
X137579821Y-113120001D02*
X137854813Y-112845009D01*
X137854813Y-112845009D02*
X138727021Y-111972801D01*
X138727021Y-111972801D02*
X138727021Y-110172500D01*
X138727021Y-110172500D02*
X138727021Y-109751197D01*
X139157197Y-109321021D02*
X141287500Y-109321021D01*
X138727021Y-109751197D02*
X139157197Y-109321021D01*
X141287500Y-109321021D02*
X141351000Y-109321021D01*
X148024315Y-107315000D02*
X148590000Y-107315000D01*
X144849010Y-105796510D02*
X146505825Y-105796510D01*
X142494000Y-103441500D02*
X144849010Y-105796510D01*
X147703907Y-106994593D02*
X148024315Y-107315000D01*
X146505825Y-105796510D02*
X147703907Y-106994593D01*
X147703907Y-107242095D02*
X147703907Y-106994593D01*
X145548302Y-108324698D02*
X146086999Y-107786001D01*
X144485486Y-109321019D02*
X145481807Y-108324698D01*
X146086999Y-107786001D02*
X147160001Y-107786001D01*
X145481807Y-108324698D02*
X145548302Y-108324698D01*
X143281981Y-109321019D02*
X144485486Y-109321019D01*
X143281979Y-109321021D02*
X143281981Y-109321019D01*
X141287500Y-109321021D02*
X143281979Y-109321021D01*
X147631002Y-107315000D02*
X147602501Y-107343501D01*
X148024315Y-107315000D02*
X147631002Y-107315000D01*
X147602501Y-107343501D02*
X147703907Y-107242095D01*
X147160001Y-107786001D02*
X147602501Y-107343501D01*
X154147410Y-107315000D02*
X148590000Y-107315000D01*
X156316000Y-109483590D02*
X154147410Y-107315000D01*
X156316000Y-110600000D02*
X156316000Y-109483590D01*
%TO.N,I2S_BLK*%
X142367000Y-101917500D02*
X145796000Y-105346500D01*
X145796000Y-105346500D02*
X147256500Y-105346500D01*
X148024315Y-106489500D02*
X148590000Y-106489500D01*
X147864999Y-106330184D02*
X148024315Y-106489500D01*
X147864999Y-105954999D02*
X147864999Y-106330184D01*
X147256500Y-105346500D02*
X147864999Y-105954999D01*
X139177031Y-112159201D02*
X139177031Y-109996969D01*
X139402969Y-109771031D02*
X144671884Y-109771031D01*
X132805001Y-113892499D02*
X135297814Y-113892499D01*
X144671884Y-109771031D02*
X145668208Y-108774707D01*
X137290232Y-114046000D02*
X139177031Y-112159201D01*
X131000500Y-115697000D02*
X132805001Y-113892499D01*
X136398000Y-114046000D02*
X137290232Y-114046000D01*
X136398000Y-114046000D02*
X135451315Y-114046000D01*
X139177031Y-109996969D02*
X139402969Y-109771031D01*
X135451315Y-114046000D02*
X135297814Y-113892499D01*
X146241293Y-108774707D02*
X146558000Y-108458000D01*
X145668208Y-108774707D02*
X146241293Y-108774707D01*
X153992499Y-107796499D02*
X149181503Y-107796499D01*
X155046000Y-108850000D02*
X153992499Y-107796499D01*
X155046000Y-110600000D02*
X155046000Y-108850000D01*
X148938001Y-108040001D02*
X148241999Y-108040001D01*
X149181503Y-107796499D02*
X148938001Y-108040001D01*
X148241999Y-108040001D02*
X147967008Y-107765010D01*
X147967008Y-107765010D02*
X147817402Y-107765010D01*
X147124412Y-108458000D02*
X146558000Y-108458000D01*
X147817402Y-107765010D02*
X147124412Y-108458000D01*
X148241999Y-108040001D02*
X148241999Y-108040001D01*
%TO.N,LED_TORCH*%
X153447500Y-108521500D02*
X152463500Y-108521500D01*
X153776000Y-108850000D02*
X153447500Y-108521500D01*
X153776000Y-110600000D02*
X153776000Y-108850000D01*
X152463500Y-108521500D02*
X151892000Y-108521500D01*
%TO.N,ESP_IO0*%
X152506000Y-90820000D02*
X152902000Y-90424000D01*
X152506000Y-92570000D02*
X152506000Y-90820000D01*
X152902000Y-90424000D02*
X158115000Y-90424000D01*
X164084000Y-97282000D02*
X167640000Y-97282000D01*
%TO.N,USB_D-*%
X153023000Y-115391500D02*
X153023000Y-114724000D01*
X152865499Y-115549001D02*
X153023000Y-115391500D01*
X152098001Y-115549001D02*
X152865499Y-115549001D01*
X152023000Y-115474000D02*
X152098001Y-115549001D01*
X152023000Y-116518500D02*
X152023000Y-115312000D01*
X151320500Y-117221000D02*
X152023000Y-116518500D01*
X152023000Y-115312000D02*
X152023000Y-115474000D01*
X152023000Y-114724000D02*
X152023000Y-115312000D01*
%TO.N,USB_D+*%
X152418001Y-113898999D02*
X152523000Y-114003998D01*
X152523000Y-114003998D02*
X152523000Y-114724000D01*
X152654000Y-118745000D02*
X152654000Y-118554500D01*
X151892000Y-119507000D02*
X152654000Y-118745000D01*
X152654000Y-118554500D02*
X152654000Y-116141500D01*
X151523000Y-113876998D02*
X151627999Y-113771999D01*
X151523000Y-114597000D02*
X151523000Y-113876998D01*
X152506999Y-113771999D02*
X152527000Y-113792000D01*
X151627999Y-113771999D02*
X152506999Y-113771999D01*
%TO.N,ESP_EN*%
X166213502Y-114998500D02*
X167005000Y-114207002D01*
X164909500Y-114998500D02*
X166213502Y-114998500D01*
X167005000Y-114207002D02*
X167005000Y-113411000D01*
X166476000Y-112882000D02*
X166476000Y-110600000D01*
X167005000Y-113411000D02*
X166476000Y-112882000D01*
%TO.N,Net-(J1-PadA5)*%
X154023000Y-115471000D02*
X153606500Y-115887500D01*
X154023000Y-114597000D02*
X154023000Y-115471000D01*
%TO.N,Net-(J1-PadB5)*%
X151023000Y-116014500D02*
X151023000Y-114894500D01*
X151066500Y-115887500D02*
X151023000Y-115844000D01*
%TO.N,Net-(R18-Pad2)*%
X143192500Y-113220500D02*
X141097000Y-113220500D01*
X144081500Y-114109500D02*
X143192500Y-113220500D01*
X144081500Y-116014500D02*
X144081500Y-114109500D01*
%TO.N,Net-(R24-Pad2)*%
X142494000Y-104584500D02*
X138620500Y-104584500D01*
X138303000Y-104267000D02*
X138303000Y-101917500D01*
X138620500Y-104584500D02*
X138303000Y-104267000D01*
%TO.N,I2S_DIN*%
X145228905Y-107945595D02*
X146113500Y-107061000D01*
X144299085Y-108871010D02*
X145224500Y-107945595D01*
X146113500Y-107061000D02*
X146812000Y-107061000D01*
X138969489Y-108871011D02*
X144299085Y-108871010D01*
X138540621Y-109299879D02*
X138969489Y-108871011D01*
X145224500Y-107945595D02*
X145228905Y-107945595D01*
X138277011Y-109564797D02*
X138540621Y-109301187D01*
X138277011Y-111786401D02*
X138277011Y-109564797D01*
X138540621Y-109301187D02*
X138540621Y-109299879D01*
X137668412Y-112395000D02*
X138277011Y-111786401D01*
X136398000Y-112395000D02*
X137668412Y-112395000D01*
X159315685Y-104711500D02*
X158750000Y-104711500D01*
X159696685Y-105092500D02*
X159315685Y-104711500D01*
X157353000Y-103822500D02*
X157353000Y-105092500D01*
X149987000Y-103568500D02*
X157099000Y-103568500D01*
X149669500Y-103886000D02*
X149987000Y-103568500D01*
X148971000Y-103886000D02*
X149669500Y-103886000D01*
X157099000Y-103568500D02*
X157353000Y-103822500D01*
X148590000Y-104267000D02*
X148971000Y-103886000D01*
X148590000Y-105664000D02*
X148590000Y-104267000D01*
X160888000Y-108500500D02*
X160576010Y-108188510D01*
X161396000Y-108500500D02*
X160888000Y-108500500D01*
X161396000Y-110600000D02*
X161396000Y-108500500D01*
X159957910Y-105092500D02*
X159696685Y-105092500D01*
X160576009Y-105710599D02*
X159957910Y-105092500D01*
X160576010Y-108188510D02*
X160576009Y-105710599D01*
%TO.N,Net-(U4-Pad4)*%
X169989500Y-110109000D02*
X169989500Y-110674685D01*
X169989500Y-110674685D02*
X169989500Y-111061500D01*
X169989500Y-111061500D02*
X170434000Y-111506000D01*
X170434000Y-111506000D02*
X171767500Y-111506000D01*
X172048001Y-111786501D02*
X172048001Y-112675501D01*
X171767500Y-111506000D02*
X172048001Y-111786501D01*
X172783500Y-113411000D02*
X172048001Y-112675501D01*
X173545500Y-113411000D02*
X172783500Y-113411000D01*
%TO.N,IR_RECV*%
X137464823Y-120383323D02*
X132194323Y-120383323D01*
X140208000Y-113030000D02*
X140208000Y-119761000D01*
X140742501Y-112495499D02*
X140208000Y-113030000D01*
X139587339Y-120381661D02*
X137466485Y-120381661D01*
X143103909Y-112495499D02*
X140742501Y-112495499D01*
X137466485Y-120381661D02*
X137464823Y-120383323D01*
X140208000Y-119761000D02*
X139587339Y-120381661D01*
X143908889Y-113300479D02*
X143103909Y-112495499D01*
X144001521Y-113300479D02*
X143908889Y-113300479D01*
X144683542Y-113982500D02*
X144001521Y-113300479D01*
X132194323Y-120383323D02*
X129032000Y-117221000D01*
X145478500Y-113982500D02*
X144683542Y-113982500D01*
X149251501Y-113628001D02*
X148907500Y-113284000D01*
X151135587Y-113628001D02*
X149251501Y-113628001D01*
X151441598Y-113321990D02*
X151135587Y-113628001D01*
X152506000Y-110600000D02*
X152506000Y-111914498D01*
D29*
X152506000Y-110600000D02*
X152506000Y-111817558D01*
D30*
X152436999Y-111983499D02*
X152436999Y-113003499D01*
X152506000Y-111914498D02*
X152436999Y-111983499D01*
X152373499Y-113066999D02*
X152178999Y-113066999D01*
X152436999Y-113003499D02*
X152373499Y-113066999D01*
X151924009Y-113321989D02*
X151441599Y-113321989D01*
X152178999Y-113066999D02*
X151924009Y-113321989D01*
%TO.N,I2S_DOUT*%
X143108997Y-101192499D02*
X146781499Y-104865001D01*
X142018999Y-101192499D02*
X143108997Y-101192499D01*
X141641999Y-101753501D02*
X141641999Y-101569499D01*
X141478000Y-101917500D02*
X141641999Y-101753501D01*
X141641999Y-101569499D02*
X142018999Y-101192499D01*
X141351000Y-101917500D02*
X141478000Y-101917500D01*
X156637019Y-108774990D02*
X156243810Y-108774990D01*
X156243810Y-108774990D02*
X153958320Y-106489500D01*
X157586000Y-109723972D02*
X156995264Y-109133236D01*
X157586000Y-110600000D02*
X157586000Y-109723972D01*
X156995264Y-109133236D02*
X156637019Y-108774990D01*
X157091010Y-109228981D02*
X156995264Y-109133236D01*
X147411411Y-104865001D02*
X146781499Y-104865001D01*
X147448410Y-104902000D02*
X147411411Y-104865001D01*
X147701000Y-104902000D02*
X147448410Y-104902000D01*
X150488502Y-106489500D02*
X151955500Y-106489500D01*
X149161500Y-105162498D02*
X150488502Y-106489500D01*
X149161500Y-104965500D02*
X149161500Y-105162498D01*
X153958320Y-106489500D02*
X151955500Y-106489500D01*
%TD*%
D32*
%TO.N,GND*%
X150285500Y-117119061D02*
X150285500Y-117322939D01*
X150325274Y-117522898D01*
X150403295Y-117711256D01*
X150516563Y-117880774D01*
X150660726Y-118024937D01*
X150830244Y-118138205D01*
X151018602Y-118216226D01*
X151218561Y-118256000D01*
X151422439Y-118256000D01*
X151622398Y-118216226D01*
X151810756Y-118138205D01*
X151894000Y-118082583D01*
X151894000Y-118430198D01*
X151852198Y-118472000D01*
X151790061Y-118472000D01*
X151590102Y-118511774D01*
X151401744Y-118589795D01*
X151232226Y-118703063D01*
X151088063Y-118847226D01*
X150974795Y-119016744D01*
X150896774Y-119205102D01*
X150857000Y-119405061D01*
X150857000Y-119608939D01*
X150896774Y-119808898D01*
X150974795Y-119997256D01*
X151054805Y-120117000D01*
X147395680Y-120117000D01*
X147429812Y-120004482D01*
X147442072Y-119880000D01*
X147442072Y-118880000D01*
X147429812Y-118755518D01*
X147393502Y-118635820D01*
X147349112Y-118552774D01*
X147395383Y-118441067D01*
X147439000Y-118221788D01*
X147439000Y-118049802D01*
X147456812Y-118031990D01*
X148819188Y-118031990D01*
X148856510Y-118035666D01*
X148893832Y-118031990D01*
X148893843Y-118031990D01*
X149005496Y-118020993D01*
X149148757Y-117977536D01*
X149280786Y-117906964D01*
X149396511Y-117811991D01*
X149420314Y-117782987D01*
X150280802Y-116922500D01*
X150324598Y-116922500D01*
X150285500Y-117119061D01*
%TA.AperFunction,Conductor*%
D33*
G36*
X150285500Y-117119061D02*
G01*
X150285500Y-117322939D01*
X150325274Y-117522898D01*
X150403295Y-117711256D01*
X150516563Y-117880774D01*
X150660726Y-118024937D01*
X150830244Y-118138205D01*
X151018602Y-118216226D01*
X151218561Y-118256000D01*
X151422439Y-118256000D01*
X151622398Y-118216226D01*
X151810756Y-118138205D01*
X151894000Y-118082583D01*
X151894000Y-118430198D01*
X151852198Y-118472000D01*
X151790061Y-118472000D01*
X151590102Y-118511774D01*
X151401744Y-118589795D01*
X151232226Y-118703063D01*
X151088063Y-118847226D01*
X150974795Y-119016744D01*
X150896774Y-119205102D01*
X150857000Y-119405061D01*
X150857000Y-119608939D01*
X150896774Y-119808898D01*
X150974795Y-119997256D01*
X151054805Y-120117000D01*
X147395680Y-120117000D01*
X147429812Y-120004482D01*
X147442072Y-119880000D01*
X147442072Y-118880000D01*
X147429812Y-118755518D01*
X147393502Y-118635820D01*
X147349112Y-118552774D01*
X147395383Y-118441067D01*
X147439000Y-118221788D01*
X147439000Y-118049802D01*
X147456812Y-118031990D01*
X148819188Y-118031990D01*
X148856510Y-118035666D01*
X148893832Y-118031990D01*
X148893843Y-118031990D01*
X149005496Y-118020993D01*
X149148757Y-117977536D01*
X149280786Y-117906964D01*
X149396511Y-117811991D01*
X149420314Y-117782987D01*
X150280802Y-116922500D01*
X150324598Y-116922500D01*
X150285500Y-117119061D01*
G37*
%TD.AperFunction*%
D32*
X154505468Y-117141044D02*
X154531317Y-117172541D01*
X154562813Y-117198389D01*
X154562816Y-117198392D01*
X154657015Y-117275699D01*
X154772449Y-117337400D01*
X154800424Y-117352353D01*
X154956032Y-117399556D01*
X155077305Y-117411500D01*
X155077307Y-117411500D01*
X155117858Y-117415494D01*
X155158408Y-117411500D01*
X155328497Y-117411500D01*
X155465744Y-117503205D01*
X155654102Y-117581226D01*
X155854061Y-117621000D01*
X156057939Y-117621000D01*
X156257898Y-117581226D01*
X156446256Y-117503205D01*
X156591000Y-117406490D01*
X156735744Y-117503205D01*
X156924102Y-117581226D01*
X156972000Y-117590753D01*
X156972001Y-120037941D01*
X156968006Y-120078499D01*
X156971798Y-120117000D01*
X152729195Y-120117000D01*
X152809205Y-119997256D01*
X152887226Y-119808898D01*
X152927000Y-119608939D01*
X152927000Y-119546802D01*
X153165004Y-119308798D01*
X153194001Y-119285001D01*
X153288974Y-119169276D01*
X153359546Y-119037247D01*
X153403003Y-118893986D01*
X153414000Y-118782333D01*
X153414000Y-118782325D01*
X153417676Y-118745000D01*
X153414000Y-118707675D01*
X153414000Y-116904486D01*
X153504561Y-116922500D01*
X153708439Y-116922500D01*
X153908398Y-116882726D01*
X154096756Y-116804705D01*
X154140141Y-116775716D01*
X154505468Y-117141044D01*
%TA.AperFunction,Conductor*%
D33*
G36*
X154505468Y-117141044D02*
G01*
X154531317Y-117172541D01*
X154562813Y-117198389D01*
X154562816Y-117198392D01*
X154657015Y-117275699D01*
X154772449Y-117337400D01*
X154800424Y-117352353D01*
X154956032Y-117399556D01*
X155077305Y-117411500D01*
X155077307Y-117411500D01*
X155117858Y-117415494D01*
X155158408Y-117411500D01*
X155328497Y-117411500D01*
X155465744Y-117503205D01*
X155654102Y-117581226D01*
X155854061Y-117621000D01*
X156057939Y-117621000D01*
X156257898Y-117581226D01*
X156446256Y-117503205D01*
X156591000Y-117406490D01*
X156735744Y-117503205D01*
X156924102Y-117581226D01*
X156972000Y-117590753D01*
X156972001Y-120037941D01*
X156968006Y-120078499D01*
X156971798Y-120117000D01*
X152729195Y-120117000D01*
X152809205Y-119997256D01*
X152887226Y-119808898D01*
X152927000Y-119608939D01*
X152927000Y-119546802D01*
X153165004Y-119308798D01*
X153194001Y-119285001D01*
X153288974Y-119169276D01*
X153359546Y-119037247D01*
X153403003Y-118893986D01*
X153414000Y-118782333D01*
X153414000Y-118782325D01*
X153417676Y-118745000D01*
X153414000Y-118707675D01*
X153414000Y-116904486D01*
X153504561Y-116922500D01*
X153708439Y-116922500D01*
X153908398Y-116882726D01*
X154096756Y-116804705D01*
X154140141Y-116775716D01*
X154505468Y-117141044D01*
G37*
%TD.AperFunction*%
D32*
X170307000Y-109120237D02*
X170291398Y-109113774D01*
X170091439Y-109074000D01*
X169887561Y-109074000D01*
X169687602Y-109113774D01*
X169499244Y-109191795D01*
X169329726Y-109305063D01*
X169185563Y-109449226D01*
X169072295Y-109618744D01*
X168994274Y-109807102D01*
X168954500Y-110007061D01*
X168954500Y-110210939D01*
X168994274Y-110410898D01*
X169072295Y-110599256D01*
X169185563Y-110768774D01*
X169229500Y-110812711D01*
X169229500Y-111024178D01*
X169225824Y-111061500D01*
X169229500Y-111098822D01*
X169229500Y-111098833D01*
X169240497Y-111210486D01*
X169283954Y-111353747D01*
X169354526Y-111485776D01*
X169449499Y-111601501D01*
X169478502Y-111625303D01*
X169870196Y-112016997D01*
X169893999Y-112046001D01*
X169943105Y-112086301D01*
X170009723Y-112140974D01*
X170113666Y-112196533D01*
X170141753Y-112211546D01*
X170285014Y-112255003D01*
X170396667Y-112266000D01*
X170396677Y-112266000D01*
X170434000Y-112269676D01*
X170471323Y-112266000D01*
X171288001Y-112266000D01*
X171288001Y-112638179D01*
X171284325Y-112675501D01*
X171288001Y-112712823D01*
X171288001Y-112712834D01*
X171298999Y-112824487D01*
X171308107Y-112854513D01*
X171342455Y-112967747D01*
X171413027Y-113099777D01*
X171472333Y-113172041D01*
X171508001Y-113215502D01*
X171536999Y-113239300D01*
X172219701Y-113922002D01*
X172243499Y-113951001D01*
X172359224Y-114045974D01*
X172491253Y-114116546D01*
X172634514Y-114160003D01*
X172746167Y-114171000D01*
X172746175Y-114171000D01*
X172783500Y-114174676D01*
X172820825Y-114171000D01*
X172841789Y-114171000D01*
X172885726Y-114214937D01*
X173055244Y-114328205D01*
X173243602Y-114406226D01*
X173443561Y-114446000D01*
X173647439Y-114446000D01*
X173847398Y-114406226D01*
X174035756Y-114328205D01*
X174205274Y-114214937D01*
X174349437Y-114070774D01*
X174462705Y-113901256D01*
X174540726Y-113712898D01*
X174580500Y-113512939D01*
X174580500Y-113309061D01*
X174540726Y-113109102D01*
X174462705Y-112920744D01*
X174349437Y-112751226D01*
X174205274Y-112607063D01*
X174035756Y-112493795D01*
X173847398Y-112415774D01*
X173647439Y-112376000D01*
X173443561Y-112376000D01*
X173243602Y-112415774D01*
X173055244Y-112493795D01*
X172986818Y-112539516D01*
X172808001Y-112360700D01*
X172808001Y-111823823D01*
X172811677Y-111786500D01*
X172808001Y-111749177D01*
X172808001Y-111749168D01*
X172797004Y-111637515D01*
X172753547Y-111494254D01*
X172682975Y-111362225D01*
X172588002Y-111246500D01*
X172558999Y-111222698D01*
X172331304Y-110995003D01*
X172307501Y-110965999D01*
X172191776Y-110871026D01*
X172191727Y-110871000D01*
X175933501Y-110871000D01*
X175933501Y-118204711D01*
X175894591Y-118601545D01*
X175788720Y-118952206D01*
X175616757Y-119275623D01*
X175385248Y-119559482D01*
X175103014Y-119792965D01*
X174780804Y-119967184D01*
X174430885Y-120075502D01*
X174036057Y-120117000D01*
X163498433Y-120117000D01*
X163750039Y-119865394D01*
X163781541Y-119839541D01*
X163884699Y-119713842D01*
X163961353Y-119570434D01*
X164008556Y-119414826D01*
X164020500Y-119293553D01*
X164020500Y-119293544D01*
X164024493Y-119253001D01*
X164020500Y-119212458D01*
X164020500Y-115530968D01*
X164105563Y-115658274D01*
X164249726Y-115802437D01*
X164419244Y-115915705D01*
X164607602Y-115993726D01*
X164807561Y-116033500D01*
X165011439Y-116033500D01*
X165211398Y-115993726D01*
X165399756Y-115915705D01*
X165569274Y-115802437D01*
X165613211Y-115758500D01*
X166176180Y-115758500D01*
X166213502Y-115762176D01*
X166250824Y-115758500D01*
X166250835Y-115758500D01*
X166362488Y-115747503D01*
X166505749Y-115704046D01*
X166637778Y-115633474D01*
X166753503Y-115538501D01*
X166777305Y-115509498D01*
X167136242Y-115150561D01*
X169907000Y-115150561D01*
X169907000Y-115354439D01*
X169946774Y-115554398D01*
X170024795Y-115742756D01*
X170138063Y-115912274D01*
X170282226Y-116056437D01*
X170451744Y-116169705D01*
X170640102Y-116247726D01*
X170840061Y-116287500D01*
X171043939Y-116287500D01*
X171243898Y-116247726D01*
X171432256Y-116169705D01*
X171439297Y-116165000D01*
X172264428Y-116165000D01*
X172264428Y-117515000D01*
X172276688Y-117639482D01*
X172312998Y-117759180D01*
X172371963Y-117869494D01*
X172451315Y-117966185D01*
X172548006Y-118045537D01*
X172658320Y-118104502D01*
X172778018Y-118140812D01*
X172902500Y-118153072D01*
X174252500Y-118153072D01*
X174376982Y-118140812D01*
X174496680Y-118104502D01*
X174606994Y-118045537D01*
X174703685Y-117966185D01*
X174783037Y-117869494D01*
X174842002Y-117759180D01*
X174878312Y-117639482D01*
X174890572Y-117515000D01*
X174890572Y-116165000D01*
X174878312Y-116040518D01*
X174842002Y-115920820D01*
X174783037Y-115810506D01*
X174703685Y-115713815D01*
X174606994Y-115634463D01*
X174496680Y-115575498D01*
X174376982Y-115539188D01*
X174252500Y-115526928D01*
X172902500Y-115526928D01*
X172778018Y-115539188D01*
X172658320Y-115575498D01*
X172548006Y-115634463D01*
X172451315Y-115713815D01*
X172371963Y-115810506D01*
X172312998Y-115920820D01*
X172276688Y-116040518D01*
X172264428Y-116165000D01*
X171439297Y-116165000D01*
X171601774Y-116056437D01*
X171745937Y-115912274D01*
X171859205Y-115742756D01*
X171937226Y-115554398D01*
X171977000Y-115354439D01*
X171977000Y-115150561D01*
X171937226Y-114950602D01*
X171859205Y-114762244D01*
X171745937Y-114592726D01*
X171601774Y-114448563D01*
X171432256Y-114335295D01*
X171243898Y-114257274D01*
X171043939Y-114217500D01*
X170840061Y-114217500D01*
X170640102Y-114257274D01*
X170451744Y-114335295D01*
X170282226Y-114448563D01*
X170138063Y-114592726D01*
X170024795Y-114762244D01*
X169946774Y-114950602D01*
X169907000Y-115150561D01*
X167136242Y-115150561D01*
X167516004Y-114770800D01*
X167545001Y-114747003D01*
X167639974Y-114631278D01*
X167710546Y-114499249D01*
X167754003Y-114355988D01*
X167765000Y-114244335D01*
X167765000Y-114244326D01*
X167768676Y-114207003D01*
X167765000Y-114169680D01*
X167765000Y-113448323D01*
X167768676Y-113411000D01*
X167765000Y-113373677D01*
X167765000Y-113373667D01*
X167754003Y-113262014D01*
X167710546Y-113118753D01*
X167709608Y-113116999D01*
X167639974Y-112986723D01*
X167568799Y-112899997D01*
X167545001Y-112870999D01*
X167516002Y-112847200D01*
X167322937Y-112654135D01*
X167328781Y-112657259D01*
X167533304Y-112719300D01*
X167746000Y-112740249D01*
X167958697Y-112719300D01*
X168163220Y-112657259D01*
X168351710Y-112556509D01*
X168516922Y-112420922D01*
X168652509Y-112255710D01*
X168753259Y-112067220D01*
X168815300Y-111862697D01*
X168831000Y-111703294D01*
X168831000Y-109496706D01*
X168815300Y-109337303D01*
X168753259Y-109132780D01*
X168652509Y-108944290D01*
X168571500Y-108845581D01*
X168571500Y-108826951D01*
X168680774Y-108753937D01*
X168824937Y-108609774D01*
X168938205Y-108440256D01*
X169016226Y-108251898D01*
X169056000Y-108051939D01*
X169056000Y-107848061D01*
X169016226Y-107648102D01*
X168938205Y-107459744D01*
X168824937Y-107290226D01*
X168680774Y-107146063D01*
X168511256Y-107032795D01*
X168322898Y-106954774D01*
X168122939Y-106915000D01*
X167919061Y-106915000D01*
X167719102Y-106954774D01*
X167530744Y-107032795D01*
X167361226Y-107146063D01*
X167217063Y-107290226D01*
X167103795Y-107459744D01*
X167025774Y-107648102D01*
X166986000Y-107848061D01*
X166986000Y-107895681D01*
X166979647Y-107907567D01*
X166932445Y-108063174D01*
X166916506Y-108225000D01*
X166920501Y-108265560D01*
X166920501Y-108557323D01*
X166893219Y-108542741D01*
X166688696Y-108480700D01*
X166476000Y-108459751D01*
X166263303Y-108480700D01*
X166058780Y-108542741D01*
X165966000Y-108592333D01*
X165966000Y-106960299D01*
X167391300Y-105535000D01*
X167697617Y-105535000D01*
X167773662Y-105648809D01*
X167917825Y-105792972D01*
X168087343Y-105906240D01*
X168275701Y-105984261D01*
X168475660Y-106024035D01*
X168679538Y-106024035D01*
X168879497Y-105984261D01*
X169067855Y-105906240D01*
X169237373Y-105792972D01*
X169381536Y-105648809D01*
X169494804Y-105479291D01*
X169572825Y-105290933D01*
X169612599Y-105090974D01*
X169612599Y-104887096D01*
X169572825Y-104687137D01*
X169494804Y-104498779D01*
X169381536Y-104329261D01*
X169237373Y-104185098D01*
X169067855Y-104071830D01*
X168879497Y-103993809D01*
X168679538Y-103954035D01*
X168475660Y-103954035D01*
X168275701Y-103993809D01*
X168224542Y-104015000D01*
X167113823Y-104015000D01*
X167076498Y-104011324D01*
X167039173Y-104015000D01*
X167039165Y-104015000D01*
X166927512Y-104025997D01*
X166784251Y-104069454D01*
X166652222Y-104140026D01*
X166536497Y-104234999D01*
X166512699Y-104263997D01*
X164694998Y-106081699D01*
X164666000Y-106105497D01*
X164642202Y-106134495D01*
X164642201Y-106134496D01*
X164571026Y-106221222D01*
X164500454Y-106353252D01*
X164476933Y-106430793D01*
X164456998Y-106496512D01*
X164450727Y-106560186D01*
X164442324Y-106645498D01*
X164446001Y-106682830D01*
X164446001Y-108592333D01*
X164353219Y-108542741D01*
X164148696Y-108480700D01*
X163936000Y-108459751D01*
X163723303Y-108480700D01*
X163518780Y-108542741D01*
X163330290Y-108643491D01*
X163301000Y-108667529D01*
X163271710Y-108643491D01*
X163083219Y-108542741D01*
X162878696Y-108480700D01*
X162666000Y-108459751D01*
X162453303Y-108480700D01*
X162248780Y-108542741D01*
X162156000Y-108592333D01*
X162156000Y-108537833D01*
X162159677Y-108500500D01*
X162145003Y-108351514D01*
X162101546Y-108208253D01*
X162030974Y-108076224D01*
X161936001Y-107960499D01*
X161820276Y-107865526D01*
X161688247Y-107794954D01*
X161544986Y-107751497D01*
X161433333Y-107740500D01*
X161396000Y-107736823D01*
X161358667Y-107740500D01*
X161336010Y-107740500D01*
X161336008Y-105747931D01*
X161339685Y-105710599D01*
X161333473Y-105647523D01*
X161325011Y-105561613D01*
X161317537Y-105536973D01*
X161281555Y-105418352D01*
X161210983Y-105286322D01*
X161139808Y-105199596D01*
X161139803Y-105199591D01*
X161116009Y-105170598D01*
X161087016Y-105146804D01*
X160521713Y-104581502D01*
X160497911Y-104552499D01*
X160382186Y-104457526D01*
X160250157Y-104386954D01*
X160106896Y-104343497D01*
X160013261Y-104334275D01*
X159879489Y-104200503D01*
X159855686Y-104171499D01*
X159739961Y-104076526D01*
X159607932Y-104005954D01*
X159464724Y-103962513D01*
X159409774Y-103907563D01*
X159240256Y-103794295D01*
X159089820Y-103731982D01*
X159367004Y-103454798D01*
X159396001Y-103431001D01*
X159490974Y-103315276D01*
X159561546Y-103183247D01*
X159605003Y-103039986D01*
X159616000Y-102928333D01*
X159616000Y-102928323D01*
X159619676Y-102891000D01*
X159616000Y-102853677D01*
X159616000Y-99241000D01*
X159804439Y-99241000D01*
X160004398Y-99201226D01*
X160192756Y-99123205D01*
X160362274Y-99009937D01*
X160506437Y-98865774D01*
X160619705Y-98696256D01*
X160697726Y-98507898D01*
X160737500Y-98307939D01*
X160737500Y-98245802D01*
X161316793Y-97666510D01*
X162320707Y-97666510D01*
X163436697Y-98782501D01*
X163460496Y-98811500D01*
X163489494Y-98835298D01*
X163576220Y-98906473D01*
X163667011Y-98955002D01*
X163708250Y-98977045D01*
X163851511Y-99020502D01*
X163963164Y-99031499D01*
X163963174Y-99031499D01*
X164000497Y-99035175D01*
X164037820Y-99031499D01*
X164700000Y-99031499D01*
X164700000Y-99098439D01*
X164739774Y-99298398D01*
X164817795Y-99486756D01*
X164909501Y-99624004D01*
X164909500Y-100273997D01*
X164817795Y-100411244D01*
X164739774Y-100599602D01*
X164700000Y-100799561D01*
X164700000Y-101003439D01*
X164739774Y-101203398D01*
X164817795Y-101391756D01*
X164931063Y-101561274D01*
X165075226Y-101705437D01*
X165244744Y-101818705D01*
X165433102Y-101896726D01*
X165633061Y-101936500D01*
X165836939Y-101936500D01*
X166036898Y-101896726D01*
X166225256Y-101818705D01*
X166394774Y-101705437D01*
X166538937Y-101561274D01*
X166652205Y-101391756D01*
X166671872Y-101344276D01*
X166776061Y-101365000D01*
X166979939Y-101365000D01*
X167179898Y-101325226D01*
X167368256Y-101247205D01*
X167537774Y-101133937D01*
X167681937Y-100989774D01*
X167795205Y-100820256D01*
X167873226Y-100631898D01*
X167913000Y-100431939D01*
X167913000Y-100228061D01*
X167873226Y-100028102D01*
X167795205Y-99839744D01*
X167681937Y-99670226D01*
X167638000Y-99626289D01*
X167638000Y-99103820D01*
X167641676Y-99066497D01*
X167638000Y-99029174D01*
X167638000Y-99029165D01*
X167627003Y-98917512D01*
X167583546Y-98774251D01*
X167512974Y-98642222D01*
X167418001Y-98526497D01*
X167389004Y-98502700D01*
X166928303Y-98042000D01*
X166936289Y-98042000D01*
X166980226Y-98085937D01*
X167149744Y-98199205D01*
X167338102Y-98277226D01*
X167538061Y-98317000D01*
X167741939Y-98317000D01*
X167941898Y-98277226D01*
X168130256Y-98199205D01*
X168299774Y-98085937D01*
X168443937Y-97941774D01*
X168557205Y-97772256D01*
X168635226Y-97583898D01*
X168675000Y-97383939D01*
X168675000Y-97216500D01*
X169634678Y-97216500D01*
X169672000Y-97220176D01*
X169709322Y-97216500D01*
X169709333Y-97216500D01*
X169820986Y-97205503D01*
X169964247Y-97162046D01*
X170096276Y-97091474D01*
X170212001Y-96996501D01*
X170235804Y-96967497D01*
X170307000Y-96896301D01*
X170307000Y-109120237D01*
%TA.AperFunction,Conductor*%
D33*
G36*
X170307000Y-109120237D02*
G01*
X170291398Y-109113774D01*
X170091439Y-109074000D01*
X169887561Y-109074000D01*
X169687602Y-109113774D01*
X169499244Y-109191795D01*
X169329726Y-109305063D01*
X169185563Y-109449226D01*
X169072295Y-109618744D01*
X168994274Y-109807102D01*
X168954500Y-110007061D01*
X168954500Y-110210939D01*
X168994274Y-110410898D01*
X169072295Y-110599256D01*
X169185563Y-110768774D01*
X169229500Y-110812711D01*
X169229500Y-111024178D01*
X169225824Y-111061500D01*
X169229500Y-111098822D01*
X169229500Y-111098833D01*
X169240497Y-111210486D01*
X169283954Y-111353747D01*
X169354526Y-111485776D01*
X169449499Y-111601501D01*
X169478502Y-111625303D01*
X169870196Y-112016997D01*
X169893999Y-112046001D01*
X169943105Y-112086301D01*
X170009723Y-112140974D01*
X170113666Y-112196533D01*
X170141753Y-112211546D01*
X170285014Y-112255003D01*
X170396667Y-112266000D01*
X170396677Y-112266000D01*
X170434000Y-112269676D01*
X170471323Y-112266000D01*
X171288001Y-112266000D01*
X171288001Y-112638179D01*
X171284325Y-112675501D01*
X171288001Y-112712823D01*
X171288001Y-112712834D01*
X171298999Y-112824487D01*
X171308107Y-112854513D01*
X171342455Y-112967747D01*
X171413027Y-113099777D01*
X171472333Y-113172041D01*
X171508001Y-113215502D01*
X171536999Y-113239300D01*
X172219701Y-113922002D01*
X172243499Y-113951001D01*
X172359224Y-114045974D01*
X172491253Y-114116546D01*
X172634514Y-114160003D01*
X172746167Y-114171000D01*
X172746175Y-114171000D01*
X172783500Y-114174676D01*
X172820825Y-114171000D01*
X172841789Y-114171000D01*
X172885726Y-114214937D01*
X173055244Y-114328205D01*
X173243602Y-114406226D01*
X173443561Y-114446000D01*
X173647439Y-114446000D01*
X173847398Y-114406226D01*
X174035756Y-114328205D01*
X174205274Y-114214937D01*
X174349437Y-114070774D01*
X174462705Y-113901256D01*
X174540726Y-113712898D01*
X174580500Y-113512939D01*
X174580500Y-113309061D01*
X174540726Y-113109102D01*
X174462705Y-112920744D01*
X174349437Y-112751226D01*
X174205274Y-112607063D01*
X174035756Y-112493795D01*
X173847398Y-112415774D01*
X173647439Y-112376000D01*
X173443561Y-112376000D01*
X173243602Y-112415774D01*
X173055244Y-112493795D01*
X172986818Y-112539516D01*
X172808001Y-112360700D01*
X172808001Y-111823823D01*
X172811677Y-111786500D01*
X172808001Y-111749177D01*
X172808001Y-111749168D01*
X172797004Y-111637515D01*
X172753547Y-111494254D01*
X172682975Y-111362225D01*
X172588002Y-111246500D01*
X172558999Y-111222698D01*
X172331304Y-110995003D01*
X172307501Y-110965999D01*
X172191776Y-110871026D01*
X172191727Y-110871000D01*
X175933501Y-110871000D01*
X175933501Y-118204711D01*
X175894591Y-118601545D01*
X175788720Y-118952206D01*
X175616757Y-119275623D01*
X175385248Y-119559482D01*
X175103014Y-119792965D01*
X174780804Y-119967184D01*
X174430885Y-120075502D01*
X174036057Y-120117000D01*
X163498433Y-120117000D01*
X163750039Y-119865394D01*
X163781541Y-119839541D01*
X163884699Y-119713842D01*
X163961353Y-119570434D01*
X164008556Y-119414826D01*
X164020500Y-119293553D01*
X164020500Y-119293544D01*
X164024493Y-119253001D01*
X164020500Y-119212458D01*
X164020500Y-115530968D01*
X164105563Y-115658274D01*
X164249726Y-115802437D01*
X164419244Y-115915705D01*
X164607602Y-115993726D01*
X164807561Y-116033500D01*
X165011439Y-116033500D01*
X165211398Y-115993726D01*
X165399756Y-115915705D01*
X165569274Y-115802437D01*
X165613211Y-115758500D01*
X166176180Y-115758500D01*
X166213502Y-115762176D01*
X166250824Y-115758500D01*
X166250835Y-115758500D01*
X166362488Y-115747503D01*
X166505749Y-115704046D01*
X166637778Y-115633474D01*
X166753503Y-115538501D01*
X166777305Y-115509498D01*
X167136242Y-115150561D01*
X169907000Y-115150561D01*
X169907000Y-115354439D01*
X169946774Y-115554398D01*
X170024795Y-115742756D01*
X170138063Y-115912274D01*
X170282226Y-116056437D01*
X170451744Y-116169705D01*
X170640102Y-116247726D01*
X170840061Y-116287500D01*
X171043939Y-116287500D01*
X171243898Y-116247726D01*
X171432256Y-116169705D01*
X171439297Y-116165000D01*
X172264428Y-116165000D01*
X172264428Y-117515000D01*
X172276688Y-117639482D01*
X172312998Y-117759180D01*
X172371963Y-117869494D01*
X172451315Y-117966185D01*
X172548006Y-118045537D01*
X172658320Y-118104502D01*
X172778018Y-118140812D01*
X172902500Y-118153072D01*
X174252500Y-118153072D01*
X174376982Y-118140812D01*
X174496680Y-118104502D01*
X174606994Y-118045537D01*
X174703685Y-117966185D01*
X174783037Y-117869494D01*
X174842002Y-117759180D01*
X174878312Y-117639482D01*
X174890572Y-117515000D01*
X174890572Y-116165000D01*
X174878312Y-116040518D01*
X174842002Y-115920820D01*
X174783037Y-115810506D01*
X174703685Y-115713815D01*
X174606994Y-115634463D01*
X174496680Y-115575498D01*
X174376982Y-115539188D01*
X174252500Y-115526928D01*
X172902500Y-115526928D01*
X172778018Y-115539188D01*
X172658320Y-115575498D01*
X172548006Y-115634463D01*
X172451315Y-115713815D01*
X172371963Y-115810506D01*
X172312998Y-115920820D01*
X172276688Y-116040518D01*
X172264428Y-116165000D01*
X171439297Y-116165000D01*
X171601774Y-116056437D01*
X171745937Y-115912274D01*
X171859205Y-115742756D01*
X171937226Y-115554398D01*
X171977000Y-115354439D01*
X171977000Y-115150561D01*
X171937226Y-114950602D01*
X171859205Y-114762244D01*
X171745937Y-114592726D01*
X171601774Y-114448563D01*
X171432256Y-114335295D01*
X171243898Y-114257274D01*
X171043939Y-114217500D01*
X170840061Y-114217500D01*
X170640102Y-114257274D01*
X170451744Y-114335295D01*
X170282226Y-114448563D01*
X170138063Y-114592726D01*
X170024795Y-114762244D01*
X169946774Y-114950602D01*
X169907000Y-115150561D01*
X167136242Y-115150561D01*
X167516004Y-114770800D01*
X167545001Y-114747003D01*
X167639974Y-114631278D01*
X167710546Y-114499249D01*
X167754003Y-114355988D01*
X167765000Y-114244335D01*
X167765000Y-114244326D01*
X167768676Y-114207003D01*
X167765000Y-114169680D01*
X167765000Y-113448323D01*
X167768676Y-113411000D01*
X167765000Y-113373677D01*
X167765000Y-113373667D01*
X167754003Y-113262014D01*
X167710546Y-113118753D01*
X167709608Y-113116999D01*
X167639974Y-112986723D01*
X167568799Y-112899997D01*
X167545001Y-112870999D01*
X167516002Y-112847200D01*
X167322937Y-112654135D01*
X167328781Y-112657259D01*
X167533304Y-112719300D01*
X167746000Y-112740249D01*
X167958697Y-112719300D01*
X168163220Y-112657259D01*
X168351710Y-112556509D01*
X168516922Y-112420922D01*
X168652509Y-112255710D01*
X168753259Y-112067220D01*
X168815300Y-111862697D01*
X168831000Y-111703294D01*
X168831000Y-109496706D01*
X168815300Y-109337303D01*
X168753259Y-109132780D01*
X168652509Y-108944290D01*
X168571500Y-108845581D01*
X168571500Y-108826951D01*
X168680774Y-108753937D01*
X168824937Y-108609774D01*
X168938205Y-108440256D01*
X169016226Y-108251898D01*
X169056000Y-108051939D01*
X169056000Y-107848061D01*
X169016226Y-107648102D01*
X168938205Y-107459744D01*
X168824937Y-107290226D01*
X168680774Y-107146063D01*
X168511256Y-107032795D01*
X168322898Y-106954774D01*
X168122939Y-106915000D01*
X167919061Y-106915000D01*
X167719102Y-106954774D01*
X167530744Y-107032795D01*
X167361226Y-107146063D01*
X167217063Y-107290226D01*
X167103795Y-107459744D01*
X167025774Y-107648102D01*
X166986000Y-107848061D01*
X166986000Y-107895681D01*
X166979647Y-107907567D01*
X166932445Y-108063174D01*
X166916506Y-108225000D01*
X166920501Y-108265560D01*
X166920501Y-108557323D01*
X166893219Y-108542741D01*
X166688696Y-108480700D01*
X166476000Y-108459751D01*
X166263303Y-108480700D01*
X166058780Y-108542741D01*
X165966000Y-108592333D01*
X165966000Y-106960299D01*
X167391300Y-105535000D01*
X167697617Y-105535000D01*
X167773662Y-105648809D01*
X167917825Y-105792972D01*
X168087343Y-105906240D01*
X168275701Y-105984261D01*
X168475660Y-106024035D01*
X168679538Y-106024035D01*
X168879497Y-105984261D01*
X169067855Y-105906240D01*
X169237373Y-105792972D01*
X169381536Y-105648809D01*
X169494804Y-105479291D01*
X169572825Y-105290933D01*
X169612599Y-105090974D01*
X169612599Y-104887096D01*
X169572825Y-104687137D01*
X169494804Y-104498779D01*
X169381536Y-104329261D01*
X169237373Y-104185098D01*
X169067855Y-104071830D01*
X168879497Y-103993809D01*
X168679538Y-103954035D01*
X168475660Y-103954035D01*
X168275701Y-103993809D01*
X168224542Y-104015000D01*
X167113823Y-104015000D01*
X167076498Y-104011324D01*
X167039173Y-104015000D01*
X167039165Y-104015000D01*
X166927512Y-104025997D01*
X166784251Y-104069454D01*
X166652222Y-104140026D01*
X166536497Y-104234999D01*
X166512699Y-104263997D01*
X164694998Y-106081699D01*
X164666000Y-106105497D01*
X164642202Y-106134495D01*
X164642201Y-106134496D01*
X164571026Y-106221222D01*
X164500454Y-106353252D01*
X164476933Y-106430793D01*
X164456998Y-106496512D01*
X164450727Y-106560186D01*
X164442324Y-106645498D01*
X164446001Y-106682830D01*
X164446001Y-108592333D01*
X164353219Y-108542741D01*
X164148696Y-108480700D01*
X163936000Y-108459751D01*
X163723303Y-108480700D01*
X163518780Y-108542741D01*
X163330290Y-108643491D01*
X163301000Y-108667529D01*
X163271710Y-108643491D01*
X163083219Y-108542741D01*
X162878696Y-108480700D01*
X162666000Y-108459751D01*
X162453303Y-108480700D01*
X162248780Y-108542741D01*
X162156000Y-108592333D01*
X162156000Y-108537833D01*
X162159677Y-108500500D01*
X162145003Y-108351514D01*
X162101546Y-108208253D01*
X162030974Y-108076224D01*
X161936001Y-107960499D01*
X161820276Y-107865526D01*
X161688247Y-107794954D01*
X161544986Y-107751497D01*
X161433333Y-107740500D01*
X161396000Y-107736823D01*
X161358667Y-107740500D01*
X161336010Y-107740500D01*
X161336008Y-105747931D01*
X161339685Y-105710599D01*
X161333473Y-105647523D01*
X161325011Y-105561613D01*
X161317537Y-105536973D01*
X161281555Y-105418352D01*
X161210983Y-105286322D01*
X161139808Y-105199596D01*
X161139803Y-105199591D01*
X161116009Y-105170598D01*
X161087016Y-105146804D01*
X160521713Y-104581502D01*
X160497911Y-104552499D01*
X160382186Y-104457526D01*
X160250157Y-104386954D01*
X160106896Y-104343497D01*
X160013261Y-104334275D01*
X159879489Y-104200503D01*
X159855686Y-104171499D01*
X159739961Y-104076526D01*
X159607932Y-104005954D01*
X159464724Y-103962513D01*
X159409774Y-103907563D01*
X159240256Y-103794295D01*
X159089820Y-103731982D01*
X159367004Y-103454798D01*
X159396001Y-103431001D01*
X159490974Y-103315276D01*
X159561546Y-103183247D01*
X159605003Y-103039986D01*
X159616000Y-102928333D01*
X159616000Y-102928323D01*
X159619676Y-102891000D01*
X159616000Y-102853677D01*
X159616000Y-99241000D01*
X159804439Y-99241000D01*
X160004398Y-99201226D01*
X160192756Y-99123205D01*
X160362274Y-99009937D01*
X160506437Y-98865774D01*
X160619705Y-98696256D01*
X160697726Y-98507898D01*
X160737500Y-98307939D01*
X160737500Y-98245802D01*
X161316793Y-97666510D01*
X162320707Y-97666510D01*
X163436697Y-98782501D01*
X163460496Y-98811500D01*
X163489494Y-98835298D01*
X163576220Y-98906473D01*
X163667011Y-98955002D01*
X163708250Y-98977045D01*
X163851511Y-99020502D01*
X163963164Y-99031499D01*
X163963174Y-99031499D01*
X164000497Y-99035175D01*
X164037820Y-99031499D01*
X164700000Y-99031499D01*
X164700000Y-99098439D01*
X164739774Y-99298398D01*
X164817795Y-99486756D01*
X164909501Y-99624004D01*
X164909500Y-100273997D01*
X164817795Y-100411244D01*
X164739774Y-100599602D01*
X164700000Y-100799561D01*
X164700000Y-101003439D01*
X164739774Y-101203398D01*
X164817795Y-101391756D01*
X164931063Y-101561274D01*
X165075226Y-101705437D01*
X165244744Y-101818705D01*
X165433102Y-101896726D01*
X165633061Y-101936500D01*
X165836939Y-101936500D01*
X166036898Y-101896726D01*
X166225256Y-101818705D01*
X166394774Y-101705437D01*
X166538937Y-101561274D01*
X166652205Y-101391756D01*
X166671872Y-101344276D01*
X166776061Y-101365000D01*
X166979939Y-101365000D01*
X167179898Y-101325226D01*
X167368256Y-101247205D01*
X167537774Y-101133937D01*
X167681937Y-100989774D01*
X167795205Y-100820256D01*
X167873226Y-100631898D01*
X167913000Y-100431939D01*
X167913000Y-100228061D01*
X167873226Y-100028102D01*
X167795205Y-99839744D01*
X167681937Y-99670226D01*
X167638000Y-99626289D01*
X167638000Y-99103820D01*
X167641676Y-99066497D01*
X167638000Y-99029174D01*
X167638000Y-99029165D01*
X167627003Y-98917512D01*
X167583546Y-98774251D01*
X167512974Y-98642222D01*
X167418001Y-98526497D01*
X167389004Y-98502700D01*
X166928303Y-98042000D01*
X166936289Y-98042000D01*
X166980226Y-98085937D01*
X167149744Y-98199205D01*
X167338102Y-98277226D01*
X167538061Y-98317000D01*
X167741939Y-98317000D01*
X167941898Y-98277226D01*
X168130256Y-98199205D01*
X168299774Y-98085937D01*
X168443937Y-97941774D01*
X168557205Y-97772256D01*
X168635226Y-97583898D01*
X168675000Y-97383939D01*
X168675000Y-97216500D01*
X169634678Y-97216500D01*
X169672000Y-97220176D01*
X169709322Y-97216500D01*
X169709333Y-97216500D01*
X169820986Y-97205503D01*
X169964247Y-97162046D01*
X170096276Y-97091474D01*
X170212001Y-96996501D01*
X170235804Y-96967497D01*
X170307000Y-96896301D01*
X170307000Y-109120237D01*
G37*
%TD.AperFunction*%
D32*
X139448001Y-118042000D02*
X139310572Y-118042000D01*
X139310572Y-119583627D01*
X139272538Y-119621661D01*
X137503807Y-119621661D01*
X137466484Y-119617985D01*
X137429162Y-119621661D01*
X137429152Y-119621661D01*
X137412278Y-119623323D01*
X132509125Y-119623323D01*
X130570072Y-117684271D01*
X130570072Y-116638987D01*
X130698602Y-116692226D01*
X130898561Y-116732000D01*
X131102439Y-116732000D01*
X131302398Y-116692226D01*
X131490756Y-116614205D01*
X131660274Y-116500937D01*
X131804437Y-116356774D01*
X131917705Y-116187256D01*
X131995726Y-115998898D01*
X132035500Y-115798939D01*
X132035500Y-115736801D01*
X133119803Y-114652499D01*
X133902500Y-114652499D01*
X133902500Y-114782939D01*
X133942274Y-114982898D01*
X134020295Y-115171256D01*
X134133563Y-115340774D01*
X134277726Y-115484937D01*
X134447244Y-115598205D01*
X134532180Y-115633387D01*
X134443667Y-115721900D01*
X134263184Y-115686000D01*
X133960816Y-115686000D01*
X133664257Y-115744989D01*
X133384905Y-115860701D01*
X133133495Y-116028688D01*
X132919688Y-116242495D01*
X132751701Y-116493905D01*
X132635989Y-116773257D01*
X132577000Y-117069816D01*
X132577000Y-117372184D01*
X132635989Y-117668743D01*
X132751701Y-117948095D01*
X132919688Y-118199505D01*
X133133495Y-118413312D01*
X133384905Y-118581299D01*
X133664257Y-118697011D01*
X133960816Y-118756000D01*
X134263184Y-118756000D01*
X134559743Y-118697011D01*
X134839095Y-118581299D01*
X135090505Y-118413312D01*
X135304312Y-118199505D01*
X135472299Y-117948095D01*
X135588011Y-117668743D01*
X135647000Y-117372184D01*
X135647000Y-117069816D01*
X135611100Y-116889333D01*
X136295433Y-116205000D01*
X137088910Y-116205000D01*
X137129460Y-116208994D01*
X137170010Y-116205000D01*
X137170013Y-116205000D01*
X137291286Y-116193056D01*
X137446894Y-116145853D01*
X137590302Y-116069199D01*
X137716001Y-115966041D01*
X137741858Y-115934534D01*
X139448000Y-114228393D01*
X139448001Y-118042000D01*
%TA.AperFunction,Conductor*%
D33*
G36*
X139448001Y-118042000D02*
G01*
X139310572Y-118042000D01*
X139310572Y-119583627D01*
X139272538Y-119621661D01*
X137503807Y-119621661D01*
X137466484Y-119617985D01*
X137429162Y-119621661D01*
X137429152Y-119621661D01*
X137412278Y-119623323D01*
X132509125Y-119623323D01*
X130570072Y-117684271D01*
X130570072Y-116638987D01*
X130698602Y-116692226D01*
X130898561Y-116732000D01*
X131102439Y-116732000D01*
X131302398Y-116692226D01*
X131490756Y-116614205D01*
X131660274Y-116500937D01*
X131804437Y-116356774D01*
X131917705Y-116187256D01*
X131995726Y-115998898D01*
X132035500Y-115798939D01*
X132035500Y-115736801D01*
X133119803Y-114652499D01*
X133902500Y-114652499D01*
X133902500Y-114782939D01*
X133942274Y-114982898D01*
X134020295Y-115171256D01*
X134133563Y-115340774D01*
X134277726Y-115484937D01*
X134447244Y-115598205D01*
X134532180Y-115633387D01*
X134443667Y-115721900D01*
X134263184Y-115686000D01*
X133960816Y-115686000D01*
X133664257Y-115744989D01*
X133384905Y-115860701D01*
X133133495Y-116028688D01*
X132919688Y-116242495D01*
X132751701Y-116493905D01*
X132635989Y-116773257D01*
X132577000Y-117069816D01*
X132577000Y-117372184D01*
X132635989Y-117668743D01*
X132751701Y-117948095D01*
X132919688Y-118199505D01*
X133133495Y-118413312D01*
X133384905Y-118581299D01*
X133664257Y-118697011D01*
X133960816Y-118756000D01*
X134263184Y-118756000D01*
X134559743Y-118697011D01*
X134839095Y-118581299D01*
X135090505Y-118413312D01*
X135304312Y-118199505D01*
X135472299Y-117948095D01*
X135588011Y-117668743D01*
X135647000Y-117372184D01*
X135647000Y-117069816D01*
X135611100Y-116889333D01*
X136295433Y-116205000D01*
X137088910Y-116205000D01*
X137129460Y-116208994D01*
X137170010Y-116205000D01*
X137170013Y-116205000D01*
X137291286Y-116193056D01*
X137446894Y-116145853D01*
X137590302Y-116069199D01*
X137716001Y-115966041D01*
X137741858Y-115934534D01*
X139448000Y-114228393D01*
X139448001Y-118042000D01*
G37*
%TD.AperFunction*%
D32*
X147782244Y-113502705D02*
X147905916Y-113553932D01*
X147912274Y-113585898D01*
X147990295Y-113774256D01*
X148103563Y-113943774D01*
X148247726Y-114087937D01*
X148417244Y-114201205D01*
X148605602Y-114279226D01*
X148805561Y-114319000D01*
X148932039Y-114319000D01*
X148959254Y-114333547D01*
X149024928Y-114353469D01*
X149024928Y-114705808D01*
X149013717Y-114706912D01*
X149012298Y-114707342D01*
X148952236Y-114719671D01*
X148891256Y-114731304D01*
X148882100Y-114734068D01*
X148823373Y-114752247D01*
X148766102Y-114776322D01*
X148708579Y-114799562D01*
X148700134Y-114804052D01*
X148646055Y-114833292D01*
X148594558Y-114868027D01*
X148542631Y-114902007D01*
X148535219Y-114908051D01*
X148487850Y-114947238D01*
X148444077Y-114991318D01*
X148399740Y-115034737D01*
X148393643Y-115042106D01*
X148354788Y-115089748D01*
X148320421Y-115141476D01*
X148285361Y-115192679D01*
X148280812Y-115201092D01*
X148251950Y-115255373D01*
X148228302Y-115312748D01*
X148203833Y-115369837D01*
X148201005Y-115378974D01*
X148183236Y-115437827D01*
X148171179Y-115498718D01*
X148158268Y-115559462D01*
X148157268Y-115568974D01*
X148151269Y-115630157D01*
X148151269Y-115660132D01*
X148148037Y-115689928D01*
X148148005Y-115699492D01*
X148148013Y-115701691D01*
X148151036Y-115731407D01*
X148150827Y-115761280D01*
X148151760Y-115770799D01*
X148158186Y-115831940D01*
X148170674Y-115892777D01*
X148182304Y-115953743D01*
X148185068Y-115962900D01*
X148203247Y-116021626D01*
X148227306Y-116078860D01*
X148250562Y-116136421D01*
X148255052Y-116144866D01*
X148284292Y-116198945D01*
X148319009Y-116250416D01*
X148353006Y-116302369D01*
X148359051Y-116309781D01*
X148398238Y-116357150D01*
X148442299Y-116400904D01*
X148485736Y-116445260D01*
X148493106Y-116451357D01*
X148540747Y-116490211D01*
X148554410Y-116499289D01*
X148541709Y-116511990D01*
X147179332Y-116511990D01*
X147142009Y-116508314D01*
X147104686Y-116511990D01*
X147104677Y-116511990D01*
X146993024Y-116522987D01*
X146866965Y-116561226D01*
X146849763Y-116566444D01*
X146717733Y-116637016D01*
X146648088Y-116694173D01*
X146602009Y-116731989D01*
X146578211Y-116760987D01*
X146364198Y-116975000D01*
X146192212Y-116975000D01*
X146107208Y-116991908D01*
X146092726Y-116919102D01*
X146014705Y-116730744D01*
X145901437Y-116561226D01*
X145857500Y-116517289D01*
X145857500Y-116272299D01*
X146886730Y-115243070D01*
X146975778Y-115195472D01*
X147091503Y-115100499D01*
X147115306Y-115071495D01*
X147449998Y-114736803D01*
X147479001Y-114713001D01*
X147573974Y-114597276D01*
X147644546Y-114465247D01*
X147688003Y-114321986D01*
X147699000Y-114210333D01*
X147699000Y-114210323D01*
X147702676Y-114173000D01*
X147699000Y-114135677D01*
X147699000Y-113471801D01*
X147713817Y-113456984D01*
X147782244Y-113502705D01*
%TA.AperFunction,Conductor*%
D33*
G36*
X147782244Y-113502705D02*
G01*
X147905916Y-113553932D01*
X147912274Y-113585898D01*
X147990295Y-113774256D01*
X148103563Y-113943774D01*
X148247726Y-114087937D01*
X148417244Y-114201205D01*
X148605602Y-114279226D01*
X148805561Y-114319000D01*
X148932039Y-114319000D01*
X148959254Y-114333547D01*
X149024928Y-114353469D01*
X149024928Y-114705808D01*
X149013717Y-114706912D01*
X149012298Y-114707342D01*
X148952236Y-114719671D01*
X148891256Y-114731304D01*
X148882100Y-114734068D01*
X148823373Y-114752247D01*
X148766102Y-114776322D01*
X148708579Y-114799562D01*
X148700134Y-114804052D01*
X148646055Y-114833292D01*
X148594558Y-114868027D01*
X148542631Y-114902007D01*
X148535219Y-114908051D01*
X148487850Y-114947238D01*
X148444077Y-114991318D01*
X148399740Y-115034737D01*
X148393643Y-115042106D01*
X148354788Y-115089748D01*
X148320421Y-115141476D01*
X148285361Y-115192679D01*
X148280812Y-115201092D01*
X148251950Y-115255373D01*
X148228302Y-115312748D01*
X148203833Y-115369837D01*
X148201005Y-115378974D01*
X148183236Y-115437827D01*
X148171179Y-115498718D01*
X148158268Y-115559462D01*
X148157268Y-115568974D01*
X148151269Y-115630157D01*
X148151269Y-115660132D01*
X148148037Y-115689928D01*
X148148005Y-115699492D01*
X148148013Y-115701691D01*
X148151036Y-115731407D01*
X148150827Y-115761280D01*
X148151760Y-115770799D01*
X148158186Y-115831940D01*
X148170674Y-115892777D01*
X148182304Y-115953743D01*
X148185068Y-115962900D01*
X148203247Y-116021626D01*
X148227306Y-116078860D01*
X148250562Y-116136421D01*
X148255052Y-116144866D01*
X148284292Y-116198945D01*
X148319009Y-116250416D01*
X148353006Y-116302369D01*
X148359051Y-116309781D01*
X148398238Y-116357150D01*
X148442299Y-116400904D01*
X148485736Y-116445260D01*
X148493106Y-116451357D01*
X148540747Y-116490211D01*
X148554410Y-116499289D01*
X148541709Y-116511990D01*
X147179332Y-116511990D01*
X147142009Y-116508314D01*
X147104686Y-116511990D01*
X147104677Y-116511990D01*
X146993024Y-116522987D01*
X146866965Y-116561226D01*
X146849763Y-116566444D01*
X146717733Y-116637016D01*
X146648088Y-116694173D01*
X146602009Y-116731989D01*
X146578211Y-116760987D01*
X146364198Y-116975000D01*
X146192212Y-116975000D01*
X146107208Y-116991908D01*
X146092726Y-116919102D01*
X146014705Y-116730744D01*
X145901437Y-116561226D01*
X145857500Y-116517289D01*
X145857500Y-116272299D01*
X146886730Y-115243070D01*
X146975778Y-115195472D01*
X147091503Y-115100499D01*
X147115306Y-115071495D01*
X147449998Y-114736803D01*
X147479001Y-114713001D01*
X147573974Y-114597276D01*
X147644546Y-114465247D01*
X147688003Y-114321986D01*
X147699000Y-114210333D01*
X147699000Y-114210323D01*
X147702676Y-114173000D01*
X147699000Y-114135677D01*
X147699000Y-113471801D01*
X147713817Y-113456984D01*
X147782244Y-113502705D01*
G37*
%TD.AperFunction*%
D32*
X155801111Y-113915544D02*
X155826959Y-113947041D01*
X155858455Y-113972889D01*
X155858458Y-113972892D01*
X155952657Y-114050199D01*
X156063601Y-114109500D01*
X156096066Y-114126853D01*
X156251674Y-114174056D01*
X156372947Y-114186000D01*
X156372950Y-114186000D01*
X156413500Y-114189994D01*
X156454050Y-114186000D01*
X156589662Y-114186000D01*
X156737011Y-114333349D01*
X156737010Y-115321401D01*
X156733016Y-115361952D01*
X156737010Y-115402502D01*
X156737010Y-115402504D01*
X156748954Y-115523777D01*
X156782230Y-115633474D01*
X156786560Y-115647746D01*
X156735744Y-115668795D01*
X156591000Y-115765510D01*
X156446256Y-115668795D01*
X156257898Y-115590774D01*
X156218941Y-115583025D01*
X156186492Y-115419895D01*
X156114879Y-115247006D01*
X156010913Y-115091410D01*
X155878590Y-114959087D01*
X155722994Y-114855121D01*
X155550105Y-114783508D01*
X155521072Y-114777733D01*
X155521072Y-114097000D01*
X155508812Y-113972518D01*
X155472502Y-113852820D01*
X155413537Y-113742506D01*
X155334185Y-113645815D01*
X155237494Y-113566463D01*
X155127180Y-113507498D01*
X155007482Y-113471188D01*
X154883000Y-113458928D01*
X154363000Y-113458928D01*
X154260500Y-113469023D01*
X154158000Y-113458928D01*
X153888000Y-113458928D01*
X153773000Y-113470254D01*
X153658000Y-113458928D01*
X153509313Y-113458928D01*
X153489461Y-113411000D01*
X155296567Y-113411000D01*
X155801111Y-113915544D01*
%TA.AperFunction,Conductor*%
D33*
G36*
X155801111Y-113915544D02*
G01*
X155826959Y-113947041D01*
X155858455Y-113972889D01*
X155858458Y-113972892D01*
X155952657Y-114050199D01*
X156063601Y-114109500D01*
X156096066Y-114126853D01*
X156251674Y-114174056D01*
X156372947Y-114186000D01*
X156372950Y-114186000D01*
X156413500Y-114189994D01*
X156454050Y-114186000D01*
X156589662Y-114186000D01*
X156737011Y-114333349D01*
X156737010Y-115321401D01*
X156733016Y-115361952D01*
X156737010Y-115402502D01*
X156737010Y-115402504D01*
X156748954Y-115523777D01*
X156782230Y-115633474D01*
X156786560Y-115647746D01*
X156735744Y-115668795D01*
X156591000Y-115765510D01*
X156446256Y-115668795D01*
X156257898Y-115590774D01*
X156218941Y-115583025D01*
X156186492Y-115419895D01*
X156114879Y-115247006D01*
X156010913Y-115091410D01*
X155878590Y-114959087D01*
X155722994Y-114855121D01*
X155550105Y-114783508D01*
X155521072Y-114777733D01*
X155521072Y-114097000D01*
X155508812Y-113972518D01*
X155472502Y-113852820D01*
X155413537Y-113742506D01*
X155334185Y-113645815D01*
X155237494Y-113566463D01*
X155127180Y-113507498D01*
X155007482Y-113471188D01*
X154883000Y-113458928D01*
X154363000Y-113458928D01*
X154260500Y-113469023D01*
X154158000Y-113458928D01*
X153888000Y-113458928D01*
X153773000Y-113470254D01*
X153658000Y-113458928D01*
X153509313Y-113458928D01*
X153489461Y-113411000D01*
X155296567Y-113411000D01*
X155801111Y-113915544D01*
G37*
%TD.AperFunction*%
D32*
X132309928Y-86887000D02*
X132322188Y-87011482D01*
X132358498Y-87131180D01*
X132412005Y-87231284D01*
X132292063Y-87351226D01*
X132178795Y-87520744D01*
X132100774Y-87709102D01*
X132068572Y-87870996D01*
X130953461Y-88986107D01*
X130921960Y-89011959D01*
X130880363Y-89062646D01*
X130818801Y-89137658D01*
X130742147Y-89281067D01*
X130694945Y-89436674D01*
X130679006Y-89598500D01*
X130683001Y-89639060D01*
X130683000Y-90748997D01*
X130591295Y-90886244D01*
X130513274Y-91074602D01*
X130473500Y-91274561D01*
X130473500Y-91478439D01*
X130513274Y-91678398D01*
X130591295Y-91866756D01*
X130704563Y-92036274D01*
X130848726Y-92180437D01*
X131018244Y-92293705D01*
X131206602Y-92371726D01*
X131406561Y-92411500D01*
X131610439Y-92411500D01*
X131810398Y-92371726D01*
X131998756Y-92293705D01*
X132168274Y-92180437D01*
X132312437Y-92036274D01*
X132425705Y-91866756D01*
X132503726Y-91678398D01*
X132543500Y-91478439D01*
X132543500Y-91274561D01*
X132503726Y-91074602D01*
X132425705Y-90886244D01*
X132334000Y-90748997D01*
X132334000Y-89940432D01*
X133236004Y-89038428D01*
X133315557Y-89022604D01*
X133307274Y-89042602D01*
X133267500Y-89242561D01*
X133267500Y-89446439D01*
X133307274Y-89646398D01*
X133385295Y-89834756D01*
X133397151Y-89852500D01*
X133385295Y-89870244D01*
X133307274Y-90058602D01*
X133267500Y-90258561D01*
X133267500Y-90462439D01*
X133307274Y-90662398D01*
X133385295Y-90850756D01*
X133498563Y-91020274D01*
X133642726Y-91164437D01*
X133812244Y-91277705D01*
X134000602Y-91355726D01*
X134200561Y-91395500D01*
X134404439Y-91395500D01*
X134604398Y-91355726D01*
X134792756Y-91277705D01*
X134962274Y-91164437D01*
X134969592Y-91157119D01*
X135668486Y-91856013D01*
X135692285Y-91885012D01*
X135808010Y-91979985D01*
X135940039Y-92050557D01*
X136083300Y-92094014D01*
X136194953Y-92105011D01*
X136194963Y-92105011D01*
X136232286Y-92108687D01*
X136269609Y-92105011D01*
X141137361Y-92105011D01*
X145619362Y-96587013D01*
X145643161Y-96616012D01*
X145758886Y-96710985D01*
X145890915Y-96781557D01*
X146034176Y-96825014D01*
X146145829Y-96836011D01*
X146145838Y-96836011D01*
X146183161Y-96839687D01*
X146220484Y-96836011D01*
X150623800Y-96836011D01*
X151459300Y-97671512D01*
X151483099Y-97700511D01*
X151577235Y-97777766D01*
X150147711Y-97777766D01*
X150103774Y-97733829D01*
X149934256Y-97620561D01*
X149745898Y-97542540D01*
X149545939Y-97502766D01*
X149342061Y-97502766D01*
X149142102Y-97542540D01*
X148953744Y-97620561D01*
X148784226Y-97733829D01*
X148640063Y-97877992D01*
X148526795Y-98047510D01*
X148448774Y-98235868D01*
X148409000Y-98435827D01*
X148409000Y-98639705D01*
X148448774Y-98839664D01*
X148526795Y-99028022D01*
X148640063Y-99197540D01*
X148784226Y-99341703D01*
X148935551Y-99442815D01*
X148933675Y-99443000D01*
X148933667Y-99443000D01*
X148822014Y-99453997D01*
X148678753Y-99497454D01*
X148546724Y-99568026D01*
X148430999Y-99662999D01*
X148407196Y-99692003D01*
X148269251Y-99829948D01*
X148164500Y-99725197D01*
X148164500Y-99720061D01*
X148124726Y-99520102D01*
X148046705Y-99331744D01*
X147933437Y-99162226D01*
X147789274Y-99018063D01*
X147619756Y-98904795D01*
X147431398Y-98826774D01*
X147231439Y-98787000D01*
X147027561Y-98787000D01*
X146827602Y-98826774D01*
X146639244Y-98904795D01*
X146469726Y-99018063D01*
X146427750Y-99060039D01*
X145802200Y-98434489D01*
X145802200Y-97708525D01*
X145805876Y-97671200D01*
X145802200Y-97633875D01*
X145802200Y-97633867D01*
X145791203Y-97522214D01*
X145747746Y-97378953D01*
X145677174Y-97246924D01*
X145582201Y-97131199D01*
X145553203Y-97107401D01*
X143883304Y-95437503D01*
X143859501Y-95408499D01*
X143743776Y-95313526D01*
X143611747Y-95242954D01*
X143468486Y-95199497D01*
X143356833Y-95188500D01*
X143356822Y-95188500D01*
X143319500Y-95184824D01*
X143282178Y-95188500D01*
X141164300Y-95188500D01*
X140714801Y-94739002D01*
X140690999Y-94709999D01*
X140575274Y-94615026D01*
X140443245Y-94544454D01*
X140299984Y-94500997D01*
X140188331Y-94490000D01*
X140188320Y-94490000D01*
X140150998Y-94486324D01*
X140113676Y-94490000D01*
X138140072Y-94490000D01*
X138140072Y-94400000D01*
X138127812Y-94275518D01*
X138091502Y-94155820D01*
X138032537Y-94045506D01*
X137953185Y-93948815D01*
X137856494Y-93869463D01*
X137746180Y-93810498D01*
X137626482Y-93774188D01*
X137502000Y-93761928D01*
X135802000Y-93761928D01*
X135677518Y-93774188D01*
X135557820Y-93810498D01*
X135447506Y-93869463D01*
X135350815Y-93948815D01*
X135271463Y-94045506D01*
X135212498Y-94155820D01*
X135190487Y-94228380D01*
X135058632Y-94096525D01*
X134815411Y-93934010D01*
X134545158Y-93822068D01*
X134258260Y-93765000D01*
X133965740Y-93765000D01*
X133678842Y-93822068D01*
X133408589Y-93934010D01*
X133165368Y-94096525D01*
X132958525Y-94303368D01*
X132842000Y-94477760D01*
X132725475Y-94303368D01*
X132518632Y-94096525D01*
X132275411Y-93934010D01*
X132005158Y-93822068D01*
X131718260Y-93765000D01*
X131425740Y-93765000D01*
X131138842Y-93822068D01*
X130868589Y-93934010D01*
X130625368Y-94096525D01*
X130418525Y-94303368D01*
X130256010Y-94546589D01*
X130144068Y-94816842D01*
X130087000Y-95103740D01*
X130087000Y-95396260D01*
X130144068Y-95683158D01*
X130256010Y-95953411D01*
X130418525Y-96196632D01*
X130625368Y-96403475D01*
X130868589Y-96565990D01*
X131138842Y-96677932D01*
X131425740Y-96735000D01*
X131718260Y-96735000D01*
X131938408Y-96691210D01*
X132633211Y-97386013D01*
X132657010Y-97415012D01*
X132686008Y-97438810D01*
X132772735Y-97509985D01*
X132904764Y-97580557D01*
X133048025Y-97624014D01*
X133197011Y-97638688D01*
X133234344Y-97635011D01*
X142658390Y-97635011D01*
X143382180Y-98358802D01*
X143382181Y-98994108D01*
X143341063Y-99035226D01*
X143227795Y-99204744D01*
X143149774Y-99393102D01*
X143110000Y-99593061D01*
X143110000Y-99796939D01*
X143149774Y-99996898D01*
X143227795Y-100185256D01*
X143341063Y-100354774D01*
X143485226Y-100498937D01*
X143654744Y-100612205D01*
X143843102Y-100690226D01*
X144043061Y-100730000D01*
X144246939Y-100730000D01*
X144446898Y-100690226D01*
X144635256Y-100612205D01*
X144804774Y-100498937D01*
X144942705Y-100361006D01*
X145294100Y-100712402D01*
X145294100Y-101116463D01*
X145290424Y-101153785D01*
X145294100Y-101191107D01*
X145294100Y-101191117D01*
X145305097Y-101302770D01*
X145340814Y-101420514D01*
X145348554Y-101446031D01*
X145419126Y-101578061D01*
X145450897Y-101616774D01*
X145514099Y-101693786D01*
X145543103Y-101717589D01*
X146000011Y-102174497D01*
X146023814Y-102203501D01*
X146115969Y-102279130D01*
X146094500Y-102387061D01*
X146094500Y-102590939D01*
X146134274Y-102790898D01*
X146180191Y-102901750D01*
X146134274Y-103012602D01*
X146112644Y-103121344D01*
X143672801Y-100681502D01*
X143648998Y-100652498D01*
X143533273Y-100557525D01*
X143401244Y-100486953D01*
X143257983Y-100443496D01*
X143146330Y-100432499D01*
X143146319Y-100432499D01*
X143108997Y-100428823D01*
X143071675Y-100432499D01*
X142056332Y-100432499D01*
X142018999Y-100428822D01*
X141981666Y-100432499D01*
X141870013Y-100443496D01*
X141726752Y-100486953D01*
X141594723Y-100557525D01*
X141478998Y-100652498D01*
X141455195Y-100681502D01*
X141254197Y-100882500D01*
X141249061Y-100882500D01*
X141049102Y-100922274D01*
X140860744Y-101000295D01*
X140691226Y-101113563D01*
X140547063Y-101257726D01*
X140433795Y-101427244D01*
X140355774Y-101615602D01*
X140316000Y-101815561D01*
X140316000Y-102019439D01*
X140355774Y-102219398D01*
X140433795Y-102407756D01*
X140547063Y-102577274D01*
X140691226Y-102721437D01*
X140860744Y-102834705D01*
X141049102Y-102912726D01*
X141249061Y-102952500D01*
X141452939Y-102952500D01*
X141594812Y-102924280D01*
X141576795Y-102951244D01*
X141498774Y-103139602D01*
X141459000Y-103339561D01*
X141459000Y-103543439D01*
X141498774Y-103743398D01*
X141532368Y-103824500D01*
X139063000Y-103824500D01*
X139063000Y-102621211D01*
X139106937Y-102577274D01*
X139220205Y-102407756D01*
X139298226Y-102219398D01*
X139338000Y-102019439D01*
X139338000Y-101815561D01*
X139298226Y-101615602D01*
X139220205Y-101427244D01*
X139106937Y-101257726D01*
X138962774Y-101113563D01*
X138793256Y-101000295D01*
X138604898Y-100922274D01*
X138404939Y-100882500D01*
X138201061Y-100882500D01*
X138001102Y-100922274D01*
X137812744Y-101000295D01*
X137643226Y-101113563D01*
X137499063Y-101257726D01*
X137385795Y-101427244D01*
X137307774Y-101615602D01*
X137268000Y-101815561D01*
X137268000Y-102019439D01*
X137307774Y-102219398D01*
X137385795Y-102407756D01*
X137499063Y-102577274D01*
X137543001Y-102621212D01*
X137543001Y-102823671D01*
X137398398Y-102763774D01*
X137221500Y-102728587D01*
X137221500Y-101129325D01*
X137225176Y-101092000D01*
X137221500Y-101054675D01*
X137221500Y-101054667D01*
X137210503Y-100943014D01*
X137167046Y-100799753D01*
X137096474Y-100667724D01*
X137001501Y-100551999D01*
X136972503Y-100528201D01*
X136290000Y-99845699D01*
X136290000Y-99783561D01*
X136250226Y-99583602D01*
X136172205Y-99395244D01*
X136058937Y-99225726D01*
X135914774Y-99081563D01*
X135745256Y-98968295D01*
X135556898Y-98890274D01*
X135356939Y-98850500D01*
X135153061Y-98850500D01*
X134953102Y-98890274D01*
X134764744Y-98968295D01*
X134595226Y-99081563D01*
X134451063Y-99225726D01*
X134337795Y-99395244D01*
X134259774Y-99583602D01*
X134220000Y-99783561D01*
X134220000Y-99987439D01*
X134259774Y-100187398D01*
X134337795Y-100375756D01*
X134451063Y-100545274D01*
X134595226Y-100689437D01*
X134764744Y-100802705D01*
X134953102Y-100880726D01*
X135153061Y-100920500D01*
X135215199Y-100920500D01*
X135701501Y-101406803D01*
X135701500Y-104547177D01*
X135697824Y-104584500D01*
X135701500Y-104621822D01*
X135701500Y-104621832D01*
X135712497Y-104733485D01*
X135752391Y-104865000D01*
X135755954Y-104876746D01*
X135826526Y-105008776D01*
X135861167Y-105050986D01*
X135921499Y-105124501D01*
X135950503Y-105148304D01*
X136335698Y-105533499D01*
X136359501Y-105562503D01*
X136424741Y-105616044D01*
X136598215Y-105789518D01*
X136563726Y-105812563D01*
X136419563Y-105956726D01*
X136306295Y-106126244D01*
X136228274Y-106314602D01*
X136188500Y-106514561D01*
X136188500Y-106718439D01*
X136228274Y-106918398D01*
X136306295Y-107106756D01*
X136398000Y-107244003D01*
X136398001Y-107671566D01*
X135645569Y-108423999D01*
X132853043Y-108423999D01*
X132812500Y-108420006D01*
X132771957Y-108423999D01*
X132771948Y-108423999D01*
X132650675Y-108435943D01*
X132495067Y-108483146D01*
X132351659Y-108559800D01*
X132225960Y-108662958D01*
X132200109Y-108694458D01*
X131861145Y-109033422D01*
X131718260Y-109005000D01*
X131425740Y-109005000D01*
X131138842Y-109062068D01*
X130868589Y-109174010D01*
X130625368Y-109336525D01*
X130418525Y-109543368D01*
X130256010Y-109786589D01*
X130144068Y-110056842D01*
X130087000Y-110343740D01*
X130087000Y-110636260D01*
X130144068Y-110923158D01*
X130256010Y-111193411D01*
X130418525Y-111436632D01*
X130625368Y-111643475D01*
X130868589Y-111805990D01*
X131052059Y-111881985D01*
X130954744Y-111922295D01*
X130785226Y-112035563D01*
X130641063Y-112179726D01*
X130527795Y-112349244D01*
X130449774Y-112537602D01*
X130410000Y-112737561D01*
X130410000Y-112941439D01*
X130449774Y-113141398D01*
X130527795Y-113329756D01*
X130641063Y-113499274D01*
X130785226Y-113643437D01*
X130954744Y-113756705D01*
X131143102Y-113834726D01*
X131343061Y-113874500D01*
X131546939Y-113874500D01*
X131746898Y-113834726D01*
X131817016Y-113805682D01*
X130960699Y-114662000D01*
X130898561Y-114662000D01*
X130698602Y-114701774D01*
X130510244Y-114779795D01*
X130340726Y-114893063D01*
X130196563Y-115037226D01*
X130083295Y-115206744D01*
X130005274Y-115395102D01*
X129965500Y-115595061D01*
X129965500Y-115733488D01*
X129855093Y-115699996D01*
X129681800Y-115682928D01*
X128617811Y-115682928D01*
X128619691Y-114778689D01*
X128793602Y-114850726D01*
X128993561Y-114890500D01*
X129197439Y-114890500D01*
X129397398Y-114850726D01*
X129585756Y-114772705D01*
X129755274Y-114659437D01*
X129899437Y-114515274D01*
X130012705Y-114345756D01*
X130090726Y-114157398D01*
X130130500Y-113957439D01*
X130130500Y-113753561D01*
X130090726Y-113553602D01*
X130012705Y-113365244D01*
X129899437Y-113195726D01*
X129755274Y-113051563D01*
X129585756Y-112938295D01*
X129397398Y-112860274D01*
X129197439Y-112820500D01*
X128993561Y-112820500D01*
X128793602Y-112860274D01*
X128623533Y-112930719D01*
X128675932Y-87726473D01*
X128714909Y-87328955D01*
X128768801Y-87150455D01*
X128817463Y-87241494D01*
X128896815Y-87338185D01*
X128993506Y-87417537D01*
X129103820Y-87476502D01*
X129223518Y-87512812D01*
X129348000Y-87525072D01*
X130748000Y-87525072D01*
X130872482Y-87512812D01*
X130992180Y-87476502D01*
X131102494Y-87417537D01*
X131199185Y-87338185D01*
X131278537Y-87241494D01*
X131337502Y-87131180D01*
X131373812Y-87011482D01*
X131386072Y-86887000D01*
X131386072Y-86521999D01*
X132309928Y-86521999D01*
X132309928Y-86887000D01*
%TA.AperFunction,Conductor*%
D33*
G36*
X132309928Y-86887000D02*
G01*
X132322188Y-87011482D01*
X132358498Y-87131180D01*
X132412005Y-87231284D01*
X132292063Y-87351226D01*
X132178795Y-87520744D01*
X132100774Y-87709102D01*
X132068572Y-87870996D01*
X130953461Y-88986107D01*
X130921960Y-89011959D01*
X130880363Y-89062646D01*
X130818801Y-89137658D01*
X130742147Y-89281067D01*
X130694945Y-89436674D01*
X130679006Y-89598500D01*
X130683001Y-89639060D01*
X130683000Y-90748997D01*
X130591295Y-90886244D01*
X130513274Y-91074602D01*
X130473500Y-91274561D01*
X130473500Y-91478439D01*
X130513274Y-91678398D01*
X130591295Y-91866756D01*
X130704563Y-92036274D01*
X130848726Y-92180437D01*
X131018244Y-92293705D01*
X131206602Y-92371726D01*
X131406561Y-92411500D01*
X131610439Y-92411500D01*
X131810398Y-92371726D01*
X131998756Y-92293705D01*
X132168274Y-92180437D01*
X132312437Y-92036274D01*
X132425705Y-91866756D01*
X132503726Y-91678398D01*
X132543500Y-91478439D01*
X132543500Y-91274561D01*
X132503726Y-91074602D01*
X132425705Y-90886244D01*
X132334000Y-90748997D01*
X132334000Y-89940432D01*
X133236004Y-89038428D01*
X133315557Y-89022604D01*
X133307274Y-89042602D01*
X133267500Y-89242561D01*
X133267500Y-89446439D01*
X133307274Y-89646398D01*
X133385295Y-89834756D01*
X133397151Y-89852500D01*
X133385295Y-89870244D01*
X133307274Y-90058602D01*
X133267500Y-90258561D01*
X133267500Y-90462439D01*
X133307274Y-90662398D01*
X133385295Y-90850756D01*
X133498563Y-91020274D01*
X133642726Y-91164437D01*
X133812244Y-91277705D01*
X134000602Y-91355726D01*
X134200561Y-91395500D01*
X134404439Y-91395500D01*
X134604398Y-91355726D01*
X134792756Y-91277705D01*
X134962274Y-91164437D01*
X134969592Y-91157119D01*
X135668486Y-91856013D01*
X135692285Y-91885012D01*
X135808010Y-91979985D01*
X135940039Y-92050557D01*
X136083300Y-92094014D01*
X136194953Y-92105011D01*
X136194963Y-92105011D01*
X136232286Y-92108687D01*
X136269609Y-92105011D01*
X141137361Y-92105011D01*
X145619362Y-96587013D01*
X145643161Y-96616012D01*
X145758886Y-96710985D01*
X145890915Y-96781557D01*
X146034176Y-96825014D01*
X146145829Y-96836011D01*
X146145838Y-96836011D01*
X146183161Y-96839687D01*
X146220484Y-96836011D01*
X150623800Y-96836011D01*
X151459300Y-97671512D01*
X151483099Y-97700511D01*
X151577235Y-97777766D01*
X150147711Y-97777766D01*
X150103774Y-97733829D01*
X149934256Y-97620561D01*
X149745898Y-97542540D01*
X149545939Y-97502766D01*
X149342061Y-97502766D01*
X149142102Y-97542540D01*
X148953744Y-97620561D01*
X148784226Y-97733829D01*
X148640063Y-97877992D01*
X148526795Y-98047510D01*
X148448774Y-98235868D01*
X148409000Y-98435827D01*
X148409000Y-98639705D01*
X148448774Y-98839664D01*
X148526795Y-99028022D01*
X148640063Y-99197540D01*
X148784226Y-99341703D01*
X148935551Y-99442815D01*
X148933675Y-99443000D01*
X148933667Y-99443000D01*
X148822014Y-99453997D01*
X148678753Y-99497454D01*
X148546724Y-99568026D01*
X148430999Y-99662999D01*
X148407196Y-99692003D01*
X148269251Y-99829948D01*
X148164500Y-99725197D01*
X148164500Y-99720061D01*
X148124726Y-99520102D01*
X148046705Y-99331744D01*
X147933437Y-99162226D01*
X147789274Y-99018063D01*
X147619756Y-98904795D01*
X147431398Y-98826774D01*
X147231439Y-98787000D01*
X147027561Y-98787000D01*
X146827602Y-98826774D01*
X146639244Y-98904795D01*
X146469726Y-99018063D01*
X146427750Y-99060039D01*
X145802200Y-98434489D01*
X145802200Y-97708525D01*
X145805876Y-97671200D01*
X145802200Y-97633875D01*
X145802200Y-97633867D01*
X145791203Y-97522214D01*
X145747746Y-97378953D01*
X145677174Y-97246924D01*
X145582201Y-97131199D01*
X145553203Y-97107401D01*
X143883304Y-95437503D01*
X143859501Y-95408499D01*
X143743776Y-95313526D01*
X143611747Y-95242954D01*
X143468486Y-95199497D01*
X143356833Y-95188500D01*
X143356822Y-95188500D01*
X143319500Y-95184824D01*
X143282178Y-95188500D01*
X141164300Y-95188500D01*
X140714801Y-94739002D01*
X140690999Y-94709999D01*
X140575274Y-94615026D01*
X140443245Y-94544454D01*
X140299984Y-94500997D01*
X140188331Y-94490000D01*
X140188320Y-94490000D01*
X140150998Y-94486324D01*
X140113676Y-94490000D01*
X138140072Y-94490000D01*
X138140072Y-94400000D01*
X138127812Y-94275518D01*
X138091502Y-94155820D01*
X138032537Y-94045506D01*
X137953185Y-93948815D01*
X137856494Y-93869463D01*
X137746180Y-93810498D01*
X137626482Y-93774188D01*
X137502000Y-93761928D01*
X135802000Y-93761928D01*
X135677518Y-93774188D01*
X135557820Y-93810498D01*
X135447506Y-93869463D01*
X135350815Y-93948815D01*
X135271463Y-94045506D01*
X135212498Y-94155820D01*
X135190487Y-94228380D01*
X135058632Y-94096525D01*
X134815411Y-93934010D01*
X134545158Y-93822068D01*
X134258260Y-93765000D01*
X133965740Y-93765000D01*
X133678842Y-93822068D01*
X133408589Y-93934010D01*
X133165368Y-94096525D01*
X132958525Y-94303368D01*
X132842000Y-94477760D01*
X132725475Y-94303368D01*
X132518632Y-94096525D01*
X132275411Y-93934010D01*
X132005158Y-93822068D01*
X131718260Y-93765000D01*
X131425740Y-93765000D01*
X131138842Y-93822068D01*
X130868589Y-93934010D01*
X130625368Y-94096525D01*
X130418525Y-94303368D01*
X130256010Y-94546589D01*
X130144068Y-94816842D01*
X130087000Y-95103740D01*
X130087000Y-95396260D01*
X130144068Y-95683158D01*
X130256010Y-95953411D01*
X130418525Y-96196632D01*
X130625368Y-96403475D01*
X130868589Y-96565990D01*
X131138842Y-96677932D01*
X131425740Y-96735000D01*
X131718260Y-96735000D01*
X131938408Y-96691210D01*
X132633211Y-97386013D01*
X132657010Y-97415012D01*
X132686008Y-97438810D01*
X132772735Y-97509985D01*
X132904764Y-97580557D01*
X133048025Y-97624014D01*
X133197011Y-97638688D01*
X133234344Y-97635011D01*
X142658390Y-97635011D01*
X143382180Y-98358802D01*
X143382181Y-98994108D01*
X143341063Y-99035226D01*
X143227795Y-99204744D01*
X143149774Y-99393102D01*
X143110000Y-99593061D01*
X143110000Y-99796939D01*
X143149774Y-99996898D01*
X143227795Y-100185256D01*
X143341063Y-100354774D01*
X143485226Y-100498937D01*
X143654744Y-100612205D01*
X143843102Y-100690226D01*
X144043061Y-100730000D01*
X144246939Y-100730000D01*
X144446898Y-100690226D01*
X144635256Y-100612205D01*
X144804774Y-100498937D01*
X144942705Y-100361006D01*
X145294100Y-100712402D01*
X145294100Y-101116463D01*
X145290424Y-101153785D01*
X145294100Y-101191107D01*
X145294100Y-101191117D01*
X145305097Y-101302770D01*
X145340814Y-101420514D01*
X145348554Y-101446031D01*
X145419126Y-101578061D01*
X145450897Y-101616774D01*
X145514099Y-101693786D01*
X145543103Y-101717589D01*
X146000011Y-102174497D01*
X146023814Y-102203501D01*
X146115969Y-102279130D01*
X146094500Y-102387061D01*
X146094500Y-102590939D01*
X146134274Y-102790898D01*
X146180191Y-102901750D01*
X146134274Y-103012602D01*
X146112644Y-103121344D01*
X143672801Y-100681502D01*
X143648998Y-100652498D01*
X143533273Y-100557525D01*
X143401244Y-100486953D01*
X143257983Y-100443496D01*
X143146330Y-100432499D01*
X143146319Y-100432499D01*
X143108997Y-100428823D01*
X143071675Y-100432499D01*
X142056332Y-100432499D01*
X142018999Y-100428822D01*
X141981666Y-100432499D01*
X141870013Y-100443496D01*
X141726752Y-100486953D01*
X141594723Y-100557525D01*
X141478998Y-100652498D01*
X141455195Y-100681502D01*
X141254197Y-100882500D01*
X141249061Y-100882500D01*
X141049102Y-100922274D01*
X140860744Y-101000295D01*
X140691226Y-101113563D01*
X140547063Y-101257726D01*
X140433795Y-101427244D01*
X140355774Y-101615602D01*
X140316000Y-101815561D01*
X140316000Y-102019439D01*
X140355774Y-102219398D01*
X140433795Y-102407756D01*
X140547063Y-102577274D01*
X140691226Y-102721437D01*
X140860744Y-102834705D01*
X141049102Y-102912726D01*
X141249061Y-102952500D01*
X141452939Y-102952500D01*
X141594812Y-102924280D01*
X141576795Y-102951244D01*
X141498774Y-103139602D01*
X141459000Y-103339561D01*
X141459000Y-103543439D01*
X141498774Y-103743398D01*
X141532368Y-103824500D01*
X139063000Y-103824500D01*
X139063000Y-102621211D01*
X139106937Y-102577274D01*
X139220205Y-102407756D01*
X139298226Y-102219398D01*
X139338000Y-102019439D01*
X139338000Y-101815561D01*
X139298226Y-101615602D01*
X139220205Y-101427244D01*
X139106937Y-101257726D01*
X138962774Y-101113563D01*
X138793256Y-101000295D01*
X138604898Y-100922274D01*
X138404939Y-100882500D01*
X138201061Y-100882500D01*
X138001102Y-100922274D01*
X137812744Y-101000295D01*
X137643226Y-101113563D01*
X137499063Y-101257726D01*
X137385795Y-101427244D01*
X137307774Y-101615602D01*
X137268000Y-101815561D01*
X137268000Y-102019439D01*
X137307774Y-102219398D01*
X137385795Y-102407756D01*
X137499063Y-102577274D01*
X137543001Y-102621212D01*
X137543001Y-102823671D01*
X137398398Y-102763774D01*
X137221500Y-102728587D01*
X137221500Y-101129325D01*
X137225176Y-101092000D01*
X137221500Y-101054675D01*
X137221500Y-101054667D01*
X137210503Y-100943014D01*
X137167046Y-100799753D01*
X137096474Y-100667724D01*
X137001501Y-100551999D01*
X136972503Y-100528201D01*
X136290000Y-99845699D01*
X136290000Y-99783561D01*
X136250226Y-99583602D01*
X136172205Y-99395244D01*
X136058937Y-99225726D01*
X135914774Y-99081563D01*
X135745256Y-98968295D01*
X135556898Y-98890274D01*
X135356939Y-98850500D01*
X135153061Y-98850500D01*
X134953102Y-98890274D01*
X134764744Y-98968295D01*
X134595226Y-99081563D01*
X134451063Y-99225726D01*
X134337795Y-99395244D01*
X134259774Y-99583602D01*
X134220000Y-99783561D01*
X134220000Y-99987439D01*
X134259774Y-100187398D01*
X134337795Y-100375756D01*
X134451063Y-100545274D01*
X134595226Y-100689437D01*
X134764744Y-100802705D01*
X134953102Y-100880726D01*
X135153061Y-100920500D01*
X135215199Y-100920500D01*
X135701501Y-101406803D01*
X135701500Y-104547177D01*
X135697824Y-104584500D01*
X135701500Y-104621822D01*
X135701500Y-104621832D01*
X135712497Y-104733485D01*
X135752391Y-104865000D01*
X135755954Y-104876746D01*
X135826526Y-105008776D01*
X135861167Y-105050986D01*
X135921499Y-105124501D01*
X135950503Y-105148304D01*
X136335698Y-105533499D01*
X136359501Y-105562503D01*
X136424741Y-105616044D01*
X136598215Y-105789518D01*
X136563726Y-105812563D01*
X136419563Y-105956726D01*
X136306295Y-106126244D01*
X136228274Y-106314602D01*
X136188500Y-106514561D01*
X136188500Y-106718439D01*
X136228274Y-106918398D01*
X136306295Y-107106756D01*
X136398000Y-107244003D01*
X136398001Y-107671566D01*
X135645569Y-108423999D01*
X132853043Y-108423999D01*
X132812500Y-108420006D01*
X132771957Y-108423999D01*
X132771948Y-108423999D01*
X132650675Y-108435943D01*
X132495067Y-108483146D01*
X132351659Y-108559800D01*
X132225960Y-108662958D01*
X132200109Y-108694458D01*
X131861145Y-109033422D01*
X131718260Y-109005000D01*
X131425740Y-109005000D01*
X131138842Y-109062068D01*
X130868589Y-109174010D01*
X130625368Y-109336525D01*
X130418525Y-109543368D01*
X130256010Y-109786589D01*
X130144068Y-110056842D01*
X130087000Y-110343740D01*
X130087000Y-110636260D01*
X130144068Y-110923158D01*
X130256010Y-111193411D01*
X130418525Y-111436632D01*
X130625368Y-111643475D01*
X130868589Y-111805990D01*
X131052059Y-111881985D01*
X130954744Y-111922295D01*
X130785226Y-112035563D01*
X130641063Y-112179726D01*
X130527795Y-112349244D01*
X130449774Y-112537602D01*
X130410000Y-112737561D01*
X130410000Y-112941439D01*
X130449774Y-113141398D01*
X130527795Y-113329756D01*
X130641063Y-113499274D01*
X130785226Y-113643437D01*
X130954744Y-113756705D01*
X131143102Y-113834726D01*
X131343061Y-113874500D01*
X131546939Y-113874500D01*
X131746898Y-113834726D01*
X131817016Y-113805682D01*
X130960699Y-114662000D01*
X130898561Y-114662000D01*
X130698602Y-114701774D01*
X130510244Y-114779795D01*
X130340726Y-114893063D01*
X130196563Y-115037226D01*
X130083295Y-115206744D01*
X130005274Y-115395102D01*
X129965500Y-115595061D01*
X129965500Y-115733488D01*
X129855093Y-115699996D01*
X129681800Y-115682928D01*
X128617811Y-115682928D01*
X128619691Y-114778689D01*
X128793602Y-114850726D01*
X128993561Y-114890500D01*
X129197439Y-114890500D01*
X129397398Y-114850726D01*
X129585756Y-114772705D01*
X129755274Y-114659437D01*
X129899437Y-114515274D01*
X130012705Y-114345756D01*
X130090726Y-114157398D01*
X130130500Y-113957439D01*
X130130500Y-113753561D01*
X130090726Y-113553602D01*
X130012705Y-113365244D01*
X129899437Y-113195726D01*
X129755274Y-113051563D01*
X129585756Y-112938295D01*
X129397398Y-112860274D01*
X129197439Y-112820500D01*
X128993561Y-112820500D01*
X128793602Y-112860274D01*
X128623533Y-112930719D01*
X128675932Y-87726473D01*
X128714909Y-87328955D01*
X128768801Y-87150455D01*
X128817463Y-87241494D01*
X128896815Y-87338185D01*
X128993506Y-87417537D01*
X129103820Y-87476502D01*
X129223518Y-87512812D01*
X129348000Y-87525072D01*
X130748000Y-87525072D01*
X130872482Y-87512812D01*
X130992180Y-87476502D01*
X131102494Y-87417537D01*
X131199185Y-87338185D01*
X131278537Y-87241494D01*
X131337502Y-87131180D01*
X131373812Y-87011482D01*
X131386072Y-86887000D01*
X131386072Y-86521999D01*
X132309928Y-86521999D01*
X132309928Y-86887000D01*
G37*
%TD.AperFunction*%
D32*
X150857000Y-108623439D02*
X150896774Y-108823398D01*
X150974795Y-109011756D01*
X151088063Y-109181274D01*
X151232226Y-109325437D01*
X151401744Y-109438705D01*
X151425734Y-109448642D01*
X151421000Y-109496707D01*
X151421001Y-111703294D01*
X151436701Y-111862697D01*
X151498742Y-112067220D01*
X151599492Y-112255710D01*
X151676999Y-112350152D01*
X151677000Y-112495811D01*
X151638998Y-112526998D01*
X151615195Y-112556002D01*
X151609208Y-112561989D01*
X151530000Y-112561989D01*
X151530000Y-112420061D01*
X151490226Y-112220102D01*
X151412205Y-112031744D01*
X151298937Y-111862226D01*
X151154774Y-111718063D01*
X151021000Y-111628678D01*
X151021000Y-109496706D01*
X151005300Y-109337303D01*
X150943259Y-109132780D01*
X150842509Y-108944290D01*
X150706922Y-108779078D01*
X150541710Y-108643491D01*
X150378959Y-108556499D01*
X150857000Y-108556499D01*
X150857000Y-108623439D01*
%TA.AperFunction,Conductor*%
D33*
G36*
X150857000Y-108623439D02*
G01*
X150896774Y-108823398D01*
X150974795Y-109011756D01*
X151088063Y-109181274D01*
X151232226Y-109325437D01*
X151401744Y-109438705D01*
X151425734Y-109448642D01*
X151421000Y-109496707D01*
X151421001Y-111703294D01*
X151436701Y-111862697D01*
X151498742Y-112067220D01*
X151599492Y-112255710D01*
X151676999Y-112350152D01*
X151677000Y-112495811D01*
X151638998Y-112526998D01*
X151615195Y-112556002D01*
X151609208Y-112561989D01*
X151530000Y-112561989D01*
X151530000Y-112420061D01*
X151490226Y-112220102D01*
X151412205Y-112031744D01*
X151298937Y-111862226D01*
X151154774Y-111718063D01*
X151021000Y-111628678D01*
X151021000Y-109496706D01*
X151005300Y-109337303D01*
X150943259Y-109132780D01*
X150842509Y-108944290D01*
X150706922Y-108779078D01*
X150541710Y-108643491D01*
X150378959Y-108556499D01*
X150857000Y-108556499D01*
X150857000Y-108623439D01*
G37*
%TD.AperFunction*%
D32*
X156841490Y-101227208D02*
X156551199Y-101517500D01*
X156489061Y-101517500D01*
X156289102Y-101557274D01*
X156100744Y-101635295D01*
X155931226Y-101748563D01*
X155787063Y-101892726D01*
X155673795Y-102062244D01*
X155595774Y-102250602D01*
X155556000Y-102450561D01*
X155556000Y-102654439D01*
X155586644Y-102808500D01*
X150496782Y-102808500D01*
X150474226Y-102695102D01*
X150396205Y-102506744D01*
X150282937Y-102337226D01*
X150239000Y-102293289D01*
X150239000Y-101533801D01*
X150359792Y-101413010D01*
X153182668Y-101413010D01*
X153219990Y-101416686D01*
X153257312Y-101413010D01*
X153257323Y-101413010D01*
X153368976Y-101402013D01*
X153512237Y-101358556D01*
X153644266Y-101287984D01*
X153759991Y-101193011D01*
X153783794Y-101164008D01*
X154344802Y-100603000D01*
X154406939Y-100603000D01*
X154606898Y-100563226D01*
X154795256Y-100485205D01*
X154964774Y-100371937D01*
X155108937Y-100227774D01*
X155222205Y-100058256D01*
X155300226Y-99869898D01*
X155340000Y-99669939D01*
X155340000Y-99466061D01*
X155300226Y-99266102D01*
X155254309Y-99155250D01*
X155300226Y-99044398D01*
X155340000Y-98844439D01*
X155340000Y-98640561D01*
X155300226Y-98440602D01*
X155222205Y-98252244D01*
X155108937Y-98082726D01*
X154964774Y-97938563D01*
X154937756Y-97920510D01*
X156841491Y-97920510D01*
X156841490Y-101227208D01*
%TA.AperFunction,Conductor*%
D33*
G36*
X156841490Y-101227208D02*
G01*
X156551199Y-101517500D01*
X156489061Y-101517500D01*
X156289102Y-101557274D01*
X156100744Y-101635295D01*
X155931226Y-101748563D01*
X155787063Y-101892726D01*
X155673795Y-102062244D01*
X155595774Y-102250602D01*
X155556000Y-102450561D01*
X155556000Y-102654439D01*
X155586644Y-102808500D01*
X150496782Y-102808500D01*
X150474226Y-102695102D01*
X150396205Y-102506744D01*
X150282937Y-102337226D01*
X150239000Y-102293289D01*
X150239000Y-101533801D01*
X150359792Y-101413010D01*
X153182668Y-101413010D01*
X153219990Y-101416686D01*
X153257312Y-101413010D01*
X153257323Y-101413010D01*
X153368976Y-101402013D01*
X153512237Y-101358556D01*
X153644266Y-101287984D01*
X153759991Y-101193011D01*
X153783794Y-101164008D01*
X154344802Y-100603000D01*
X154406939Y-100603000D01*
X154606898Y-100563226D01*
X154795256Y-100485205D01*
X154964774Y-100371937D01*
X155108937Y-100227774D01*
X155222205Y-100058256D01*
X155300226Y-99869898D01*
X155340000Y-99669939D01*
X155340000Y-99466061D01*
X155300226Y-99266102D01*
X155254309Y-99155250D01*
X155300226Y-99044398D01*
X155340000Y-98844439D01*
X155340000Y-98640561D01*
X155300226Y-98440602D01*
X155222205Y-98252244D01*
X155108937Y-98082726D01*
X154964774Y-97938563D01*
X154937756Y-97920510D01*
X156841491Y-97920510D01*
X156841490Y-101227208D01*
G37*
%TD.AperFunction*%
D32*
X169293001Y-91310303D02*
X169293000Y-95696500D01*
X164904301Y-95696500D01*
X165717003Y-94883799D01*
X165746001Y-94860001D01*
X165840974Y-94744276D01*
X165911546Y-94612247D01*
X165928170Y-94557446D01*
X166058781Y-94627259D01*
X166263304Y-94689300D01*
X166476000Y-94710249D01*
X166688697Y-94689300D01*
X166893220Y-94627259D01*
X167081710Y-94526509D01*
X167111001Y-94502471D01*
X167140291Y-94526509D01*
X167328781Y-94627259D01*
X167533304Y-94689300D01*
X167746000Y-94710249D01*
X167958697Y-94689300D01*
X168163220Y-94627259D01*
X168351710Y-94526509D01*
X168516922Y-94390922D01*
X168652509Y-94225710D01*
X168753259Y-94037220D01*
X168815300Y-93832697D01*
X168831000Y-93673294D01*
X168831000Y-91466706D01*
X168815300Y-91307303D01*
X168753259Y-91102780D01*
X168652509Y-90914290D01*
X168516922Y-90749078D01*
X168501440Y-90736372D01*
X168495003Y-90671014D01*
X168451546Y-90527753D01*
X168421892Y-90472275D01*
X168383905Y-90401207D01*
X169293001Y-91310303D01*
%TA.AperFunction,Conductor*%
D33*
G36*
X169293001Y-91310303D02*
G01*
X169293000Y-95696500D01*
X164904301Y-95696500D01*
X165717003Y-94883799D01*
X165746001Y-94860001D01*
X165840974Y-94744276D01*
X165911546Y-94612247D01*
X165928170Y-94557446D01*
X166058781Y-94627259D01*
X166263304Y-94689300D01*
X166476000Y-94710249D01*
X166688697Y-94689300D01*
X166893220Y-94627259D01*
X167081710Y-94526509D01*
X167111001Y-94502471D01*
X167140291Y-94526509D01*
X167328781Y-94627259D01*
X167533304Y-94689300D01*
X167746000Y-94710249D01*
X167958697Y-94689300D01*
X168163220Y-94627259D01*
X168351710Y-94526509D01*
X168516922Y-94390922D01*
X168652509Y-94225710D01*
X168753259Y-94037220D01*
X168815300Y-93832697D01*
X168831000Y-93673294D01*
X168831000Y-91466706D01*
X168815300Y-91307303D01*
X168753259Y-91102780D01*
X168652509Y-90914290D01*
X168516922Y-90749078D01*
X168501440Y-90736372D01*
X168495003Y-90671014D01*
X168451546Y-90527753D01*
X168421892Y-90472275D01*
X168383905Y-90401207D01*
X169293001Y-91310303D01*
G37*
%TD.AperFunction*%
D32*
X174418045Y-85852409D02*
X174768708Y-85958280D01*
X175092125Y-86130244D01*
X175375984Y-86361754D01*
X175609465Y-86643986D01*
X175783683Y-86966195D01*
X175892002Y-87316114D01*
X175933500Y-87710943D01*
X175933500Y-92456000D01*
X170813000Y-92456000D01*
X170813000Y-91032833D01*
X170816677Y-90995500D01*
X170802003Y-90846514D01*
X170758546Y-90703253D01*
X170687974Y-90571224D01*
X170616799Y-90484497D01*
X170593001Y-90455499D01*
X170564003Y-90431701D01*
X167855000Y-87722699D01*
X167855000Y-87610740D01*
X167797932Y-87323842D01*
X167685990Y-87053589D01*
X167523475Y-86810368D01*
X167316632Y-86603525D01*
X167073411Y-86441010D01*
X166803158Y-86329068D01*
X166516260Y-86272000D01*
X166223740Y-86272000D01*
X165936842Y-86329068D01*
X165666589Y-86441010D01*
X165463508Y-86576704D01*
X164700303Y-85813500D01*
X174021221Y-85813500D01*
X174418045Y-85852409D01*
%TA.AperFunction,Conductor*%
D33*
G36*
X174418045Y-85852409D02*
G01*
X174768708Y-85958280D01*
X175092125Y-86130244D01*
X175375984Y-86361754D01*
X175609465Y-86643986D01*
X175783683Y-86966195D01*
X175892002Y-87316114D01*
X175933500Y-87710943D01*
X175933500Y-92456000D01*
X170813000Y-92456000D01*
X170813000Y-91032833D01*
X170816677Y-90995500D01*
X170802003Y-90846514D01*
X170758546Y-90703253D01*
X170687974Y-90571224D01*
X170616799Y-90484497D01*
X170593001Y-90455499D01*
X170564003Y-90431701D01*
X167855000Y-87722699D01*
X167855000Y-87610740D01*
X167797932Y-87323842D01*
X167685990Y-87053589D01*
X167523475Y-86810368D01*
X167316632Y-86603525D01*
X167073411Y-86441010D01*
X166803158Y-86329068D01*
X166516260Y-86272000D01*
X166223740Y-86272000D01*
X165936842Y-86329068D01*
X165666589Y-86441010D01*
X165463508Y-86576704D01*
X164700303Y-85813500D01*
X174021221Y-85813500D01*
X174418045Y-85852409D01*
G37*
%TD.AperFunction*%
D32*
X141876744Y-85753205D02*
X142065102Y-85831226D01*
X142265061Y-85871000D01*
X142468939Y-85871000D01*
X142668898Y-85831226D01*
X142857256Y-85753205D01*
X142938500Y-85698920D01*
X143019744Y-85753205D01*
X143208102Y-85831226D01*
X143408061Y-85871000D01*
X143611939Y-85871000D01*
X143811898Y-85831226D01*
X143882343Y-85802047D01*
X143888617Y-85803950D01*
X143985581Y-85813500D01*
X144018000Y-85816693D01*
X144050419Y-85813500D01*
X154538698Y-85813500D01*
X154036408Y-86315791D01*
X153816260Y-86272000D01*
X153523740Y-86272000D01*
X153236842Y-86329068D01*
X152966589Y-86441010D01*
X152723368Y-86603525D01*
X152516525Y-86810368D01*
X152400000Y-86984760D01*
X152283475Y-86810368D01*
X152076632Y-86603525D01*
X151833411Y-86441010D01*
X151563158Y-86329068D01*
X151276260Y-86272000D01*
X150983740Y-86272000D01*
X150696842Y-86329068D01*
X150426589Y-86441010D01*
X150183368Y-86603525D01*
X149976525Y-86810368D01*
X149860000Y-86984760D01*
X149743475Y-86810368D01*
X149536632Y-86603525D01*
X149293411Y-86441010D01*
X149023158Y-86329068D01*
X148736260Y-86272000D01*
X148443740Y-86272000D01*
X148156842Y-86329068D01*
X147886589Y-86441010D01*
X147643368Y-86603525D01*
X147436525Y-86810368D01*
X147274010Y-87053589D01*
X147162068Y-87323842D01*
X147105000Y-87610740D01*
X147105000Y-87903260D01*
X147162068Y-88190158D01*
X147274010Y-88460411D01*
X147436525Y-88703632D01*
X147643368Y-88910475D01*
X147886589Y-89072990D01*
X148156842Y-89184932D01*
X148443740Y-89242000D01*
X148736260Y-89242000D01*
X148956408Y-89198209D01*
X149936710Y-90178512D01*
X149960509Y-90207511D01*
X149989507Y-90231309D01*
X150076233Y-90302484D01*
X150153105Y-90343573D01*
X150208263Y-90373056D01*
X150351524Y-90416513D01*
X150463177Y-90427510D01*
X150463186Y-90427510D01*
X150500509Y-90431186D01*
X150537832Y-90427510D01*
X151854036Y-90427510D01*
X151800454Y-90527754D01*
X151793411Y-90550974D01*
X151771815Y-90622167D01*
X151623219Y-90542741D01*
X151418696Y-90480700D01*
X151206000Y-90459751D01*
X150993303Y-90480700D01*
X150788780Y-90542741D01*
X150600290Y-90643491D01*
X150571000Y-90667529D01*
X150541710Y-90643491D01*
X150353219Y-90542741D01*
X150148696Y-90480700D01*
X149936000Y-90459751D01*
X149723303Y-90480700D01*
X149518780Y-90542741D01*
X149330290Y-90643491D01*
X149301000Y-90667529D01*
X149271710Y-90643491D01*
X149083219Y-90542741D01*
X148878696Y-90480700D01*
X148666000Y-90459751D01*
X148453303Y-90480700D01*
X148248780Y-90542741D01*
X148060290Y-90643491D01*
X148031000Y-90667529D01*
X148001710Y-90643491D01*
X147813219Y-90542741D01*
X147608696Y-90480700D01*
X147396000Y-90459751D01*
X147183303Y-90480700D01*
X146978780Y-90542741D01*
X146790290Y-90643491D01*
X146761000Y-90667529D01*
X146731710Y-90643491D01*
X146543219Y-90542741D01*
X146338696Y-90480700D01*
X146126000Y-90459751D01*
X146110990Y-90461229D01*
X146110990Y-90144333D01*
X146114666Y-90107010D01*
X146110990Y-90069687D01*
X146110990Y-90069677D01*
X146099993Y-89958024D01*
X146056536Y-89814763D01*
X146029523Y-89764226D01*
X145985964Y-89682733D01*
X145914789Y-89596007D01*
X145890991Y-89567009D01*
X145861992Y-89543210D01*
X145252782Y-88934001D01*
X145228980Y-88904998D01*
X145113255Y-88810025D01*
X144981226Y-88739453D01*
X144837965Y-88695996D01*
X144726312Y-88684999D01*
X144726301Y-88684999D01*
X144688979Y-88681323D01*
X144677635Y-88682440D01*
X144825990Y-88460411D01*
X144937932Y-88190158D01*
X144995000Y-87903260D01*
X144995000Y-87610740D01*
X144937932Y-87323842D01*
X144825990Y-87053589D01*
X144663475Y-86810368D01*
X144456632Y-86603525D01*
X144213411Y-86441010D01*
X143943158Y-86329068D01*
X143656260Y-86272000D01*
X143363740Y-86272000D01*
X143076842Y-86329068D01*
X142806589Y-86441010D01*
X142563368Y-86603525D01*
X142431513Y-86735380D01*
X142409502Y-86662820D01*
X142350537Y-86552506D01*
X142271185Y-86455815D01*
X142174494Y-86376463D01*
X142064180Y-86317498D01*
X141944482Y-86281188D01*
X141820000Y-86268928D01*
X140120000Y-86268928D01*
X139995518Y-86281188D01*
X139875820Y-86317498D01*
X139765506Y-86376463D01*
X139735989Y-86400687D01*
X139113622Y-85778321D01*
X139174256Y-85753205D01*
X139255500Y-85698920D01*
X139336744Y-85753205D01*
X139525102Y-85831226D01*
X139725061Y-85871000D01*
X139928939Y-85871000D01*
X140128898Y-85831226D01*
X140317256Y-85753205D01*
X140462000Y-85656490D01*
X140606744Y-85753205D01*
X140795102Y-85831226D01*
X140995061Y-85871000D01*
X141198939Y-85871000D01*
X141398898Y-85831226D01*
X141587256Y-85753205D01*
X141732000Y-85656490D01*
X141876744Y-85753205D01*
%TA.AperFunction,Conductor*%
D33*
G36*
X141876744Y-85753205D02*
G01*
X142065102Y-85831226D01*
X142265061Y-85871000D01*
X142468939Y-85871000D01*
X142668898Y-85831226D01*
X142857256Y-85753205D01*
X142938500Y-85698920D01*
X143019744Y-85753205D01*
X143208102Y-85831226D01*
X143408061Y-85871000D01*
X143611939Y-85871000D01*
X143811898Y-85831226D01*
X143882343Y-85802047D01*
X143888617Y-85803950D01*
X143985581Y-85813500D01*
X144018000Y-85816693D01*
X144050419Y-85813500D01*
X154538698Y-85813500D01*
X154036408Y-86315791D01*
X153816260Y-86272000D01*
X153523740Y-86272000D01*
X153236842Y-86329068D01*
X152966589Y-86441010D01*
X152723368Y-86603525D01*
X152516525Y-86810368D01*
X152400000Y-86984760D01*
X152283475Y-86810368D01*
X152076632Y-86603525D01*
X151833411Y-86441010D01*
X151563158Y-86329068D01*
X151276260Y-86272000D01*
X150983740Y-86272000D01*
X150696842Y-86329068D01*
X150426589Y-86441010D01*
X150183368Y-86603525D01*
X149976525Y-86810368D01*
X149860000Y-86984760D01*
X149743475Y-86810368D01*
X149536632Y-86603525D01*
X149293411Y-86441010D01*
X149023158Y-86329068D01*
X148736260Y-86272000D01*
X148443740Y-86272000D01*
X148156842Y-86329068D01*
X147886589Y-86441010D01*
X147643368Y-86603525D01*
X147436525Y-86810368D01*
X147274010Y-87053589D01*
X147162068Y-87323842D01*
X147105000Y-87610740D01*
X147105000Y-87903260D01*
X147162068Y-88190158D01*
X147274010Y-88460411D01*
X147436525Y-88703632D01*
X147643368Y-88910475D01*
X147886589Y-89072990D01*
X148156842Y-89184932D01*
X148443740Y-89242000D01*
X148736260Y-89242000D01*
X148956408Y-89198209D01*
X149936710Y-90178512D01*
X149960509Y-90207511D01*
X149989507Y-90231309D01*
X150076233Y-90302484D01*
X150153105Y-90343573D01*
X150208263Y-90373056D01*
X150351524Y-90416513D01*
X150463177Y-90427510D01*
X150463186Y-90427510D01*
X150500509Y-90431186D01*
X150537832Y-90427510D01*
X151854036Y-90427510D01*
X151800454Y-90527754D01*
X151793411Y-90550974D01*
X151771815Y-90622167D01*
X151623219Y-90542741D01*
X151418696Y-90480700D01*
X151206000Y-90459751D01*
X150993303Y-90480700D01*
X150788780Y-90542741D01*
X150600290Y-90643491D01*
X150571000Y-90667529D01*
X150541710Y-90643491D01*
X150353219Y-90542741D01*
X150148696Y-90480700D01*
X149936000Y-90459751D01*
X149723303Y-90480700D01*
X149518780Y-90542741D01*
X149330290Y-90643491D01*
X149301000Y-90667529D01*
X149271710Y-90643491D01*
X149083219Y-90542741D01*
X148878696Y-90480700D01*
X148666000Y-90459751D01*
X148453303Y-90480700D01*
X148248780Y-90542741D01*
X148060290Y-90643491D01*
X148031000Y-90667529D01*
X148001710Y-90643491D01*
X147813219Y-90542741D01*
X147608696Y-90480700D01*
X147396000Y-90459751D01*
X147183303Y-90480700D01*
X146978780Y-90542741D01*
X146790290Y-90643491D01*
X146761000Y-90667529D01*
X146731710Y-90643491D01*
X146543219Y-90542741D01*
X146338696Y-90480700D01*
X146126000Y-90459751D01*
X146110990Y-90461229D01*
X146110990Y-90144333D01*
X146114666Y-90107010D01*
X146110990Y-90069687D01*
X146110990Y-90069677D01*
X146099993Y-89958024D01*
X146056536Y-89814763D01*
X146029523Y-89764226D01*
X145985964Y-89682733D01*
X145914789Y-89596007D01*
X145890991Y-89567009D01*
X145861992Y-89543210D01*
X145252782Y-88934001D01*
X145228980Y-88904998D01*
X145113255Y-88810025D01*
X144981226Y-88739453D01*
X144837965Y-88695996D01*
X144726312Y-88684999D01*
X144726301Y-88684999D01*
X144688979Y-88681323D01*
X144677635Y-88682440D01*
X144825990Y-88460411D01*
X144937932Y-88190158D01*
X144995000Y-87903260D01*
X144995000Y-87610740D01*
X144937932Y-87323842D01*
X144825990Y-87053589D01*
X144663475Y-86810368D01*
X144456632Y-86603525D01*
X144213411Y-86441010D01*
X143943158Y-86329068D01*
X143656260Y-86272000D01*
X143363740Y-86272000D01*
X143076842Y-86329068D01*
X142806589Y-86441010D01*
X142563368Y-86603525D01*
X142431513Y-86735380D01*
X142409502Y-86662820D01*
X142350537Y-86552506D01*
X142271185Y-86455815D01*
X142174494Y-86376463D01*
X142064180Y-86317498D01*
X141944482Y-86281188D01*
X141820000Y-86268928D01*
X140120000Y-86268928D01*
X139995518Y-86281188D01*
X139875820Y-86317498D01*
X139765506Y-86376463D01*
X139735989Y-86400687D01*
X139113622Y-85778321D01*
X139174256Y-85753205D01*
X139255500Y-85698920D01*
X139336744Y-85753205D01*
X139525102Y-85831226D01*
X139725061Y-85871000D01*
X139928939Y-85871000D01*
X140128898Y-85831226D01*
X140317256Y-85753205D01*
X140462000Y-85656490D01*
X140606744Y-85753205D01*
X140795102Y-85831226D01*
X140995061Y-85871000D01*
X141198939Y-85871000D01*
X141398898Y-85831226D01*
X141587256Y-85753205D01*
X141732000Y-85656490D01*
X141876744Y-85753205D01*
G37*
%TD.AperFunction*%
D32*
X139035000Y-87849302D02*
X139034999Y-88829678D01*
X139031323Y-88867001D01*
X139034999Y-88904323D01*
X139034999Y-88904333D01*
X139045996Y-89015986D01*
X139082904Y-89137658D01*
X139089453Y-89159247D01*
X139160025Y-89291277D01*
X139199870Y-89339827D01*
X139254998Y-89407002D01*
X139284001Y-89430804D01*
X139320243Y-89467046D01*
X139277063Y-89510226D01*
X139163795Y-89679744D01*
X139085774Y-89868102D01*
X139046000Y-90068061D01*
X139046000Y-90135001D01*
X136733488Y-90135001D01*
X135431989Y-88833503D01*
X135408186Y-88804499D01*
X135292461Y-88709526D01*
X135160432Y-88638954D01*
X135017224Y-88595513D01*
X134962274Y-88540563D01*
X134792756Y-88427295D01*
X134604398Y-88349274D01*
X134404439Y-88309500D01*
X134200561Y-88309500D01*
X134082943Y-88332896D01*
X134091226Y-88312898D01*
X134131000Y-88112939D01*
X134131000Y-87909061D01*
X134091226Y-87709102D01*
X134014998Y-87525072D01*
X134348000Y-87525072D01*
X134472072Y-87512852D01*
X134518061Y-87522000D01*
X134721939Y-87522000D01*
X134921898Y-87482226D01*
X135110256Y-87404205D01*
X135279774Y-87290937D01*
X135423937Y-87146774D01*
X135537205Y-86977256D01*
X135615226Y-86788898D01*
X135655000Y-86588939D01*
X135655000Y-86479490D01*
X137665189Y-86479490D01*
X139035000Y-87849302D01*
%TA.AperFunction,Conductor*%
D33*
G36*
X139035000Y-87849302D02*
G01*
X139034999Y-88829678D01*
X139031323Y-88867001D01*
X139034999Y-88904323D01*
X139034999Y-88904333D01*
X139045996Y-89015986D01*
X139082904Y-89137658D01*
X139089453Y-89159247D01*
X139160025Y-89291277D01*
X139199870Y-89339827D01*
X139254998Y-89407002D01*
X139284001Y-89430804D01*
X139320243Y-89467046D01*
X139277063Y-89510226D01*
X139163795Y-89679744D01*
X139085774Y-89868102D01*
X139046000Y-90068061D01*
X139046000Y-90135001D01*
X136733488Y-90135001D01*
X135431989Y-88833503D01*
X135408186Y-88804499D01*
X135292461Y-88709526D01*
X135160432Y-88638954D01*
X135017224Y-88595513D01*
X134962274Y-88540563D01*
X134792756Y-88427295D01*
X134604398Y-88349274D01*
X134404439Y-88309500D01*
X134200561Y-88309500D01*
X134082943Y-88332896D01*
X134091226Y-88312898D01*
X134131000Y-88112939D01*
X134131000Y-87909061D01*
X134091226Y-87709102D01*
X134014998Y-87525072D01*
X134348000Y-87525072D01*
X134472072Y-87512852D01*
X134518061Y-87522000D01*
X134721939Y-87522000D01*
X134921898Y-87482226D01*
X135110256Y-87404205D01*
X135279774Y-87290937D01*
X135423937Y-87146774D01*
X135537205Y-86977256D01*
X135615226Y-86788898D01*
X135655000Y-86588939D01*
X135655000Y-86479490D01*
X137665189Y-86479490D01*
X139035000Y-87849302D01*
G37*
%TD.AperFunction*%
%TD*%
M02*
